<svg width="12" height="12" viewBox="0 0 12 12" fill="none" xmlns="http://www.w3.org/2000/svg">
<g clip-path="url(#clip0_6579_56043)">
<path d="M10.492 1.11953C10.0357 0.663281 9.29824 0.663281 8.84199 1.11953L8.21491 1.74453L10.2545 3.78411L10.8816 3.15703C11.3378 2.70078 11.3378 1.96328 10.8816 1.50703L10.492 1.11953ZM4.25866 5.70286C4.13158 5.82995 4.03366 5.9862 3.97741 6.15911L3.36074 8.00911C3.30033 8.18828 3.34824 8.3862 3.48158 8.52161C3.61491 8.65703 3.81283 8.70286 3.99408 8.64245L5.84408 8.02578C6.01491 7.96953 6.17116 7.87161 6.30032 7.74453L9.78574 4.25703L7.74408 2.21536L4.25866 5.70286ZM2.66699 2.00078C1.56283 2.00078 0.666992 2.89661 0.666992 4.00078V9.33411C0.666992 10.4383 1.56283 11.3341 2.66699 11.3341H8.00033C9.10449 11.3341 10.0003 10.4383 10.0003 9.33411V7.33411C10.0003 6.96536 9.70241 6.66745 9.33366 6.66745C8.96491 6.66745 8.66699 6.96536 8.66699 7.33411V9.33411C8.66699 9.70286 8.36908 10.0008 8.00033 10.0008H2.66699C2.29824 10.0008 2.00033 9.70286 2.00033 9.33411V4.00078C2.00033 3.63203 2.29824 3.33411 2.66699 3.33411H4.66699C5.03574 3.33411 5.33366 3.0362 5.33366 2.66745C5.33366 2.2987 5.03574 2.00078 4.66699 2.00078H2.66699Z" fill="#1193F0"/>
</g>
<defs>
<clipPath id="clip0_6579_56043">
<rect width="10.6667" height="10.6667" fill="white" transform="translate(0.666992 0.666992)"/>
</clipPath>
</defs>
</svg>
