<svg width="24" height="24" viewBox="0 0 24 24" fill="none" xmlns="http://www.w3.org/2000/svg">
<g clip-path="url(#clip0_113_308)">
<path d="M19.4969 9.20625C19.5969 9.47813 19.5125 9.78125 19.2969 9.975L17.9437 11.2063C17.9781 11.4656 17.9969 11.7312 17.9969 12C17.9969 12.2688 17.9781 12.5344 17.9437 12.7937L19.2969 14.025C19.5125 14.2188 19.5969 14.5219 19.4969 14.7937C19.3594 15.1656 19.1937 15.5219 19.0031 15.8656L18.8562 16.1187C18.65 16.4625 18.4187 16.7875 18.1656 17.0938C17.9812 17.3188 17.675 17.3937 17.4 17.3062L15.6594 16.7531C15.2406 17.075 14.7781 17.3438 14.2844 17.5469L13.8937 19.3313C13.8312 19.6156 13.6125 19.8406 13.325 19.8875C12.8937 19.9594 12.45 19.9969 11.9969 19.9969C11.5437 19.9969 11.1 19.9594 10.6687 19.8875C10.3812 19.8406 10.1625 19.6156 10.1 19.3313L9.70937 17.5469C9.21562 17.3438 8.75312 17.075 8.33437 16.7531L6.59687 17.3094C6.32187 17.3969 6.01562 17.3188 5.83125 17.0969C5.57812 16.7906 5.34687 16.4656 5.14062 16.1219L4.99375 15.8687C4.80312 15.525 4.6375 15.1687 4.5 14.7969C4.4 14.525 4.48437 14.2219 4.7 14.0281L6.05312 12.7969C6.01875 12.5344 6 12.2688 6 12C6 11.7312 6.01875 11.4656 6.05312 11.2063L4.7 9.975C4.48437 9.78125 4.4 9.47813 4.5 9.20625C4.6375 8.83438 4.80312 8.47813 4.99375 8.13438L5.14062 7.88125C5.34687 7.5375 5.57812 7.2125 5.83125 6.90625C6.01562 6.68125 6.32187 6.60625 6.59687 6.69375L8.3375 7.24688C8.75625 6.925 9.21875 6.65625 9.7125 6.45312L10.1031 4.66875C10.1656 4.38437 10.3844 4.15937 10.6719 4.1125C11.1031 4.0375 11.5469 4 12 4C12.4531 4 12.8969 4.0375 13.3281 4.10938C13.6156 4.15625 13.8344 4.38125 13.8969 4.66562L14.2875 6.45C14.7812 6.65313 15.2437 6.92188 15.6625 7.24375L17.4031 6.69062C17.6781 6.60312 17.9844 6.68125 18.1687 6.90313C18.4219 7.20938 18.6531 7.53437 18.8594 7.87812L19.0062 8.13125C19.1969 8.475 19.3625 8.83125 19.5 9.20312L19.4969 9.20625ZM12 14.5C12.663 14.5 13.2989 14.2366 13.7678 13.7678C14.2366 13.2989 14.5 12.663 14.5 12C14.5 11.337 14.2366 10.7011 13.7678 10.2322C13.2989 9.76339 12.663 9.5 12 9.5C11.337 9.5 10.7011 9.76339 10.2322 10.2322C9.76339 10.7011 9.5 11.337 9.5 12C9.5 12.663 9.76339 13.2989 10.2322 13.7678C10.7011 14.2366 11.337 14.5 12 14.5Z" fill="white"/>
</g>
<defs>
<clipPath id="clip0_113_308">
<rect width="16" height="16" fill="white" transform="translate(4 4)"/>
</clipPath>
</defs>
</svg>
