<svg width="16" height="17" viewBox="0 0 16 17" fill="none" xmlns="http://www.w3.org/2000/svg">
<mask id="mask0_11451_120454" style="mask-type:alpha" maskUnits="userSpaceOnUse" x="0" y="0" width="16" height="17">
<rect y="0.326172" width="16" height="16" fill="#D9D9D9"/>
</mask>
<g mask="url(#mask0_11451_120454)">
<path d="M2.66243 12.3262C2.29577 12.3262 1.98188 12.1956 1.72077 11.9345C1.45966 11.6734 1.3291 11.3595 1.3291 10.9928V3.65951C1.3291 3.29284 1.45966 2.97895 1.72077 2.71784C1.98188 2.45673 2.29577 2.32617 2.66243 2.32617H7.3291C7.51799 2.32617 7.67632 2.39006 7.8041 2.51784C7.93188 2.64562 7.99577 2.80395 7.99577 2.99284C7.99577 3.18173 7.93188 3.34006 7.8041 3.46784C7.67632 3.59562 7.51799 3.65951 7.3291 3.65951H2.66243V10.9928H13.3291V9.65951C13.3291 9.47062 13.393 9.31228 13.5208 9.18451C13.6485 9.05673 13.8069 8.99284 13.9958 8.99284C14.1847 8.99284 14.343 9.05673 14.4708 9.18451C14.5985 9.31228 14.6624 9.47062 14.6624 9.65951V10.9928C14.6624 11.3595 14.5319 11.6734 14.2708 11.9345C14.0097 12.1956 13.6958 12.3262 13.3291 12.3262H11.3291L11.7958 12.7928C11.8624 12.8595 11.9124 12.9345 11.9458 13.0178C11.9791 13.1012 11.9958 13.1873 11.9958 13.2762V13.6595C11.9958 13.8484 11.9319 14.0067 11.8041 14.1345C11.6763 14.2623 11.518 14.3262 11.3291 14.3262H4.66243C4.47355 14.3262 4.31521 14.2623 4.18743 14.1345C4.05966 14.0067 3.99577 13.8484 3.99577 13.6595V13.2762C3.99577 13.1873 4.01243 13.1012 4.04577 13.0178C4.0791 12.9345 4.1291 12.8595 4.19577 12.7928L4.66243 12.3262H2.66243ZM9.3291 7.77617V2.99284C9.3291 2.80395 9.39299 2.64562 9.52077 2.51784C9.64855 2.39006 9.80688 2.32617 9.99577 2.32617C10.1847 2.32617 10.343 2.39006 10.4708 2.51784C10.5985 2.64562 10.6624 2.80395 10.6624 2.99284V7.77617L11.9291 6.52617C12.0513 6.40395 12.2041 6.34006 12.3874 6.33451C12.5708 6.32895 12.7291 6.39284 12.8624 6.52617C12.9847 6.64839 13.0458 6.80395 13.0458 6.99284C13.0458 7.18173 12.9847 7.33728 12.8624 7.45951L9.99577 10.3262L7.1291 7.45951C7.00688 7.33728 6.94299 7.18451 6.93743 7.00117C6.93188 6.81784 6.99577 6.65951 7.1291 6.52617C7.25132 6.40395 7.40688 6.34284 7.59577 6.34284C7.78466 6.34284 7.94021 6.40395 8.06243 6.52617L9.3291 7.77617Z" fill="white"/>
</g>
</svg>
