<svg width="10" height="12" viewBox="0 0 10 12" fill="none" xmlns="http://www.w3.org/2000/svg">
<path d="M6.94611 9.50488C6.46945 10.3305 5.77406 10.8658 4.85996 11.1107C3.94586 11.3556 3.07601 11.2398 2.2504 10.7631C1.42479 10.2864 0.889517 9.59105 0.644585 8.67695C0.399653 7.76285 0.515521 6.89299 0.992188 6.06738L3.53594 1.66148C3.87969 1.06609 4.38026 0.680316 5.03766 0.504166C5.69506 0.328016 6.32146 0.411816 6.91685 0.755566C7.51224 1.09932 7.89801 1.59989 8.07416 2.25729C8.25031 2.91469 8.16651 3.54109 7.82276 4.13648L5.41651 8.30423C5.20568 8.6694 4.89991 8.90567 4.49921 9.01304C4.09851 9.12041 3.71557 9.06867 3.3504 8.85784C2.98523 8.64701 2.74896 8.34124 2.64159 7.94054C2.53422 7.53984 2.58595 7.1569 2.79679 6.79173L5.34054 2.38582L6.29316 2.93582L3.74941 7.34173C3.68983 7.44493 3.6743 7.54975 3.70282 7.65618C3.73134 7.76262 3.7972 7.84563 3.9004 7.90521C4.0036 7.96479 4.10842 7.98033 4.21486 7.95181C4.32129 7.92329 4.4043 7.85743 4.46389 7.75423L6.87014 3.58648C7.0547 3.24848 7.10031 2.89905 7.00698 2.53821C6.91365 2.17737 6.70027 1.90069 6.36685 1.70819C6.03343 1.51569 5.68515 1.4681 5.32202 1.5654C4.95888 1.6627 4.68107 1.87806 4.48857 2.21148L1.94482 6.61738C1.61146 7.17644 1.52981 7.76703 1.69986 8.38915C1.86992 9.01128 2.23676 9.48505 2.8004 9.81047C3.3561 10.1313 3.94188 10.2075 4.55775 10.0392C5.17361 9.87078 5.65219 9.50935 5.99348 8.95488L8.67473 4.31082L9.62736 4.86082L6.94611 9.50488Z" fill="#8A9299"/>
</svg>
