<svg width="12" height="12" viewBox="0 0 12 12" fill="none" xmlns="http://www.w3.org/2000/svg">
<path d="M0.241211 11.5V8.90278L8.16909 0.851389C8.28921 0.739352 8.42195 0.652778 8.56729 0.591667C8.71263 0.530556 8.86519 0.5 9.02494 0.5C9.1851 0.5 9.34026 0.530556 9.49041 0.591667C9.64056 0.652778 9.77069 0.744444 9.88079 0.866667L10.7066 1.72222C10.8267 1.83426 10.9144 1.96667 10.9697 2.11944C11.0249 2.27222 11.0524 2.425 11.052 2.57778C11.052 2.74074 11.0245 2.89617 10.9697 3.04406C10.9148 3.19194 10.8271 3.3268 10.7066 3.44861L2.79375 11.5H0.241211ZM9.00993 3.43333L9.85077 2.57778L9.00993 1.72222L8.16909 2.57778L9.00993 3.43333Z" fill="#376FF7"/>
</svg>
