<svg width="12" height="11" viewBox="0 0 12 11" fill="none" xmlns="http://www.w3.org/2000/svg">
<g clip-path="url(#clip0_2594_11605)">
<path d="M6.00008 10.8332C7.41457 10.8332 8.77112 10.2713 9.77132 9.27107C10.7715 8.27088 11.3334 6.91432 11.3334 5.49984C11.3334 4.08535 10.7715 2.7288 9.77132 1.7286C8.77112 0.728407 7.41457 0.166504 6.00008 0.166504C4.58559 0.166504 3.22904 0.728407 2.22885 1.7286C1.22865 2.7288 0.666748 4.08535 0.666748 5.49984C0.666748 6.91432 1.22865 8.27088 2.22885 9.27107C3.22904 10.2713 4.58559 10.8332 6.00008 10.8332ZM5.16675 7.1665H5.66675V5.83317H5.16675C4.88966 5.83317 4.66675 5.61025 4.66675 5.33317C4.66675 5.05609 4.88966 4.83317 5.16675 4.83317H6.16675C6.44383 4.83317 6.66675 5.05609 6.66675 5.33317V7.1665H6.83341C7.1105 7.1665 7.33341 7.38942 7.33341 7.6665C7.33341 7.94359 7.1105 8.1665 6.83341 8.1665H5.16675C4.88966 8.1665 4.66675 7.94359 4.66675 7.6665C4.66675 7.38942 4.88966 7.1665 5.16675 7.1665ZM6.00008 2.83317C6.17689 2.83317 6.34646 2.90341 6.47149 3.02843C6.59651 3.15346 6.66675 3.32303 6.66675 3.49984C6.66675 3.67665 6.59651 3.84622 6.47149 3.97124C6.34646 4.09627 6.17689 4.1665 6.00008 4.1665C5.82327 4.1665 5.6537 4.09627 5.52868 3.97124C5.40365 3.84622 5.33341 3.67665 5.33341 3.49984C5.33341 3.32303 5.40365 3.15346 5.52868 3.02843C5.6537 2.90341 5.82327 2.83317 6.00008 2.83317Z" fill="white"/>
</g>
<defs>
<clipPath id="clip0_2594_11605">
<rect width="10.6667" height="10.6667" fill="white" transform="translate(0.666748 0.166504)"/>
</clipPath>
</defs>
</svg>
