<svg width="10" height="11" viewBox="0 0 10 11" fill="none" xmlns="http://www.w3.org/2000/svg">
<g clip-path="url(#clip0_2594_11587)">
<path d="M4.99992 5.49984C5.70716 5.49984 6.38544 5.21889 6.88554 4.71879C7.38563 4.21869 7.66659 3.54041 7.66659 2.83317C7.66659 2.12593 7.38563 1.44765 6.88554 0.947553C6.38544 0.447455 5.70716 0.166504 4.99992 0.166504C4.29267 0.166504 3.6144 0.447455 3.1143 0.947553C2.6142 1.44765 2.33325 2.12593 2.33325 2.83317C2.33325 3.54041 2.6142 4.21869 3.1143 4.71879C3.6144 5.21889 4.29267 5.49984 4.99992 5.49984ZM4.04784 6.49984C1.99575 6.49984 0.333252 8.16234 0.333252 10.2144C0.333252 10.5561 0.610335 10.8332 0.952002 10.8332H9.04784C9.3895 10.8332 9.66659 10.5561 9.66659 10.2144C9.66659 8.16234 8.00409 6.49984 5.952 6.49984H4.04784Z" fill="white"/>
</g>
<defs>
<clipPath id="clip0_2594_11587">
<rect width="9.33333" height="10.6667" fill="white" transform="translate(0.333252 0.166504)"/>
</clipPath>
</defs>
</svg>
