<svg width="16" height="17" viewBox="0 0 16 17" fill="none" xmlns="http://www.w3.org/2000/svg">
<g clip-path="url(#clip0_3877_6935)">
<path d="M0.999951 3.49979H11V1.49979C11 1.09666 11.2437 0.731037 11.6187 0.574787C11.9937 0.418537 12.4218 0.506037 12.7093 0.790412L15.7093 3.79041C15.8968 3.97791 16.0031 4.23104 16.0031 4.49666C16.0031 4.76229 15.8968 5.01541 15.7093 5.20291L12.7093 8.20291C12.4218 8.49041 11.9937 8.57479 11.6187 8.41854C11.2437 8.26229 11 7.89979 11 7.49354V5.49979H0.999951C0.446826 5.49979 -4.88281e-05 5.05291 -4.88281e-05 4.49979C-4.88281e-05 3.94666 0.446826 3.49979 0.999951 3.49979ZM15 11.4998C15.5531 11.4998 16 11.9467 16 12.4998C16 13.0529 15.5531 13.4998 15 13.4998H4.99995V15.4998C4.99995 15.9029 4.7562 16.2685 4.3812 16.4248C4.0062 16.581 3.57808 16.4935 3.29058 16.2092L0.290576 13.2092C0.103076 13.0217 -0.00317383 12.7685 -0.00317383 12.5029C-0.00317383 12.2373 0.103076 11.9842 0.290576 11.7967L3.29058 8.79666C3.57808 8.50916 4.0062 8.42479 4.3812 8.58104C4.7562 8.73729 4.99995 9.09979 4.99995 9.50604V11.506H15V11.4998Z" fill="white"/>
</g>
<defs>
<clipPath id="clip0_3877_6935">
<rect width="16" height="16" fill="white" transform="translate(0 0.5)"/>
</clipPath>
</defs>
</svg>
