<svg width="48" height="48" viewBox="0 0 48 48" fill="none" xmlns="http://www.w3.org/2000/svg">
<path d="M28.2453 31.6473C27.2053 33.4487 25.6881 34.6165 23.6937 35.1509C21.6993 35.6853 19.8014 35.4325 18.0001 34.3925C16.1987 33.3525 15.0309 31.8353 14.4965 29.8409C13.9621 27.8465 14.2149 25.9487 15.2549 24.1473L20.8049 14.5344C21.5549 13.2354 22.647 12.3937 24.0814 12.0094C25.5157 11.6251 26.8824 11.8079 28.1814 12.5579C29.4805 13.3079 30.3221 14.4001 30.7065 15.8344C31.0908 17.2687 30.908 18.6354 30.158 19.9344L24.908 29.0277C24.448 29.8245 23.7808 30.34 22.9066 30.5742C22.0323 30.8085 21.1968 30.6956 20.4001 30.2356C19.6033 29.7756 19.0878 29.1085 18.8536 28.2342C18.6193 27.36 18.7322 26.5245 19.1922 25.7277L24.7422 16.1148L26.8206 17.3148L21.2706 26.9277C21.1406 27.1529 21.1068 27.3816 21.169 27.6138C21.2312 27.846 21.3749 28.0271 21.6001 28.1571C21.8252 28.2871 22.0539 28.321 22.2862 28.2588C22.5184 28.1966 22.6995 28.0529 22.8295 27.8277L28.0795 18.7344C28.4822 17.997 28.5817 17.2346 28.3781 16.4473C28.1744 15.66 27.7089 15.0564 26.9814 14.6364C26.254 14.2164 25.4941 14.1125 24.7018 14.3248C23.9095 14.5371 23.3033 15.007 22.8833 15.7344L17.3333 25.3473C16.606 26.5671 16.4279 27.8556 16.7989 29.213C17.1699 30.5704 17.9703 31.6041 19.2001 32.3141C20.4125 33.0141 21.6906 33.1804 23.0343 32.813C24.378 32.4456 25.4222 31.6571 26.1668 30.4473L32.0168 20.3148L34.0953 21.5148L28.2453 31.6473Z" fill="#8A9299"/>
</svg>
