<svg width="10" height="10" viewBox="0 0 10 10" fill="none" xmlns="http://www.w3.org/2000/svg">
<path d="M3.09606 1.71408L1.90573 2.38067L2.57231 1.19033L1.90573 0L3.09606 0.666587L4.28639 0L3.61981 1.19033L4.28639 2.38067L3.09606 1.71408ZM8.80967 6.38019L10 5.71361L9.33341 6.90394L10 8.09428L8.80967 7.42769L7.61933 8.09428L8.28592 6.90394L7.61933 5.71361L8.80967 6.38019ZM10 0L9.33341 1.19033L10 2.38067L8.80967 1.71408L7.61933 2.38067L8.28592 1.19033L7.61933 0L8.80967 0.666587L10 0ZM5.87668 5.13272L7.03845 3.97096L6.02904 2.96155L4.86728 4.12332L5.87668 5.13272ZM6.3671 2.51875L7.48125 3.6329C7.66694 3.80907 7.66694 4.11856 7.48125 4.30425L1.92477 9.86073C1.73908 10.0464 1.42959 10.0464 1.25342 9.86073L0.139269 8.74658C-0.046423 8.57041 -0.046423 8.26092 0.139269 8.07523L5.69575 2.51875C5.88144 2.33306 6.19093 2.33306 6.3671 2.51875Z" fill="#3670f0"/>
</svg>
