<svg width="28" height="28" viewBox="0 0 28 28" fill="none" xmlns="http://www.w3.org/2000/svg">
<g clip-path="url(#clip0_3934_20092)">
<path d="M19.5 7.5H12.5C11.9469 7.5 11.5 7.94687 11.5 8.5V9H10V8.5C10 7.11875 11.1188 6 12.5 6H19.5C20.8813 6 22 7.11875 22 8.5V15.5C22 16.8813 20.8813 18 19.5 18H19V16.5H19.5C20.0531 16.5 20.5 16.0531 20.5 15.5V8.5C20.5 7.94687 20.0531 7.5 19.5 7.5ZM7.5 20C7.5 20.275 7.725 20.5 8 20.5H16C16.275 20.5 16.5 20.275 16.5 20V14H7.5V20ZM8 10H16C17.1031 10 18 10.8969 18 12V20C18 21.1031 17.1031 22 16 22H8C6.89688 22 6 21.1031 6 20V12C6 10.8969 6.89688 10 8 10Z" fill="#45494D"/>
</g>
<defs>
<clipPath id="clip0_3934_20092">
<rect width="16" height="16" fill="white" transform="translate(6 6)"/>
</clipPath>
</defs>
</svg>
