<svg width="20" height="20" viewBox="0 0 20 20" fill="none" xmlns="http://www.w3.org/2000/svg">
<path d="M2.03405 7.97468C2.11577 7.97436 2.11577 7.97436 2.19914 7.97404C2.25898 7.97405 2.31882 7.97406 2.38047 7.97407C2.47585 7.97381 2.47585 7.97381 2.57315 7.97355C2.74978 7.97308 2.92642 7.97291 3.10305 7.97279C3.29351 7.9726 3.48397 7.97216 3.67444 7.97175C4.13452 7.97083 4.5946 7.97036 5.05468 7.96994C5.27143 7.96974 5.48819 7.96949 5.70495 7.96924C6.42568 7.96845 7.14642 7.96777 7.86716 7.96743C8.05418 7.96734 8.2412 7.96726 8.42821 7.96716C8.49794 7.96713 8.49794 7.96713 8.56907 7.9671C9.32166 7.96671 10.0743 7.96553 10.8268 7.96401C11.5998 7.96246 12.3728 7.96163 13.1458 7.96148C13.5797 7.96138 14.0136 7.96097 14.4474 7.95977C14.817 7.95876 15.1866 7.95839 15.5562 7.95884C15.7447 7.95905 15.9331 7.95897 16.1215 7.95806C16.3262 7.95708 16.5309 7.95756 16.7356 7.95818C16.7946 7.95766 16.8535 7.95715 16.9143 7.95662C17.5462 7.96118 18.0868 8.13609 18.5524 8.54101C18.9559 8.93621 19.1496 9.37997 19.1494 9.92167C19.1496 9.95749 19.1498 9.99331 19.15 10.0302C19.1505 10.1503 19.1507 10.2705 19.1509 10.3906C19.1512 10.4767 19.1515 10.5628 19.1519 10.6489C19.1529 10.9318 19.1534 11.2147 19.1539 11.4976C19.1541 11.5951 19.1544 11.6925 19.1546 11.79C19.1555 12.2481 19.1562 12.7062 19.1566 13.1643C19.1571 13.6926 19.1584 14.2208 19.1604 14.7491C19.1619 15.1577 19.1627 15.5663 19.1628 15.975C19.163 16.2189 19.1634 16.4627 19.1647 16.7066C19.1658 16.9363 19.166 17.1659 19.1655 17.3956C19.1655 17.4796 19.1658 17.5636 19.1665 17.6476C19.1719 18.3545 19.0558 18.8651 18.5447 19.4156C18.1506 19.7797 17.579 19.981 17.0302 19.982C16.9494 19.9823 16.9494 19.9823 16.867 19.9826C16.8081 19.9826 16.7492 19.9826 16.6885 19.9826C16.6258 19.9827 16.563 19.9829 16.4983 19.9831C16.3241 19.9835 16.15 19.9837 15.9758 19.9838C15.788 19.984 15.6001 19.9845 15.4122 19.9849C14.9585 19.9858 14.5048 19.9863 14.0511 19.9867C13.8372 19.9869 13.6234 19.9871 13.4096 19.9874C12.6985 19.9882 11.9874 19.9889 11.2763 19.9892C11.0919 19.9893 10.9074 19.9894 10.7229 19.9895C10.6542 19.9895 10.6542 19.9895 10.584 19.9895C9.84177 19.9899 9.09951 19.9911 8.35726 19.9926C7.59467 19.9942 6.83209 19.995 6.0695 19.9951C5.64155 19.9953 5.21361 19.9957 4.78566 19.9968C4.42112 19.9979 4.05658 19.9982 3.69203 19.9978C3.50622 19.9976 3.32042 19.9977 3.13461 19.9986C2.93263 19.9995 2.73069 19.9991 2.52871 19.9985C2.44171 19.9992 2.44171 19.9992 2.35296 20C1.71876 19.9954 1.10484 19.8282 0.623959 19.4277C0.227507 19.0365 0.017119 18.5682 0.0172654 18.035C0.0170824 17.9991 0.0168993 17.9633 0.0167107 17.9264C0.016162 17.8063 0.01597 17.6862 0.0157803 17.566C0.0154683 17.4799 0.0151374 17.3938 0.0147889 17.3077C0.0137419 17.0248 0.0132255 16.7419 0.0127295 16.459C0.0125279 16.3616 0.0123231 16.2641 0.0121147 16.1666C0.0111663 15.7085 0.0104577 15.2504 0.0100429 14.7923C0.00955675 14.264 0.00824729 13.7358 0.00623439 13.2075C0.00473095 12.7989 0.00399554 12.3903 0.00383082 11.9817C0.00371399 11.7378 0.00327023 11.4939 0.00201542 11.25C0.000852928 11.0203 0.000647026 10.7907 0.00115719 10.561C0.00118178 10.477 0.000869487 10.393 0.00018369 10.309C-0.00516816 9.61426 0.104209 9.06541 0.620264 8.53353C1.00168 8.18761 1.50094 7.97562 2.03405 7.97468ZM2.16535 9.98784C2.16535 12.6062 2.16535 15.2245 2.16535 17.9221C7.06122 17.9221 11.9571 17.9221 17.0013 17.9221C17.0013 15.3038 17.0013 12.6855 17.0013 9.98784C12.1054 9.98784 7.20958 9.98784 2.16535 9.98784Z" fill="#999999"/>
<path d="M2.11557 4.01381C7.04429 4.01381 11.973 4.01381 17.0511 4.01381C17.0511 4.67608 17.0511 5.33836 17.0511 6.02071C12.1224 6.02071 7.19365 6.02071 2.11557 6.02071C2.11557 5.35843 2.11557 4.69615 2.11557 4.01381Z" fill="#999999"/>
<path d="M4.25633 0C7.77215 0 11.288 0 14.9103 0C14.9103 0.67768 14.9103 1.35536 14.9103 2.05358C11.3945 2.05358 7.87869 2.05358 4.25633 2.05358C4.25633 1.3759 4.25633 0.698216 4.25633 0Z" fill="#999999"/>
</svg>
