<svg xmlns="http://www.w3.org/2000/svg" width="24" height="24" viewBox="0 0 24 24" fill="none">
<path d="M4.69799 10.3797C4.76621 10.3795 4.76621 10.3795 4.83581 10.3792C4.88576 10.3792 4.93571 10.3792 4.98718 10.3793C5.06679 10.3791 5.06679 10.3791 5.14802 10.3788C5.29547 10.3785 5.44292 10.3783 5.59037 10.3782C5.74937 10.3781 5.90836 10.3777 6.06735 10.3774C6.45142 10.3767 6.83549 10.3763 7.21956 10.376C7.4005 10.3758 7.58144 10.3756 7.76239 10.3754C8.36405 10.3748 8.96571 10.3742 9.56737 10.3739C9.72349 10.3739 9.87961 10.3738 10.0357 10.3737C10.0939 10.3737 10.0939 10.3737 10.1533 10.3737C10.7816 10.3734 11.4098 10.3724 12.0381 10.3712C12.6833 10.37 13.3286 10.3693 13.9739 10.3692C14.3361 10.3691 14.6983 10.3688 15.0605 10.3678C15.369 10.367 15.6775 10.3667 15.9861 10.3671C16.1434 10.3672 16.3006 10.3672 16.4579 10.3664C16.6288 10.3657 16.7997 10.366 16.9706 10.3665C17.0198 10.3661 17.069 10.3657 17.1197 10.3653C17.6473 10.3689 18.0985 10.5089 18.4873 10.8328C18.8241 11.149 18.9857 11.504 18.9856 11.9373C18.9857 11.966 18.9859 11.9946 18.9861 12.0242C18.9865 12.1203 18.9867 12.2164 18.9868 12.3125C18.9871 12.3813 18.9874 12.4502 18.9877 12.5191C18.9885 12.7454 18.989 12.9717 18.9894 13.1981C18.9895 13.276 18.9897 13.354 18.9899 13.432C18.9907 13.7985 18.9913 14.165 18.9916 14.5315C18.992 14.9541 18.9931 15.3767 18.9948 15.7993C18.9961 16.1262 18.9967 16.4531 18.9968 16.78C18.9969 16.9751 18.9973 17.1702 18.9983 17.3653C18.9993 17.549 18.9995 17.7328 18.999 17.9165C18.999 17.9837 18.9993 18.0509 18.9999 18.1181C19.0044 18.6836 18.9074 19.0921 18.4808 19.5325C18.1518 19.8237 17.6746 19.9848 17.2165 19.9856C17.1491 19.9858 17.1491 19.9858 17.0803 19.9861C17.0311 19.9861 16.9819 19.986 16.9313 19.986C16.8789 19.9862 16.8265 19.9863 16.7725 19.9865C16.6271 19.9868 16.4817 19.987 16.3364 19.9871C16.1795 19.9872 16.0227 19.9876 15.8658 19.9879C15.4871 19.9886 15.1083 19.989 14.7296 19.9893C14.5511 19.9895 14.3726 19.9897 14.1941 19.9899C13.6005 19.9905 13.0069 19.9911 12.4133 19.9914C12.2593 19.9914 12.1053 19.9915 11.9513 19.9916C11.8939 19.9916 11.8939 19.9916 11.8354 19.9916C11.2157 19.9919 10.5961 19.9929 9.97649 19.9941C9.3399 19.9953 8.70331 19.996 8.06671 19.9961C7.70947 19.9962 7.35223 19.9965 6.99499 19.9975C6.69067 19.9983 6.38636 19.9986 6.08204 19.9982C5.92693 19.9981 5.77183 19.9981 5.61672 19.9989C5.44811 19.9996 5.27953 19.9992 5.11092 19.9988C5.0383 19.9994 5.0383 19.9994 4.96421 20C4.43479 19.9963 3.9223 19.8625 3.52087 19.5421C3.18992 19.2292 3.01429 18.8546 3.01441 18.428C3.01426 18.3993 3.01411 18.3707 3.01395 18.3411C3.01349 18.245 3.01333 18.1489 3.01317 18.0528C3.01291 17.984 3.01264 17.9151 3.01235 17.8462C3.01147 17.6199 3.01104 17.3936 3.01063 17.1672C3.01046 17.0893 3.01029 17.0113 3.01011 16.9333C3.00932 16.5668 3.00873 16.2003 3.00838 15.8338C3.00798 15.4112 3.00688 14.9886 3.0052 14.566C3.00395 14.2391 3.00334 13.9122 3.0032 13.5853C3.0031 13.3902 3.00273 13.1951 3.00168 13C3.00071 12.8163 3.00054 12.6325 3.00097 12.4488C3.00099 12.3816 3.00073 12.3144 3.00015 12.2472C2.99569 11.6914 3.08699 11.2523 3.51779 10.8268C3.83618 10.5501 4.25296 10.3805 4.69799 10.3797ZM4.8076 11.9903C4.8076 14.0849 4.8076 16.1796 4.8076 18.3377C8.89458 18.3377 12.9816 18.3377 17.1924 18.3377C17.1924 16.243 17.1924 14.1484 17.1924 11.9903C13.1054 11.9903 9.01843 11.9903 4.8076 11.9903Z" fill="#8A9299"/>
<path d="M4.76604 7.21104C8.88045 7.21104 12.9949 7.21104 17.234 7.21104C17.234 7.74087 17.234 8.27069 17.234 8.81657C13.1195 8.81657 9.00513 8.81657 4.76604 8.81657C4.76604 8.28674 4.76604 7.75692 4.76604 7.21104Z" fill="#8A9299"/>
<path d="M6.55311 4C9.48806 4 12.423 4 15.4469 4C15.4469 4.54214 15.4469 5.08429 15.4469 5.64286C12.5119 5.64286 9.577 5.64286 6.55311 5.64286C6.55311 5.10072 6.55311 4.55857 6.55311 4Z" fill="#8A9299"/>
</svg>
