<svg width="20" height="20" viewBox="0 0 20 20" fill="none" xmlns="http://www.w3.org/2000/svg">
<path d="M7.5 0H2.5C1.12142 0 0 1.12142 0 2.5V7.5C0 8.87858 1.12142 10 2.5 10H7.5C8.87858 10 10 8.87858 10 7.5V2.5C10 1.12142 8.87858 0 7.5 0ZM8.33333 7.5C8.33333 7.95942 7.95942 8.33333 7.5 8.33333H2.5C2.04058 8.33333 1.66667 7.95942 1.66667 7.5V2.5C1.66667 2.04058 2.04058 1.66667 2.5 1.66667H7.5C7.95942 1.66667 8.33333 2.04058 8.33333 2.5V7.5ZM7.5 10.8333H2.5C1.12142 10.8333 0 11.9548 0 13.3333V17.5C0 18.8786 1.12142 20 2.5 20H7.5C8.87858 20 10 18.8786 10 17.5V13.3333C10 11.9548 8.87858 10.8333 7.5 10.8333ZM8.33333 17.5C8.33333 17.9594 7.95942 18.3333 7.5 18.3333H2.5C2.04058 18.3333 1.66667 17.9594 1.66667 17.5V13.3333C1.66667 12.8739 2.04058 12.5 2.5 12.5H7.5C7.95942 12.5 8.33333 12.8739 8.33333 13.3333V17.5ZM17.5 0H13.3333C11.9548 0 10.8333 1.12142 10.8333 2.5V11.6667C10.8333 13.0452 11.9548 14.1667 13.3333 14.1667H17.5C18.8786 14.1667 20 13.0452 20 11.6667V2.5C20 1.12142 18.8786 0 17.5 0ZM18.3333 11.6667C18.3333 12.1261 17.9594 12.5 17.5 12.5H13.3333C12.8739 12.5 12.5 12.1261 12.5 11.6667V2.5C12.5 2.04058 12.8739 1.66667 13.3333 1.66667H17.5C17.9594 1.66667 18.3333 2.04058 18.3333 2.5V11.6667ZM18.3333 14.6875H12.5C11.5808 14.6875 10.8333 15.435 10.8333 16.3542V18.3333C10.8333 19.2525 11.5808 20 12.5 20H18.3333C19.2525 20 20 19.2525 20 18.3333V16.3542C20 15.435 19.2525 14.6875 18.3333 14.6875ZM12.5 18.3333V16.3542H18.3333L18.3346 18.3333H12.5Z" fill="#A5B5CA"/>
</svg>