<svg width="24" height="24" viewBox="0 0 24 24" fill="none" xmlns="http://www.w3.org/2000/svg">
<g clip-path="url(#clip0_1760_91097)">
<path d="M18 16H12C10.8969 16 10 15.1031 10 14V6C10 4.89688 10.8969 4 12 4H16.3781C16.775 4 17.1562 4.15938 17.4375 4.44063L19.5594 6.5625C19.8406 6.84375 20 7.225 20 7.62188V14C20 15.1031 19.1031 16 18 16ZM6 8H9V9.5H6C5.725 9.5 5.5 9.725 5.5 10V18C5.5 18.275 5.725 18.5 6 18.5H12C12.275 18.5 12.5 18.275 12.5 18V17H14V18C14 19.1031 13.1031 20 12 20H6C4.89688 20 4 19.1031 4 18V10C4 8.89687 4.89688 8 6 8Z" fill="#8A9299"/>
</g>
<defs>
<clipPath id="clip0_1760_91097">
<rect width="16" height="16" fill="white" transform="translate(4 4)"/>
</clipPath>
</defs>
</svg>
