<svg width="16" height="16" viewBox="0 0 16 16" fill="none" xmlns="http://www.w3.org/2000/svg">
<path fill-rule="evenodd" clip-rule="evenodd" d="M7.77013 6.66666H1.33379C0.965039 6.66666 0.667122 6.96457 0.667122 7.33332C0.667122 7.70207 0.965039 7.99999 1.33379 7.99999H8.00046V9.32916C8.00046 9.59999 8.16296 9.84166 8.41296 9.94582C8.66296 10.05 8.94837 9.99374 9.14004 9.80207L10.2552 8.68696C9.22208 8.30212 8.35056 7.5855 7.77013 6.66666ZM14.8159 6.84128C14.0671 7.58338 13.0552 8 12.0004 8C11.6794 8 11.3623 7.9614 11.0554 7.88676L11.0546 7.88752C9.60948 7.53716 8.47106 6.40198 8.11605 4.95869C8.11628 4.95835 8.11651 4.958 8.11675 4.95766C8.04009 4.64684 8.00043 4.32546 8.00043 4C8.00043 2.93913 8.42185 1.92172 9.172 1.17157C9.92215 0.421427 10.9396 0 12.0004 0C13.0613 0 14.0787 0.421427 14.8289 1.17157C15.579 1.92172 16.0004 2.93913 16.0004 4C16.0004 5.05479 15.5838 6.06663 14.8417 6.81552C14.8332 6.82414 14.8246 6.83273 14.8159 6.84128ZM11.6254 5.375V4.375H10.6254C10.4176 4.375 10.2504 4.20781 10.2504 4C10.2504 3.79219 10.4176 3.625 10.6254 3.625H11.6254V2.625C11.6254 2.41719 11.7926 2.25 12.0004 2.25C12.2082 2.25 12.3754 2.41719 12.3754 2.625V3.625H13.3754C13.5832 3.625 13.7504 3.79219 13.7504 4C13.7504 4.20781 13.5832 4.375 13.3754 4.375H12.3754V5.375C12.3754 5.58281 12.2082 5.75 12.0004 5.75C11.7926 5.75 11.6254 5.58281 11.6254 5.375ZM10.6671 12C11.0359 12 11.3338 12.2979 11.3338 12.6667C11.3338 13.0354 11.0359 13.3333 10.6671 13.3333H4.00046V14.6667C4.00046 14.9354 3.83796 15.1792 3.58796 15.2833C3.33796 15.3875 3.05254 15.3292 2.86087 15.1396L0.860872 13.1396C0.735872 13.0146 0.665039 12.8458 0.665039 12.6687C0.665039 12.4917 0.735872 12.3229 0.860872 12.1979L2.86087 10.1979C3.05254 10.0062 3.33796 9.94999 3.58796 10.0542C3.83796 10.1583 4.00046 10.4 4.00046 10.6708V12.0042H10.6671V12Z" fill="#8A9299"/>
</svg>
