<svg width="17" height="17" viewBox="0 0 17 17" fill="none" xmlns="http://www.w3.org/2000/svg">
<rect x="1.15" y="1.15" width="14.7" height="14.7" rx="1.35" stroke="#8A9299" stroke-width="1.3"/>
<path d="M5.70273 5.5C5.75796 5.5 5.80273 5.54477 5.80273 5.6V5.93846C5.80273 5.99369 5.75796 6.03846 5.70273 6.03846H5.24097C5.18574 6.03846 5.14097 6.08323 5.14097 6.13846V11.8615C5.14097 11.9168 5.18574 11.9615 5.24097 11.9615H5.70273C5.75796 11.9615 5.80273 12.0063 5.80273 12.0615V12.4C5.80273 12.4552 5.75796 12.5 5.70273 12.5H4.6C4.54477 12.5 4.5 12.4552 4.5 12.4V5.6C4.5 5.54477 4.54477 5.5 4.6 5.5H5.70273Z" fill="#8A9299"/>
<path d="M11.2903 6.03846C11.2351 6.03846 11.1903 5.99369 11.1903 5.93846V5.6C11.1903 5.54477 11.2351 5.5 11.2903 5.5H12.4C12.4552 5.5 12.5 5.54477 12.5 5.6V12.4C12.5 12.4552 12.4552 12.5 12.4 12.5H11.2903C11.2351 12.5 11.1903 12.4552 11.1903 12.4V12.0615C11.1903 12.0063 11.2351 11.9615 11.2903 11.9615H11.7556C11.8108 11.9615 11.8556 11.9168 11.8556 11.8615V6.13846C11.8556 6.08323 11.8108 6.03846 11.7556 6.03846H11.2903Z" fill="#8A9299"/>
<path d="M5.70273 5.5C5.75796 5.5 5.80273 5.54477 5.80273 5.6V5.93846C5.80273 5.99369 5.75796 6.03846 5.70273 6.03846H5.24097C5.18574 6.03846 5.14097 6.08323 5.14097 6.13846V11.8615C5.14097 11.9168 5.18574 11.9615 5.24097 11.9615H5.70273C5.75796 11.9615 5.80273 12.0063 5.80273 12.0615V12.4C5.80273 12.4552 5.75796 12.5 5.70273 12.5H4.6C4.54477 12.5 4.5 12.4552 4.5 12.4V5.6C4.5 5.54477 4.54477 5.5 4.6 5.5H5.70273Z" stroke="#8A9299" stroke-width="0.6"/>
<path d="M11.2903 6.03846C11.2351 6.03846 11.1903 5.99369 11.1903 5.93846V5.6C11.1903 5.54477 11.2351 5.5 11.2903 5.5H12.4C12.4552 5.5 12.5 5.54477 12.5 5.6V12.4C12.5 12.4552 12.4552 12.5 12.4 12.5H11.2903C11.2351 12.5 11.1903 12.4552 11.1903 12.4V12.0615C11.1903 12.0063 11.2351 11.9615 11.2903 11.9615H11.7556C11.8108 11.9615 11.8556 11.9168 11.8556 11.8615V6.13846C11.8556 6.08323 11.8108 6.03846 11.7556 6.03846H11.2903Z" stroke="#8A9299" stroke-width="0.6"/>
<path d="M8 9.5V8.5H9V9.5H8Z" fill="#8A9299" stroke="#8A9299"/>
</svg>