<svg width="20" height="20" viewBox="0 0 20 20" fill="none" xmlns="http://www.w3.org/2000/svg">
<path d="M19.4672 4.53785L10.4189 0.0977642C10.1556 -0.0325881 9.84395 -0.0325881 9.57965 0.0977642L0.533271 4.53785C0.206484 4.69766 0.000244141 5.02889 0.000244141 5.39229C0.000244141 5.75476 0.206493 6.08691 0.533271 6.24673L9.58057 10.6877C9.71271 10.7529 9.85645 10.7859 9.99931 10.7859C10.1422 10.7859 10.2868 10.7538 10.418 10.6877L19.4653 6.24673C19.7921 6.08691 19.9984 5.75568 19.9984 5.39229C19.9984 5.02981 19.7921 4.69766 19.4653 4.53785H19.4672ZM10.0002 8.77245L3.1145 5.39222L10.0002 2.01199L16.8859 5.39222L10.0002 8.77245Z" fill="#A5B5CA"/>
<path d="M18.6287 9.1441L10.0002 13.3787L1.3716 9.1441C0.900176 8.91286 0.328749 9.10749 0.0975039 9.5807C-0.133741 10.053 0.0600047 10.6235 0.53412 10.8548L9.58141 15.2958C9.71356 15.3609 9.8573 15.3931 10.0002 15.3931C10.143 15.3931 10.2877 15.3609 10.4189 15.2958L19.4662 10.8548C19.9385 10.6235 20.1341 10.053 19.9028 9.5807C19.6707 9.1084 19.1001 8.91286 18.6287 9.1441Z" fill="#A5B5CA"/>
<path d="M18.6287 13.751L10.0002 17.9856L1.3716 13.751C0.900176 13.5207 0.328749 13.7144 0.0975039 14.1876C-0.133741 14.6599 0.0600047 15.2304 0.53412 15.4617L9.58141 19.9027C9.71356 19.9679 9.8573 20 10.0002 20C10.143 20 10.2877 19.9679 10.4189 19.9027L19.4662 15.4617C19.9385 15.2304 20.1341 14.6599 19.9028 14.1876C19.6707 13.7153 19.1001 13.5189 18.6287 13.751Z" fill="#A5B5CA"/>
</svg>
