<svg width="8" height="8" viewBox="0 0 8 8" fill="none" xmlns="http://www.w3.org/2000/svg">
<g clip-path="url(#clip0_13404_33136)">
<path d="M1.75 1.625C1.84946 1.625 1.94484 1.58549 2.01517 1.51517C2.08549 1.44484 2.125 1.34946 2.125 1.25C2.125 1.15054 2.08549 1.05516 2.01517 0.984835C1.94484 0.914509 1.84946 0.875 1.75 0.875C1.65054 0.875 1.55516 0.914509 1.48483 0.984835C1.41451 1.05516 1.375 1.15054 1.375 1.25C1.375 1.34946 1.41451 1.44484 1.48483 1.51517C1.55516 1.58549 1.65054 1.625 1.75 1.625ZM3 1.25C3 1.7625 2.69219 2.20312 2.25 2.39531V3.76719C2.54375 3.59688 2.88594 3.5 3.25 3.5H4.75C5.30156 3.5 5.75 3.05156 5.75 2.5V2.39531C5.30781 2.20312 5 1.7625 5 1.25C5 0.559375 5.55937 0 6.25 0C6.94063 0 7.5 0.559375 7.5 1.25C7.5 1.7625 7.19219 2.20312 6.75 2.39531V2.5C6.75 3.60469 5.85469 4.5 4.75 4.5H3.25C2.69844 4.5 2.25 4.94844 2.25 5.5V5.60469C2.69219 5.79688 3 6.2375 3 6.75C3 7.44063 2.44062 8 1.75 8C1.05937 8 0.5 7.44063 0.5 6.75C0.5 6.2375 0.807813 5.79688 1.25 5.60469V5.5V2.39531C0.807813 2.20312 0.5 1.7625 0.5 1.25C0.5 0.559375 1.05937 0 1.75 0C2.44062 0 3 0.559375 3 1.25ZM6.625 1.25C6.625 1.15054 6.58549 1.05516 6.51516 0.984835C6.44484 0.914509 6.34946 0.875 6.25 0.875C6.15054 0.875 6.05516 0.914509 5.98484 0.984835C5.91451 1.05516 5.875 1.15054 5.875 1.25C5.875 1.34946 5.91451 1.44484 5.98484 1.51517C6.05516 1.58549 6.15054 1.625 6.25 1.625C6.34946 1.625 6.44484 1.58549 6.51516 1.51517C6.58549 1.44484 6.625 1.34946 6.625 1.25ZM1.75 7.125C1.84946 7.125 1.94484 7.08549 2.01517 7.01516C2.08549 6.94484 2.125 6.84946 2.125 6.75C2.125 6.65054 2.08549 6.55516 2.01517 6.48484C1.94484 6.41451 1.84946 6.375 1.75 6.375C1.65054 6.375 1.55516 6.41451 1.48483 6.48484C1.41451 6.55516 1.375 6.65054 1.375 6.75C1.375 6.84946 1.41451 6.94484 1.48483 7.01516C1.55516 7.08549 1.65054 7.125 1.75 7.125Z" fill="#8A9299"/>
</g>
<defs>
<clipPath id="clip0_13404_33136">
<rect width="7" height="8" fill="white" transform="translate(0.5)"/>
</clipPath>
</defs>
</svg>
