<svg width="19" height="18" viewBox="0 0 19 18" fill="none" xmlns="http://www.w3.org/2000/svg">
<g clip-path="url(#clip0_1303_39208)">
<path fill-rule="evenodd" clip-rule="evenodd" d="M9.66012 0C4.59481 0 0.5 4.125 0.5 9.22819C0.5 13.3074 3.12369 16.7604 6.76344 17.9826C7.2185 18.0744 7.38519 17.784 7.38519 17.5397C7.38519 17.3258 7.37019 16.5924 7.37019 15.8284C4.82206 16.3785 4.29144 14.7283 4.29144 14.7283C3.88194 13.6588 3.27519 13.3839 3.27519 13.3839C2.44119 12.8186 3.33594 12.8186 3.33594 12.8186C4.26106 12.8797 4.7465 13.7659 4.7465 13.7659C5.56531 15.1714 6.88475 14.7742 7.41556 14.5297C7.49131 13.9339 7.73413 13.5214 7.99194 13.2922C5.95963 13.0783 3.82138 12.2839 3.82138 8.73919C3.82138 7.73081 4.18513 6.90581 4.7615 6.26419C4.67056 6.03506 4.352 5.08763 4.85262 3.81956C4.85262 3.81956 5.62606 3.57506 7.37 4.76681C8.11664 4.56481 8.88664 4.46205 9.66012 4.46119C10.4336 4.46119 11.222 4.56825 11.9501 4.76681C13.6942 3.57506 14.4676 3.81956 14.4676 3.81956C14.9683 5.08763 14.6495 6.03506 14.5586 6.26419C15.1501 6.90581 15.4989 7.73081 15.4989 8.73919C15.4989 12.2839 13.3606 13.0629 11.3131 13.2922C11.6469 13.5825 11.9349 14.1324 11.9349 15.0034C11.9349 16.2409 11.9199 17.2341 11.9199 17.5395C11.9199 17.784 12.0868 18.0744 12.5416 17.9827C16.1814 16.7603 18.8051 13.3074 18.8051 9.22819C18.8201 4.125 14.7102 0 9.66012 0Z" fill="white"/>
</g>
<defs>
<clipPath id="clip0_1303_39208">
<rect width="18.375" height="18" fill="white" transform="translate(0.5)"/>
</clipPath>
</defs>
</svg>
