
<svg width="20" height="22" viewBox="0 0 20 22" fill="none" xmlns="http://www.w3.org/2000/svg">
<path d="M9.99918 0.730469C10.261 0.730469 10.5127 0.770747 10.7544 0.851302C10.9961 0.931858 11.2277 1.05269 11.4492 1.2138L18.6992 6.6513C19.0013 6.87283 19.2379 7.15477 19.4091 7.49713C19.5803 7.8395 19.6658 8.202 19.6658 8.58463V20.668C19.6658 21.0103 19.5501 21.2973 19.3185 21.5289C19.0869 21.7605 18.7999 21.8763 18.4575 21.8763C18.1152 21.8763 17.8282 21.7605 17.5966 21.5289C17.365 21.2973 17.2492 21.0103 17.2492 20.668V8.58463L9.99918 3.14714L2.74919 8.58463V20.668C2.74919 21.0103 2.63339 21.2973 2.40179 21.5289C2.17019 21.7605 1.88321 21.8763 1.54085 21.8763C1.19849 21.8763 0.911512 21.7605 0.679915 21.5289C0.448318 21.2973 0.33252 21.0103 0.33252 20.668V8.58463C0.33252 8.202 0.41811 7.8395 0.58929 7.49713C0.760471 7.15477 0.997103 6.87283 1.29919 6.6513L8.54918 1.2138C8.77071 1.05269 9.00231 0.931858 9.24398 0.851302C9.48564 0.770747 9.73738 0.730469 9.99918 0.730469ZM6.37419 19.4596H13.6242V17.043H6.37419V19.4596ZM6.37419 14.6263H13.6242V12.2096H6.37419V14.6263ZM5.16585 21.8763C4.82349 21.8763 4.53651 21.7605 4.30491 21.5289C4.07332 21.2973 3.95752 21.0103 3.95752 20.668V11.0013C3.95752 10.6589 4.07332 10.372 4.30491 10.1404C4.53651 9.90877 4.82349 9.79297 5.16585 9.79297H14.8325C15.1749 9.79297 15.4619 9.90877 15.6935 10.1404C15.9251 10.372 16.0409 10.6589 16.0409 11.0013V20.668C16.0409 21.0103 15.9251 21.2973 15.6935 21.5289C15.4619 21.7605 15.1749 21.8763 14.8325 21.8763H5.16585Z" fill="#A5B5CA"/>
</svg>
