

<svg width="20" height="22" viewBox="0 0 20 22" fill="none" xmlns="http://www.w3.org/2000/svg">
<path d="M1.54159 21.8748C1.19922 21.8748 0.912245 21.759 0.680648 21.5274C0.449051 21.2958 0.333252 21.0089 0.333252 20.6665V8.58317C0.333252 8.20053 0.418842 7.83803 0.590023 7.49567C0.761203 7.15331 0.997835 6.87137 1.29992 6.64984L8.54992 1.21234C8.77145 1.05123 9.00304 0.930393 9.24471 0.849837C9.48638 0.769282 9.73811 0.729004 9.99992 0.729004C10.2617 0.729004 10.5135 0.769282 10.7551 0.849837C10.9968 0.930393 11.2284 1.05123 11.4499 1.21234L18.6999 6.64984C19.002 6.87137 19.2386 7.15331 19.4098 7.49567C19.581 7.83803 19.6666 8.20053 19.6666 8.58317V20.6665C19.6666 21.0089 19.5508 21.2958 19.3192 21.5274C19.0876 21.759 18.8006 21.8748 18.4583 21.8748H17.2499C16.9076 21.8748 16.6206 21.759 16.389 21.5274C16.1574 21.2958 16.0416 21.0089 16.0416 20.6665V10.9998C16.0416 10.6575 15.9258 10.3705 15.6942 10.1389C15.4626 9.9073 15.1756 9.7915 14.8333 9.7915H5.16659C4.82422 9.7915 4.53725 9.9073 4.30565 10.1389C4.07405 10.3705 3.95825 10.6575 3.95825 10.9998V20.6665C3.95825 21.0089 3.84245 21.2958 3.61086 21.5274C3.37926 21.759 3.09228 21.8748 2.74992 21.8748H1.54159ZM7.58325 19.4582C7.24089 19.4582 6.95391 19.3424 6.72231 19.1108C6.49072 18.8792 6.37492 18.5922 6.37492 18.2498C6.37492 17.9075 6.49072 17.6205 6.72231 17.3889C6.95391 17.1573 7.24089 17.0415 7.58325 17.0415H12.4166C12.7589 17.0415 13.0459 17.1573 13.2775 17.3889C13.5091 17.6205 13.6249 17.9075 13.6249 18.2498C13.6249 18.5922 13.5091 18.8792 13.2775 19.1108C13.0459 19.3424 12.7589 19.4582 12.4166 19.4582H7.58325ZM7.58325 14.6248C7.24089 14.6248 6.95391 14.509 6.72231 14.2774C6.49072 14.0458 6.37492 13.7589 6.37492 13.4165C6.37492 13.0741 6.49072 12.7872 6.72231 12.5556C6.95391 12.324 7.24089 12.2082 7.58325 12.2082H12.4166C12.7589 12.2082 13.0459 12.324 13.2775 12.5556C13.5091 12.7872 13.6249 13.0741 13.6249 13.4165C13.6249 13.7589 13.5091 14.0458 13.2775 14.2774C13.0459 14.509 12.7589 14.6248 12.4166 14.6248H7.58325Z" fill="white"/>
</svg>

