


<svg width="20" height="22" viewBox="0 0 20 22" fill="none" xmlns="http://www.w3.org/2000/svg">
<path d="M1.54183 21.8753C1.19947 21.8753 0.912489 21.7595 0.680892 21.5279C0.449295 21.2963 0.333496 21.0094 0.333496 20.667V8.58366C0.333496 8.20102 0.419086 7.83852 0.590267 7.49616C0.761447 7.1538 0.998079 6.87185 1.30016 6.65033L8.55016 1.21283C8.77169 1.05171 9.00329 0.930881 9.24496 0.850326C9.48662 0.76977 9.73836 0.729492 10.0002 0.729492C10.262 0.729492 10.5137 0.76977 10.7554 0.850326C10.997 0.930881 11.2286 1.05171 11.4502 1.21283L18.7002 6.65033C19.0022 6.87185 19.2389 7.1538 19.4101 7.49616C19.5812 7.83852 19.6668 8.20102 19.6668 8.58366V20.667C19.6668 21.0094 19.551 21.2963 19.3194 21.5279C19.0878 21.7595 18.8009 21.8753 18.4585 21.8753H17.2502C16.9078 21.8753 16.6208 21.7595 16.3892 21.5279C16.1576 21.2963 16.0418 21.0094 16.0418 20.667V11.0003C16.0418 10.658 15.926 10.371 15.6944 10.1394C15.4628 9.90779 15.1759 9.79199 14.8335 9.79199H5.16683C4.82447 9.79199 4.53749 9.90779 4.30589 10.1394C4.0743 10.371 3.9585 10.658 3.9585 11.0003V20.667C3.9585 21.0094 3.8427 21.2963 3.6111 21.5279C3.3795 21.7595 3.09252 21.8753 2.75016 21.8753H1.54183ZM7.5835 19.4587C7.24114 19.4587 6.95416 19.3429 6.72256 19.1113C6.49096 18.8797 6.37516 18.5927 6.37516 18.2503C6.37516 17.908 6.49096 17.621 6.72256 17.3894C6.95416 17.1578 7.24114 17.042 7.5835 17.042H12.4168C12.7592 17.042 13.0462 17.1578 13.2778 17.3894C13.5094 17.621 13.6252 17.908 13.6252 18.2503C13.6252 18.5927 13.5094 18.8797 13.2778 19.1113C13.0462 19.3429 12.7592 19.4587 12.4168 19.4587H7.5835ZM7.5835 14.6253C7.24114 14.6253 6.95416 14.5095 6.72256 14.2779C6.49096 14.0463 6.37516 13.7594 6.37516 13.417C6.37516 13.0746 6.49096 12.7877 6.72256 12.5561C6.95416 12.3245 7.24114 12.2087 7.5835 12.2087H12.4168C12.7592 12.2087 13.0462 12.3245 13.2778 12.5561C13.5094 12.7877 13.6252 13.0746 13.6252 13.417C13.6252 13.7594 13.5094 14.0463 13.2778 14.2779C13.0462 14.5095 12.7592 14.6253 12.4168 14.6253H7.5835Z" fill="url(#paint0_linear_9398_46060)"/>
<defs>
<linearGradient id="paint0_linear_9398_46060" x1="2.96986" y1="0.729492" x2="15.7123" y2="0.729492" gradientUnits="userSpaceOnUse">
<stop stop-color="#158FF1"/>
<stop offset="1" stop-color="#5751FD"/>
</linearGradient>
</defs>
</svg>
