<svg width="96" height="32" viewBox="0 0 96 32" fill="none" xmlns="http://www.w3.org/2000/svg">
<rect x="9" y="9" width="14" height="14" rx="7" stroke="#1193F0" stroke-width="2"/>
<path d="M33.794 21.126C33.206 21.126 32.6787 21.028 32.212 20.832C31.7453 20.6267 31.3767 20.3467 31.106 19.992C30.8353 19.628 30.686 19.2127 30.658 18.746H31.974C32.0113 19.1287 32.1887 19.4413 32.506 19.684C32.8327 19.9267 33.2573 20.048 33.78 20.048C34.2653 20.048 34.648 19.9407 34.928 19.726C35.208 19.5113 35.348 19.2407 35.348 18.914C35.348 18.578 35.1987 18.3307 34.9 18.172C34.6013 18.004 34.1393 17.8407 33.514 17.682C32.9447 17.5327 32.478 17.3833 32.114 17.234C31.7593 17.0753 31.4513 16.8467 31.19 16.548C30.938 16.24 30.812 15.8387 30.812 15.344C30.812 14.952 30.9287 14.5927 31.162 14.266C31.3953 13.9393 31.7267 13.6827 32.156 13.496C32.5853 13.3 33.0753 13.202 33.626 13.202C34.4753 13.202 35.1613 13.4167 35.684 13.846C36.2067 14.2753 36.4867 14.8633 36.524 15.61H35.25C35.222 15.2087 35.0587 14.8867 34.76 14.644C34.4707 14.4013 34.0787 14.28 33.584 14.28C33.1267 14.28 32.7627 14.378 32.492 14.574C32.2213 14.77 32.086 15.0267 32.086 15.344C32.086 15.596 32.1653 15.806 32.324 15.974C32.492 16.1327 32.6973 16.2633 32.94 16.366C33.192 16.4593 33.5373 16.5667 33.976 16.688C34.5267 16.8373 34.9747 16.9867 35.32 17.136C35.6653 17.276 35.9593 17.4907 36.202 17.78C36.454 18.0693 36.5847 18.4473 36.594 18.914C36.594 19.334 36.4773 19.712 36.244 20.048C36.0107 20.384 35.6793 20.65 35.25 20.846C34.83 21.0327 34.3447 21.126 33.794 21.126ZM39.6665 14.742C39.9185 14.3033 40.2918 13.9393 40.7865 13.65C41.2905 13.3513 41.8738 13.202 42.5365 13.202C43.2178 13.202 43.8338 13.3653 44.3845 13.692C44.9445 14.0187 45.3831 14.4807 45.7005 15.078C46.0178 15.666 46.1765 16.352 46.1765 17.136C46.1765 17.9107 46.0178 18.6013 45.7005 19.208C45.3831 19.8147 44.9445 20.286 44.3845 20.622C43.8338 20.958 43.2178 21.126 42.5365 21.126C41.8831 21.126 41.3045 20.9813 40.8005 20.692C40.3058 20.3933 39.9278 20.0247 39.6665 19.586V24.64H38.3925V13.328H39.6665V14.742ZM44.8745 17.136C44.8745 16.5573 44.7578 16.0533 44.5245 15.624C44.2911 15.1947 43.9738 14.868 43.5725 14.644C43.1805 14.42 42.7465 14.308 42.2705 14.308C41.8038 14.308 41.3698 14.4247 40.9685 14.658C40.5765 14.882 40.2591 15.2133 40.0165 15.652C39.7831 16.0813 39.6665 16.5807 39.6665 17.15C39.6665 17.7287 39.7831 18.2373 40.0165 18.676C40.2591 19.1053 40.5765 19.4367 40.9685 19.67C41.3698 19.894 41.8038 20.006 42.2705 20.006C42.7465 20.006 43.1805 19.894 43.5725 19.67C43.9738 19.4367 44.2911 19.1053 44.5245 18.676C44.7578 18.2373 44.8745 17.724 44.8745 17.136ZM47.3774 17.136C47.3774 16.352 47.5361 15.666 47.8534 15.078C48.1707 14.4807 48.6047 14.0187 49.1554 13.692C49.7154 13.3653 50.3361 13.202 51.0174 13.202C51.6894 13.202 52.2727 13.3467 52.7674 13.636C53.2621 13.9253 53.6307 14.2893 53.8734 14.728V13.328H55.1614V21H53.8734V19.572C53.6214 20.02 53.2434 20.3933 52.7394 20.692C52.2447 20.9813 51.6661 21.126 51.0034 21.126C50.3221 21.126 49.7061 20.958 49.1554 20.622C48.6047 20.286 48.1707 19.8147 47.8534 19.208C47.5361 18.6013 47.3774 17.9107 47.3774 17.136ZM53.8734 17.15C53.8734 16.5713 53.7567 16.0673 53.5234 15.638C53.2901 15.2087 52.9727 14.882 52.5714 14.658C52.1794 14.4247 51.7454 14.308 51.2694 14.308C50.7934 14.308 50.3594 14.42 49.9674 14.644C49.5754 14.868 49.2627 15.1947 49.0294 15.624C48.7961 16.0533 48.6794 16.5573 48.6794 17.136C48.6794 17.724 48.7961 18.2373 49.0294 18.676C49.2627 19.1053 49.5754 19.4367 49.9674 19.67C50.3594 19.894 50.7934 20.006 51.2694 20.006C51.7454 20.006 52.1794 19.894 52.5714 19.67C52.9727 19.4367 53.2901 19.1053 53.5234 18.676C53.7567 18.2373 53.8734 17.7287 53.8734 17.15ZM58.5883 14.574C58.8123 14.1353 59.1297 13.7947 59.5403 13.552C59.9603 13.3093 60.469 13.188 61.0663 13.188V14.504H60.7303C59.3023 14.504 58.5883 15.2787 58.5883 16.828V21H57.3143V13.328H58.5883V14.574ZM63.811 14.574C64.035 14.1353 64.3523 13.7947 64.763 13.552C65.183 13.3093 65.6917 13.188 66.289 13.188V14.504H65.953C64.525 14.504 63.811 15.2787 63.811 16.828V21H62.537V13.328H63.811V14.574ZM71.1056 21.126C70.387 21.126 69.7336 20.9627 69.1456 20.636C68.567 20.3093 68.1096 19.8473 67.7736 19.25C67.447 18.6433 67.2836 17.9433 67.2836 17.15C67.2836 16.366 67.4516 15.6753 67.7876 15.078C68.133 14.4713 68.5996 14.0093 69.1876 13.692C69.7756 13.3653 70.4336 13.202 71.1616 13.202C71.8896 13.202 72.5476 13.3653 73.1356 13.692C73.7236 14.0093 74.1856 14.4667 74.5216 15.064C74.867 15.6613 75.0396 16.3567 75.0396 17.15C75.0396 17.9433 74.8623 18.6433 74.5076 19.25C74.1623 19.8473 73.691 20.3093 73.0936 20.636C72.4963 20.9627 71.8336 21.126 71.1056 21.126ZM71.1056 20.006C71.563 20.006 71.9923 19.8987 72.3936 19.684C72.795 19.4693 73.117 19.1473 73.3596 18.718C73.6116 18.2887 73.7376 17.766 73.7376 17.15C73.7376 16.534 73.6163 16.0113 73.3736 15.582C73.131 15.1527 72.8136 14.8353 72.4216 14.63C72.0296 14.4153 71.605 14.308 71.1476 14.308C70.681 14.308 70.2516 14.4153 69.8596 14.63C69.477 14.8353 69.169 15.1527 68.9356 15.582C68.7023 16.0113 68.5856 16.534 68.5856 17.15C68.5856 17.7753 68.6976 18.3027 68.9216 18.732C69.155 19.1613 69.463 19.4833 69.8456 19.698C70.2283 19.9033 70.6483 20.006 71.1056 20.006ZM86.9347 13.328L84.5407 21H83.2247L81.3767 14.91L79.5287 21H78.2127L75.8047 13.328H77.1067L78.8707 19.768L80.7747 13.328H82.0767L83.9387 19.782L85.6747 13.328H86.9347Z" fill="url(#paint0_linear_582_974)"/>
<defs>
<linearGradient id="paint0_linear_582_974" x1="89" y1="16" x2="30" y2="16" gradientUnits="userSpaceOnUse">
<stop stop-color="#6147FF"/>
<stop offset="1" stop-color="#1193F0"/>
</linearGradient>
</defs>
</svg>
