<svg width="24" height="24" viewBox="0 0 24 24" fill="none" xmlns="http://www.w3.org/2000/svg">
<path d="M9.08789 7.96875H12.1055C12.7539 7.96875 13.3066 8.06641 13.7637 8.26172C14.2207 8.45703 14.5703 8.74609 14.8125 9.12891C15.0586 9.50781 15.1816 9.97656 15.1816 10.5352C15.1816 10.9609 15.1035 11.3359 14.9473 11.6602C14.791 11.9844 14.5703 12.2578 14.2852 12.4805C14 12.6992 13.6602 12.8691 13.2656 12.9902L12.8203 13.207H10.1074L10.0957 12.041H12.1289C12.4805 12.041 12.7734 11.9785 13.0078 11.8535C13.2422 11.7285 13.418 11.5586 13.5352 11.3438C13.6562 11.125 13.7168 10.8789 13.7168 10.6055C13.7168 10.3086 13.6582 10.0508 13.541 9.83203C13.4277 9.60938 13.252 9.43945 13.0137 9.32227C12.7754 9.20117 12.4727 9.14062 12.1055 9.14062H10.5586V16.5H9.08789V7.96875ZM13.957 16.5L11.9531 12.668L13.4941 12.6621L15.5273 16.4238V16.5H13.957Z" fill="#45494D"/>
<rect x="0.5" y="0.5" width="23" height="23" rx="11.5" stroke="#45494D"/>
</svg>
