<svg width="8" height="8" viewBox="0 0 8 8" fill="none" xmlns="http://www.w3.org/2000/svg">
<g clip-path="url(#clip0_13404_33167)">
<path d="M1.64219 3.16565C1.7625 2.82502 1.95781 2.50471 2.23281 2.23127C3.20937 1.25471 4.79219 1.25471 5.76875 2.23127L6.03594 2.50002H5.25C4.97344 2.50002 4.75 2.72346 4.75 3.00002C4.75 3.27659 4.97344 3.50002 5.25 3.50002H7.24219H7.24844C7.525 3.50002 7.74844 3.27659 7.74844 3.00002V1.00002C7.74844 0.723462 7.525 0.500024 7.24844 0.500024C6.97187 0.500024 6.74844 0.723462 6.74844 1.00002V1.80002L6.475 1.52502C5.10781 0.157837 2.89219 0.157837 1.525 1.52502C1.14375 1.90627 0.86875 2.35471 0.7 2.8344C0.607812 3.09534 0.745313 3.37971 1.00469 3.4719C1.26406 3.56409 1.55 3.42659 1.64219 3.16721V3.16565ZM0.609375 4.52034C0.53125 4.54377 0.45625 4.58596 0.395312 4.64846C0.332812 4.71096 0.290625 4.78596 0.26875 4.86721C0.264063 4.88596 0.259375 4.90627 0.25625 4.92659C0.251562 4.95315 0.25 4.97971 0.25 5.00627V7.00002C0.25 7.27659 0.473437 7.50002 0.75 7.50002C1.02656 7.50002 1.25 7.27659 1.25 7.00002V6.20159L1.525 6.47502C2.89219 7.84065 5.10781 7.84065 6.47344 6.47502C6.85469 6.09377 7.13125 5.64534 7.3 5.16721C7.39219 4.90627 7.25469 4.6219 6.99531 4.52971C6.73594 4.43752 6.45 4.57502 6.35781 4.8344C6.2375 5.17502 6.04219 5.49534 5.76719 5.76877C4.79063 6.74534 3.20781 6.74534 2.23125 5.76877L2.22969 5.76721L1.9625 5.50002H2.75C3.02656 5.50002 3.25 5.27659 3.25 5.00002C3.25 4.72346 3.02656 4.50002 2.75 4.50002H0.75625C0.73125 4.50002 0.70625 4.50159 0.68125 4.50471C0.65625 4.50784 0.632812 4.51252 0.609375 4.52034Z" fill="#636566"/>
</g>
<defs>
<clipPath id="clip0_13404_33167">
<rect width="8" height="8" fill="white"/>
</clipPath>
</defs>
</svg>
