<svg width="10" height="12" viewBox="0 0 10 12" fill="none" xmlns="http://www.w3.org/2000/svg">
<g clip-path="url(#clip0_6579_52634)">
<path d="M1.33301 2.66732V9.33398C1.33301 9.51732 1.48301 9.66732 1.66634 9.66732H8.33301C8.51634 9.66732 8.66634 9.51732 8.66634 9.33398V4.2194C8.66634 4.1319 8.63092 4.04648 8.56842 3.98398L9.27468 3.27773C9.52468 3.52773 9.66426 3.86732 9.66426 4.22148V9.33398C9.66426 10.0694 9.06634 10.6673 8.33092 10.6673H1.66634C0.930925 10.6673 0.333008 10.0694 0.333008 9.33398V2.66732C0.333008 1.9319 0.930925 1.33398 1.66634 1.33398H6.78092C7.13509 1.33398 7.47467 1.47357 7.72467 1.72357L9.27676 3.27565L8.57051 3.9819L7.01634 2.4319C7.01009 2.42565 7.00592 2.42148 6.99967 2.41523V4.50065C6.99967 4.77773 6.77676 5.00065 6.49967 5.00065H2.49967C2.22259 5.00065 1.99967 4.77773 1.99967 4.50065V2.33398H1.66634C1.48301 2.33398 1.33301 2.48398 1.33301 2.66732ZM2.99967 2.33398V4.00065H5.99967V2.33398H2.99967ZM3.66634 7.33398C3.66634 6.98036 3.80682 6.64122 4.05687 6.39117C4.30691 6.14113 4.64605 6.00065 4.99967 6.00065C5.3533 6.00065 5.69243 6.14113 5.94248 6.39117C6.19253 6.64122 6.33301 6.98036 6.33301 7.33398C6.33301 7.68761 6.19253 8.02674 5.94248 8.27679C5.69243 8.52684 5.3533 8.66732 4.99967 8.66732C4.64605 8.66732 4.30691 8.52684 4.05687 8.27679C3.80682 8.02674 3.66634 7.68761 3.66634 7.33398Z" fill="#1193F0"/>
</g>
<defs>
<clipPath id="clip0_6579_52634">
<rect width="9.33333" height="10.6667" fill="white" transform="translate(0.333008 0.666992)"/>
</clipPath>
</defs>
</svg>
