<svg width="20" height="20" viewBox="0 0 20 20" fill="none" xmlns="http://www.w3.org/2000/svg">
<path d="M19.9446 6.50908C20.0772 6.84899 19.9653 7.22797 19.6793 7.47021L17.8848 9.00957C17.9304 9.33385 17.9552 9.66595 17.9552 10.002C17.9552 10.338 17.9304 10.6701 17.8848 10.9943L19.6793 12.5337C19.9653 12.7759 20.0772 13.1549 19.9446 13.4948C19.7622 13.9598 19.5425 14.4052 19.2897 14.8349L19.0949 15.1514C18.8214 15.5812 18.5147 15.9875 18.179 16.3704C17.9345 16.6517 17.5284 16.7455 17.1636 16.6361L14.8552 15.9445C14.2998 16.3469 13.6865 16.6829 13.0317 16.9369L12.5136 19.1678C12.4307 19.5233 12.1406 19.8046 11.7593 19.8633C11.1874 19.9531 10.5989 20 9.99793 20C9.39699 20 8.80848 19.9531 8.23654 19.8633C7.85526 19.8046 7.56515 19.5233 7.48226 19.1678L6.96421 16.9369C6.30939 16.6829 5.69601 16.3469 5.14066 15.9445L2.83635 16.64C2.47164 16.7494 2.06549 16.6517 1.82097 16.3743C1.48527 15.9914 1.17858 15.5851 0.90505 15.1553L0.710262 14.8388C0.457452 14.4091 0.237797 13.9637 0.0554424 13.4987C-0.0771793 13.1588 0.0347202 12.7798 0.320686 12.5376L2.11522 10.9982C2.06963 10.6701 2.04477 10.338 2.04477 10.002C2.04477 9.66595 2.06963 9.33385 2.11522 9.00957L0.320686 7.47021C0.0347202 7.22797 -0.0771793 6.84899 0.0554424 6.50908C0.237797 6.04415 0.457452 5.59875 0.710262 5.16898L0.90505 4.85251C1.17858 4.42274 1.48527 4.01641 1.82097 3.63352C2.06549 3.35222 2.47164 3.25845 2.83635 3.36785L5.1448 4.05939C5.70015 3.65696 6.31353 3.32096 6.96835 3.06701L7.4864 0.836101C7.56929 0.480563 7.8594 0.199258 8.24069 0.140652C8.81262 0.0468842 9.40113 0 10.0021 0C10.603 0 11.1915 0.0468842 11.7635 0.136745C12.1447 0.195351 12.4349 0.476656 12.5177 0.832194L13.0358 3.0631C13.6906 3.31705 14.304 3.65306 14.8593 4.05548L17.1678 3.36394C17.5325 3.25454 17.9387 3.35222 18.1832 3.62962C18.5189 4.0125 18.8256 4.41883 19.0991 4.8486L19.2939 5.16507C19.5467 5.59484 19.7663 6.04024 19.9487 6.50518L19.9446 6.50908ZM10.0021 13.1276C10.8814 13.1276 11.7247 12.7983 12.3465 12.2121C12.9683 11.6259 13.3176 10.8309 13.3176 10.002C13.3176 9.17299 12.9683 8.37798 12.3465 7.79181C11.7247 7.20565 10.8814 6.87634 10.0021 6.87634C9.12274 6.87634 8.27941 7.20565 7.65763 7.79181C7.03584 8.37798 6.68653 9.17299 6.68653 10.002C6.68653 10.8309 7.03584 11.6259 7.65763 12.2121C8.27941 12.7983 9.12274 13.1276 10.0021 13.1276Z" fill="white"/>
</svg>
