<svg width="12" height="11" viewBox="0 0 12 11" fill="none" xmlns="http://www.w3.org/2000/svg">
<path d="M1.33333 2.5C1.15 2.5 1 2.65 1 2.83333V8.16667C1 8.35 1.15 8.5 1.33333 8.5H10.6667C10.85 8.5 11 8.35 11 8.16667V2.83333C11 2.65 10.85 2.5 10.6667 2.5H1.33333ZM0 2.83333C0 2.09792 0.597917 1.5 1.33333 1.5H10.6667C11.4021 1.5 12 2.09792 12 2.83333V8.16667C12 8.90208 11.4021 9.5 10.6667 9.5H1.33333C0.597917 9.5 0 8.90208 0 8.16667V2.83333ZM3.66667 6.83333H8.33333C8.51667 6.83333 8.66667 6.98333 8.66667 7.16667V7.5C8.66667 7.68333 8.51667 7.83333 8.33333 7.83333H3.66667C3.48333 7.83333 3.33333 7.68333 3.33333 7.5V7.16667C3.33333 6.98333 3.48333 6.83333 3.66667 6.83333ZM2.16667 5.33333C2.16667 5.15 2.31667 5 2.5 5H2.83333C3.01667 5 3.16667 5.15 3.16667 5.33333V5.66667C3.16667 5.85 3.01667 6 2.83333 6H2.5C2.31667 6 2.16667 5.85 2.16667 5.66667V5.33333ZM2.5 3.33333H2.83333C3.01667 3.33333 3.16667 3.48333 3.16667 3.66667V4C3.16667 4.18333 3.01667 4.33333 2.83333 4.33333H2.5C2.31667 4.33333 2.16667 4.18333 2.16667 4V3.66667C2.16667 3.48333 2.31667 3.33333 2.5 3.33333ZM3.83333 5.33333C3.83333 5.15 3.98333 5 4.16667 5H4.5C4.68333 5 4.83333 5.15 4.83333 5.33333V5.66667C4.83333 5.85 4.68333 6 4.5 6H4.16667C3.98333 6 3.83333 5.85 3.83333 5.66667V5.33333ZM4.16667 3.33333H4.5C4.68333 3.33333 4.83333 3.48333 4.83333 3.66667V4C4.83333 4.18333 4.68333 4.33333 4.5 4.33333H4.16667C3.98333 4.33333 3.83333 4.18333 3.83333 4V3.66667C3.83333 3.48333 3.98333 3.33333 4.16667 3.33333ZM5.5 5.33333C5.5 5.15 5.65 5 5.83333 5H6.16667C6.35 5 6.5 5.15 6.5 5.33333V5.66667C6.5 5.85 6.35 6 6.16667 6H5.83333C5.65 6 5.5 5.85 5.5 5.66667V5.33333ZM5.83333 3.33333H6.16667C6.35 3.33333 6.5 3.48333 6.5 3.66667V4C6.5 4.18333 6.35 4.33333 6.16667 4.33333H5.83333C5.65 4.33333 5.5 4.18333 5.5 4V3.66667C5.5 3.48333 5.65 3.33333 5.83333 3.33333ZM7.16667 5.33333C7.16667 5.15 7.31667 5 7.5 5H7.83333C8.01667 5 8.16667 5.15 8.16667 5.33333V5.66667C8.16667 5.85 8.01667 6 7.83333 6H7.5C7.31667 6 7.16667 5.85 7.16667 5.66667V5.33333ZM7.5 3.33333H7.83333C8.01667 3.33333 8.16667 3.48333 8.16667 3.66667V4C8.16667 4.18333 8.01667 4.33333 7.83333 4.33333H7.5C7.31667 4.33333 7.16667 4.18333 7.16667 4V3.66667C7.16667 3.48333 7.31667 3.33333 7.5 3.33333ZM8.83333 5.33333C8.83333 5.15 8.98333 5 9.16667 5H9.5C9.68333 5 9.83333 5.15 9.83333 5.33333V5.66667C9.83333 5.85 9.68333 6 9.5 6H9.16667C8.98333 6 8.83333 5.85 8.83333 5.66667V5.33333ZM9.16667 3.33333H9.5C9.68333 3.33333 9.83333 3.48333 9.83333 3.66667V4C9.83333 4.18333 9.68333 4.33333 9.5 4.33333H9.16667C8.98333 4.33333 8.83333 4.18333 8.83333 4V3.66667C8.83333 3.48333 8.98333 3.33333 9.16667 3.33333Z" fill="white"/>
</svg>
