<svg width="12" height="11" viewBox="0 0 12 11" fill="none" xmlns="http://www.w3.org/2000/svg">
<g clip-path="url(#clip0_2580_11611)">
<path d="M11.1376 5.97051C11.398 5.71009 11.398 5.28717 11.1376 5.02676L8.47091 2.36009C8.2105 2.09967 7.78758 2.09967 7.52716 2.36009C7.26675 2.62051 7.26675 3.04342 7.52716 3.30384L9.05633 4.83301H4.66675C4.298 4.83301 4.00008 5.13092 4.00008 5.49967C4.00008 5.86842 4.298 6.16634 4.66675 6.16634H9.05633L7.52716 7.69551C7.26675 7.95592 7.26675 8.37884 7.52716 8.63926C7.78758 8.89967 8.2105 8.89967 8.47091 8.63926L11.1376 5.97259V5.97051ZM4.00008 2.16634C4.36883 2.16634 4.66675 1.86842 4.66675 1.49967C4.66675 1.13092 4.36883 0.833008 4.00008 0.833008H2.66675C1.56258 0.833008 0.666748 1.72884 0.666748 2.83301V8.16634C0.666748 9.27051 1.56258 10.1663 2.66675 10.1663H4.00008C4.36883 10.1663 4.66675 9.86842 4.66675 9.49967C4.66675 9.13092 4.36883 8.83301 4.00008 8.83301H2.66675C2.298 8.83301 2.00008 8.53509 2.00008 8.16634V2.83301C2.00008 2.46426 2.298 2.16634 2.66675 2.16634H4.00008Z" fill="white"/>
</g>
<defs>
<clipPath id="clip0_2580_11611">
<rect width="10.6667" height="10.6667" fill="white" transform="translate(0.666748 0.166504)"/>
</clipPath>
</defs>
</svg>
