<svg width="25" height="25" viewBox="0 0 25 25" fill="none" xmlns="http://www.w3.org/2000/svg">
<circle cx="12.5" cy="12.5" r="12.5" fill="url(#paint0_linear_3002_160451)"/>
<path d="M18.9702 11.2906C19.0005 11.2694 19.0346 11.2569 19.0712 11.253L19.8543 11.1697C19.8764 11.1674 19.8873 11.1959 19.8696 11.2094C18.427 12.3122 17.3346 13.1289 15.7549 14.4213C15.2988 14.7945 14.1556 14.8883 14.2828 14.7963C15.3563 13.8341 18.5527 11.5837 18.9702 11.2906Z" fill="white"/>
<path d="M18.4906 7.96988C18.9726 7.88255 20.2575 8.35656 20.7389 8.49411C20.8489 8.52552 20.9815 8.94582 20.9646 9.08587C20.9631 9.09866 20.9581 9.11045 20.9524 9.12198L20.1592 10.7331C20.1535 10.7447 20.1491 10.7568 20.1444 10.7688C20.1142 10.8467 20.0423 10.9013 19.9584 10.9082L19.4697 10.9486C19.438 10.9512 18.9552 10.9744 18.9552 10.9744C18.9552 10.9744 14.5359 14.2085 13.9415 14.6755C13.8788 14.7247 13.0928 14.8211 13.0195 14.7901L10.6573 13.707C10.4748 13.6299 10.7944 13.5148 10.9795 13.4442L17.0826 11.1164C17.2075 11.0687 17.2613 10.9201 17.1932 10.8044C16.8422 10.2074 16.514 9.79954 16.317 9.57746C16.2234 9.47183 16.2382 9.30243 16.3558 9.22477C16.8398 8.90511 18.0175 8.05559 18.4906 7.96988Z" fill="white"/>
<path d="M5.97791 5.16177L5.62434 4.73851C5.47905 4.56458 5.65842 4.30981 5.8695 4.39031L13.0235 7.11878C13.0372 7.124 13.0503 7.13057 13.0626 7.13845C14.8188 8.25893 16.2195 10.0232 16.6854 10.6489C16.7712 10.7641 16.7211 10.9271 16.5872 10.9773L11.7765 12.779C11.6859 12.8129 11.5839 12.783 11.5256 12.7055L8.01523 8.03966L5.97791 5.16177Z" fill="white"/>
<path d="M20.7092 10.7891C20.5716 10.7847 20.4766 10.6376 20.5356 10.5123L21.0559 9.40559C21.0602 9.39642 21.0636 9.38681 21.0671 9.3773C21.1128 9.2532 21.2723 9.21753 21.3659 9.31092C21.3724 9.31739 21.3777 9.32487 21.3826 9.33261L22.2482 10.6959C22.3094 10.7923 22.2435 10.906 22.1303 10.8958C21.7798 10.8641 21.155 10.8033 20.7092 10.7891Z" fill="white"/>
<path d="M12.0525 15.0687C12.0915 14.9623 12.1866 14.7995 12.0853 14.75L11.0385 14.224C10.7976 14.1142 10.6119 14.0296 10.4687 13.9644C10.2358 13.8583 9.8637 13.9912 9.74871 14.221L7.04071 19.634C7.03176 19.6519 7.02665 19.6704 7.02318 19.6901C6.97351 19.9727 6.48573 21.6907 6.4447 21.8682C6.44095 21.8844 6.45114 21.8683 6.46171 21.8554L12.0525 15.0687Z" fill="white"/>
<path d="M13.6609 15.0956C13.7048 15.0467 13.6676 14.9688 13.6022 14.9729L12.4683 15.0443C12.4281 15.0468 12.3906 15.066 12.3649 15.0973L9.16151 18.9971C9.1363 19.0278 9.16961 19.0698 9.20444 19.0509C9.63888 18.8152 10.8938 18.0978 11.7236 17.2515L13.6609 15.0956Z" fill="white"/>
<path d="M5.375 9.93837C5.375 9.93837 7.10732 9.47012 8.8942 9.93554L10.0196 11.1614L11.337 12.9423L10.6163 12.9736C10.5844 12.975 10.5529 12.9658 10.5267 12.9475L8.85528 11.7791L5.375 9.93837Z" fill="white"/>
<defs>
<linearGradient id="paint0_linear_3002_160451" x1="25.431" y1="12.5" x2="-9.11771e-08" y2="12.5" gradientUnits="userSpaceOnUse">
<stop stop-color="#6147FF"/>
<stop offset="1" stop-color="#1193F0"/>
</linearGradient>
</defs>
</svg>
