<svg width="172" height="178" viewBox="0 0 172 178" fill="none" xmlns="http://www.w3.org/2000/svg">
<path d="M138.23 70.551C138.534 70.3377 138.877 70.212 139.246 70.1729L147.121 69.3356C147.343 69.3121 147.452 69.5991 147.275 69.7348C132.766 80.8254 121.78 89.0393 105.893 102.037C101.305 105.791 89.8081 106.733 91.0873 105.808C101.884 96.1314 134.03 73.4986 138.23 70.551Z" stroke="url(#paint0_linear_2817_25500)" stroke-width="0.5"/>
<path d="M133.405 37.1542C138.253 36.2759 151.176 41.0432 156.018 42.4265C157.124 42.7424 158.457 46.9694 158.288 48.3779C158.272 48.5065 158.222 48.6251 158.165 48.7411L150.187 64.9448C150.13 65.0608 150.086 65.1827 150.039 65.3033C149.735 66.0868 149.011 66.6358 148.168 66.7055L143.253 67.1115C142.934 67.1378 138.078 67.3713 138.078 67.3713C138.078 67.3713 93.6331 99.8972 87.655 104.594C87.0247 105.089 79.1197 106.058 78.3825 105.747L54.6255 94.8529C52.7901 94.0782 56.0045 92.9208 57.8654 92.2104L119.245 68.7991C120.501 68.3195 121.043 66.8253 120.358 65.6611C116.828 59.6572 113.527 55.5554 111.546 53.3219C110.604 52.2596 110.754 50.5559 111.936 49.7748C116.804 46.56 128.647 38.0162 133.405 37.1542Z" stroke="url(#paint1_linear_2817_25500)" stroke-width="0.5"/>
<path d="M7.564 8.9127L4.00818 4.65588C2.54695 2.90659 4.35089 0.344375 6.4737 1.154L78.4224 28.5946C78.5599 28.6471 78.6919 28.7132 78.8162 28.7924C96.4785 40.0612 110.565 57.805 115.251 64.0975C116.113 65.2558 115.61 66.8952 114.263 67.3999L65.8809 85.5201C64.9699 85.8613 63.9446 85.5608 63.3576 84.7807L28.0537 37.856L7.564 8.9127Z" stroke="url(#paint2_linear_2817_25500)" stroke-width="0.5"/>
<path d="M155.719 65.5073C154.335 65.4631 153.38 63.9837 153.972 62.7233L159.205 51.5934C159.249 51.5011 159.283 51.4045 159.318 51.3088C159.778 50.0608 161.382 49.702 162.323 50.6413C162.388 50.7063 162.442 50.7816 162.492 50.8594L171.197 64.5707C171.812 65.5399 171.149 66.6835 170.011 66.5806C166.486 66.2618 160.202 65.6502 155.719 65.5073Z" stroke="url(#paint3_linear_2817_25500)" stroke-width="0.5"/>
<path d="M68.6573 108.548C69.0492 107.478 70.0057 105.84 68.9866 105.343L58.459 100.053C56.0362 98.949 54.1684 98.098 52.7285 97.442C50.3866 96.3751 46.644 97.711 45.4875 100.023L18.2528 154.462C18.1627 154.642 18.1114 154.828 18.0765 155.027C17.5769 157.869 12.6712 175.147 12.2586 176.931C12.2209 177.095 12.3234 176.932 12.4296 176.803L68.6573 108.548Z" stroke="url(#paint4_linear_2817_25500)" stroke-width="0.5"/>
<path d="M84.8329 108.819C85.2747 108.327 84.9 107.544 84.2427 107.585L72.839 108.303C72.4341 108.328 72.0577 108.521 71.7992 108.836L39.582 148.057C39.3284 148.365 39.6635 148.788 40.0137 148.598C44.383 146.227 57.0043 139.012 65.3497 130.501L84.8329 108.819Z" stroke="url(#paint5_linear_2817_25500)" stroke-width="0.5"/>
<path d="M1.50049 56.9516C1.50049 56.9516 18.9226 52.2423 36.8936 56.9232L48.2117 69.2513L61.4609 87.1622L54.2126 87.4771C53.892 87.491 53.5756 87.3988 53.312 87.2145L36.5022 75.4638L1.50049 56.9516Z" stroke="url(#paint6_linear_2817_25500)" stroke-width="0.5"/>
<defs>
<linearGradient id="paint0_linear_2817_25500" x1="1.50049" y1="1" x2="171.501" y2="192" gradientUnits="userSpaceOnUse">
<stop offset="0.145" stop-color="#1193F0"/>
<stop offset="0.8" stop-color="#0F1215"/>
</linearGradient>
<linearGradient id="paint1_linear_2817_25500" x1="1.50049" y1="1" x2="171.501" y2="192" gradientUnits="userSpaceOnUse">
<stop offset="0.145" stop-color="#1193F0"/>
<stop offset="0.8" stop-color="#0F1215"/>
</linearGradient>
<linearGradient id="paint2_linear_2817_25500" x1="1.50049" y1="1" x2="171.501" y2="192" gradientUnits="userSpaceOnUse">
<stop offset="0.145" stop-color="#1193F0"/>
<stop offset="0.8" stop-color="#0F1215"/>
</linearGradient>
<linearGradient id="paint3_linear_2817_25500" x1="1.50049" y1="1" x2="171.501" y2="192" gradientUnits="userSpaceOnUse">
<stop offset="0.145" stop-color="#1193F0"/>
<stop offset="0.8" stop-color="#0F1215"/>
</linearGradient>
<linearGradient id="paint4_linear_2817_25500" x1="1.50049" y1="1" x2="171.501" y2="192" gradientUnits="userSpaceOnUse">
<stop offset="0.145" stop-color="#1193F0"/>
<stop offset="0.8" stop-color="#0F1215"/>
</linearGradient>
<linearGradient id="paint5_linear_2817_25500" x1="1.50049" y1="1" x2="171.501" y2="192" gradientUnits="userSpaceOnUse">
<stop offset="0.145" stop-color="#1193F0"/>
<stop offset="0.8" stop-color="#0F1215"/>
</linearGradient>
<linearGradient id="paint6_linear_2817_25500" x1="1.50049" y1="1" x2="171.501" y2="192" gradientUnits="userSpaceOnUse">
<stop offset="0.145" stop-color="#1193F0"/>
<stop offset="0.8" stop-color="#0F1215"/>
</linearGradient>
</defs>
</svg>
