<svg width="12" height="12" viewBox="0 0 12 12" fill="none" xmlns="http://www.w3.org/2000/svg">
<g clip-path="url(#clip0_1869_908)">
<path d="M5.99999 1.66675C7.14926 1.66675 8.25146 2.12329 9.06412 2.93595C9.87678 3.74861 10.3333 4.85081 10.3333 6.00008C10.3333 7.14935 9.87678 8.25155 9.06412 9.06421C8.25146 9.87687 7.14926 10.3334 5.99999 10.3334C4.85072 10.3334 3.74852 9.87687 2.93586 9.06421C2.1232 8.25155 1.66666 7.14935 1.66666 6.00008C1.66666 4.85081 2.1232 3.74861 2.93586 2.93595C3.74852 2.12329 4.85072 1.66675 5.99999 1.66675ZM5.99999 11.3334C7.41448 11.3334 8.77103 10.7715 9.77123 9.77132C10.7714 8.77112 11.3333 7.41457 11.3333 6.00008C11.3333 4.58559 10.7714 3.22904 9.77123 2.22885C8.77103 1.22865 7.41448 0.666748 5.99999 0.666748C4.5855 0.666748 3.22895 1.22865 2.22875 2.22885C1.22856 3.22904 0.666656 4.58559 0.666656 6.00008C0.666656 7.41457 1.22856 8.77112 2.22875 9.77132C3.22895 10.7715 4.5855 11.3334 5.99999 11.3334ZM8.35416 5.02091C8.54999 4.82508 8.54999 4.50841 8.35416 4.31466C8.15832 4.12091 7.84166 4.11883 7.64791 4.31466L5.33541 6.62716L4.35624 5.648C4.16041 5.45216 3.84374 5.45216 3.64999 5.648C3.45624 5.84383 3.45416 6.1605 3.64999 6.35425L4.98332 7.68758C5.17916 7.88341 5.49582 7.88341 5.68957 7.68758L8.35416 5.02091Z" fill="#45494D"/>
</g>
<defs>
<clipPath id="clip0_1869_908">
<rect width="10.6667" height="10.6667" fill="white" transform="translate(0.666656 0.666748)"/>
</clipPath>
</defs>
</svg>
