<svg width="8" height="12" viewBox="0 0 8 12" fill="none" xmlns="http://www.w3.org/2000/svg">
<path d="M7.13744 3.80435C7.39785 3.54393 7.39785 3.12101 7.13744 2.8606C6.87702 2.60018 6.4541 2.60018 6.19369 2.8606L3.99993 5.05643L1.8041 2.86268C1.54368 2.60226 1.12077 2.60226 0.860352 2.86268C0.599935 3.1231 0.599935 3.54601 0.860352 3.80643L3.05618 6.00018L0.862435 8.19601C0.602018 8.45643 0.602018 8.87935 0.862435 9.13976C1.12285 9.40018 1.54577 9.40018 1.80618 9.13976L3.99993 6.94393L6.19577 9.13768C6.45619 9.3981 6.8791 9.3981 7.13952 9.13768C7.39994 8.87726 7.39994 8.45435 7.13952 8.19393L4.94369 6.00018L7.13744 3.80435Z" fill="#FE8C98"/>
</svg>
