<svg width="16" height="16" viewBox="0 0 16 16" fill="none" xmlns="http://www.w3.org/2000/svg">
<g clip-path="url(#clip0_4756_24689)">
<path d="M8.66602 4.33366C8.66602 3.96491 8.3681 3.66699 7.99935 3.66699C7.6306 3.66699 7.33268 3.96491 7.33268 4.33366V7.33366H4.33268C3.96393 7.33366 3.66602 7.63158 3.66602 8.00033C3.66602 8.36908 3.96393 8.66699 4.33268 8.66699H7.33268V11.667C7.33268 12.0357 7.6306 12.3337 7.99935 12.3337C8.3681 12.3337 8.66602 12.0357 8.66602 11.667V8.66699H11.666C12.0348 8.66699 12.3327 8.36908 12.3327 8.00033C12.3327 7.63158 12.0348 7.33366 11.666 7.33366H8.66602V4.33366Z" fill="white"/>
</g>
<defs>
<clipPath id="clip0_4756_24689">
<rect width="9.33333" height="10.6667" fill="white" transform="translate(3.33301 2.66699)"/>
</clipPath>
</defs>
</svg>
