<svg width="24" height="24" viewBox="0 0 24 24" fill="none" xmlns="http://www.w3.org/2000/svg">
<g clip-path="url(#clip0_1290_11773)">
<path d="M17.5 5.5H10.5C9.94688 5.5 9.5 5.94687 9.5 6.5V7H8V6.5C8 5.11875 9.11875 4 10.5 4H17.5C18.8813 4 20 5.11875 20 6.5V13.5C20 14.8813 18.8813 16 17.5 16H17V14.5H17.5C18.0531 14.5 18.5 14.0531 18.5 13.5V6.5C18.5 5.94687 18.0531 5.5 17.5 5.5ZM5.5 18C5.5 18.275 5.725 18.5 6 18.5H14C14.275 18.5 14.5 18.275 14.5 18V12H5.5V18ZM6 8H14C15.1031 8 16 8.89687 16 10V18C16 19.1031 15.1031 20 14 20H6C4.89688 20 4 19.1031 4 18V10C4 8.89687 4.89688 8 6 8Z" fill="white"/>
</g>
<defs>
<clipPath id="clip0_1290_11773">
<rect width="16" height="16" fill="white" transform="translate(4 4)"/>
</clipPath>
</defs>
</svg>
