<svg xmlns="http://www.w3.org/2000/svg" width="24" height="24" viewBox="0 0 24 24" fill="none">
  <path d="M4.24375 14.3781C4.17188 14.4156 4.1 14.4875 4.0625 14.5625C4.00313 14.6813 4 14.7438 4 16.6562C4 18.5687 4.00313 18.6312 4.0625 18.75C4.10312 18.8312 4.16875 18.8969 4.25 18.9375C4.36875 19 4.42812 19 6.65625 19C8.88438 19 8.94375 19 9.0625 18.9375C9.14375 18.8969 9.20937 18.8312 9.25 18.75C9.30938 18.6312 9.3125 18.5687 9.3125 16.6562C9.3125 14.7438 9.30938 14.6813 9.25 14.5625C9.20937 14.4812 9.14375 14.4156 9.0625 14.375C8.94375 14.3125 8.88438 14.3125 6.65 14.3125C4.43125 14.3156 4.35625 14.3187 4.24375 14.3781ZM8.375 16.6562V18.0625H6.65625H4.9375V16.6562V15.25H6.65625H8.375V16.6562Z" fill="white" stroke="white" stroke-width="0.5"/>
  <path d="M10.5563 14.3781C10.4844 14.4156 10.4125 14.4875 10.375 14.5625C10.3156 14.6813 10.3125 14.7438 10.3125 16.6562C10.3125 18.5687 10.3156 18.6312 10.375 18.75C10.4156 18.8312 10.4813 18.8969 10.5625 18.9375C10.6844 19 10.7375 19 15.1562 19C19.575 19 19.6281 19 19.75 18.9375C19.8313 18.8969 19.8969 18.8312 19.9375 18.75C19.9969 18.6312 20 18.5687 20 16.6562C20 14.7438 19.9969 14.6813 19.9375 14.5625C19.8969 14.4812 19.8313 14.4156 19.75 14.375C19.6281 14.3125 19.5781 14.3125 15.15 14.3125C10.7531 14.3156 10.6688 14.3156 10.5563 14.3781ZM19.0625 16.6562V18.0625H15.1562H11.25V16.6562V15.25H15.1562H19.0625V16.6562Z" fill="white" stroke="white" stroke-width="0.5"/>
  <path d="M4.24375 4.00313C4.17188 4.04062 4.1 4.1125 4.0625 4.1875C4 4.30937 4 4.3625 4 9.125C4 13.8875 4 13.9406 4.0625 14.0625C4.10312 14.1437 4.16875 14.2094 4.25 14.25C4.37188 14.3125 4.42812 14.3125 7.75 14.3125C11.0719 14.3125 11.1281 14.3125 11.25 14.25C11.3313 14.2094 11.3969 14.1437 11.4375 14.0625C11.5 13.9406 11.5 13.8875 11.5 9.125C11.5 4.3625 11.5 4.30937 11.4375 4.1875C11.3969 4.10625 11.3313 4.04062 11.25 4C11.1281 3.9375 11.075 3.9375 7.74375 3.9375C4.43438 3.94063 4.35625 3.94063 4.24375 4.00313ZM10.5625 9.125V13.375H7.75H4.9375V9.125V4.875H7.75H10.5625V9.125Z" fill="white" stroke="white" stroke-width="0.5"/>
  <path d="M12.7438 4.00313C12.6719 4.04062 12.6 4.1125 12.5625 4.1875C12.5 4.30937 12.5 4.3625 12.5 9.125C12.5 13.8875 12.5 13.9406 12.5625 14.0625C12.6031 14.1437 12.6688 14.2094 12.75 14.25C12.8719 14.3125 12.9281 14.3125 16.25 14.3125C19.5719 14.3125 19.6281 14.3125 19.75 14.25C19.8313 14.2094 19.8969 14.1437 19.9375 14.0625C20 13.9406 20 13.8875 20 9.125C20 4.3625 20 4.30937 19.9375 4.1875C19.8969 4.10625 19.8313 4.04062 19.75 4C19.6281 3.9375 19.575 3.9375 16.2438 3.9375C12.9344 3.94063 12.8563 3.94063 12.7438 4.00313ZM19.0625 6.2125V7.55312L16.2906 8.60938C14.7625 9.19062 13.4969 9.67188 13.4781 9.67812C13.4469 9.69062 13.4375 9.2 13.4375 7.28437V4.875H16.25H19.0625V6.2125ZM19.0625 10.9688V13.375H16.25H13.4375V12.0375V10.7L16.2281 9.63438C17.7594 9.04688 19.025 8.56562 19.0406 8.56562C19.0531 8.5625 19.0625 9.64375 19.0625 10.9688Z" fill="white" stroke="white" stroke-width="0.5"/>
</svg>