<svg width="24" height="24" viewBox="0 0 24 24" fill="none" xmlns="http://www.w3.org/2000/svg">
<path d="M16.7063 8.70625C17.0969 8.31563 17.0969 7.68125 16.7063 7.29063C16.3156 6.9 15.6813 6.9 15.2906 7.29063L12 10.5844L8.70627 7.29375C8.31565 6.90313 7.68127 6.90313 7.29065 7.29375C6.90002 7.68438 6.90002 8.31875 7.29065 8.70938L10.5844 12L7.29377 15.2938C6.90315 15.6844 6.90315 16.3188 7.29377 16.7094C7.6844 17.1 8.31877 17.1 8.7094 16.7094L12 13.4156L15.2938 16.7063C15.6844 17.0969 16.3188 17.0969 16.7094 16.7063C17.1 16.3156 17.1 15.6813 16.7094 15.2906L13.4156 12L16.7063 8.70625Z" fill="white"/>
</svg>
