<svg width="20" height="20" viewBox="0 0 20 20" fill="none" xmlns="http://www.w3.org/2000/svg">
<path d="M13.3808 2.26461L13.0557 3.26848C12.9546 3.57368 12.784 3.85101 12.5574 4.07843C12.3309 4.30585 12.0546 4.47709 11.7505 4.57854L10.7503 4.9048L10.7303 4.90982C10.6532 4.93711 10.5865 4.98774 10.5392 5.05471C10.492 5.12169 10.4667 5.20171 10.4667 5.28376C10.4667 5.36581 10.492 5.44584 10.5392 5.51281C10.5865 5.57978 10.6532 5.63041 10.7303 5.65771L11.7305 5.98396C12.0346 6.08542 12.3109 6.25666 12.5374 6.48408C12.764 6.71149 12.9346 6.98882 13.0357 7.29402L13.3608 8.29789C13.388 8.37527 13.4384 8.44227 13.5051 8.48966C13.5719 8.53705 13.6516 8.5625 13.7333 8.5625C13.8151 8.5625 13.8948 8.53705 13.9615 8.48966C13.9681 8.48499 13.9745 8.48012 13.9808 8.47508C14.038 8.42895 14.0814 8.36764 14.1059 8.29789L14.431 7.29402C14.4484 7.24075 14.468 7.18833 14.4897 7.13686C14.5923 6.89255 14.7411 6.66983 14.9283 6.48124C14.9639 6.44537 15.0007 6.4109 15.0387 6.37787C15.2425 6.2006 15.4794 6.06489 15.7362 5.97894L16.7364 5.65269C16.8135 5.62539 16.8802 5.57477 16.9274 5.50779C16.9746 5.44082 17 5.36079 17 5.27874C17 5.1967 16.9746 5.11667 16.9274 5.04969C16.8802 4.98272 16.8135 4.9321 16.7364 4.9048L15.7362 4.57854C15.4358 4.47444 15.1635 4.30202 14.9405 4.07475C14.7176 3.84749 14.55 3.57154 14.451 3.26848L14.1259 2.26461C14.0987 2.18724 14.0483 2.12024 13.9815 2.07284C13.9148 2.02545 13.8351 2 13.7533 2C13.6716 2 13.5919 2.02545 13.5251 2.07284C13.4584 2.12024 13.408 2.18724 13.3808 2.26461ZM3 6.21875C3 5.95987 3.20893 5.75 3.46667 5.75H7.2C7.45773 5.75 7.66667 5.95987 7.66667 6.21875C7.66667 6.47763 7.45773 6.6875 7.2 6.6875H4.59332L8.6001 10.7121L10.1367 9.16855C10.2242 9.08064 10.3429 9.03125 10.4667 9.03125C10.5904 9.03125 10.7091 9.08063 10.7966 9.16854L15.93 14.3248C16.1122 14.5078 16.1122 14.8046 15.93 14.9877C15.7477 15.1708 15.4523 15.1708 15.27 14.9877L10.4667 10.1629L8.93011 11.7064C8.84259 11.7944 8.72389 11.8437 8.60012 11.8437C8.47635 11.8438 8.35765 11.7944 8.27013 11.7065L3.93333 7.35039V9.96875C3.93333 10.2276 3.7244 10.4375 3.46667 10.4375C3.20893 10.4375 3 10.2276 3 9.96875V6.21875ZM3.91701 14.1543L3.2026 14.3874L3.18831 14.3909C3.13325 14.4104 3.08557 14.4466 3.05184 14.4944C3.01811 14.5423 3 14.5994 3 14.658C3 14.7166 3.01811 14.7738 3.05184 14.8216C3.08557 14.8695 3.13325 14.9056 3.18831 14.9251L3.90272 15.1582C4.11992 15.2307 4.31728 15.353 4.47912 15.5154C4.64097 15.6779 4.76283 15.8759 4.83503 16.0939L5.06721 16.811C5.08664 16.8663 5.12267 16.9141 5.17033 16.948C5.21799 16.9818 5.27494 17 5.33333 17C5.39172 17 5.44867 16.9818 5.49634 16.948C5.544 16.9141 5.58003 16.8663 5.59945 16.811L5.83164 16.0939C5.90336 15.8753 6.02501 15.6765 6.18688 15.5134C6.34875 15.3503 6.54636 15.2274 6.76394 15.1546L7.47836 14.9216C7.53342 14.9021 7.5811 14.8659 7.61483 14.8181C7.64855 14.7702 7.66667 14.7131 7.66667 14.6545C7.66667 14.5959 7.64855 14.5387 7.61483 14.4909C7.5811 14.443 7.53342 14.4069 7.47836 14.3874L6.76394 14.1543C6.54939 14.08 6.35488 13.9568 6.19563 13.7945C6.03637 13.6321 5.91668 13.435 5.84592 13.2186L5.61374 12.5015C5.59431 12.4462 5.55829 12.3984 5.51062 12.3645C5.46296 12.3307 5.40601 12.3125 5.34762 12.3125C5.28923 12.3125 5.23228 12.3307 5.18462 12.3645C5.13696 12.3984 5.10093 12.4462 5.0815 12.5015L4.84932 13.2186C4.77712 13.4366 4.65526 13.6346 4.49341 13.7971C4.33157 13.9595 4.13421 14.0818 3.91701 14.1543Z" fill="white"/>
</svg>
