<svg width="3" height="12" viewBox="0 0 3 12" fill="none" xmlns="http://www.w3.org/2000/svg">
<path d="M1.52595 12C1.12055 12 0.773621 11.8532 0.485171 11.5597C0.196229 11.2657 0.0517578 10.9125 0.0517578 10.5C0.0517578 10.0875 0.196229 9.73425 0.485171 9.44025C0.773621 9.14675 1.12055 9 1.52595 9C1.93135 9 2.27853 9.14675 2.56747 9.44025C2.85592 9.73425 3.00014 10.0875 3.00014 10.5C3.00014 10.9125 2.85592 11.2657 2.56747 11.5597C2.27853 11.8532 1.93135 12 1.52595 12ZM1.52595 7.5C1.12055 7.5 0.773621 7.353 0.485171 7.059C0.196229 6.7655 0.0517578 6.4125 0.0517578 6C0.0517578 5.5875 0.196229 5.23425 0.485171 4.94025C0.773621 4.64675 1.12055 4.5 1.52595 4.5C1.93135 4.5 2.27853 4.64675 2.56747 4.94025C2.85592 5.23425 3.00014 5.5875 3.00014 6C3.00014 6.4125 2.85592 6.7655 2.56747 7.059C2.27853 7.353 1.93135 7.5 1.52595 7.5ZM1.52595 3C1.12055 3 0.773621 2.853 0.485171 2.559C0.196229 2.2655 0.0517578 1.9125 0.0517578 1.5C0.0517578 1.0875 0.196229 0.7345 0.485171 0.441C0.773621 0.147 1.12055 0 1.52595 0C1.93135 0 2.27853 0.147 2.56747 0.441C2.85592 0.7345 3.00014 1.0875 3.00014 1.5C3.00014 1.9125 2.85592 2.2655 2.56747 2.559C2.27853 2.853 1.93135 3 1.52595 3Z" fill="#686D73"/>
</svg>
