<svg width="15" height="14" viewBox="0 0 15 14" fill="none" xmlns="http://www.w3.org/2000/svg">
<path d="M3.88889 5.94444V13.5H1.27778C1.20411 13.5 1.13345 13.4707 1.08136 13.4186C1.02927 13.3665 1 13.2959 1 13.2222V5.94444H3.88889ZM14 5.94444V13.2222C14 13.2959 13.9707 13.3665 13.9186 13.4186C13.8665 13.4707 13.7959 13.5 13.7222 13.5H6.44444V5.94444H14ZM13.7222 0.5C13.7959 0.5 13.8665 0.529266 13.9186 0.581359C13.9707 0.633452 14 0.704105 14 0.777778V3.38889H1V0.777778C1 0.704106 1.02927 0.633453 1.08136 0.581359C1.13345 0.529266 1.20411 0.5 1.27778 0.5H13.7222Z" stroke="#0B5ED7"/>
</svg>
