<svg width="24" height="24" viewBox="0 0 24 24" fill="none" xmlns="http://www.w3.org/2000/svg">
<path d="M16.7066 8.70615C17.0973 8.31553 17.0973 7.68115 16.7066 7.29053C16.316 6.8999 15.6816 6.8999 15.291 7.29053L12.0004 10.5843L8.70664 7.29365C8.31602 6.90303 7.68164 6.90303 7.29102 7.29365C6.90039 7.68428 6.90039 8.31865 7.29102 8.70928L10.5848 11.9999L7.29414 15.2937C6.90352 15.6843 6.90352 16.3187 7.29414 16.7093C7.68477 17.0999 8.31914 17.0999 8.70977 16.7093L12.0004 13.4155L15.2941 16.7062C15.6848 17.0968 16.3191 17.0968 16.7098 16.7062C17.1004 16.3155 17.1004 15.6812 16.7098 15.2905L13.416 11.9999L16.7066 8.70615Z" fill="#8A9299"/>
</svg>
