<svg width="19" height="14" viewBox="0 0 19 14" fill="none" xmlns="http://www.w3.org/2000/svg">
<path d="M2.94141 11H1.3125L1.31836 9.68164H2.94141C3.33984 9.68164 3.66211 9.60938 3.9082 9.46484C4.1543 9.32031 4.33203 9.10352 4.44141 8.81445C4.55469 8.52539 4.61133 8.16406 4.61133 7.73047V7.4375C4.61133 7.12109 4.58008 6.8418 4.51758 6.59961C4.45508 6.35352 4.35742 6.15039 4.22461 5.99023C4.0918 5.82617 3.91797 5.70312 3.70312 5.62109C3.48828 5.53906 3.22656 5.49805 2.91797 5.49805H1.27734V4.17383H2.91797C3.41406 4.17383 3.86914 4.25391 4.2832 4.41406C4.69727 4.57422 5.05469 4.80078 5.35547 5.09375C5.66016 5.38281 5.89453 5.72852 6.05859 6.13086C6.22266 6.5293 6.30469 6.96875 6.30469 7.44922V7.73047C6.30469 8.36719 6.16016 8.93359 5.87109 9.42969C5.58594 9.92188 5.18945 10.3066 4.68164 10.584C4.17383 10.8613 3.59375 11 2.94141 11ZM2.27344 4.17383V11H0.585938V4.17383H2.27344ZM12.2812 9.68164V11H8.35547V9.68164H12.2812ZM8.95312 4.17383V11H7.26562V4.17383H8.95312ZM11.7773 6.81055V8.12891H8.35547V6.81055H11.7773ZM12.2871 4.17383V5.49805H8.35547V4.17383H12.2871ZM17.8477 9.68164V11H14.1328V9.68164H17.8477ZM14.7305 4.17383V11H13.043V4.17383H14.7305Z" fill="#FF7878"/>
</svg>
