<svg width="21" height="20" viewBox="0 0 21 20" fill="none" xmlns="http://www.w3.org/2000/svg">
<path d="M10 4C10 6.20914 8.20914 8 6 8C3.79086 8 2 6.20914 2 4C2 1.79086 3.79086 0 6 0C8.20914 0 10 1.79086 10 4ZM18 5C18 6.65685 16.6569 8 15 8C13.3431 8 12 6.65685 12 5C12 3.34315 13.3431 2 15 2C16.6569 2 18 3.34315 18 5ZM0 12.25C0 11.0074 1.00736 10 2.25 10H9.75C10.0663 10 10.3674 10.0653 10.6405 10.1831C9.61992 11.3311 9 12.8431 9 14.5C9 15.1564 9.09731 15.7901 9.27829 16.3875C8.45775 16.7585 7.38985 17 6 17C0 17 0 12.5 0 12.5V12.25ZM15.5011 20.0024C18.5393 20.0024 21.0023 17.5395 21.0023 14.5012C21.0023 11.463 18.5393 9 15.5011 9C12.4629 9 10 11.463 10 14.5012C10 15.4692 10.25 16.3787 10.6889 17.1688L10.0231 19.3553C9.90658 19.7381 10.2644 20.0959 10.6471 19.9795L12.8343 19.3139C13.6242 19.7526 14.5335 20.0024 15.5011 20.0024ZM13.5009 14.0011C13.2247 14.0011 13.0008 13.7772 13.0008 13.501C13.0008 13.2248 13.2247 13.0009 13.5009 13.0009H17.5015C17.7777 13.0009 18.0016 13.2248 18.0016 13.501C18.0016 13.7772 17.7777 14.0011 17.5015 14.0011H13.5009ZM15.5011 16.0015H13.5009C13.2247 16.0015 13.0008 15.7776 13.0008 15.5014C13.0008 15.2252 13.2247 15.0013 13.5009 15.0013H15.5011C15.7773 15.0013 16.0012 15.2252 16.0012 15.5014C16.0012 15.7776 15.7773 16.0015 15.5011 16.0015Z" fill="url(#paint0_linear_2410_1166)"/>
<defs>
<linearGradient id="paint0_linear_2410_1166" x1="0" y1="0" x2="23.6313" y2="17.0287" gradientUnits="userSpaceOnUse">
<stop stop-color="#11ADF0"/>
<stop offset="0.5" stop-color="#316CF6"/>
<stop offset="1" stop-color="#6147FF"/>
</linearGradient>
</defs>
</svg>
