<svg width="28" height="14" viewBox="0 0 28 14" fill="none" xmlns="http://www.w3.org/2000/svg">
<path d="M3.48633 8.7207H1.64648V7.40234H3.48633C3.74414 7.40234 3.95703 7.36523 4.125 7.29102C4.29297 7.21289 4.41602 7.10938 4.49414 6.98047C4.57617 6.84766 4.61719 6.69727 4.61719 6.5293C4.61719 6.3457 4.57617 6.17578 4.49414 6.01953C4.41602 5.86328 4.29297 5.73828 4.125 5.64453C3.95703 5.54688 3.74414 5.49805 3.48633 5.49805H2.27344V11H0.585938V4.17383H3.48633C4.07227 4.17383 4.57422 4.27539 4.99219 4.47852C5.41406 4.68164 5.73633 4.95898 5.95898 5.31055C6.18555 5.66211 6.29883 6.06445 6.29883 6.51758C6.29883 6.8457 6.23438 7.14648 6.10547 7.41992C5.98047 7.68945 5.79492 7.92188 5.54883 8.11719C5.30664 8.3125 5.01172 8.46289 4.66406 8.56836C4.32031 8.66992 3.92773 8.7207 3.48633 8.7207ZM10.7695 4.17383V11H9.07031V4.17383H10.7695ZM12.9902 4.17383V5.49805H6.89648V4.17383H12.9902ZM17.9766 8.67383H19.6699C19.6426 9.1582 19.5039 9.58203 19.2539 9.94531C19.0039 10.3086 18.6582 10.5918 18.2168 10.7949C17.7754 10.9941 17.2559 11.0938 16.6582 11.0938C16.1699 11.0938 15.7344 11.0176 15.3516 10.8652C14.9727 10.7129 14.6504 10.4922 14.3848 10.2031C14.1191 9.91406 13.916 9.56445 13.7754 9.1543C13.6387 8.74414 13.5703 8.2793 13.5703 7.75977V7.41992C13.5703 6.90039 13.6426 6.43555 13.7871 6.02539C13.9316 5.61133 14.1387 5.25977 14.4082 4.9707C14.6777 4.68164 15 4.46094 15.375 4.30859C15.75 4.15234 16.1699 4.07422 16.6348 4.07422C17.2676 4.07422 17.8008 4.18164 18.2344 4.39648C18.6719 4.61133 19.0098 4.90625 19.248 5.28125C19.4902 5.65234 19.6328 6.07617 19.6758 6.55273H17.9883C17.9766 6.33398 17.9258 6.13867 17.8359 5.9668C17.7461 5.79102 17.6035 5.65234 17.4082 5.55078C17.2168 5.44922 16.959 5.39844 16.6348 5.39844C16.4082 5.39844 16.209 5.43945 16.0371 5.52148C15.8652 5.60352 15.7207 5.72852 15.6035 5.89648C15.4902 6.06445 15.4043 6.27539 15.3457 6.5293C15.2871 6.7793 15.2578 7.07422 15.2578 7.41406V7.75977C15.2578 8.10352 15.2832 8.40234 15.334 8.65625C15.3887 8.91016 15.4727 9.12109 15.5859 9.28906C15.6992 9.45312 15.8438 9.57617 16.0195 9.6582C16.1992 9.74023 16.4121 9.78125 16.6582 9.78125C16.9395 9.78125 17.1758 9.74219 17.3672 9.66406C17.5586 9.58203 17.7051 9.45898 17.8066 9.29492C17.9082 9.13086 17.9648 8.92383 17.9766 8.67383ZM25.4941 6.99219V8.31055H21.6914V6.99219H25.4941ZM22.2422 4.17383V11H20.5547V4.17383H22.2422ZM26.6426 4.17383V11H24.9551V4.17383H26.6426Z" fill="#DF77F9"/>
</svg>
