<svg width="27" height="14" viewBox="0 0 27 14" fill="none" xmlns="http://www.w3.org/2000/svg">
<path d="M3.48633 8.7207H1.64648V7.40234H3.48633C3.74414 7.40234 3.95703 7.36523 4.125 7.29102C4.29297 7.21289 4.41602 7.10938 4.49414 6.98047C4.57617 6.84766 4.61719 6.69727 4.61719 6.5293C4.61719 6.3457 4.57617 6.17578 4.49414 6.01953C4.41602 5.86328 4.29297 5.73828 4.125 5.64453C3.95703 5.54688 3.74414 5.49805 3.48633 5.49805H2.27344V11H0.585938V4.17383H3.48633C4.07227 4.17383 4.57422 4.27539 4.99219 4.47852C5.41406 4.68164 5.73633 4.95898 5.95898 5.31055C6.18555 5.66211 6.29883 6.06445 6.29883 6.51758C6.29883 6.8457 6.23438 7.14648 6.10547 7.41992C5.98047 7.68945 5.79492 7.92188 5.54883 8.11719C5.30664 8.3125 5.01172 8.46289 4.66406 8.56836C4.32031 8.66992 3.92773 8.7207 3.48633 8.7207ZM13.4414 7.44922V7.73047C13.4414 8.25 13.3633 8.7168 13.207 9.13086C13.0547 9.54492 12.8379 9.89844 12.5566 10.1914C12.2754 10.4844 11.9395 10.709 11.5488 10.8652C11.1621 11.0176 10.7344 11.0938 10.2656 11.0938C9.79688 11.0938 9.36719 11.0176 8.97656 10.8652C8.58984 10.709 8.25391 10.4844 7.96875 10.1914C7.68359 9.89844 7.46289 9.54492 7.30664 9.13086C7.15039 8.7168 7.07227 8.25 7.07227 7.73047V7.44922C7.07227 6.92578 7.14844 6.45898 7.30078 6.04883C7.45703 5.63477 7.67578 5.28125 7.95703 4.98828C8.24219 4.69141 8.57812 4.4668 8.96484 4.31445C9.35547 4.1582 9.78516 4.08008 10.2539 4.08008C10.7227 4.08008 11.1504 4.1582 11.5371 4.31445C11.9277 4.4668 12.2656 4.69141 12.5508 4.98828C12.8359 5.28125 13.0547 5.63477 13.207 6.04883C13.3633 6.45898 13.4414 6.92578 13.4414 7.44922ZM11.748 7.73047V7.4375C11.748 7.10938 11.7129 6.82031 11.6426 6.57031C11.5762 6.31641 11.4785 6.10352 11.3496 5.93164C11.2246 5.75586 11.0684 5.62305 10.8809 5.5332C10.6973 5.43945 10.4883 5.39258 10.2539 5.39258C10.0156 5.39258 9.80273 5.43945 9.61523 5.5332C9.43164 5.62305 9.27734 5.75586 9.15234 5.93164C9.02734 6.10352 8.93164 6.31641 8.86523 6.57031C8.80273 6.82031 8.77148 7.10938 8.77148 7.4375V7.73047C8.77148 8.05469 8.80273 8.34375 8.86523 8.59766C8.93164 8.85156 9.0293 9.06836 9.1582 9.24805C9.28711 9.42383 9.44336 9.55859 9.62695 9.65234C9.81445 9.74219 10.0273 9.78711 10.2656 9.78711C10.5 9.78711 10.709 9.74219 10.8926 9.65234C11.0762 9.55859 11.2305 9.42383 11.3555 9.24805C11.4844 9.06836 11.582 8.85156 11.6484 8.59766C11.7148 8.34375 11.748 8.05469 11.748 7.73047ZM18.2227 9.17188C18.2227 9.0625 18.2012 8.96289 18.1582 8.87305C18.1152 8.7793 18.043 8.69531 17.9414 8.62109C17.8438 8.54688 17.7109 8.47656 17.543 8.41016C17.375 8.34375 17.166 8.28125 16.916 8.22266C16.4863 8.12109 16.1133 8.00977 15.7969 7.88867C15.4844 7.76367 15.2246 7.62109 15.0176 7.46094C14.8145 7.29688 14.6621 7.10156 14.5605 6.875C14.459 6.64844 14.4082 6.38281 14.4082 6.07812C14.4082 5.78516 14.4727 5.51562 14.6016 5.26953C14.7305 5.02344 14.9121 4.8125 15.1465 4.63672C15.3809 4.46094 15.6582 4.32422 15.9785 4.22656C16.2988 4.12891 16.6484 4.08008 17.0273 4.08008C17.5781 4.08008 18.0645 4.16602 18.4863 4.33789C18.9121 4.50977 19.2441 4.75391 19.4824 5.07031C19.7207 5.38281 19.8398 5.75977 19.8398 6.20117H18.1523C18.1523 6.03711 18.1074 5.88672 18.0176 5.75C17.9316 5.61328 17.8066 5.50391 17.6426 5.42188C17.4785 5.33594 17.2754 5.29297 17.0332 5.29297C16.7988 5.29297 16.6055 5.33008 16.4531 5.4043C16.3008 5.47461 16.1875 5.56641 16.1133 5.67969C16.043 5.78906 16.0078 5.90234 16.0078 6.01953C16.0078 6.11719 16.0293 6.20703 16.0723 6.28906C16.1191 6.37109 16.1914 6.44727 16.2891 6.51758C16.3906 6.58398 16.5215 6.64844 16.6816 6.71094C16.8457 6.76953 17.043 6.82812 17.2734 6.88672C17.7031 6.98047 18.0762 7.0918 18.3926 7.2207C18.7129 7.3457 18.9785 7.49609 19.1895 7.67188C19.4043 7.84766 19.5645 8.05664 19.6699 8.29883C19.7754 8.53711 19.8281 8.8125 19.8281 9.125C19.8281 9.4375 19.7637 9.7168 19.6348 9.96289C19.5098 10.2051 19.3281 10.4102 19.0898 10.5781C18.8555 10.7461 18.5723 10.875 18.2402 10.9648C17.9121 11.0508 17.5449 11.0938 17.1387 11.0938C16.7754 11.0938 16.418 11.0508 16.0664 10.9648C15.7148 10.8789 15.3965 10.7461 15.1113 10.5664C14.8262 10.3828 14.5977 10.1484 14.4258 9.86328C14.2578 9.57812 14.1738 9.23633 14.1738 8.83789H15.8672C15.8672 9.02539 15.8945 9.18555 15.9492 9.31836C16.0078 9.45117 16.0938 9.56055 16.207 9.64648C16.3242 9.72852 16.4668 9.78906 16.6348 9.82812C16.8066 9.86719 17.0039 9.88672 17.2266 9.88672C17.4766 9.88672 17.6738 9.85156 17.8184 9.78125C17.9668 9.70703 18.0703 9.61523 18.1289 9.50586C18.1914 9.39648 18.2227 9.28516 18.2227 9.17188ZM24.3398 4.17383V11H22.6406V4.17383H24.3398ZM26.5605 4.17383V5.49805H20.4668V4.17383H26.5605Z" fill="#FFE47E"/>
</svg>
