<svg width="1077" height="731" viewBox="0 0 1077 731" fill="none" xmlns="http://www.w3.org/2000/svg">
<path d="M923.433 241.128L923.432 241.128C909.185 252.199 895.474 262.824 882.1 273.189C809.172 329.704 746.268 378.452 661.188 449.204C646.762 461.202 621.396 468.748 600.573 472.542C590.174 474.436 580.947 475.388 574.838 475.497C571.767 475.552 569.539 475.391 568.345 475.056C568.05 474.974 567.845 474.887 567.713 474.807C567.639 474.762 567.603 474.728 567.586 474.709C567.59 474.701 567.596 474.69 567.604 474.676C567.654 474.594 567.769 474.466 567.997 474.298L568.019 474.283L568.039 474.265C636.424 411.96 840.097 266.204 866.721 247.206C868.579 245.884 870.669 245.105 872.917 244.861L922.823 239.465C923.262 239.419 923.592 239.671 923.732 240.041C923.872 240.413 923.796 240.846 923.433 241.128ZM567.579 474.729C567.579 474.729 567.579 474.728 567.58 474.725C567.58 474.727 567.579 474.729 567.579 474.729Z" stroke="url(#paint0_linear_15998_4997)" stroke-width="1.01876"/>
<path d="M993.019 103.922L993.018 103.924C992.933 104.663 992.647 105.357 992.288 106.099L941.738 210.465L942.196 210.687L941.737 210.465C941.431 211.1 941.18 211.76 940.938 212.396C940.884 212.538 940.831 212.678 940.778 212.816L940.777 212.818C938.92 217.687 934.502 221.092 929.357 221.522L929.399 222.03L929.356 221.522L898.211 224.139C897.213 224.222 889.03 224.64 881.076 225.037C877.104 225.235 873.195 225.428 870.279 225.572C868.821 225.644 867.611 225.703 866.766 225.744L865.786 225.792L865.528 225.805L865.462 225.808L865.445 225.809L865.441 225.809L865.44 225.809L865.285 225.817L865.161 225.909L865.465 226.318C865.161 225.909 865.16 225.91 865.157 225.912L865.148 225.919L865.109 225.947L864.956 226.061L864.352 226.511L861.988 228.27C859.916 229.811 856.872 232.077 852.985 234.971C845.209 240.758 834.06 249.06 820.562 259.117C793.566 279.231 757.176 306.364 719.603 334.443C644.462 390.597 564.571 450.543 545.622 465.675C545.438 465.822 545.073 466.01 544.494 466.227C543.927 466.439 543.199 466.664 542.327 466.898C540.584 467.365 538.295 467.86 535.636 468.36C530.318 469.359 523.547 470.375 516.75 471.228C509.953 472.082 503.139 472.772 497.737 473.124C495.035 473.3 492.693 473.391 490.887 473.376C489.983 473.369 489.221 473.335 488.618 473.273C488.007 473.211 487.605 473.124 487.387 473.032C487.385 473.031 487.383 473.03 487.381 473.029L336.853 402.873L336.846 402.869L336.839 402.866C335.418 402.257 334.556 401.637 334.1 401.045C333.666 400.483 333.588 399.936 333.767 399.362C333.957 398.751 334.452 398.071 335.257 397.335C336.055 396.606 337.118 395.857 338.381 395.102C343.027 392.321 350.131 389.576 355.842 387.369C356.358 387.17 356.862 386.975 357.352 386.785L746.307 235.992L746.123 235.517L746.307 235.992C754.559 232.788 758.109 222.816 753.613 215.05C731.225 176.345 710.289 149.895 697.715 135.492C691.93 128.852 692.874 118.241 700.088 113.403L699.804 112.98L700.088 113.403C705.3 109.903 711.764 105.431 719.056 100.386C733.374 90.4804 750.883 78.3673 768.367 67.0774C781.555 58.5607 794.714 50.5229 806.455 44.2692C818.209 38.0081 828.493 33.5615 835.948 32.189C843.532 30.7927 854.333 31.6361 866.799 33.857C879.25 36.0751 893.306 39.6561 907.372 43.6954C921.436 47.7343 935.501 52.2286 947.972 56.2712C950.112 56.9651 952.206 57.6458 954.245 58.3087C964.08 61.5058 972.638 64.2878 978.999 66.1346C979.75 66.3527 980.573 66.9273 981.444 67.8534C982.31 68.7737 983.189 70.0055 984.058 71.4765C985.797 74.4179 987.464 78.2616 988.884 82.3406C990.304 86.4171 991.472 90.7114 992.217 94.5463C992.965 98.3946 993.278 101.734 993.019 103.922Z" stroke="url(#paint1_linear_15998_4997)" stroke-width="1.01876"/>
<path d="M38.8473 -150.515L38.8357 -150.531L38.8228 -150.547L16.2897 -177.968L16.2896 -177.968C11.8227 -183.403 12.3407 -190.093 15.6101 -194.813C18.8782 -199.531 24.8612 -202.236 31.3362 -199.726L487.263 -22.9753L487.264 -22.975C488.104 -22.651 488.907 -22.2398 489.661 -21.7475L489.662 -21.7467C601.504 50.7795 690.726 165.007 720.411 205.529C725.679 212.719 722.603 222.893 714.382 226.025L407.794 342.739C402.237 344.852 395.977 342.99 392.395 338.15L168.686 35.914L168.678 35.9021L38.8473 -150.515Z" stroke="url(#paint2_linear_15998_4997)" stroke-width="1.01876"/>
<path d="M966.657 196.588L966.657 196.588C963.053 204.368 968.864 213.522 977.275 213.796C1002.43 214.61 1036.5 217.788 1059.49 219.931C1062.49 220.211 1065.3 220.473 1067.87 220.71C1071.28 221.022 1073.95 219.443 1075.31 217.077C1076.68 214.707 1076.76 211.506 1074.91 208.537L1019.74 120.224L966.657 196.588ZM966.657 196.588L999.816 124.896L999.817 124.895M966.657 196.588L999.817 124.895M999.817 124.895C1000.07 124.347 1000.27 123.778 1000.47 123.235C1000.5 123.164 1000.52 123.093 1000.55 123.023L1000.55 123.023M999.817 124.895L1000.55 123.023M1000.55 123.023C1003.33 115.327 1013.05 113.128 1018.75 118.905L1000.55 123.023ZM1018.75 118.905C1019.12 119.287 1019.44 119.736 1019.74 120.223L1018.75 118.905Z" stroke="url(#paint3_linear_15998_4997)" stroke-width="1.01876"/>
<path d="M425.105 491.288L69.0146 930.665C70.3977 925.088 74.3738 910.407 79.2294 892.478C81.6353 883.594 84.2572 873.913 86.8865 864.148C95.3761 832.616 103.949 800.184 105.536 791.001C105.752 789.755 106.067 788.607 106.609 787.505L279.191 436.854C282.78 429.562 290.416 423.76 299.033 420.636C307.651 417.512 317.143 417.105 324.405 420.468L324.619 420.006L324.405 420.468C333.527 424.691 345.36 430.17 360.709 437.281C360.712 437.282 360.715 437.284 360.718 437.285L427.414 471.351L427.419 471.353C428.879 472.078 429.619 473.199 429.892 474.603C430.171 476.04 429.963 477.786 429.46 479.708C428.96 481.624 428.182 483.662 427.366 485.668C427.136 486.233 426.903 486.796 426.672 487.353C426.102 488.73 425.549 490.066 425.105 491.288ZM68.1678 932.01H68.1678H68.1678Z" stroke="url(#paint4_linear_15998_4997)" stroke-width="1.01876"/>
<path d="M452.084 490.461L452.084 490.461L524.348 485.836C528.035 485.601 530.191 490.09 527.675 492.939C527.675 492.939 527.675 492.939 527.675 492.939L404.217 632.588C351.395 687.348 271.481 733.786 243.799 749.052C242.93 749.531 242.112 749.246 241.643 748.647C241.17 748.042 241.063 747.128 241.705 746.333C241.705 746.333 241.705 746.333 241.705 746.333L445.858 493.706L445.463 493.387L445.858 493.706C447.408 491.788 449.666 490.614 452.084 490.461Z" stroke="url(#paint5_linear_15998_4997)" stroke-width="1.01876"/>
<path d="M295.605 238.749L378.991 353.333L334.005 355.318L334.005 355.318C332.088 355.404 330.195 354.842 328.616 353.721C328.615 353.721 328.615 353.721 328.615 353.721L222.095 278.033L222.069 278.015L222.041 278L1.38021 159.372C1.38492 159.371 1.38964 159.37 1.39438 159.369C2.22794 159.155 3.46653 158.844 5.08405 158.46C8.31913 157.69 13.0698 156.625 19.1274 155.44C31.2427 153.069 48.5842 150.222 69.4818 148.316C111.245 144.507 167.191 144.459 224.003 159.474L295.605 238.749Z" stroke="url(#paint6_linear_15998_4997)" stroke-width="1.01876"/>
<defs>
<linearGradient id="paint0_linear_15998_4997" x1="745.689" y1="238.95" x2="745.689" y2="476.017" gradientUnits="userSpaceOnUse">
<stop stop-color="white" stop-opacity="0.35"/>
<stop offset="1" stop-color="#0E0E0E" stop-opacity="0"/>
</linearGradient>
<linearGradient id="paint1_linear_15998_4997" x1="663.393" y1="30.998" x2="663.393" y2="473.887" gradientUnits="userSpaceOnUse">
<stop stop-color="white" stop-opacity="0.35"/>
<stop offset="1" stop-color="#0E0E0E" stop-opacity="0"/>
</linearGradient>
<linearGradient id="paint2_linear_15998_4997" x1="368.033" y1="-201.193" x2="368.033" y2="344.11" gradientUnits="userSpaceOnUse">
<stop stop-color="white" stop-opacity="0.35"/>
<stop offset="1" stop-color="#0E0E0E" stop-opacity="0"/>
</linearGradient>
<linearGradient id="paint3_linear_15998_4997" x1="1020.94" y1="115.128" x2="1020.94" y2="221.258" gradientUnits="userSpaceOnUse">
<stop stop-color="white" stop-opacity="0.35"/>
<stop offset="1" stop-color="#0E0E0E" stop-opacity="0"/>
</linearGradient>
<linearGradient id="paint4_linear_15998_4997" x1="249.322" y1="417.605" x2="249.322" y2="932.452" gradientUnits="userSpaceOnUse">
<stop stop-color="white" stop-opacity="0.35"/>
<stop offset="1" stop-color="#0E0E0E" stop-opacity="0"/>
</linearGradient>
<linearGradient id="paint5_linear_15998_4997" x1="385.008" y1="485.317" x2="385.008" y2="749.804" gradientUnits="userSpaceOnUse">
<stop stop-color="white" stop-opacity="0.35"/>
<stop offset="1" stop-color="#0E0E0E" stop-opacity="0"/>
</linearGradient>
<linearGradient id="paint6_linear_15998_4997" x1="189.98" y1="145.67" x2="189.98" y2="355.836" gradientUnits="userSpaceOnUse">
<stop stop-color="white" stop-opacity="0.35"/>
<stop offset="1" stop-color="#0E0E0E" stop-opacity="0"/>
</linearGradient>
</defs>
</svg>
