<svg width="20" height="20" viewBox="0 0 20 20" fill="none" xmlns="http://www.w3.org/2000/svg">
<mask id="mask0_10214_490" style="mask-type:alpha" maskUnits="userSpaceOnUse" x="0" y="0" width="20" height="20">
<rect width="20" height="20" fill="#D9D9D9"/>
</mask>
<g mask="url(#mask0_10214_490)">
<path d="M0.791667 11.0833C0.541667 10.5833 0.347222 10.0764 0.208333 9.5625C0.0694444 9.04861 0 8.52778 0 8C0 6.44444 0.527778 5.13889 1.58333 4.08333C2.63889 3.02778 3.94444 2.5 5.5 2.5C6.375 2.5 7.20833 2.68403 8 3.05208C8.79167 3.42014 9.45833 3.93056 10 4.58333C10.5417 3.93056 11.2083 3.42014 12 3.05208C12.7917 2.68403 13.625 2.5 14.5 2.5C16.0556 2.5 17.3611 3.02778 18.4167 4.08333C19.4722 5.13889 20 6.44444 20 8C20 8.52778 19.9306 9.04861 19.7917 9.5625C19.6528 10.0764 19.4583 10.5833 19.2083 11.0833C19.0556 10.8194 18.875 10.5833 18.6667 10.375C18.4583 10.1667 18.2153 10 17.9375 9.875C18.0625 9.55556 18.1597 9.24306 18.2292 8.9375C18.2986 8.63195 18.3333 8.31945 18.3333 8C18.3333 6.91667 17.9653 6.00694 17.2292 5.27083C16.4931 4.53472 15.5833 4.16667 14.5 4.16667C13.375 4.16667 12.5104 4.47569 11.9062 5.09375C11.3021 5.71181 10.6667 6.40278 10 7.16667C9.33333 6.38889 8.69792 5.69444 8.09375 5.08333C7.48958 4.47222 6.625 4.16667 5.5 4.16667C4.41667 4.16667 3.50694 4.53472 2.77083 5.27083C2.03472 6.00694 1.66667 6.91667 1.66667 8C1.66667 8.31945 1.70139 8.63195 1.77083 8.9375C1.84028 9.24306 1.9375 9.55556 2.0625 9.875C1.78472 10 1.54167 10.1667 1.33333 10.375C1.125 10.5833 0.944444 10.8194 0.791667 11.0833ZM0 18.3333V17.0208C0 16.4097 0.309028 15.9201 0.927083 15.5521C1.54514 15.184 2.34722 15 3.33333 15C3.51389 15 3.6875 15.0035 3.85417 15.0104C4.02083 15.0174 4.18056 15.0347 4.33333 15.0625C4.13889 15.3403 3.99306 15.6389 3.89583 15.9583C3.79861 16.2778 3.75 16.6181 3.75 16.9792V18.3333H0ZM5 18.3333V16.9792C5 16.0764 5.46181 15.3472 6.38542 14.7917C7.30903 14.2361 8.51389 13.9583 10 13.9583C11.5 13.9583 12.7083 14.2361 13.625 14.7917C14.5417 15.3472 15 16.0764 15 16.9792V18.3333H5ZM16.25 18.3333V16.9792C16.25 16.6181 16.2049 16.2778 16.1146 15.9583C16.0243 15.6389 15.8889 15.3403 15.7083 15.0625C15.8611 15.0347 16.0174 15.0174 16.1771 15.0104C16.3368 15.0035 16.5 15 16.6667 15C17.6667 15 18.4722 15.184 19.0833 15.5521C19.6944 15.9201 20 16.4097 20 17.0208V18.3333H16.25ZM10 15.625C9.20833 15.625 8.5 15.7292 7.875 15.9375C7.25 16.1458 6.88194 16.3889 6.77083 16.6667H13.25C13.125 16.3889 12.7535 16.1458 12.1354 15.9375C11.5174 15.7292 10.8056 15.625 10 15.625ZM3.33333 14.1667C2.875 14.1667 2.48264 14.0035 2.15625 13.6771C1.82986 13.3507 1.66667 12.9583 1.66667 12.5C1.66667 12.0278 1.82986 11.6319 2.15625 11.3125C2.48264 10.9931 2.875 10.8333 3.33333 10.8333C3.80556 10.8333 4.20139 10.9931 4.52083 11.3125C4.84028 11.6319 5 12.0278 5 12.5C5 12.9583 4.84028 13.3507 4.52083 13.6771C4.20139 14.0035 3.80556 14.1667 3.33333 14.1667ZM16.6667 14.1667C16.2083 14.1667 15.816 14.0035 15.4896 13.6771C15.1632 13.3507 15 12.9583 15 12.5C15 12.0278 15.1632 11.6319 15.4896 11.3125C15.816 10.9931 16.2083 10.8333 16.6667 10.8333C17.1389 10.8333 17.5347 10.9931 17.8542 11.3125C18.1736 11.6319 18.3333 12.0278 18.3333 12.5C18.3333 12.9583 18.1736 13.3507 17.8542 13.6771C17.5347 14.0035 17.1389 14.1667 16.6667 14.1667ZM10 13.3333C9.30556 13.3333 8.71528 13.0903 8.22917 12.6042C7.74306 12.1181 7.5 11.5278 7.5 10.8333C7.5 10.125 7.74306 9.53125 8.22917 9.05208C8.71528 8.57292 9.30556 8.33333 10 8.33333C10.7083 8.33333 11.3021 8.57292 11.7812 9.05208C12.2604 9.53125 12.5 10.125 12.5 10.8333C12.5 11.5278 12.2604 12.1181 11.7812 12.6042C11.3021 13.0903 10.7083 13.3333 10 13.3333ZM10 10C9.76389 10 9.56597 10.0799 9.40625 10.2396C9.24653 10.3993 9.16667 10.5972 9.16667 10.8333C9.16667 11.0694 9.24653 11.2674 9.40625 11.4271C9.56597 11.5868 9.76389 11.6667 10 11.6667C10.2361 11.6667 10.434 11.5868 10.5938 11.4271C10.7535 11.2674 10.8333 11.0694 10.8333 10.8333C10.8333 10.5972 10.7535 10.3993 10.5938 10.2396C10.434 10.0799 10.2361 10 10 10Z" fill="#A5B5CA"/>
</g>
</svg>
