<svg width="960" height="689" viewBox="0 0 960 689" fill="none" xmlns="http://www.w3.org/2000/svg">
<path d="M772.431 261.2C774.148 259.994 776.089 259.284 778.17 259.062L822.663 254.329C823.915 254.196 824.534 255.819 823.531 256.586C741.565 319.286 679.499 365.722 589.749 439.205C563.833 460.424 498.881 465.754 506.108 460.523C567.102 405.817 748.707 277.864 772.431 261.2Z" fill="#151515"/>
<path d="M745.178 72.3946C772.564 67.4293 845.568 94.3803 872.923 102.201C879.171 103.987 886.703 127.884 885.746 135.847C885.659 136.574 885.376 137.244 885.053 137.9L839.982 229.506C839.66 230.162 839.409 230.851 839.145 231.533C837.426 235.962 833.341 239.066 828.575 239.46L800.807 241.755C799.007 241.904 771.576 243.224 771.576 243.224C771.576 243.224 520.49 427.106 486.717 453.657C483.156 456.457 438.498 461.934 434.333 460.175L300.122 398.589C289.753 394.209 307.912 387.666 318.425 383.65L665.181 251.296C672.278 248.585 675.336 240.137 671.469 233.555C651.525 199.613 632.877 176.424 621.686 163.797C616.364 157.791 617.209 148.16 623.89 143.744C651.389 125.569 718.298 77.2679 745.178 72.3946Z" fill="#151515"/>
<path d="M34.2549 -87.2662L14.1668 -111.332C5.91183 -121.221 16.1029 -135.707 28.0954 -131.129L434.559 24.0036C435.336 24.3002 436.081 24.6738 436.784 25.122C536.564 88.8289 616.145 189.142 642.615 224.716C647.488 231.264 644.646 240.532 637.034 243.386L363.708 345.827C358.561 347.755 352.769 346.057 349.453 341.646L150.008 76.3623L34.2549 -87.2662Z" fill="#151515"/>
<path d="M871.233 232.686C863.414 232.437 858.019 224.073 861.367 216.947L890.93 154.025C891.175 153.504 891.366 152.957 891.566 152.416C894.165 145.361 903.225 143.332 908.543 148.642C908.911 149.01 909.217 149.436 909.496 149.876L958.673 227.391C962.15 232.871 958.404 239.336 951.976 238.754C932.06 236.951 896.56 233.494 871.233 232.686Z" fill="#151515"/>
<path d="M379.392 476.012C381.606 469.963 387.01 460.705 381.253 457.891L321.779 427.986C308.091 421.746 297.54 416.935 289.405 413.226C276.175 407.194 255.031 414.747 248.498 427.816L94.6396 735.582C94.1308 736.599 93.8406 737.653 93.6435 738.775C90.8214 754.842 63.1075 852.523 60.7765 862.612C60.5633 863.534 61.1424 862.617 61.7426 861.887L379.392 476.012Z" fill="#151515"/>
<path d="M470.774 477.545C473.27 474.765 471.153 470.335 467.44 470.569L403.016 474.626C400.729 474.77 398.603 475.861 397.142 477.64L215.136 699.371C213.703 701.116 215.596 703.506 217.575 702.431C242.258 689.03 313.561 648.241 360.707 600.122L470.774 477.545Z" fill="#151515"/>
<path d="M0 184.317C0 184.317 98.4239 157.694 199.948 184.156L263.888 253.852L338.737 355.11L297.789 356.89C295.978 356.969 294.191 356.448 292.702 355.406L197.737 288.974L0 184.317Z" fill="#151515"/>
</svg>