<svg width="80" height="80" viewBox="0 0 80 80" fill="none" xmlns="http://www.w3.org/2000/svg">
<path d="M80 40C80 62.0914 62.0914 80 40 80C17.9086 80 0 62.0914 0 40C0 17.9086 17.9086 0 40 0C62.0914 0 80 17.9086 80 40ZM12 40C12 55.464 24.536 68 40 68C55.464 68 68 55.464 68 40C68 24.536 55.464 12 40 12C24.536 12 12 24.536 12 40Z" fill="#313233"/>
<path d="M74 40C77.3137 40 80.0461 42.7012 79.5509 45.9777C78.7546 51.2459 76.9106 56.3227 74.1056 60.9C70.2512 67.1898 64.7325 72.2913 58.1596 75.6403C51.5868 78.9893 44.2158 80.4555 36.8617 79.8767C29.5075 79.298 22.4566 76.6968 16.4886 72.3607C10.5206 68.0247 5.86785 62.1227 3.04484 55.3074C0.221821 48.492 -0.661517 41.0287 0.492482 33.7427C1.64648 26.4566 4.79287 19.6316 9.58378 14.0221C13.0702 9.94003 17.3287 6.6174 22.0931 4.23215C25.0562 2.74868 28.4694 4.5126 29.4934 7.66412C30.5174 10.8156 28.7443 14.1487 25.8826 15.8195C23.1842 17.3949 20.7562 19.4181 18.7086 21.8155C15.355 25.7421 13.1525 30.5196 12.3447 35.6199C11.5369 40.7201 12.1553 45.9444 14.1314 50.7152C16.1075 55.4859 19.3644 59.6173 23.542 62.6525C27.7197 65.6877 32.6553 67.5086 37.8032 67.9137C42.9511 68.3189 48.1107 67.2926 52.7118 64.9482C57.3128 62.6039 61.1758 59.0329 63.8739 54.63C65.5213 51.9418 66.6951 49.0074 67.3596 45.9543C68.0643 42.7164 70.6863 40 74 40Z" fill="url(#paint0_radial_3673_2567)"/>
<defs>
<radialGradient id="paint0_radial_3673_2567" cx="0" cy="0" r="1" gradientUnits="userSpaceOnUse" gradientTransform="translate(76 40) rotate(-144.689) scale(58.8218 379.588)">
<stop stop-color="#6147FF"/>
<stop offset="1" stop-color="#1193F0"/>
</radialGradient>
</defs>
</svg>
