<svg width="12" height="12" viewBox="0 0 12 12" fill="none" xmlns="http://www.w3.org/2000/svg">
<path d="M0 0.5C0 0.223858 0.223858 0 0.5 0H3.5C3.77614 0 4 0.223858 4 0.5C4 0.776142 3.77614 1 3.5 1H1.70711L4.35358 3.64643C4.54884 3.84169 4.54884 4.15828 4.35358 4.35354C4.15831 4.5488 3.84173 4.5488 3.64647 4.35354L1 1.7071V3.5C1 3.77614 0.776142 4 0.5 4C0.223858 4 0 3.77614 0 3.5V0.5ZM11.5 0C11.7761 0 12 0.223858 12 0.5V3.5C12 3.77614 11.7761 4 11.5 4C11.2239 4 11 3.77614 11 3.5V1.70711L8.35357 4.35358C8.15831 4.54884 7.84172 4.54884 7.64646 4.35358C7.4512 4.15831 7.4512 3.84173 7.64646 3.64647L10.2929 1L8.5 1C8.22386 1 8 0.776142 8 0.5C8 0.223858 8.22386 0 8.5 0H11.5ZM11.5 12C11.7761 12 12 11.7761 12 11.5V8.5C12 8.22386 11.7761 8 11.5 8C11.2239 8 11 8.22386 11 8.5V10.2929L8.35353 7.64646C8.15827 7.4512 7.84169 7.4512 7.64642 7.64646C7.45116 7.84172 7.45116 8.15831 7.64642 8.35357L10.2929 11H8.5C8.22386 11 8 11.2239 8 11.5C8 11.7761 8.22386 12 8.5 12H11.5ZM0.5 12C0.223858 12 0 11.7761 0 11.5V8.5C0 8.22386 0.223858 8 0.500001 8C0.776143 8 1 8.22386 1 8.5L1 10.2929L3.64643 7.64642C3.8417 7.45116 4.15828 7.45116 4.35354 7.64642C4.5488 7.84169 4.5488 8.15827 4.35354 8.35353L1.7071 11H3.5C3.77614 11 4 11.2239 4 11.5C4 11.7761 3.77614 12 3.5 12H0.5Z" fill="#D8D8D9"/>
</svg>
