<svg width="16" height="16" viewBox="0 0 16 16" fill="none" xmlns="http://www.w3.org/2000/svg">
<path d="M1.25909 9.60214C1.94254 6.32689 4.79437 4 8.00002 4C11.2057 4 14.0574 6.32688 14.7409 9.60215C14.7974 9.87246 15.0622 10.0459 15.3325 9.98946C15.6029 9.93304 15.7763 9.66817 15.7199 9.39785C14.9425 5.67312 11.6934 3 8.00002 3C4.3066 3 1.05742 5.67311 0.280175 9.39786C0.223767 9.66818 0.397177 9.93305 0.667497 9.98946C0.937817 10.0459 1.20268 9.87246 1.25909 9.60214ZM8 6C6.067 6 4.5 7.567 4.5 9.5C4.5 11.433 6.067 13 8 13C9.933 13 11.5 11.433 11.5 9.5C11.5 7.567 9.933 6 8 6ZM5.5 9.5C5.5 8.11929 6.61929 7 8 7C9.38071 7 10.5 8.11929 10.5 9.5C10.5 10.8807 9.38071 12 8 12C6.61929 12 5.5 10.8807 5.5 9.5Z" fill="#62656A"/>
</svg>
