<svg width="49" height="49" viewBox="0 0 49 49" fill="none" xmlns="http://www.w3.org/2000/svg">
<path d="M0.799805 10.9531C0.799805 5.43028 5.27696 0.953125 10.7998 0.953125H38.7998C44.3227 0.953125 48.7998 5.43028 48.7998 10.9531V38.9531C48.7998 44.476 44.3227 48.9531 38.7998 48.9531H10.7998C5.27696 48.9531 0.799805 44.476 0.799805 38.9531V10.9531Z" fill="url(#paint0_linear_439_6405)"/>
<path d="M35.3027 22.631C35.3607 22.5903 35.4263 22.5663 35.4966 22.5588L37.0002 22.399C37.0425 22.3945 37.0634 22.4493 37.0295 22.4752C34.2596 24.5925 32.1622 26.1606 29.1293 28.6421C28.2535 29.3586 26.0586 29.5386 26.3028 29.362C28.3639 27.5146 34.501 23.1938 35.3027 22.631Z" fill="white"/>
<path d="M34.3817 16.2553C35.3072 16.0876 37.7742 16.9977 38.6986 17.2618C38.9097 17.3221 39.1643 18.1291 39.1319 18.398C39.129 18.4225 39.1194 18.4452 39.1085 18.4673L37.5854 21.5608C37.5745 21.5829 37.5661 21.6062 37.5571 21.6292C37.4991 21.7788 37.361 21.8836 37.1999 21.8969L36.2616 21.9744C36.2007 21.9794 35.2738 22.024 35.2738 22.024C35.2738 22.024 26.7888 28.2335 25.6475 29.1301C25.5272 29.2246 24.018 29.4096 23.8773 29.3502L19.3419 27.2705C18.9915 27.1226 19.6051 26.9016 19.9604 26.766L31.6783 22.2966C31.9182 22.205 32.0215 21.9198 31.8908 21.6975C31.2169 20.5513 30.5867 19.7682 30.2085 19.3418C30.0287 19.139 30.0572 18.8138 30.283 18.6647C31.2123 18.0509 33.4733 16.4199 34.3817 16.2553Z" fill="white"/>
<path d="M10.3574 10.8637L9.67857 10.0511C9.39961 9.7171 9.744 9.22795 10.1493 9.38252L23.8849 14.6212C23.9112 14.6312 23.9364 14.6438 23.9601 14.6589C27.332 16.8103 30.0213 20.1977 30.9158 21.399C31.0804 21.6201 30.9844 21.9331 30.7272 22.0295L21.4906 25.4888C21.3167 25.5539 21.121 25.4965 21.0089 25.3476L14.2691 16.3893L10.3574 10.8637Z" fill="white"/>
<path d="M38.6415 21.6681C38.3773 21.6597 38.195 21.3773 38.3081 21.1367L39.3071 19.0119C39.3154 18.9942 39.3219 18.9758 39.3286 18.9575C39.4164 18.7193 39.7226 18.6508 39.9023 18.8301C39.9148 18.8425 39.9251 18.8569 39.9345 18.8717L41.5964 21.4893C41.7138 21.6744 41.5873 21.8927 41.37 21.873C40.697 21.8122 39.4974 21.6954 38.6415 21.6681Z" fill="white"/>
<path d="M22.0207 29.885C22.0955 29.6807 22.2781 29.3681 22.0835 29.2731L20.0737 28.2632C19.6112 28.0525 19.2546 27.89 18.9797 27.7648C18.5326 27.5611 17.8181 27.8161 17.5973 28.2575L12.398 38.6503C12.3808 38.6847 12.371 38.7203 12.3643 38.7582C12.269 39.3008 11.3324 42.5993 11.2537 42.94C11.2465 42.9712 11.266 42.9402 11.2863 42.9155L22.0207 29.885Z" fill="white"/>
<path d="M25.1087 29.9367C25.1931 29.8429 25.1215 29.6933 24.9961 29.7012L22.819 29.8382C22.7417 29.843 22.6698 29.8799 22.6205 29.94L16.4699 37.4276C16.4215 37.4865 16.4855 37.5672 16.5524 37.5309C17.3865 37.0783 19.796 35.7009 21.3892 34.076L25.1087 29.9367Z" fill="white"/>
<path d="M9.19983 20.0348C9.19983 20.0348 12.5259 19.1357 15.9567 20.0294L18.1174 22.3829L20.6468 25.8023L19.263 25.8624C19.2018 25.865 19.1414 25.8474 19.0911 25.8122L15.882 23.5689L9.19983 20.0348Z" fill="white"/>
<defs>
<linearGradient id="paint0_linear_439_6405" x1="0.799805" y1="0.953125" x2="56.5804" y2="39.2351" gradientUnits="userSpaceOnUse">
<stop stop-color="#11ADF0"/>
<stop offset="1" stop-color="#6147FF"/>
</linearGradient>
</defs>
</svg>
