<svg width="52" height="54" viewBox="0 0 52 54" fill="none" xmlns="http://www.w3.org/2000/svg">
<path d="M41.84 21.3395C41.933 21.274 42.0381 21.2355 42.1509 21.2235L44.5609 20.9666C44.6287 20.9594 44.6622 21.0474 44.6079 21.0891C40.1681 24.4919 36.8062 27.0121 31.9447 31.0001C30.541 32.1516 27.0227 32.4409 27.4142 32.1571C30.718 29.1881 40.555 22.2439 41.84 21.3395Z" fill="url(#paint0_linear_2872_82845)"/>
<path d="M40.3638 11.0928C41.8472 10.8233 45.8016 12.286 47.2833 12.7104C47.6217 12.8073 48.0297 14.1043 47.9779 14.5364C47.9732 14.5759 47.9579 14.6122 47.9404 14.6478L45.499 19.6194C45.4816 19.655 45.468 19.6924 45.4537 19.7294C45.3606 19.9698 45.1393 20.1383 44.8811 20.1596L43.3771 20.2842C43.2795 20.2923 41.7937 20.3639 41.7937 20.3639C41.7937 20.3639 28.1932 30.3434 26.3638 31.7844C26.171 31.9363 23.752 32.2336 23.5264 32.1381L16.2566 28.7958C15.695 28.5581 16.6786 28.203 17.248 27.985L36.0306 20.802C36.4151 20.6548 36.5807 20.1964 36.3712 19.8392C35.2909 17.9971 34.2808 16.7386 33.6747 16.0533C33.3864 15.7274 33.4321 15.2046 33.794 14.965C35.2836 13.9786 38.9078 11.3573 40.3638 11.0928Z" fill="url(#paint1_linear_2872_82845)"/>
<path d="M1.85547 2.42776L0.76737 1.12169C0.320224 0.584977 0.872241 -0.201158 1.52184 0.0472494L23.5386 8.46653C23.5807 8.48263 23.6211 8.5029 23.6591 8.52723C29.0639 11.9847 33.3745 17.4288 34.8083 19.3595C35.0723 19.7148 34.9183 20.2178 34.506 20.3727L19.7008 25.9323C19.4221 26.037 19.1083 25.9448 18.9287 25.7054L8.12545 11.3081L1.85547 2.42776Z" fill="url(#paint2_linear_2872_82845)"/>
<path d="M47.1918 19.792C46.7683 19.7785 46.4761 19.3245 46.6574 18.9378L48.2587 15.523C48.272 15.4947 48.2823 15.465 48.2931 15.4357C48.4339 15.0527 48.9247 14.9427 49.2127 15.2308C49.2327 15.2508 49.2492 15.2739 49.2644 15.2978L51.9281 19.5046C52.1164 19.802 51.9135 20.1529 51.5654 20.1213C50.4866 20.0235 48.5637 19.8359 47.1918 19.792Z" fill="url(#paint3_linear_2872_82845)"/>
<path d="M20.5504 32.9977C20.6704 32.6693 20.963 32.1669 20.6512 32.0142L17.4297 30.3912C16.6883 30.0525 16.1167 29.7914 15.6761 29.5902C14.9595 29.2628 13.8142 29.6727 13.4603 30.382L5.12631 47.0848C5.09875 47.1401 5.08303 47.1973 5.07236 47.2582C4.91949 48.1301 3.41832 53.4314 3.29206 53.9789C3.28051 54.029 3.31188 53.9792 3.34439 53.9396L20.5504 32.9977Z" fill="url(#paint4_linear_2872_82845)"/>
<path d="M25.5003 33.0808C25.6355 32.93 25.5208 32.6895 25.3197 32.7022L21.83 32.9224C21.7062 32.9302 21.591 32.9894 21.5119 33.086L11.6532 45.1196C11.5756 45.2144 11.6781 45.344 11.7853 45.2857C13.1223 44.5584 16.9845 42.3447 19.5383 39.7332L25.5003 33.0808Z" fill="url(#paint5_linear_2872_82845)"/>
<path d="M0 17.167C0 17.167 5.33129 15.7221 10.8305 17.1582L14.2939 20.9407L18.3483 26.4361L16.1302 26.5327C16.0321 26.537 15.9353 26.5087 15.8547 26.4522L10.7107 22.8468L0 17.167Z" fill="url(#paint6_linear_2872_82845)"/>
<defs>
<linearGradient id="paint0_linear_2872_82845" x1="1.39905e-07" y1="27" x2="52" y2="27" gradientUnits="userSpaceOnUse">
<stop stop-color="#6147FF"/>
<stop offset="1" stop-color="#1193F0"/>
</linearGradient>
<linearGradient id="paint1_linear_2872_82845" x1="1.39905e-07" y1="27" x2="52" y2="27" gradientUnits="userSpaceOnUse">
<stop stop-color="#6147FF"/>
<stop offset="1" stop-color="#1193F0"/>
</linearGradient>
<linearGradient id="paint2_linear_2872_82845" x1="1.39905e-07" y1="27" x2="52" y2="27" gradientUnits="userSpaceOnUse">
<stop stop-color="#6147FF"/>
<stop offset="1" stop-color="#1193F0"/>
</linearGradient>
<linearGradient id="paint3_linear_2872_82845" x1="1.39905e-07" y1="27" x2="52" y2="27" gradientUnits="userSpaceOnUse">
<stop stop-color="#6147FF"/>
<stop offset="1" stop-color="#1193F0"/>
</linearGradient>
<linearGradient id="paint4_linear_2872_82845" x1="1.39905e-07" y1="27" x2="52" y2="27" gradientUnits="userSpaceOnUse">
<stop stop-color="#6147FF"/>
<stop offset="1" stop-color="#1193F0"/>
</linearGradient>
<linearGradient id="paint5_linear_2872_82845" x1="1.39905e-07" y1="27" x2="52" y2="27" gradientUnits="userSpaceOnUse">
<stop stop-color="#6147FF"/>
<stop offset="1" stop-color="#1193F0"/>
</linearGradient>
<linearGradient id="paint6_linear_2872_82845" x1="1.39905e-07" y1="27" x2="52" y2="27" gradientUnits="userSpaceOnUse">
<stop stop-color="#6147FF"/>
<stop offset="1" stop-color="#1193F0"/>
</linearGradient>
</defs>
</svg>
