<svg width="212" height="85" viewBox="0 0 212 85" fill="" xmlns="http://www.w3.org/2000/svg">
<rect x="0.5" y="0.5" width="211" height="84" stroke="black"/>
<path d="M26.8295 51H24.6136L31.0227 33.5455H33.2045L39.6136 51H37.3977L32.1818 36.3068H32.0455L26.8295 51ZM27.6477 44.1818H36.5795V46.0568H27.6477V44.1818ZM45.9119 51.3068C45.0824 51.3068 44.3295 51.1506 43.6534 50.8381C42.9773 50.5199 42.4403 50.0625 42.0426 49.4659C41.6449 48.8636 41.446 48.1364 41.446 47.2841C41.446 46.5341 41.5938 45.9261 41.8892 45.4602C42.1847 44.9886 42.5795 44.6193 43.0739 44.3523C43.5682 44.0852 44.1136 43.8864 44.7102 43.7557C45.3125 43.6193 45.9176 43.5114 46.5256 43.4318C47.321 43.3295 47.9659 43.2528 48.4602 43.2017C48.9602 43.1449 49.3239 43.0511 49.5511 42.9205C49.7841 42.7898 49.9006 42.5625 49.9006 42.2386V42.1705C49.9006 41.3295 49.6705 40.6761 49.2102 40.2102C48.7557 39.7443 48.0653 39.5114 47.1392 39.5114C46.179 39.5114 45.4261 39.7216 44.8807 40.142C44.3352 40.5625 43.9517 41.0114 43.7301 41.4886L41.821 40.8068C42.1619 40.0114 42.6165 39.392 43.1847 38.9489C43.7585 38.5 44.3835 38.1875 45.0597 38.0114C45.7415 37.8295 46.4119 37.7386 47.071 37.7386C47.4915 37.7386 47.9744 37.7898 48.5199 37.892C49.071 37.9886 49.6023 38.1903 50.1136 38.4972C50.6307 38.804 51.0597 39.267 51.4006 39.8864C51.7415 40.5057 51.9119 41.3352 51.9119 42.375V51H49.9006V49.2273H49.7983C49.6619 49.5114 49.4347 49.8153 49.1165 50.1392C48.7983 50.4631 48.375 50.7386 47.8466 50.9659C47.3182 51.1932 46.6733 51.3068 45.9119 51.3068ZM46.2188 49.5C47.0142 49.5 47.6847 49.3438 48.2301 49.0312C48.7813 48.7188 49.196 48.3153 49.4744 47.821C49.7585 47.3267 49.9006 46.8068 49.9006 46.2614V44.4205C49.8153 44.5227 49.6278 44.6165 49.3381 44.7017C49.054 44.7812 48.7244 44.8523 48.3494 44.9148C47.9801 44.9716 47.6193 45.0227 47.267 45.0682C46.9205 45.108 46.6392 45.142 46.4233 45.1705C45.9006 45.2386 45.4119 45.3494 44.9574 45.5028C44.5085 45.6506 44.1449 45.875 43.8665 46.1761C43.5938 46.4716 43.4574 46.875 43.4574 47.3864C43.4574 48.0852 43.7159 48.6136 44.233 48.9716C44.7557 49.3239 45.4176 49.5 46.2188 49.5Z" fill="white"/>
<path d="M105.523 16.4545V31H103.761V16.4545H105.523ZM110.503 24.4375V31H108.827V20.0909H110.446V21.7955H110.588C110.844 21.2415 111.232 20.7964 111.753 20.4602C112.274 20.1193 112.946 19.9489 113.77 19.9489C114.509 19.9489 115.155 20.1004 115.709 20.4034C116.263 20.7017 116.694 21.1562 117.002 21.767C117.31 22.3731 117.463 23.1402 117.463 24.0682V31H115.787V24.1818C115.787 23.3248 115.565 22.6572 115.12 22.179C114.675 21.696 114.064 21.4545 113.287 21.4545C112.752 21.4545 112.274 21.5705 111.853 21.8026C111.436 22.0346 111.107 22.3731 110.865 22.8182C110.624 23.2633 110.503 23.803 110.503 24.4375ZM125.271 20.0909V21.5114H119.617V20.0909H125.271ZM121.265 17.4773H122.941V27.875C122.941 28.3485 123.01 28.7036 123.147 28.9403C123.289 29.1723 123.469 29.3286 123.687 29.4091C123.909 29.4848 124.144 29.5227 124.39 29.5227C124.575 29.5227 124.726 29.5133 124.844 29.4943C124.963 29.4706 125.058 29.4517 125.129 29.4375L125.469 30.9432C125.356 30.9858 125.197 31.0284 124.994 31.071C124.79 31.1184 124.532 31.142 124.219 31.142C123.746 31.142 123.282 31.0402 122.827 30.8366C122.378 30.633 122.004 30.3229 121.705 29.9062C121.412 29.4896 121.265 28.964 121.265 28.3295V17.4773ZM132.249 31.2273C131.197 31.2273 130.291 30.9953 129.528 30.5312C128.771 30.0625 128.186 29.4091 127.774 28.571C127.367 27.7282 127.163 26.7481 127.163 25.6307C127.163 24.5133 127.367 23.5284 127.774 22.6761C128.186 21.8191 128.759 21.1515 129.493 20.6733C130.232 20.1903 131.093 19.9489 132.078 19.9489C132.646 19.9489 133.207 20.0436 133.761 20.233C134.315 20.4223 134.82 20.7301 135.274 21.1562C135.729 21.5777 136.091 22.1364 136.361 22.8324C136.631 23.5284 136.766 24.3854 136.766 25.4034V26.1136H128.357V24.6648H135.061C135.061 24.0492 134.938 23.5 134.692 23.017C134.45 22.5341 134.105 22.1529 133.655 21.8736C133.21 21.5942 132.684 21.4545 132.078 21.4545C131.411 21.4545 130.833 21.6203 130.345 21.9517C129.862 22.2784 129.491 22.7045 129.23 23.2301C128.97 23.7557 128.839 24.3191 128.839 24.9205V25.8864C128.839 26.7102 128.982 27.4086 129.266 27.9815C129.554 28.5497 129.955 28.983 130.466 29.2812C130.977 29.5748 131.571 29.7216 132.249 29.7216C132.689 29.7216 133.087 29.66 133.442 29.5369C133.802 29.4091 134.112 29.2197 134.372 28.9688C134.633 28.7131 134.834 28.3958 134.976 28.017L136.595 28.4716C136.425 29.0208 136.138 29.5038 135.736 29.9205C135.333 30.3324 134.836 30.6544 134.244 30.8864C133.652 31.1136 132.987 31.2273 132.249 31.2273ZM139.315 31V20.0909H140.935V21.7386H141.048C141.247 21.1989 141.607 20.7609 142.128 20.4247C142.649 20.0885 143.236 19.9205 143.889 19.9205C144.012 19.9205 144.166 19.9228 144.351 19.9276C144.536 19.9323 144.675 19.9394 144.77 19.9489V21.6534C144.713 21.6392 144.583 21.6179 144.379 21.5895C144.18 21.5563 143.97 21.5398 143.747 21.5398C143.217 21.5398 142.743 21.651 142.327 21.8736C141.915 22.0914 141.588 22.3944 141.347 22.7827C141.11 23.1662 140.991 23.6042 140.991 24.0966V31H139.315Z" fill="white" fill-opacity="0.6"/>
<path d="M104.114 67V49.5455H110.011C111.375 49.5455 112.494 49.7784 113.369 50.2443C114.244 50.7045 114.892 51.3381 115.312 52.1449C115.733 52.9517 115.943 53.8693 115.943 54.8977C115.943 55.9261 115.733 56.8381 115.312 57.6335C114.892 58.429 114.247 59.054 113.378 59.5085C112.509 59.9574 111.398 60.1818 110.045 60.1818H105.273V58.2727H109.977C110.909 58.2727 111.659 58.1364 112.227 57.8636C112.801 57.5909 113.216 57.2045 113.472 56.7045C113.733 56.1989 113.864 55.5966 113.864 54.8977C113.864 54.1989 113.733 53.5881 113.472 53.0653C113.21 52.5426 112.793 52.1392 112.219 51.8551C111.645 51.5653 110.886 51.4205 109.943 51.4205H106.227V67H104.114ZM112.33 59.1591L116.625 67H114.17L109.943 59.1591H112.33ZM124.54 67.2727C123.279 67.2727 122.191 66.9943 121.276 66.4375C120.367 65.875 119.665 65.0909 119.171 64.0852C118.683 63.0739 118.438 61.8977 118.438 60.5568C118.438 59.2159 118.683 58.0341 119.171 57.0114C119.665 55.983 120.353 55.1818 121.234 54.608C122.12 54.0284 123.154 53.7386 124.336 53.7386C125.018 53.7386 125.691 53.8523 126.356 54.0795C127.021 54.3068 127.626 54.6761 128.171 55.1875C128.717 55.6932 129.151 56.3636 129.475 57.1989C129.799 58.0341 129.961 59.0625 129.961 60.2841V61.1364H119.87V59.3977H127.915C127.915 58.6591 127.768 58 127.472 57.4205C127.183 56.8409 126.768 56.3835 126.228 56.0483C125.694 55.7131 125.063 55.5455 124.336 55.5455C123.535 55.5455 122.842 55.7443 122.256 56.142C121.677 56.5341 121.231 57.0455 120.918 57.6761C120.606 58.3068 120.45 58.983 120.45 59.7045V60.8636C120.45 61.8523 120.62 62.6903 120.961 63.3778C121.308 64.0597 121.788 64.5795 122.401 64.9375C123.015 65.2898 123.728 65.4659 124.54 65.4659C125.069 65.4659 125.546 65.392 125.972 65.2443C126.404 65.0909 126.776 64.8636 127.089 64.5625C127.401 64.2557 127.643 63.875 127.813 63.4205L129.756 63.9659C129.552 64.625 129.208 65.2045 128.725 65.7045C128.242 66.1989 127.646 66.5852 126.935 66.8636C126.225 67.1364 125.427 67.2727 124.54 67.2727ZM138.305 72.1818C137.333 72.1818 136.498 72.0568 135.799 71.8068C135.1 71.5625 134.518 71.2386 134.052 70.8352C133.592 70.4375 133.225 70.0114 132.952 69.5568L134.555 68.4318C134.737 68.6705 134.967 68.9432 135.245 69.25C135.523 69.5625 135.904 69.8324 136.387 70.0597C136.876 70.2926 137.515 70.4091 138.305 70.4091C139.362 70.4091 140.234 70.1534 140.921 69.642C141.609 69.1307 141.952 68.3295 141.952 67.2386V64.5795H141.782C141.634 64.8182 141.424 65.1136 141.151 65.4659C140.884 65.8125 140.498 66.1222 139.992 66.3949C139.492 66.6619 138.816 66.7955 137.964 66.7955C136.907 66.7955 135.958 66.5455 135.117 66.0455C134.282 65.5455 133.62 64.8182 133.131 63.8636C132.648 62.9091 132.407 61.75 132.407 60.3864C132.407 59.0455 132.643 57.8778 133.114 56.8835C133.586 55.8835 134.242 55.1108 135.083 54.5653C135.924 54.0142 136.896 53.7386 137.998 53.7386C138.85 53.7386 139.526 53.8807 140.026 54.1648C140.532 54.4432 140.918 54.7614 141.185 55.1193C141.458 55.4716 141.668 55.7614 141.816 55.9886H142.021V53.9091H143.964V67.375C143.964 68.5 143.708 69.4148 143.197 70.1193C142.691 70.8295 142.009 71.3494 141.151 71.679C140.299 72.0142 139.35 72.1818 138.305 72.1818ZM138.237 64.9886C139.043 64.9886 139.725 64.804 140.282 64.4347C140.839 64.0653 141.262 63.5341 141.552 62.8409C141.842 62.1477 141.987 61.3182 141.987 60.3523C141.987 59.4091 141.844 58.5767 141.56 57.8551C141.276 57.1335 140.856 56.5682 140.299 56.1591C139.742 55.75 139.055 55.5455 138.237 55.5455C137.384 55.5455 136.674 55.7614 136.106 56.1932C135.543 56.625 135.12 57.2045 134.836 57.9318C134.558 58.6591 134.418 59.4659 134.418 60.3523C134.418 61.2614 134.56 62.0653 134.844 62.7642C135.134 63.4574 135.56 64.0028 136.123 64.4006C136.691 64.7926 137.396 64.9886 138.237 64.9886ZM155.896 61.6477V53.9091H157.907V67H155.896V64.7841H155.759C155.452 65.4489 154.975 66.0142 154.327 66.4801C153.68 66.9403 152.862 67.1705 151.873 67.1705C151.055 67.1705 150.327 66.9915 149.691 66.6335C149.055 66.2699 148.555 65.7244 148.191 64.9972C147.827 64.2642 147.646 63.3409 147.646 62.2273V53.9091H149.657V62.0909C149.657 63.0455 149.924 63.8068 150.458 64.375C150.998 64.9432 151.685 65.2273 152.521 65.2273C153.021 65.2273 153.529 65.0994 154.046 64.8438C154.569 64.5881 155.006 64.196 155.359 63.6676C155.717 63.1392 155.896 62.4659 155.896 61.6477ZM163.602 49.5455V67H161.591V49.5455H163.602ZM171.138 67.3068C170.309 67.3068 169.556 67.1506 168.88 66.8381C168.204 66.5199 167.667 66.0625 167.269 65.4659C166.871 64.8636 166.673 64.1364 166.673 63.2841C166.673 62.5341 166.82 61.9261 167.116 61.4602C167.411 60.9886 167.806 60.6193 168.3 60.3523C168.795 60.0852 169.34 59.8864 169.937 59.7557C170.539 59.6193 171.144 59.5114 171.752 59.4318C172.548 59.3295 173.192 59.2528 173.687 59.2017C174.187 59.1449 174.55 59.0511 174.778 58.9205C175.011 58.7898 175.127 58.5625 175.127 58.2386V58.1705C175.127 57.3295 174.897 56.6761 174.437 56.2102C173.982 55.7443 173.292 55.5114 172.366 55.5114C171.406 55.5114 170.653 55.7216 170.107 56.142C169.562 56.5625 169.178 57.0114 168.957 57.4886L167.048 56.8068C167.388 56.0114 167.843 55.392 168.411 54.9489C168.985 54.5 169.61 54.1875 170.286 54.0114C170.968 53.8295 171.638 53.7386 172.298 53.7386C172.718 53.7386 173.201 53.7898 173.746 53.892C174.298 53.9886 174.829 54.1903 175.34 54.4972C175.857 54.804 176.286 55.267 176.627 55.8864C176.968 56.5057 177.138 57.3352 177.138 58.375V67H175.127V65.2273H175.025C174.888 65.5114 174.661 65.8153 174.343 66.1392C174.025 66.4631 173.602 66.7386 173.073 66.9659C172.545 67.1932 171.9 67.3068 171.138 67.3068ZM171.445 65.5C172.241 65.5 172.911 65.3438 173.457 65.0312C174.008 64.7188 174.423 64.3153 174.701 63.821C174.985 63.3267 175.127 62.8068 175.127 62.2614V60.4205C175.042 60.5227 174.854 60.6165 174.565 60.7017C174.281 60.7812 173.951 60.8523 173.576 60.9148C173.207 60.9716 172.846 61.0227 172.494 61.0682C172.147 61.108 171.866 61.142 171.65 61.1705C171.127 61.2386 170.638 61.3494 170.184 61.5028C169.735 61.6506 169.371 61.875 169.093 62.1761C168.82 62.4716 168.684 62.875 168.684 63.3864C168.684 64.0852 168.942 64.6136 169.46 64.9716C169.982 65.3239 170.644 65.5 171.445 65.5ZM180.81 67V53.9091H182.753V55.8864H182.889C183.128 55.2386 183.56 54.7131 184.185 54.3097C184.81 53.9062 185.514 53.7045 186.298 53.7045C186.446 53.7045 186.631 53.7074 186.852 53.7131C187.074 53.7187 187.241 53.7273 187.355 53.7386V55.7841C187.287 55.767 187.131 55.7415 186.886 55.7074C186.648 55.6676 186.395 55.6477 186.128 55.6477C185.491 55.6477 184.923 55.7812 184.423 56.0483C183.929 56.3097 183.537 56.6733 183.247 57.1392C182.963 57.5994 182.821 58.125 182.821 58.7159V67H180.81Z" fill="white"/>
</svg>
