<svg width="25" height="24" viewBox="0 0 25 24" fill="none" xmlns="http://www.w3.org/2000/svg">
<rect width="24" height="24" transform="translate(0.666748)" fill="#AD2B29" fill-opacity="0.3"/>
<rect width="12" height="12" transform="translate(6.66675 6)" fill="#14181F"/>
<path d="M12.0375 7.22241C12.4044 6.92529 12.9291 6.92529 13.296 7.22241L17.1107 10.3113C17.4624 10.5961 17.6667 11.0244 17.6667 11.477V16C17.6667 16.5523 17.219 17 16.6667 17H14.6667C14.1145 17 13.6667 16.5523 13.6667 16V13H11.6667V16C11.6667 16.5523 11.219 17 10.6667 17H8.66675C8.11446 17 7.66675 16.5523 7.66675 16V11.477C7.66675 11.0244 7.87108 10.5961 8.2228 10.3113L12.0375 7.22241ZM16.4814 11.0884L12.6667 7.99957L8.8521 11.0884C8.73486 11.1834 8.66675 11.3261 8.66675 11.477V16H10.6667V13C10.6667 12.4477 11.1145 12 11.6667 12H13.6667C14.219 12 14.6667 12.4477 14.6667 13V16H16.6667V11.477C16.6667 11.3261 16.5986 11.1834 16.4814 11.0884Z" fill="white"/>
</svg>
