<svg width="25" height="24" viewBox="0 0 25 24" fill="none" xmlns="http://www.w3.org/2000/svg">
<g clip-path="url(#clip0_1098_8846)">
<rect width="24" height="24" transform="translate(0.666748)" fill="#AD2B29" fill-opacity="0.3"/>
<rect width="24" height="24" transform="translate(0.666748)" fill="#14181F"/>
<path d="M11.2163 2.53189C12.0542 1.82531 13.2793 1.82531 14.1172 2.5319L20.8672 8.224C21.3742 8.65152 21.6667 9.2809 21.6667 9.94406L21.6667 19.2539C21.6667 20.2204 20.8832 21.0039 19.9167 21.0039H16.4167C15.4502 21.0039 14.6667 20.2204 14.6667 19.2539L14.6667 14.2468C14.6667 14.1088 14.5548 13.9968 14.4167 13.9968H10.9167C10.7787 13.9968 10.6667 14.1088 10.6667 14.2468L10.6667 19.2539C10.6667 20.2204 9.88324 21.0039 8.91674 21.0039H5.41675C4.45025 21.0039 3.66675 20.2204 3.66675 19.2539V9.94406C3.66675 9.2809 3.9593 8.65152 4.46627 8.224L11.2163 2.53189ZM13.1502 3.6786C12.8709 3.44307 12.4626 3.44307 12.1833 3.6786L5.43325 9.37071C5.26426 9.51321 5.16675 9.72301 5.16675 9.94406L5.16675 19.2539C5.16675 19.392 5.27868 19.5039 5.41675 19.5039H8.91674C9.05481 19.5039 9.16674 19.392 9.16674 19.2539L9.16674 14.2468C9.16674 13.2803 9.95024 12.4968 10.9167 12.4968H14.4167C15.3832 12.4968 16.1667 13.2803 16.1667 14.2468L16.1667 19.2539C16.1667 19.392 16.2787 19.5039 16.4167 19.5039H19.9167C20.0548 19.5039 20.1667 19.392 20.1667 19.2539L20.1667 9.94406C20.1667 9.72301 20.0692 9.51321 19.9002 9.37071L13.1502 3.6786Z" fill="white"/>
</g>
<defs>
<clipPath id="clip0_1098_8846">
<rect width="24" height="24" fill="white" transform="translate(0.666748)"/>
</clipPath>
</defs>
</svg>
