<svg width="25" height="24" viewBox="0 0 25 24" fill="none" xmlns="http://www.w3.org/2000/svg">
<rect width="24" height="24" transform="translate(0.666748)" fill="#AD2B29" fill-opacity="0.3"/>
<rect width="20" height="20" transform="translate(2.66675 2)" fill="#14181F"/>
<path d="M11.6642 4.38811C12.2344 3.87584 13.0991 3.87584 13.6692 4.38811L19.1692 9.32965C19.4859 9.61414 19.6667 10.0198 19.6667 10.4454V17.4996C19.6667 18.328 18.9952 18.9996 18.1667 18.9996H15.6667C14.8383 18.9996 14.1667 18.328 14.1667 17.4996V13.9996C14.1667 13.7234 13.9429 13.4996 13.6667 13.4996H11.6667C11.3906 13.4996 11.1667 13.7234 11.1667 13.9996V17.4996C11.1667 18.328 10.4952 18.9996 9.66675 18.9996H7.16675C6.33832 18.9996 5.66675 18.328 5.66675 17.4996V10.4454C5.66675 10.0198 5.84761 9.61414 6.16425 9.32965L11.6642 4.38811ZM13.0009 5.13197C12.8109 4.96122 12.5226 4.96122 12.3326 5.13197L6.83258 10.0735C6.72703 10.1683 6.66675 10.3036 6.66675 10.4454V17.4996C6.66675 17.7757 6.89061 17.9996 7.16675 17.9996H9.66675C9.94289 17.9996 10.1667 17.7757 10.1667 17.4996V13.9996C10.1667 13.1711 10.8383 12.4996 11.6667 12.4996H13.6667C14.4952 12.4996 15.1667 13.1711 15.1667 13.9996V17.4996C15.1667 17.7757 15.3906 17.9996 15.6667 17.9996H18.1667C18.4429 17.9996 18.6667 17.7757 18.6667 17.4996V10.4454C18.6667 10.3036 18.6065 10.1683 18.5009 10.0735L13.0009 5.13197Z" fill="white"/>
</svg>
