<svg width="25" height="24" viewBox="0 0 25 24" fill="none" xmlns="http://www.w3.org/2000/svg">
<rect width="24" height="24" transform="translate(0.666748)" fill="#AD2B29" fill-opacity="0.3"/>
<rect width="16" height="16" transform="translate(4.66675 4)" fill="#14181F"/>
<path d="M11.9797 5.26164C12.3652 4.89716 12.9683 4.89716 13.3538 5.26164L18.1973 9.84098C18.4969 10.1243 18.6667 10.5185 18.6667 10.9309V16.5002C18.6667 17.3286 17.9952 18.0002 17.1667 18.0002H15.1667C14.3383 18.0002 13.6667 17.3286 13.6667 16.5002V14.0002C13.6667 13.7241 13.4429 13.5002 13.1667 13.5002H12.1667C11.8906 13.5002 11.6667 13.7241 11.6667 14.0002V16.5002C11.6667 17.3286 10.9952 18.0002 10.1667 18.0002H8.16675C7.33832 18.0002 6.66675 17.3286 6.66675 16.5002V10.9309C6.66675 10.5185 6.83655 10.1243 7.13623 9.84098L11.9797 5.26164ZM12.6667 5.98828L7.82324 10.5676C7.72335 10.6621 7.66675 10.7935 7.66675 10.9309V16.5002C7.66675 16.7763 7.89061 17.0002 8.16675 17.0002H10.1667C10.4429 17.0002 10.6667 16.7763 10.6667 16.5002V14.0002C10.6667 13.1718 11.3383 12.5002 12.1667 12.5002H13.1667C13.9952 12.5002 14.6667 13.1718 14.6667 14.0002V16.5002C14.6667 16.7763 14.8906 17.0002 15.1667 17.0002H17.1667C17.4429 17.0002 17.6667 16.7763 17.6667 16.5002V10.9309C17.6667 10.7935 17.6101 10.6621 17.5103 10.5676L12.6667 5.98828Z" fill="white"/>
</svg>
