<svg width="121" height="120" viewBox="0 0 121 120" fill="none" xmlns="http://www.w3.org/2000/svg">
<mask id="mask0_865_1611" style="mask-type:alpha" maskUnits="userSpaceOnUse" x="0" y="0" width="121" height="120">
<rect x="0.5" width="120" height="120" fill="#D9D9D9"/>
</mask>
<g mask="url(#mask0_865_1611)">
<path d="M109.012 32.2451L109.012 32.244C109.031 32.0849 109.009 31.7882 108.931 31.3917C108.855 31.0086 108.736 30.5749 108.59 30.1622C108.443 29.747 108.275 29.3701 108.108 29.0931C108.025 28.9543 107.95 28.8536 107.887 28.7881C107.844 28.743 107.819 28.7272 107.814 28.7238C107.123 28.5262 106.197 28.2301 105.144 27.8933C104.925 27.8233 104.701 27.7516 104.472 27.6786C103.131 27.2509 101.624 26.7771 100.118 26.3517C98.6109 25.9259 97.115 25.5514 95.7966 25.3203C94.4637 25.0867 93.3672 25.0103 92.633 25.1433C91.9027 25.2756 90.8475 25.7177 89.5868 26.3783C88.3393 27.0321 86.9352 27.8755 85.5208 28.7741C83.6442 29.9663 81.776 31.2379 80.2393 32.2839C79.4515 32.8201 78.7509 33.297 78.1809 33.6735L78.1807 33.6736C77.6527 34.022 77.5536 34.8234 78.0133 35.3429C78.0134 35.3431 78.0135 35.3432 78.0136 35.3433L77.6393 35.6748C78.9901 37.1971 81.2406 39.9941 83.6475 44.0878L109.012 32.2451ZM109.012 32.2451C109.012 32.2462 109.011 32.2512 109.007 32.2614C109.001 32.2768 108.992 32.2976 108.976 32.3309L103.537 43.378L103.537 43.3784C103.494 43.4652 103.459 43.5579 103.433 43.6249C103.428 43.6382 103.423 43.6504 103.419 43.6614L103.418 43.663C103.279 44.0211 102.95 44.2698 102.568 44.3012L102.568 44.3013L99.2168 44.5783C99.1189 44.5863 98.2509 44.6299 97.3877 44.6723C96.9604 44.6933 96.5399 44.7138 96.2262 44.729L95.8483 44.7472L95.7429 44.7523L95.7152 44.7536L95.7081 44.754L95.7063 44.7541L95.7059 44.7541L95.7057 44.7541L95.5557 44.7613L95.4344 44.85L95.4998 44.9395C95.4343 44.8501 95.4342 44.8502 95.4341 44.8503L95.4331 44.851L95.4289 44.8541L95.4125 44.8661L95.3474 44.9138L95.0931 45.0999L94.1242 45.8093C93.2876 46.422 92.0879 47.3008 90.6355 48.3654C87.7307 50.4946 83.8152 53.3669 79.7722 56.3393C71.7226 62.2574 63.1532 68.5831 61.0651 70.2206L109.012 32.2451ZM61.0415 70.239C61.0422 70.2385 61.0428 70.238 61.0434 70.2375C61.0428 70.238 61.0422 70.2385 61.0415 70.239ZM61.0415 70.239L61.3502 70.6324M61.0415 70.239C61.0414 70.2391 61.0414 70.2392 61.0413 70.2392L61.3502 70.6324M61.3502 70.6324C60.9202 70.9698 55.5306 71.6308 55.0279 71.4182L95.7297 45.2535C95.7297 45.2535 65.4261 67.4301 61.3502 70.6324ZM7.14074 5.09005L7.15228 5.10636L21.1183 24.8346L45.1849 56.8227L45.1849 56.8227C45.452 57.1777 45.9177 57.3134 46.3304 57.159L7.14074 5.09005ZM7.14074 5.09005L7.12794 5.07472L4.70347 2.1721L4.70343 2.17205C4.02697 1.36239 4.87162 0.209476 5.82263 0.572158C5.82264 0.572159 5.82264 0.57216 5.82264 0.572161L54.8785 19.2818L54.8792 19.2821C54.9408 19.3055 54.9995 19.3351 55.0546 19.3704L55.0558 19.3712C67.0183 27.0029 76.5787 39.0394 79.7657 43.3195L79.7657 43.3196C80.1505 43.8362 79.9318 44.5743 79.318 44.8046C79.3179 44.8046 79.3179 44.8046 79.3178 44.8046L46.3306 57.159L7.14074 5.09005ZM51.2797 73.659L51.2793 73.6591C51.1428 73.6676 51.0142 73.733 50.9257 73.8407L50.9256 73.8408L29.8184 99.5366C33.4702 97.4814 40.7716 93.0551 45.7771 87.9528L59.054 73.1778L51.2797 73.659ZM51.2797 73.659L59.0542 73.1695M51.2797 73.659L59.0542 73.1695M59.0542 73.1695C59.0544 73.1698 59.0546 73.1701 59.0548 73.1705C59.0556 73.1723 59.0561 73.1739 59.0563 73.1749C59.0558 73.1756 59.0551 73.1765 59.0541 73.1776L59.0542 73.1695ZM100.71 47.2203C99.5279 48.123 98.3782 48.9995 97.2507 49.8591C89.4037 55.8416 82.6293 61.0064 73.4688 68.5009L73.7854 68.8879L73.4687 68.501C72.0111 69.6936 69.3811 70.4778 67.15 70.8777C66.2219 71.0441 65.3893 71.1393 64.7751 71.1719C72.7438 64.283 93.3361 49.7842 96.1203 47.8296C96.2569 47.7342 96.4096 47.6777 96.5785 47.6597C96.5785 47.6597 96.5786 47.6597 96.5786 47.6597L100.71 47.2203ZM107.02 42.2966L107.02 42.2964L110.588 34.7076L110.588 34.7066C110.624 34.6298 110.653 34.5503 110.674 34.4945C110.677 34.4871 110.679 34.4802 110.682 34.4737L110.682 34.4736C110.87 33.9623 111.526 33.8188 111.908 34.1991C111.914 34.2054 111.927 34.2212 111.954 34.2627L117.889 43.6106C118.003 43.7894 117.983 43.9485 117.924 44.0493C117.867 44.1472 117.747 44.2334 117.548 44.2154C117.271 44.1904 116.97 44.1627 116.648 44.1331C114.177 43.9064 110.495 43.5686 107.774 43.4819C107.171 43.4627 106.777 42.8136 107.02 42.2966ZM47.9587 73.0743L10.9991 117.94L14.4031 105.105C14.4031 105.104 14.4031 105.104 14.4031 105.104C14.4216 104.999 14.445 104.923 14.478 104.857C14.478 104.857 14.478 104.857 14.4781 104.857L33.0471 67.7393C33.3666 67.1008 34.0773 66.5483 34.9333 66.243C35.7897 65.9375 36.6852 65.9173 37.3297 66.211L37.3298 66.211C38.3097 66.6573 39.5804 67.2361 41.2281 67.9871L48.3977 71.5897L48.4027 71.5922C48.4154 71.5984 48.4203 71.6004 48.4228 71.6042C48.425 71.6075 48.4253 71.6121 48.4272 71.6219C48.4377 71.6749 48.435 71.7814 48.3873 71.9609C48.3415 72.1332 48.2676 72.326 48.1809 72.5357C48.1589 72.589 48.1355 72.6445 48.1116 72.7012C48.0595 72.8251 48.0052 72.954 47.9587 73.0743ZM34.0716 46.8538L42.5303 58.2889L38.5276 58.4627L38.5274 58.4627C38.4193 58.4675 38.3118 58.4363 38.2214 58.3733L26.7605 50.3616L26.7352 50.3439L26.7078 50.3294L4.02787 38.3341C4.24431 38.2887 4.486 38.2397 4.75138 38.1886C6.04276 37.9401 7.8937 37.6411 10.125 37.4408C14.5565 37.0432 20.469 37.0372 26.4726 38.5767L34.0716 46.8538Z" stroke="white"/>
</g>
</svg>
