<svg width="57" height="56" viewBox="0 0 57 56" fill="none" xmlns="http://www.w3.org/2000/svg">
<path d="M0.5 11.6667C0.5 5.22334 5.72334 0 12.1667 0H44.8333C51.2767 0 56.5 5.22334 56.5 11.6667V44.3333C56.5 50.7767 51.2767 56 44.8333 56H12.1667C5.72334 56 0.5 50.7767 0.5 44.3333V11.6667Z" fill="#316CF6"/>
<path d="M32.0315 25.9071C32.0768 25.873 32.1279 25.853 32.1829 25.8467L33.3565 25.7131C33.3895 25.7094 33.4058 25.7552 33.3794 25.7768C31.2173 27.5466 29.5801 28.8573 27.2127 30.9315C26.5291 31.5304 24.8157 31.6808 25.0064 31.5332C26.6153 29.989 31.4057 26.3774 32.0315 25.9071Z" fill="white"/>
<path d="M31.3126 20.5778C32.035 20.4377 33.9607 21.1984 34.6823 21.4191C34.8471 21.4696 35.0457 22.1441 35.0205 22.3688C35.0182 22.3894 35.0107 22.4083 35.0022 22.4268L33.8133 25.0125C33.8048 25.031 33.7982 25.0504 33.7913 25.0697C33.7459 25.1947 33.6382 25.2823 33.5124 25.2934L32.78 25.3582C32.7325 25.3624 32.0089 25.3997 32.0089 25.3997C32.0089 25.3997 25.3857 30.5899 24.4949 31.3394C24.401 31.4184 23.223 31.573 23.1131 31.5233L19.5729 29.785C19.2994 29.6614 19.7784 29.4767 20.0557 29.3633L29.2024 25.6275C29.3896 25.551 29.4703 25.3125 29.3683 25.1268C28.8422 24.1687 28.3503 23.5142 28.0551 23.1578C27.9147 22.9883 27.937 22.7164 28.1132 22.5917C28.8386 22.0787 30.6035 20.7154 31.3126 20.5778Z" fill="white"/>
<path d="M12.5598 16.0713L12.0299 15.392C11.8122 15.1128 12.081 14.704 12.3974 14.8332L23.1191 19.212C23.1396 19.2203 23.1592 19.2309 23.1777 19.2435C25.8098 21.0417 27.9089 23.8731 28.6072 24.8773C28.7357 25.0621 28.6608 25.3237 28.46 25.4042L21.2501 28.2957C21.1144 28.3502 20.9616 28.3022 20.8741 28.1777L15.6132 20.6898L12.5598 16.0713Z" fill="white"/>
<path d="M34.6377 25.1022C34.4314 25.0952 34.2891 24.8591 34.3774 24.658L35.1572 22.882C35.1637 22.8672 35.1688 22.8518 35.174 22.8365C35.2426 22.6374 35.4816 22.5801 35.6218 22.73C35.6316 22.7404 35.6396 22.7524 35.647 22.7648L36.9442 24.9528C37.0359 25.1074 36.9371 25.2899 36.7675 25.2735C36.2422 25.2226 35.3058 25.125 34.6377 25.1022Z" fill="white"/>
<path d="M21.6639 31.9704C21.7223 31.7996 21.8648 31.5383 21.713 31.4589L20.1441 30.6148C19.7831 30.4386 19.5048 30.3028 19.2902 30.1982C18.9412 30.0279 18.3835 30.2411 18.2111 30.61L14.1527 39.297C14.1392 39.3257 14.1316 39.3555 14.1264 39.3871C14.0519 39.8406 13.3209 42.5978 13.2594 42.8825C13.2538 42.9086 13.2691 42.8827 13.2849 42.8621L21.6639 31.9704Z" fill="white"/>
<path d="M24.0743 32.0136C24.1402 31.9352 24.0843 31.8101 23.9864 31.8167L22.287 31.9312C22.2267 31.9353 22.1706 31.9661 22.1321 32.0163L17.3311 38.2749C17.2933 38.3242 17.3433 38.3916 17.3954 38.3613C18.0465 37.983 19.9274 36.8317 21.171 35.4735L24.0743 32.0136Z" fill="white"/>
<path d="M11.6562 23.737C11.6562 23.737 14.2525 22.9855 16.9305 23.7324L18.6171 25.6997L20.5915 28.5578L19.5113 28.608C19.4636 28.6102 19.4164 28.5955 19.3771 28.5661L16.8722 26.691L11.6562 23.737Z" fill="white"/>
<path d="M27.9654 38.6648C28.1639 37.8461 29.3283 37.8461 29.5268 38.6648L30.0731 40.9176C30.1439 41.2099 30.3722 41.4381 30.6645 41.509L32.9172 42.0552C33.7359 42.2537 33.7359 43.4181 32.9172 43.6167L30.6645 44.1629C30.3722 44.2338 30.144 44.462 30.0731 44.7543L29.5268 47.0071C29.3283 47.8258 28.1639 47.8258 27.9654 47.0071L27.4191 44.7543C27.3482 44.462 27.12 44.2338 26.8277 44.1629L24.575 43.6167C23.7563 43.4181 23.7563 42.2537 24.575 42.0552L26.8277 41.509C27.12 41.4381 27.3482 41.2099 27.4191 40.9176L27.9654 38.6648Z" fill="white"/>
<path fill-rule="evenodd" clip-rule="evenodd" d="M28.7461 39.5359L28.356 41.1447C28.2 41.7878 27.698 42.2899 27.0549 42.4458L25.4461 42.8359L27.0549 43.2261C27.698 43.382 28.2 43.8841 28.356 44.5272L28.7461 46.136L29.1362 44.5272C29.2921 43.8841 29.7942 43.382 30.4373 43.2261L32.0461 42.8359L30.4373 42.4458C29.7942 42.2899 29.2921 41.7878 29.1362 41.1447L28.7461 39.5359ZM29.5268 38.6648C29.3283 37.8461 28.1639 37.8461 27.9654 38.6648L27.4191 40.9176C27.3482 41.2099 27.12 41.4381 26.8277 41.509L24.575 42.0552C23.7563 42.2537 23.7563 43.4181 24.575 43.6167L26.8277 44.1629C27.12 44.2338 27.3482 44.462 27.4191 44.7543L27.9654 47.0071C28.1639 47.8258 29.3283 47.8258 29.5268 47.0071L30.0731 44.7543C30.144 44.462 30.3722 44.2338 30.6645 44.1629L32.9172 43.6167C33.7359 43.4181 33.7359 42.2537 32.9172 42.0552L30.6645 41.509C30.3722 41.4381 30.1439 41.2099 30.0731 40.9176L29.5268 38.6648Z" fill="white"/>
<path d="M36.9947 8.48086C37.2436 7.4543 38.7036 7.4543 38.9526 8.48086L39.6375 11.3055C39.7264 11.672 40.0125 11.9582 40.3791 12.0471L43.2037 12.732C44.2303 12.9809 44.2303 14.4409 43.2037 14.6899L40.3791 15.3748C40.0125 15.4637 39.7264 15.7498 39.6375 16.1164L38.9526 18.941C38.7036 19.9676 37.2436 19.9676 36.9947 18.941L36.3098 16.1164C36.2209 15.7498 35.9347 15.4637 35.5682 15.3748L32.7436 14.6899C31.717 14.4409 31.717 12.9809 32.7436 12.732L35.5682 12.0471C35.9347 11.9582 36.2209 11.672 36.3098 11.3055L36.9947 8.48086Z" fill="white"/>
<path fill-rule="evenodd" clip-rule="evenodd" d="M37.9736 9.57312L37.4845 11.5904C37.289 12.3967 36.6594 13.0263 35.8531 13.2218L33.8358 13.7109L35.8531 14.2001C36.6594 14.3956 37.289 15.0252 37.4845 15.8315L37.9736 17.8488L38.4628 15.8315C38.6583 15.0252 39.2879 14.3956 40.0942 14.2001L42.1114 13.7109L40.0942 13.2218C39.2879 13.0263 38.6583 12.3967 38.4628 11.5904L37.9736 9.57312ZM38.9526 8.48086C38.7036 7.4543 37.2436 7.4543 36.9947 8.48086L36.3098 11.3055C36.2209 11.672 35.9347 11.9582 35.5682 12.0471L32.7436 12.732C31.717 12.9809 31.717 14.4409 32.7436 14.6899L35.5682 15.3748C35.9347 15.4637 36.2209 15.7498 36.3098 16.1164L36.9947 18.941C37.2436 19.9676 38.7036 19.9676 38.9526 18.941L39.6375 16.1164C39.7264 15.7498 40.0125 15.4637 40.3791 15.3748L43.2037 14.6899C44.2303 14.4409 44.2303 12.9809 43.2037 12.732L40.3791 12.0471C40.0125 11.9582 39.7264 11.672 39.6375 11.3055L38.9526 8.48086Z" fill="white"/>
</svg>
