<svg width="235" height="56" viewBox="0 0 235 56" fill="none" xmlns="http://www.w3.org/2000/svg">
<path d="M0.570801 11.6667C0.570801 5.22334 5.79414 0 12.2375 0H44.9041C51.3475 0 56.5708 5.22334 56.5708 11.6667V44.3333C56.5708 50.7767 51.3475 56 44.9041 56H12.2375C5.79414 56 0.570801 50.7767 0.570801 44.3333V11.6667Z" fill="url(#paint0_linear_935_4081)"/>
<path d="M40.8239 25.291C40.8916 25.2434 40.9681 25.2155 41.0502 25.2067L42.8043 25.0203C42.8537 25.015 42.8781 25.0789 42.8385 25.1092C39.607 27.5794 37.1601 29.4088 33.6216 32.3038C32.5999 33.1398 30.0391 33.3498 30.324 33.1437C32.7287 30.9884 39.8886 25.9475 40.8239 25.291Z" fill="white"/>
<path d="M39.7494 17.8526C40.8292 17.657 43.7074 18.7188 44.7859 19.0268C45.0322 19.0972 45.3291 20.0387 45.2914 20.3524C45.288 20.381 45.2768 20.4074 45.2641 20.4333L43.4871 24.0423C43.4744 24.0681 43.4646 24.0953 43.4541 24.1221C43.3864 24.2966 43.2253 24.4189 43.0374 24.4345L41.9427 24.5249C41.8717 24.5307 40.7902 24.5828 40.7902 24.5828C40.7902 24.5828 30.8911 31.8271 29.5596 32.8732C29.4192 32.9835 27.6585 33.1993 27.4943 33.13L22.203 30.7036C21.7942 30.5311 22.5101 30.2733 22.9246 30.1151L36.5955 24.9008C36.8754 24.7939 36.9959 24.4611 36.8434 24.2018C36.0572 22.8646 35.322 21.951 34.8808 21.4536C34.6709 21.217 34.7042 20.8375 34.9676 20.6635C36.0518 19.9475 38.6897 18.0446 39.7494 17.8526Z" fill="white"/>
<path d="M11.7211 11.5624L10.9291 10.6143C10.6037 10.2247 11.0055 9.65402 11.4783 9.83435L27.5032 15.9461C27.5338 15.9578 27.5632 15.9725 27.5909 15.9902C31.5248 18.5 34.6623 22.4521 35.7059 23.8536C35.898 24.1116 35.786 24.4767 35.4858 24.5891L24.7099 28.625C24.507 28.701 24.2786 28.634 24.1479 28.4603L16.2847 18.0089L11.7211 11.5624Z" fill="white"/>
<path d="M44.7192 24.1676C44.411 24.1578 44.1983 23.8282 44.3302 23.5475L45.4958 21.0686C45.5054 21.048 45.513 21.0265 45.5208 21.0052C45.6233 20.7272 45.9805 20.6473 46.1902 20.8565C46.2047 20.871 46.2167 20.8878 46.2277 20.9051L48.1666 23.959C48.3036 24.1749 48.1559 24.4296 47.9025 24.4066C47.1173 24.3356 45.7178 24.1994 44.7192 24.1676Z" fill="white"/>
<path d="M25.3283 33.7539C25.4156 33.5156 25.6286 33.1509 25.4016 33.04L23.0568 31.8618C22.5172 31.616 22.1012 31.4264 21.7805 31.2803C21.2589 31.0427 20.4253 31.3402 20.1677 31.8551L14.1018 43.9801C14.0817 44.0202 14.0703 44.0618 14.0625 44.106C13.9513 44.739 12.8586 48.5873 12.7667 48.9848C12.7583 49.0211 12.7812 48.9849 12.8048 48.9562L25.3283 33.7539Z" fill="white"/>
<path d="M28.931 33.8143C29.0294 33.7048 28.9459 33.5302 28.7996 33.5394L26.2596 33.6993C26.1695 33.7049 26.0856 33.7479 26.028 33.818L18.8524 42.5536C18.7959 42.6223 18.8705 42.7165 18.9486 42.6741C19.9217 42.1461 22.7328 40.5392 24.5916 38.6434L28.931 33.8143Z" fill="white"/>
<path d="M10.3706 22.262C10.3706 22.262 14.251 21.2131 18.2536 22.2557L20.7745 25.0015L23.7254 28.9907L22.111 29.0609C22.0396 29.064 21.9692 29.0434 21.9104 29.0024L18.1664 26.3852L10.3706 22.262Z" fill="white"/>
<mask id="mask0_935_4081" style="mask-type:alpha" maskUnits="userSpaceOnUse" x="70" y="0" width="165" height="56">
<rect width="163.927" height="55.9999" transform="translate(70.5024)" fill="white"/>
</mask>
<g mask="url(#mask0_935_4081)">
<path d="M81.6663 39.2269C78.8537 39.2269 76.4874 38.5919 74.5673 37.3219C72.6472 36.0242 71.295 34.271 70.5107 32.0623L75.2975 29.2047C76.4063 32.1589 78.5833 33.636 81.8285 33.636C83.3971 33.636 84.5464 33.3461 85.2766 32.7663C86.0068 32.1865 86.3719 31.4548 86.3719 30.5713C86.3719 29.5498 85.9256 28.7629 85.0332 28.2107C84.1408 27.6309 82.5452 27.0097 80.2465 26.3471C78.9754 25.9606 77.8937 25.574 77.0012 25.1875C76.1358 24.801 75.2569 24.2902 74.3645 23.6552C73.4991 22.9926 72.8365 22.1643 72.3768 21.1703C71.917 20.1764 71.6871 19.0168 71.6871 17.6915C71.6871 15.0686 72.5931 12.9841 74.405 11.438C76.244 9.86426 78.4481 9.07739 81.0172 9.07739C83.3159 9.07739 85.3307 9.65719 87.0615 10.8168C88.8193 11.9488 90.185 13.5363 91.1586 15.5794L86.453 18.3542C85.3172 15.8693 83.5052 14.6269 81.0172 14.6269C79.8543 14.6269 78.9348 14.903 78.2588 15.4552C77.6097 15.9798 77.2852 16.67 77.2852 17.5259C77.2852 18.437 77.6503 19.1824 78.3805 19.7622C79.1377 20.3144 80.571 20.9218 82.6804 21.5845C83.5458 21.8606 84.1948 22.0814 84.6275 22.2471C85.0873 22.3851 85.6958 22.6198 86.453 22.9511C87.2373 23.2548 87.8322 23.5447 88.2379 23.8208C88.6706 24.0969 89.1574 24.4697 89.6982 24.939C90.2391 25.4084 90.6448 25.8915 90.9152 26.3885C91.2127 26.8855 91.4561 27.4929 91.6454 28.2107C91.8617 28.901 91.9699 29.6602 91.9699 30.4885C91.9699 33.1666 91.0098 35.2926 89.0897 36.8663C87.1967 38.44 84.7222 39.2269 81.6663 39.2269ZM108.196 17.3602C110.928 17.3602 113.253 18.4232 115.174 20.5491C117.121 22.6474 118.094 25.2289 118.094 28.2936C118.094 31.3582 117.121 33.9535 115.174 36.0794C113.253 38.1777 110.928 39.2269 108.196 39.2269C105.357 39.2269 103.166 38.2192 101.625 36.2037V46.9299H96.3918V17.94H101.625V20.3835C103.166 18.368 105.357 17.3602 108.196 17.3602ZM103.207 32.5178C104.261 33.5946 105.6 34.133 107.223 34.133C108.845 34.133 110.184 33.5946 111.239 32.5178C112.32 31.4134 112.861 30.0054 112.861 28.2936C112.861 26.5818 112.32 25.1875 111.239 24.1107C110.184 23.0064 108.845 22.4542 107.223 22.4542C105.6 22.4542 104.261 23.0064 103.207 24.1107C102.152 25.1875 101.625 26.5818 101.625 28.2936C101.625 30.0054 102.152 31.4134 103.207 32.5178ZM138.214 17.94H143.447V38.6471H138.214V36.2037C136.645 38.2192 134.441 39.2269 131.602 39.2269C128.897 39.2269 126.572 38.1777 124.624 36.0794C122.704 33.9535 121.744 31.3582 121.744 28.2936C121.744 25.2289 122.704 22.6474 124.624 20.5491C126.572 18.4232 128.897 17.3602 131.602 17.3602C134.441 17.3602 136.645 18.368 138.214 20.3835V17.94ZM128.559 32.5178C129.614 33.5946 130.953 34.133 132.575 34.133C134.198 34.133 135.537 33.5946 136.591 32.5178C137.673 31.4134 138.214 30.0054 138.214 28.2936C138.214 26.5818 137.673 25.1875 136.591 24.1107C135.537 23.0064 134.198 22.4542 132.575 22.4542C130.953 22.4542 129.614 23.0064 128.559 24.1107C127.505 25.1875 126.977 26.5818 126.977 28.2936C126.977 30.0054 127.505 31.4134 128.559 32.5178ZM154.439 21.5016C154.926 20.1764 155.724 19.1825 156.833 18.5198C157.968 17.8572 159.226 17.5259 160.605 17.5259V23.4895C159.01 23.2963 157.576 23.6276 156.305 24.4835C155.061 25.3394 154.439 26.7612 154.439 28.7491V38.6471H149.206V17.94H154.439V21.5016ZM169.913 21.5016C170.4 20.1764 171.197 19.1825 172.306 18.5198C173.442 17.8572 174.699 17.5259 176.079 17.5259V23.4895C174.483 23.2963 173.05 23.6276 171.779 24.4835C170.535 25.3394 169.913 26.7612 169.913 28.7491V38.6471H164.68V17.94H169.913V21.5016ZM196.681 36.0794C194.599 38.1777 192.057 39.2269 189.055 39.2269C186.053 39.2269 183.511 38.1777 181.429 36.0794C179.373 33.9535 178.346 31.3582 178.346 28.2936C178.346 25.2289 179.373 22.6474 181.429 20.5491C183.511 18.4232 186.053 17.3602 189.055 17.3602C192.057 17.3602 194.599 18.4232 196.681 20.5491C198.764 22.6474 199.805 25.2289 199.805 28.2936C199.805 31.3582 198.764 33.9535 196.681 36.0794ZM185.12 32.3936C186.175 33.4703 187.487 34.0087 189.055 34.0087C190.624 34.0087 191.935 33.4703 192.99 32.3936C194.045 31.3168 194.572 29.9501 194.572 28.2936C194.572 26.637 194.045 25.2703 192.99 24.1936C191.935 23.1168 190.624 22.5784 189.055 22.5784C187.487 22.5784 186.175 23.1168 185.12 24.1936C184.093 25.2703 183.579 26.637 183.579 28.2936C183.579 29.9501 184.093 31.3168 185.12 32.3936ZM226.546 17.94H232.103L225.654 38.6471H220.664L216.932 26.0986L213.201 38.6471H208.211L201.761 17.94H207.319L210.767 30.6542L214.458 17.94H219.406L223.098 30.6956L226.546 17.94Z" fill="white"/>
</g>
<defs>
<linearGradient id="paint0_linear_935_4081" x1="0.570801" y1="0" x2="65.6481" y2="44.6623" gradientUnits="userSpaceOnUse">
<stop stop-color="#11ADF0"/>
<stop offset="0.5" stop-color="#316CF6"/>
<stop offset="1" stop-color="#6147FF"/>
</linearGradient>
</defs>
</svg>
