<svg width="23" height="23" viewBox="0 0 23 23" fill="none" xmlns="http://www.w3.org/2000/svg">
<path d="M18.002 9.45205C18.0407 9.42489 18.0844 9.4089 18.1313 9.40392L19.1337 9.29736C19.1619 9.29436 19.1758 9.33089 19.1532 9.34817C17.3066 10.7597 15.9084 11.8051 13.8864 13.4594C13.3025 13.9371 11.8392 14.0571 12.0021 13.9393C13.3762 12.7077 17.4675 9.82719 18.002 9.45205Z" fill="#316CF6"/>
<path d="M17.388 5.20154C18.005 5.08976 19.6497 5.6965 20.266 5.87255C20.4067 5.91276 20.5764 6.45075 20.5548 6.63002C20.5529 6.64638 20.5465 6.66147 20.5392 6.67623L19.5238 8.73852C19.5166 8.75329 19.5109 8.7688 19.505 8.78415C19.4663 8.88387 19.3742 8.95374 19.2668 8.96261L18.6413 9.01428C18.6007 9.01763 17.9827 9.04736 17.9827 9.04736C17.9827 9.04736 12.3261 13.187 11.5652 13.7847C11.485 13.8478 10.4789 13.9711 10.3851 13.9315L7.36146 12.545C7.12787 12.4464 7.53697 12.2991 7.77381 12.2087L15.5858 9.22907C15.7457 9.16803 15.8146 8.97786 15.7274 8.82969C15.2781 8.06556 14.858 7.54351 14.6059 7.25924C14.486 7.12404 14.505 6.90721 14.6555 6.8078C15.2751 6.39864 16.7824 5.31125 17.388 5.20154Z" fill="#316CF6"/>
<path d="M1.37182 1.60717L0.919259 1.06539C0.733284 0.842755 0.962876 0.516654 1.23305 0.619697L10.3902 4.11214C10.4077 4.11882 10.4245 4.12723 10.4403 4.13732C12.6882 5.57152 14.4811 7.82982 15.0774 8.63069C15.1872 8.77811 15.1232 8.98676 14.9517 9.05099L8.79397 11.3572C8.67803 11.4006 8.54753 11.3624 8.47283 11.2631L3.9796 5.29087L1.37182 1.60717Z" fill="#316CF6"/>
<path d="M20.2279 8.81011C20.0517 8.8045 19.9302 8.6162 20.0056 8.4558L20.6716 7.03926C20.6771 7.02751 20.6815 7.01522 20.6859 7.00304C20.7445 6.8442 20.9486 6.79853 21.0684 6.91807C21.0767 6.92635 21.0836 6.93593 21.0899 6.94584L22.1978 8.69091C22.2761 8.81427 22.1917 8.95981 22.0469 8.94672C21.5982 8.90614 20.7985 8.82831 20.2279 8.81011Z" fill="#316CF6"/>
<path d="M9.14732 14.288C9.19721 14.1518 9.31894 13.9434 9.18924 13.8801L7.84936 13.2068C7.54101 13.0663 7.30329 12.958 7.12003 12.8745C6.82197 12.7387 6.34563 12.9088 6.19844 13.203L2.73221 20.1316C2.72074 20.1545 2.71421 20.1782 2.70977 20.2035C2.64619 20.5652 2.02183 22.7642 1.96932 22.9914C1.96451 23.0121 1.97756 22.9915 1.99108 22.975L9.14732 14.288Z" fill="#316CF6"/>
<path d="M11.206 14.3225C11.2623 14.2599 11.2146 14.1602 11.1309 14.1655L9.67954 14.2568C9.62801 14.26 9.58011 14.2846 9.5472 14.3247L5.44683 19.3164C5.41456 19.3557 5.4572 19.4095 5.50178 19.3853C6.05787 19.0836 7.66422 18.1653 8.72636 17.082L11.206 14.3225Z" fill="#316CF6"/>
<path d="M0.600098 7.72121C0.600098 7.72121 2.81746 7.12185 5.10468 7.71759L6.54516 9.28663L8.23142 11.5662L7.30891 11.6063C7.2681 11.608 7.22785 11.5963 7.19429 11.5728L5.05486 10.0773L0.600098 7.72121Z" fill="#316CF6"/>
</svg>
