<svg width="222" height="56" viewBox="0 0 222 56" fill="none" xmlns="http://www.w3.org/2000/svg">
<mask id="mask0_865_1466" style="mask-type:alpha" maskUnits="userSpaceOnUse" x="60" y="0" width="164" height="56">
<rect width="163.927" height="56" transform="translate(60.0361)" fill="white"/>
</mask>
<g mask="url(#mask0_865_1466)">
<path d="M71.2 39.2277C68.3874 39.2277 66.0211 38.5926 64.101 37.3226C62.1809 36.025 60.8287 34.2718 60.0444 32.063L64.8312 29.2054C65.94 32.1596 68.117 33.6367 71.3622 33.6367C72.9308 33.6367 74.0801 33.3468 74.8103 32.767C75.5405 32.1873 75.9056 31.4556 75.9056 30.5721C75.9056 29.5505 75.4593 28.7637 74.5669 28.2115C73.6745 27.6317 72.0789 27.0105 69.7802 26.3478C68.5091 25.9613 67.4274 25.5748 66.5349 25.1882C65.6695 24.8017 64.7906 24.2909 63.8982 23.6559C63.0328 22.9933 62.3702 22.165 61.9104 21.1711C61.4507 20.1771 61.2208 19.0175 61.2208 17.6923C61.2208 15.0694 62.1268 12.9849 63.9387 11.4387C65.7777 9.86499 67.9818 9.07812 70.5509 9.07812C72.8496 9.07812 74.8644 9.65793 76.5952 10.8175C78.353 11.9495 79.7187 13.5371 80.6923 15.5802L75.9867 18.3549C74.8509 15.8701 73.0389 14.6276 70.5509 14.6276C69.388 14.6276 68.4685 14.9037 67.7925 15.4559C67.1434 15.9805 66.8189 16.6707 66.8189 17.5266C66.8189 18.4377 67.184 19.1832 67.9142 19.763C68.6714 20.3152 70.1047 20.9226 72.2141 21.5852C73.0795 21.8613 73.7285 22.0822 74.1612 22.2478C74.621 22.3859 75.2295 22.6206 75.9867 22.9519C76.771 23.2556 77.3659 23.5455 77.7716 23.8216C78.2043 24.0977 78.6911 24.4704 79.2319 24.9398C79.7728 25.4091 80.1785 25.8923 80.4489 26.3893C80.7464 26.8862 80.9898 27.4936 81.1791 28.2115C81.3954 28.9017 81.5036 29.661 81.5036 30.4893C81.5036 33.1674 80.5436 35.2933 78.6235 36.8671C76.7304 38.4408 74.2559 39.2277 71.2 39.2277ZM97.7301 17.361C100.461 17.361 102.787 18.4239 104.707 20.5499C106.654 22.6482 107.628 25.2297 107.628 28.2943C107.628 31.359 106.654 33.9543 104.707 36.0802C102.787 38.1785 100.461 39.2277 97.7301 39.2277C94.8905 39.2277 92.6999 38.2199 91.1584 36.2044V46.9307H85.9255V17.9408H91.1584V20.3842C92.6999 18.3687 94.8905 17.361 97.7301 17.361ZM92.7405 32.5186C93.7952 33.5953 95.1339 34.1337 96.7565 34.1337C98.3791 34.1337 99.7178 33.5953 100.772 32.5186C101.854 31.4142 102.395 30.0061 102.395 28.2943C102.395 26.5825 101.854 25.1882 100.772 24.1115C99.7178 23.0071 98.3791 22.4549 96.7565 22.4549C95.1339 22.4549 93.7952 23.0071 92.7405 24.1115C91.6858 25.1882 91.1584 26.5825 91.1584 28.2943C91.1584 30.0061 91.6858 31.4142 92.7405 32.5186ZM127.748 17.9408H132.981V38.6479H127.748V36.2044C126.179 38.2199 123.975 39.2277 121.135 39.2277C118.431 39.2277 116.105 38.1785 114.158 36.0802C112.238 33.9543 111.278 31.359 111.278 28.2943C111.278 25.2297 112.238 22.6482 114.158 20.5499C116.105 18.4239 118.431 17.361 121.135 17.361C123.975 17.361 126.179 18.3687 127.748 20.3842V17.9408ZM118.093 32.5186C119.148 33.5953 120.486 34.1337 122.109 34.1337C123.732 34.1337 125.07 33.5953 126.125 32.5186C127.207 31.4142 127.748 30.0061 127.748 28.2943C127.748 26.5825 127.207 25.1882 126.125 24.1115C125.07 23.0071 123.732 22.4549 122.109 22.4549C120.486 22.4549 119.148 23.0071 118.093 24.1115C117.038 25.1882 116.511 26.5825 116.511 28.2943C116.511 30.0061 117.038 31.4142 118.093 32.5186ZM143.973 21.5024C144.46 20.1771 145.258 19.1832 146.366 18.5206C147.502 17.8579 148.76 17.5266 150.139 17.5266V23.4903C148.543 23.297 147.11 23.6283 145.839 24.4842C144.595 25.3401 143.973 26.762 143.973 28.7499V38.6479H138.74V17.9408H143.973V21.5024ZM159.447 21.5024C159.933 20.1771 160.731 19.1832 161.84 18.5206C162.976 17.8579 164.233 17.5266 165.612 17.5266V23.4903C164.017 23.297 162.584 23.6283 161.313 24.4842C160.068 25.3401 159.447 26.762 159.447 28.7499V38.6479H154.214V17.9408H159.447V21.5024ZM186.215 36.0802C184.133 38.1785 181.591 39.2277 178.589 39.2277C175.587 39.2277 173.045 38.1785 170.963 36.0802C168.907 33.9543 167.88 31.359 167.88 28.2943C167.88 25.2297 168.907 22.6482 170.963 20.5499C173.045 18.4239 175.587 17.361 178.589 17.361C181.591 17.361 184.133 18.4239 186.215 20.5499C188.298 22.6482 189.339 25.2297 189.339 28.2943C189.339 31.359 188.298 33.9543 186.215 36.0802ZM174.654 32.3943C175.709 33.4711 177.02 34.0095 178.589 34.0095C180.157 34.0095 181.469 33.4711 182.524 32.3943C183.578 31.3176 184.106 29.9509 184.106 28.2943C184.106 26.6377 183.578 25.2711 182.524 24.1943C181.469 23.1175 180.157 22.5792 178.589 22.5792C177.02 22.5792 175.709 23.1175 174.654 24.1943C173.626 25.2711 173.113 26.6377 173.113 28.2943C173.113 29.9509 173.626 31.3176 174.654 32.3943ZM216.08 17.9408H221.637L215.187 38.6479H210.198L206.466 26.0994L202.734 38.6479H197.745L191.295 17.9408H196.852L200.301 30.6549L203.992 17.9408H208.94L212.632 30.6963L216.08 17.9408Z" fill="white"/>
</g>
<path d="M40.7893 25.291C40.857 25.2434 40.9334 25.2155 41.0155 25.2067L42.7697 25.0203C42.819 25.015 42.8434 25.0789 42.8039 25.1092C39.5723 27.5794 37.1254 29.4088 33.587 32.3038C32.5652 33.1398 30.0044 33.3498 30.2894 33.1437C32.6941 30.9884 39.8539 25.9475 40.7893 25.291Z" fill="url(#paint0_linear_865_1466)"/>
<path d="M39.7148 17.8526C40.7945 17.657 43.6727 18.7188 44.7512 19.0268C44.9975 19.0972 45.2945 20.0387 45.2567 20.3524C45.2533 20.381 45.2421 20.4074 45.2294 20.4333L43.4525 24.0423C43.4398 24.0681 43.4299 24.0953 43.4195 24.1221C43.3517 24.2966 43.1906 24.4189 43.0027 24.4345L41.908 24.5249C41.837 24.5307 40.7555 24.5828 40.7555 24.5828C40.7555 24.5828 30.8564 31.8271 29.5249 32.8732C29.3845 32.9835 27.6239 33.1993 27.4597 33.13L22.1683 30.7036C21.7595 30.5311 22.4755 30.2733 22.8899 30.1151L36.5609 24.9008C36.8407 24.7939 36.9612 24.4611 36.8088 24.2018C36.0225 22.8646 35.2873 21.951 34.8461 21.4536C34.6363 21.217 34.6696 20.8375 34.933 20.6635C36.0172 19.9475 38.655 18.0446 39.7148 17.8526Z" fill="url(#paint1_linear_865_1466)"/>
<path d="M11.6864 11.5624L10.8945 10.6143C10.569 10.2247 10.9708 9.65402 11.4436 9.83435L27.4685 15.9461C27.4992 15.9578 27.5286 15.9725 27.5563 15.9902C31.4901 18.5 34.6276 22.4521 35.6712 23.8536C35.8633 24.1116 35.7513 24.4767 35.4512 24.5891L24.6752 28.625C24.4723 28.701 24.2439 28.634 24.1132 28.4603L16.2501 18.0089L11.6864 11.5624Z" fill="url(#paint2_linear_865_1466)"/>
<path d="M44.6846 24.1676C44.3763 24.1578 44.1636 23.8282 44.2956 23.5475L45.4611 21.0686C45.4708 21.048 45.4783 21.0265 45.4862 21.0052C45.5886 20.7272 45.9458 20.6473 46.1555 20.8565C46.17 20.871 46.1821 20.8878 46.1931 20.9051L48.1319 23.959C48.269 24.1749 48.1213 24.4296 47.8679 24.4066C47.0827 24.3356 45.6831 24.1994 44.6846 24.1676Z" fill="url(#paint3_linear_865_1466)"/>
<path d="M25.2936 33.7539C25.3809 33.5156 25.5939 33.1509 25.3669 33.04L23.0222 31.8618C22.4825 31.616 22.0665 31.4264 21.7458 31.2803C21.2242 31.0427 20.3906 31.3402 20.133 31.8551L14.0671 43.9801C14.0471 44.0202 14.0356 44.0618 14.0279 44.106C13.9166 44.739 12.824 48.5873 12.7321 48.9848C12.7237 49.0211 12.7465 48.9849 12.7702 48.9562L25.2936 33.7539Z" fill="url(#paint4_linear_865_1466)"/>
<path d="M28.8963 33.8143C28.9947 33.7048 28.9113 33.5302 28.7649 33.5394L26.225 33.6993C26.1348 33.7049 26.051 33.7479 25.9934 33.818L18.8177 42.5536C18.7612 42.6223 18.8359 42.7165 18.9139 42.6741C19.887 42.1461 22.6982 40.5392 24.5569 38.6434L28.8963 33.8143Z" fill="url(#paint5_linear_865_1466)"/>
<path d="M10.3359 22.262C10.3359 22.262 14.2163 21.2131 18.2189 22.2557L20.7398 25.0015L23.6908 28.9907L22.0764 29.0609C22.0049 29.064 21.9345 29.0434 21.8758 29.0024L18.1318 26.3852L10.3359 22.262Z" fill="url(#paint6_linear_865_1466)"/>
<defs>
<linearGradient id="paint0_linear_865_1466" x1="10.3359" y1="9.80005" x2="55.2949" y2="39.5912" gradientUnits="userSpaceOnUse">
<stop stop-color="#11ADF0"/>
<stop offset="0.5" stop-color="#316CF6"/>
<stop offset="1" stop-color="#6147FF"/>
</linearGradient>
<linearGradient id="paint1_linear_865_1466" x1="10.3359" y1="9.80005" x2="55.2949" y2="39.5912" gradientUnits="userSpaceOnUse">
<stop stop-color="#11ADF0"/>
<stop offset="0.5" stop-color="#316CF6"/>
<stop offset="1" stop-color="#6147FF"/>
</linearGradient>
<linearGradient id="paint2_linear_865_1466" x1="10.3359" y1="9.80005" x2="55.2949" y2="39.5912" gradientUnits="userSpaceOnUse">
<stop stop-color="#11ADF0"/>
<stop offset="0.5" stop-color="#316CF6"/>
<stop offset="1" stop-color="#6147FF"/>
</linearGradient>
<linearGradient id="paint3_linear_865_1466" x1="10.3359" y1="9.80005" x2="55.2949" y2="39.5912" gradientUnits="userSpaceOnUse">
<stop stop-color="#11ADF0"/>
<stop offset="0.5" stop-color="#316CF6"/>
<stop offset="1" stop-color="#6147FF"/>
</linearGradient>
<linearGradient id="paint4_linear_865_1466" x1="10.3359" y1="9.80005" x2="55.2949" y2="39.5912" gradientUnits="userSpaceOnUse">
<stop stop-color="#11ADF0"/>
<stop offset="0.5" stop-color="#316CF6"/>
<stop offset="1" stop-color="#6147FF"/>
</linearGradient>
<linearGradient id="paint5_linear_865_1466" x1="10.3359" y1="9.80005" x2="55.2949" y2="39.5912" gradientUnits="userSpaceOnUse">
<stop stop-color="#11ADF0"/>
<stop offset="0.5" stop-color="#316CF6"/>
<stop offset="1" stop-color="#6147FF"/>
</linearGradient>
<linearGradient id="paint6_linear_865_1466" x1="10.3359" y1="9.80005" x2="55.2949" y2="39.5912" gradientUnits="userSpaceOnUse">
<stop stop-color="#11ADF0"/>
<stop offset="0.5" stop-color="#316CF6"/>
<stop offset="1" stop-color="#6147FF"/>
</linearGradient>
</defs>
</svg>
