<svg width="93" height="22" viewBox="0 0 93 22" fill="none" xmlns="http://www.w3.org/2000/svg">
<path d="M6.71834 17.4158C5.11117 17.4158 3.75898 17.0529 2.66178 16.3272C1.56458 15.5857 0.791903 14.5839 0.34375 13.3217L3.07903 11.6888C3.71262 13.3769 4.95663 14.221 6.81106 14.221C7.70736 14.221 8.36414 14.0553 8.78139 13.724C9.19863 13.3927 9.40726 12.9746 9.40726 12.4698C9.40726 11.886 9.15227 11.4364 8.6423 11.1209C8.13234 10.7895 7.22058 10.4346 5.90703 10.0559C5.18071 9.83504 4.56257 9.61416 4.0526 9.39329C3.55809 9.17241 3.05585 8.88054 2.54588 8.51767C2.05137 8.13903 1.67275 7.66572 1.41004 7.09776C1.14733 6.52979 1.01598 5.86716 1.01598 5.10987C1.01598 3.61107 1.53367 2.41992 2.56906 1.53642C3.6199 0.63714 4.87936 0.1875 6.34745 0.1875C7.661 0.1875 8.81229 0.518814 9.80132 1.18144C10.8058 1.82829 11.5862 2.73546 12.1425 3.90295L9.45362 5.48852C8.80457 4.0686 7.76918 3.35865 6.34745 3.35865C5.68295 3.35865 5.15753 3.51641 4.77119 3.83195C4.40031 4.13171 4.21486 4.52613 4.21486 5.01521C4.21486 5.53585 4.42349 5.96182 4.84073 6.29314C5.27343 6.60867 6.09247 6.95576 7.29785 7.33441C7.79236 7.49218 8.16324 7.61839 8.4105 7.71305C8.67321 7.79194 9.02092 7.92604 9.45362 8.11536C9.90177 8.28891 10.2417 8.45456 10.4736 8.61233C10.7208 8.7701 10.999 8.98309 11.308 9.2513C11.6171 9.5195 11.8489 9.7956 12.0035 10.0796C12.1734 10.3636 12.3125 10.7107 12.4207 11.1209C12.5443 11.5153 12.6061 11.9491 12.6061 12.4224C12.6061 13.9528 12.0575 15.1676 10.9603 16.0669C9.87859 16.9662 8.46459 17.4158 6.71834 17.4158ZM21.8784 4.92055C23.4392 4.92055 24.7682 5.52796 25.8654 6.74278C26.9781 7.94182 27.5344 9.41695 27.5344 11.1682C27.5344 12.9194 26.9781 14.4024 25.8654 15.6173C24.7682 16.8163 23.4392 17.4158 21.8784 17.4158C20.2558 17.4158 19.004 16.84 18.1232 15.6882V21.8175H15.1329V5.25187H18.1232V6.64812C19.004 5.49641 20.2558 4.92055 21.8784 4.92055ZM19.0272 13.582C19.6299 14.1973 20.3949 14.505 21.3221 14.505C22.2493 14.505 23.0142 14.1973 23.6169 13.582C24.2351 12.951 24.5441 12.1463 24.5441 11.1682C24.5441 10.19 24.2351 9.39328 23.6169 8.77799C23.0142 8.14691 22.2493 7.83138 21.3221 7.83138C20.3949 7.83138 19.6299 8.14691 19.0272 8.77799C18.4245 9.39328 18.1232 10.19 18.1232 11.1682C18.1232 12.1463 18.4245 12.951 19.0272 13.582ZM39.0313 5.25187H42.0216V17.0845H39.0313V15.6882C38.135 16.84 36.8755 17.4158 35.2529 17.4158C33.7076 17.4158 32.3786 16.8163 31.2659 15.6173C30.1687 14.4024 29.6201 12.9194 29.6201 11.1682C29.6201 9.41695 30.1687 7.94182 31.2659 6.74278C32.3786 5.52796 33.7076 4.92055 35.2529 4.92055C36.8755 4.92055 38.135 5.49641 39.0313 6.64812V5.25187ZM33.5144 13.582C34.1171 14.1973 34.882 14.505 35.8092 14.505C36.7365 14.505 37.5014 14.1973 38.1041 13.582C38.7222 12.951 39.0313 12.1463 39.0313 11.1682C39.0313 10.19 38.7222 9.39328 38.1041 8.77799C37.5014 8.14691 36.7365 7.83138 35.8092 7.83138C34.882 7.83138 34.1171 8.14691 33.5144 8.77799C32.9117 9.39328 32.6104 10.19 32.6104 11.1682C32.6104 12.1463 32.9117 12.951 33.5144 13.582ZM48.3029 7.28708C48.5811 6.52979 49.037 5.96182 49.6706 5.58318C50.3196 5.20454 51.0382 5.01521 51.8263 5.01521V8.42301C50.9146 8.31257 50.0955 8.50189 49.3692 8.99098C48.6584 9.48006 48.3029 10.2926 48.3029 11.4285V17.0845H45.3127V5.25187H48.3029V7.28708ZM57.1449 7.28708C57.4231 6.52979 57.879 5.96182 58.5126 5.58318C59.1616 5.20454 59.8802 5.01521 60.6683 5.01521V8.42301C59.7566 8.31257 58.9375 8.50189 58.2112 8.99098C57.5004 9.48006 57.1449 10.2926 57.1449 11.4285V17.0845H54.1547V5.25187H57.1449V7.28708ZM72.4414 15.6173C71.2514 16.8163 69.7988 17.4158 68.0835 17.4158C66.3681 17.4158 64.9155 16.8163 63.7256 15.6173C62.5511 14.4024 61.9639 12.9194 61.9639 11.1682C61.9639 9.41695 62.5511 7.94182 63.7256 6.74278C64.9155 5.52796 66.3681 4.92055 68.0835 4.92055C69.7988 4.92055 71.2514 5.52796 72.4414 6.74278C73.6313 7.94182 74.2262 9.41695 74.2262 11.1682C74.2262 12.9194 73.6313 14.4024 72.4414 15.6173ZM65.835 13.511C66.4377 14.1263 67.1872 14.434 68.0835 14.434C68.9798 14.434 69.7293 14.1263 70.332 13.511C70.9347 12.8957 71.236 12.1148 71.236 11.1682C71.236 10.2216 70.9347 9.44062 70.332 8.82532C69.7293 8.21002 68.9798 7.90238 68.0835 7.90238C67.1872 7.90238 66.4377 8.21002 65.835 8.82532C65.2477 9.44062 64.9541 10.2216 64.9541 11.1682C64.9541 12.1148 65.2477 12.8957 65.835 13.511ZM89.5068 5.25187H92.6825L88.9969 17.0845H86.1457L84.0131 9.91392L81.8809 17.0845H79.0297L75.3441 5.25187H78.5198L80.4901 12.5171L82.5995 5.25187H85.4271L87.5365 12.5408L89.5068 5.25187Z" fill="url(#paint0_linear_863_8677)"/>
<defs>
<linearGradient id="paint0_linear_863_8677" x1="0.34375" y1="0.1875" x2="16.8142" y2="48.4425" gradientUnits="userSpaceOnUse">
<stop stop-color="#11ADF0"/>
<stop offset="0.5" stop-color="#316CF6"/>
<stop offset="1" stop-color="#6147FF"/>
</linearGradient>
</defs>
</svg>
