<svg width="57" height="56" viewBox="0 0 57 56" fill="none" xmlns="http://www.w3.org/2000/svg">
<circle cx="28.5" cy="28" r="28" fill="url(#paint0_linear_864_8796)"/>
<path d="M42.9934 25.291C43.0611 25.2434 43.1376 25.2155 43.2196 25.2067L44.9738 25.0203C45.0231 25.015 45.0475 25.0789 45.008 25.1092C41.7764 27.5794 39.3295 29.4088 35.7911 32.3038C34.7693 33.1398 32.2085 33.3498 32.4935 33.1437C34.8982 30.9884 42.058 25.9475 42.9934 25.291Z" fill="white"/>
<path d="M41.9189 17.8526C42.9986 17.657 45.8768 18.7188 46.9553 19.0268C47.2016 19.0972 47.4986 20.0387 47.4608 20.3524C47.4574 20.381 47.4462 20.4074 47.4335 20.4333L45.6566 24.0423C45.6439 24.0681 45.634 24.0953 45.6236 24.1221C45.5558 24.2966 45.3947 24.4189 45.2068 24.4345L44.1121 24.5249C44.0411 24.5307 42.9596 24.5828 42.9596 24.5828C42.9596 24.5828 33.0605 31.8271 31.729 32.8732C31.5886 32.9835 29.828 33.1993 29.6638 33.13L24.3724 30.7036C23.9636 30.5311 24.6796 30.2733 25.094 30.1151L38.765 24.9008C39.0448 24.7939 39.1653 24.4611 39.0129 24.2018C38.2266 22.8646 37.4914 21.951 37.0502 21.4536C36.8404 21.217 36.8737 20.8375 37.1371 20.6635C38.2213 19.9475 40.8591 18.0446 41.9189 17.8526Z" fill="white"/>
<path d="M13.8905 11.5624L13.0986 10.6143C12.7731 10.2247 13.1749 9.65402 13.6477 9.83435L29.6726 15.9461C29.7033 15.9578 29.7327 15.9725 29.7604 15.9902C33.6942 18.5 36.8317 22.4521 37.8753 23.8536C38.0674 24.1116 37.9554 24.4767 37.6553 24.5891L26.8793 28.625C26.6764 28.701 26.448 28.634 26.3173 28.4603L18.4542 18.0089L13.8905 11.5624Z" fill="white"/>
<path d="M46.8887 24.1676C46.5804 24.1578 46.3677 23.8282 46.4997 23.5475L47.6652 21.0686C47.6749 21.048 47.6824 21.0265 47.6903 21.0052C47.7927 20.7272 48.1499 20.6473 48.3596 20.8565C48.3741 20.871 48.3862 20.8878 48.3972 20.9051L50.336 23.959C50.4731 24.1749 50.3254 24.4296 50.072 24.4066C49.2868 24.3356 47.8872 24.1994 46.8887 24.1676Z" fill="white"/>
<path d="M27.4977 33.7539C27.585 33.5156 27.798 33.1509 27.571 33.04L25.2263 31.8618C24.6866 31.616 24.2706 31.4264 23.9499 31.2803C23.4283 31.0427 22.5947 31.3402 22.3371 31.8551L16.2712 43.9801C16.2512 44.0202 16.2397 44.0618 16.232 44.106C16.1207 44.739 15.0281 48.5873 14.9362 48.9848C14.9278 49.0211 14.9506 48.9849 14.9743 48.9562L27.4977 33.7539Z" fill="white"/>
<path d="M31.1004 33.8143C31.1988 33.7048 31.1154 33.5302 30.969 33.5394L28.4291 33.6993C28.3389 33.7049 28.2551 33.7479 28.1975 33.818L21.0218 42.5536C20.9653 42.6223 21.04 42.7165 21.118 42.6741C22.0911 42.1461 24.9023 40.5392 26.761 38.6434L31.1004 33.8143Z" fill="white"/>
<path d="M12.54 22.262C12.54 22.262 16.4204 21.2131 20.423 22.2557L22.9439 25.0015L25.8949 28.9907L24.2805 29.0609C24.2091 29.064 24.1386 29.0434 24.0799 29.0024L20.3359 26.3852L12.54 22.262Z" fill="white"/>
<defs>
<linearGradient id="paint0_linear_864_8796" x1="0.5" y1="0" x2="65.5773" y2="44.6623" gradientUnits="userSpaceOnUse">
<stop stop-color="#11ADF0"/>
<stop offset="0.5" stop-color="#316CF6"/>
<stop offset="1" stop-color="#6147FF"/>
</linearGradient>
</defs>
</svg>
