<svg width="57" height="56" viewBox="0 0 57 56" fill="none" xmlns="http://www.w3.org/2000/svg">
<path d="M40.7531 25.291C40.8208 25.2434 40.8973 25.2155 40.9794 25.2067L42.7335 25.0203C42.7829 25.015 42.8073 25.0789 42.7677 25.1092C39.5362 27.5794 37.0893 29.4088 33.5508 32.3038C32.5291 33.1398 29.9683 33.3498 30.2532 33.1437C32.6579 30.9884 39.8178 25.9475 40.7531 25.291Z" fill="url(#paint0_linear_864_8736)"/>
<path d="M39.6786 17.8526C40.7584 17.657 43.6366 18.7188 44.7151 19.0268C44.9614 19.0972 45.2583 20.0387 45.2206 20.3524C45.2172 20.381 45.206 20.4074 45.1933 20.4333L43.4163 24.0423C43.4036 24.0681 43.3938 24.0953 43.3833 24.1221C43.3156 24.2966 43.1545 24.4189 42.9666 24.4345L41.8719 24.5249C41.8009 24.5307 40.7194 24.5828 40.7194 24.5828C40.7194 24.5828 30.8203 31.8271 29.4888 32.8732C29.3484 32.9835 27.5877 33.1993 27.4235 33.13L22.1322 30.7036C21.7234 30.5311 22.4393 30.2733 22.8538 30.1151L36.5247 24.9008C36.8046 24.7939 36.9251 24.4611 36.7726 24.2018C35.9864 22.8646 35.2512 21.951 34.81 21.4536C34.6001 21.217 34.6334 20.8375 34.8968 20.6635C35.981 19.9475 38.6189 18.0446 39.6786 17.8526Z" fill="url(#paint1_linear_864_8736)"/>
<path d="M11.6503 11.5624L10.8583 10.6143C10.5329 10.2247 10.9347 9.65402 11.4075 9.83435L27.4324 15.9461C27.463 15.9578 27.4924 15.9725 27.5201 15.9902C31.454 18.5 34.5915 22.4521 35.6351 23.8536C35.8272 24.1116 35.7152 24.4767 35.415 24.5891L24.6391 28.625C24.4362 28.701 24.2078 28.634 24.0771 28.4603L16.2139 18.0089L11.6503 11.5624Z" fill="url(#paint2_linear_864_8736)"/>
<path d="M44.6484 24.1676C44.3402 24.1578 44.1275 23.8282 44.2594 23.5475L45.425 21.0686C45.4346 21.048 45.4422 21.0265 45.45 21.0052C45.5525 20.7272 45.9097 20.6473 46.1194 20.8565C46.1339 20.871 46.1459 20.8878 46.1569 20.9051L48.0958 23.959C48.2328 24.1749 48.0851 24.4296 47.8317 24.4066C47.0465 24.3356 45.647 24.1994 44.6484 24.1676Z" fill="url(#paint3_linear_864_8736)"/>
<path d="M25.2575 33.7539C25.3447 33.5156 25.5578 33.1509 25.3308 33.04L22.986 31.8618C22.4464 31.616 22.0304 31.4264 21.7097 31.2803C21.1881 31.0427 20.3545 31.3402 20.0969 31.8551L14.031 43.9801C14.0109 44.0202 13.9995 44.0618 13.9917 44.106C13.8805 44.739 12.7878 48.5873 12.6959 48.9848C12.6875 49.0211 12.7104 48.9849 12.734 48.9562L25.2575 33.7539Z" fill="url(#paint4_linear_864_8736)"/>
<path d="M28.8602 33.8143C28.9586 33.7048 28.8751 33.5302 28.7288 33.5394L26.1888 33.6993C26.0987 33.7049 26.0148 33.7479 25.9572 33.818L18.7816 42.5536C18.7251 42.6223 18.7997 42.7165 18.8778 42.6741C19.8509 42.1461 22.662 40.5392 24.5208 38.6434L28.8602 33.8143Z" fill="url(#paint5_linear_864_8736)"/>
<path d="M10.2998 22.262C10.2998 22.262 14.1802 21.2131 18.1828 22.2557L20.7037 25.0015L23.6546 28.9907L22.0402 29.0609C21.9688 29.064 21.8984 29.0434 21.8396 29.0024L18.0956 26.3852L10.2998 22.262Z" fill="url(#paint6_linear_864_8736)"/>
<defs>
<linearGradient id="paint0_linear_864_8736" x1="10.2998" y1="9.80005" x2="55.2588" y2="39.5912" gradientUnits="userSpaceOnUse">
<stop stop-color="#11ADF0"/>
<stop offset="0.5" stop-color="#316CF6"/>
<stop offset="1" stop-color="#6147FF"/>
</linearGradient>
<linearGradient id="paint1_linear_864_8736" x1="10.2998" y1="9.80005" x2="55.2588" y2="39.5912" gradientUnits="userSpaceOnUse">
<stop stop-color="#11ADF0"/>
<stop offset="0.5" stop-color="#316CF6"/>
<stop offset="1" stop-color="#6147FF"/>
</linearGradient>
<linearGradient id="paint2_linear_864_8736" x1="10.2998" y1="9.80005" x2="55.2588" y2="39.5912" gradientUnits="userSpaceOnUse">
<stop stop-color="#11ADF0"/>
<stop offset="0.5" stop-color="#316CF6"/>
<stop offset="1" stop-color="#6147FF"/>
</linearGradient>
<linearGradient id="paint3_linear_864_8736" x1="10.2998" y1="9.80005" x2="55.2588" y2="39.5912" gradientUnits="userSpaceOnUse">
<stop stop-color="#11ADF0"/>
<stop offset="0.5" stop-color="#316CF6"/>
<stop offset="1" stop-color="#6147FF"/>
</linearGradient>
<linearGradient id="paint4_linear_864_8736" x1="10.2998" y1="9.80005" x2="55.2588" y2="39.5912" gradientUnits="userSpaceOnUse">
<stop stop-color="#11ADF0"/>
<stop offset="0.5" stop-color="#316CF6"/>
<stop offset="1" stop-color="#6147FF"/>
</linearGradient>
<linearGradient id="paint5_linear_864_8736" x1="10.2998" y1="9.80005" x2="55.2588" y2="39.5912" gradientUnits="userSpaceOnUse">
<stop stop-color="#11ADF0"/>
<stop offset="0.5" stop-color="#316CF6"/>
<stop offset="1" stop-color="#6147FF"/>
</linearGradient>
<linearGradient id="paint6_linear_864_8736" x1="10.2998" y1="9.80005" x2="55.2588" y2="39.5912" gradientUnits="userSpaceOnUse">
<stop stop-color="#11ADF0"/>
<stop offset="0.5" stop-color="#316CF6"/>
<stop offset="1" stop-color="#6147FF"/>
</linearGradient>
</defs>
</svg>
