<svg width="57" height="56" viewBox="0 0 57 56" fill="none" xmlns="http://www.w3.org/2000/svg">
<mask id="mask0_865_1574" style="mask-type:alpha" maskUnits="userSpaceOnUse" x="0" y="0" width="57" height="56">
<rect x="0.5" width="56" height="56" fill="#D9D9D9"/>
</mask>
<g mask="url(#mask0_865_1574)">
<path d="M40.0313 23.9127C40.099 23.8652 40.1755 23.8372 40.2576 23.8285L42.0117 23.642C42.0611 23.6368 42.0855 23.7007 42.0459 23.7309C38.8144 26.2011 36.3675 28.0306 32.8291 30.9256C31.8073 31.7615 29.2466 31.9715 29.5315 31.7654C31.9362 29.6102 39.096 24.5692 40.0313 23.9127Z" fill="url(#paint0_linear_865_1574)"/>
<path d="M38.9568 16.4744C40.0366 16.2788 42.9148 17.3405 43.9932 17.6486C44.2395 17.719 44.5365 18.6605 44.4988 18.9742C44.4953 19.0028 44.4842 19.0292 44.4715 19.0551L42.6945 22.6641C42.6818 22.6899 42.6719 22.7171 42.6615 22.7439C42.5938 22.9184 42.4327 23.0407 42.2448 23.0562L41.1501 23.1466C41.0791 23.1525 39.9976 23.2045 39.9976 23.2045C39.9976 23.2045 30.0985 30.4489 28.767 31.4949C28.6266 31.6052 26.866 31.821 26.7018 31.7517L21.4105 29.3254C21.0017 29.1528 21.7176 28.8951 22.1321 28.7368L35.803 23.5225C36.0828 23.4157 36.2033 23.0829 36.0509 22.8236C35.2646 21.4864 34.5294 20.5728 34.0882 20.0753C33.8784 19.8387 33.9117 19.4593 34.1751 19.2853C35.2592 18.5693 37.8971 16.6664 38.9568 16.4744Z" fill="url(#paint1_linear_865_1574)"/>
<path d="M10.9286 10.1842L10.1367 9.23614C9.8112 8.84652 10.213 8.27585 10.6858 8.45617L26.7107 14.5679C26.7413 14.5796 26.7707 14.5943 26.7984 14.612C30.7322 17.1218 33.8697 21.0738 34.9133 22.4754C35.1054 22.7333 34.9934 23.0985 34.6933 23.2109L23.9173 27.2467C23.7144 27.3227 23.4861 27.2558 23.3553 27.082L15.4922 16.6307L10.9286 10.1842Z" fill="url(#paint2_linear_865_1574)"/>
<path d="M43.9266 22.7893C43.6183 22.7795 43.4057 22.45 43.5376 22.1693L44.7031 19.6904C44.7128 19.6698 44.7204 19.6483 44.7282 19.627C44.8307 19.349 45.1879 19.2691 45.3975 19.4783C45.4121 19.4928 45.4241 19.5095 45.4351 19.5269L47.3739 22.5807C47.511 22.7966 47.3633 23.0513 47.1099 23.0284C46.3247 22.9574 44.9251 22.8212 43.9266 22.7893Z" fill="url(#paint3_linear_865_1574)"/>
<path d="M24.5357 32.3756C24.623 32.1373 24.836 31.7726 24.6091 31.6617L22.2643 30.4835C21.7247 30.2377 21.3087 30.0482 20.988 29.9021C20.4664 29.6644 19.6328 29.962 19.3752 30.4768L13.3093 42.6018C13.2892 42.6419 13.2778 42.6835 13.27 42.7277C13.1588 43.3607 12.0661 47.209 11.9742 47.6064C11.9658 47.6428 11.9887 47.6066 12.0123 47.5779L24.5357 32.3756Z" fill="url(#paint4_linear_865_1574)"/>
<path d="M28.1385 32.436C28.2369 32.3265 28.1534 32.152 28.007 32.1612L25.4671 32.321C25.3769 32.3267 25.2931 32.3697 25.2355 32.4398L18.0599 41.1753C18.0034 41.244 18.078 41.3382 18.156 41.2958C19.1292 40.7678 21.9403 39.1609 23.799 37.2652L28.1385 32.436Z" fill="url(#paint5_linear_865_1574)"/>
<path d="M9.57812 20.8838C9.57812 20.8838 13.4585 19.8349 17.4611 20.8774L19.9819 23.6232L22.9329 27.6125L21.3185 27.6826C21.2471 27.6857 21.1766 27.6652 21.1179 27.6241L17.3739 25.0069L9.57812 20.8838Z" fill="url(#paint6_linear_865_1574)"/>
<path d="M28.4136 45.7187H27.1831L29.4234 39.3551H30.8465L33.09 45.7187H31.8595L30.1598 40.6601H30.1101L28.4136 45.7187ZM28.454 43.2236H31.8098V44.1496H28.454V43.2236Z" fill="white"/>
<path d="M35.4168 45.8026C35.0419 45.8026 34.7063 45.7063 34.4101 45.5137C34.1138 45.321 33.8798 45.0414 33.7078 44.6747C33.5359 44.3081 33.4499 43.8627 33.4499 43.3386C33.4499 42.8083 33.5369 42.3608 33.7109 41.9963C33.887 41.6296 34.1242 41.3531 34.4225 41.1666C34.7208 40.9781 35.0533 40.8839 35.4199 40.8839C35.6996 40.8839 35.9295 40.9315 36.1097 41.0268C36.2899 41.12 36.4329 41.2329 36.5385 41.3655C36.6442 41.496 36.726 41.6192 36.784 41.7353H36.8306V39.3551H37.9585V45.7187H36.8524V44.9668H36.784C36.726 45.0828 36.6421 45.206 36.5323 45.3365C36.4225 45.465 36.2775 45.5748 36.0973 45.6659C35.9171 45.7571 35.6902 45.8026 35.4168 45.8026ZM35.7306 44.8798C35.9689 44.8798 36.1719 44.8156 36.3397 44.6871C36.5074 44.5566 36.6348 44.3754 36.7218 44.1434C36.8089 43.9114 36.8524 43.641 36.8524 43.3324C36.8524 43.0237 36.8089 42.7555 36.7218 42.5276C36.6369 42.2997 36.5106 42.1226 36.3428 41.9963C36.177 41.8699 35.973 41.8067 35.7306 41.8067C35.48 41.8067 35.2708 41.872 35.103 42.0025C34.9352 42.133 34.8088 42.3132 34.7239 42.5431C34.639 42.7731 34.5965 43.0362 34.5965 43.3324C34.5965 43.6307 34.639 43.8969 34.7239 44.1309C34.8109 44.3629 34.9383 44.5463 35.1061 44.6809C35.2759 44.8135 35.4841 44.8798 35.7306 44.8798Z" fill="white"/>
<path d="M39.0697 45.7187V40.946H40.1448V41.757H40.2007C40.3001 41.4836 40.4648 41.2702 40.6947 41.1169C40.9247 40.9615 41.1992 40.8839 41.5182 40.8839C41.8413 40.8839 42.1137 40.9626 42.3354 41.12C42.5591 41.2754 42.7165 41.4877 42.8077 41.757H42.8574C42.963 41.4919 43.1412 41.2806 43.3918 41.1231C43.6446 40.9636 43.9439 40.8839 44.2898 40.8839C44.729 40.8839 45.0873 41.0227 45.3649 41.3002C45.6425 41.5778 45.7813 41.9828 45.7813 42.5152V45.7187H44.6534V42.6892C44.6534 42.393 44.5747 42.1765 44.4172 42.0398C44.2598 41.901 44.0671 41.8316 43.8393 41.8316C43.5679 41.8316 43.3556 41.9165 43.2023 42.0864C43.0511 42.2542 42.9755 42.4727 42.9755 42.742V45.7187H41.8724V42.6426C41.8724 42.3961 41.7978 42.1993 41.6487 42.0522C41.5016 41.9051 41.3089 41.8316 41.0707 41.8316C40.9091 41.8316 40.7621 41.873 40.6295 41.9559C40.4969 42.0367 40.3913 42.1516 40.3125 42.3008C40.2338 42.4478 40.1945 42.6198 40.1945 42.8166V45.7187H39.0697Z" fill="white"/>
<path d="M46.8349 45.7187V40.946H47.9598V45.7187H46.8349ZM47.4005 40.2686C47.2223 40.2686 47.069 40.2096 46.9406 40.0915C46.8122 39.9714 46.7479 39.8274 46.7479 39.6596C46.7479 39.4897 46.8122 39.3458 46.9406 39.2277C47.069 39.1076 47.2223 39.0475 47.4005 39.0475C47.5807 39.0475 47.734 39.1076 47.8603 39.2277C47.9888 39.3458 48.053 39.4897 48.053 39.6596C48.053 39.8274 47.9888 39.9714 47.8603 40.0915C47.734 40.2096 47.5807 40.2686 47.4005 40.2686Z" fill="white"/>
<path d="M50.1538 42.9222V45.7187H49.0289V40.946H50.104V41.757H50.16C50.2698 41.4898 50.4448 41.2775 50.6851 41.12C50.9275 40.9626 51.2268 40.8839 51.5831 40.8839C51.9125 40.8839 52.1994 40.9543 52.4438 41.0952C52.6903 41.236 52.8809 41.4401 53.0155 41.7073C53.1522 41.9745 53.2196 42.2987 53.2175 42.6799V45.7187H52.0927V42.8539C52.0927 42.5348 52.0098 42.2852 51.8441 42.105C51.6804 41.9248 51.4536 41.8347 51.1636 41.8347C50.9668 41.8347 50.7918 41.8782 50.6385 41.9652C50.4873 42.0501 50.3682 42.1734 50.2811 42.335C50.1962 42.4965 50.1538 42.6923 50.1538 42.9222Z" fill="white"/>
</g>
<defs>
<linearGradient id="paint0_linear_865_1574" x1="9.57812" y1="8.42188" x2="54.5369" y2="38.2129" gradientUnits="userSpaceOnUse">
<stop stop-color="#11ADF0"/>
<stop offset="0.5" stop-color="#316CF6"/>
<stop offset="1" stop-color="#6147FF"/>
</linearGradient>
<linearGradient id="paint1_linear_865_1574" x1="9.57812" y1="8.42188" x2="54.5369" y2="38.2129" gradientUnits="userSpaceOnUse">
<stop stop-color="#11ADF0"/>
<stop offset="0.5" stop-color="#316CF6"/>
<stop offset="1" stop-color="#6147FF"/>
</linearGradient>
<linearGradient id="paint2_linear_865_1574" x1="9.57812" y1="8.42188" x2="54.5369" y2="38.2129" gradientUnits="userSpaceOnUse">
<stop stop-color="#11ADF0"/>
<stop offset="0.5" stop-color="#316CF6"/>
<stop offset="1" stop-color="#6147FF"/>
</linearGradient>
<linearGradient id="paint3_linear_865_1574" x1="9.57812" y1="8.42188" x2="54.5369" y2="38.2129" gradientUnits="userSpaceOnUse">
<stop stop-color="#11ADF0"/>
<stop offset="0.5" stop-color="#316CF6"/>
<stop offset="1" stop-color="#6147FF"/>
</linearGradient>
<linearGradient id="paint4_linear_865_1574" x1="9.57812" y1="8.42188" x2="54.5369" y2="38.2129" gradientUnits="userSpaceOnUse">
<stop stop-color="#11ADF0"/>
<stop offset="0.5" stop-color="#316CF6"/>
<stop offset="1" stop-color="#6147FF"/>
</linearGradient>
<linearGradient id="paint5_linear_865_1574" x1="9.57812" y1="8.42188" x2="54.5369" y2="38.2129" gradientUnits="userSpaceOnUse">
<stop stop-color="#11ADF0"/>
<stop offset="0.5" stop-color="#316CF6"/>
<stop offset="1" stop-color="#6147FF"/>
</linearGradient>
<linearGradient id="paint6_linear_865_1574" x1="9.57812" y1="8.42188" x2="54.5369" y2="38.2129" gradientUnits="userSpaceOnUse">
<stop stop-color="#11ADF0"/>
<stop offset="0.5" stop-color="#316CF6"/>
<stop offset="1" stop-color="#6147FF"/>
</linearGradient>
</defs>
</svg>
