<svg width="22" height="24" viewBox="0 0 22 24" fill="none" xmlns="http://www.w3.org/2000/svg">
<path d="M17.5893 9.66441C17.628 9.63726 17.6717 9.62127 17.7186 9.61628L18.721 9.50973C18.7492 9.50673 18.7631 9.54326 18.7405 9.56053C16.8939 10.9721 15.4957 12.0175 13.4737 13.6717C12.8899 14.1494 11.4266 14.2694 11.5894 14.1517C12.9635 12.9201 17.0549 10.0396 17.5893 9.66441Z" fill="#316CF6"/>
<path d="M16.9753 5.41393C17.5923 5.30215 19.237 5.90888 19.8533 6.08494C19.994 6.12514 20.1637 6.66313 20.1422 6.84239C20.1402 6.85876 20.1338 6.87385 20.1266 6.88861L19.1112 8.95089C19.1039 8.96566 19.0983 8.98117 19.0923 8.99652C19.0536 9.09624 18.9615 9.16611 18.8542 9.17498L18.2286 9.22665C18.188 9.23 17.5701 9.25973 17.5701 9.25973C17.5701 9.25973 11.9134 13.3994 11.1526 13.9971C11.0724 14.0601 10.0663 14.1834 9.97244 14.1438L6.94884 12.7574C6.71525 12.6588 7.12434 12.5115 7.36118 12.4211L15.1731 9.44144C15.333 9.3804 15.4019 9.19023 15.3148 9.04206C14.8655 8.27794 14.4454 7.75589 14.1933 7.47162C14.0734 7.33642 14.0924 7.11958 14.2429 7.02018C14.8624 6.61102 16.3698 5.52364 16.9753 5.41393Z" fill="#316CF6"/>
<path d="M0.959216 1.81957L0.50666 1.27779C0.320686 1.05516 0.550277 0.729057 0.820452 0.8321L9.97752 4.32453C9.99503 4.3312 10.0118 4.33962 10.0276 4.34971C12.2756 5.78391 14.0684 8.04219 14.6648 8.84306C14.7745 8.99048 14.7105 9.19913 14.539 9.26336L8.38134 11.5696C8.2654 11.613 8.1349 11.5747 8.0602 11.4754L3.56698 5.50325L0.959216 1.81957Z" fill="#316CF6"/>
<path d="M19.8152 9.02248C19.6391 9.01687 19.5175 8.82857 19.5929 8.66817L20.2589 7.25163C20.2645 7.23989 20.2688 7.2276 20.2733 7.21542C20.3318 7.05658 20.5359 7.01091 20.6557 7.13045C20.664 7.13873 20.6709 7.14831 20.6772 7.15822L21.7851 8.90328C21.8634 9.02664 21.779 9.17218 21.6342 9.15909C21.1856 9.11851 20.3858 9.04068 19.8152 9.02248Z" fill="#316CF6"/>
<path d="M8.73469 14.5004C8.78458 14.3642 8.90631 14.1558 8.77661 14.0924L7.43674 13.4192C7.12838 13.2787 6.89067 13.1704 6.70741 13.0869C6.40935 12.9511 5.93301 13.1211 5.78582 13.4153L2.3196 20.3439C2.30814 20.3668 2.3016 20.3905 2.29716 20.4158C2.23358 20.7775 1.60923 22.9766 1.55671 23.2037C1.55191 23.2244 1.56496 23.2038 1.57848 23.1874L8.73469 14.5004Z" fill="#316CF6"/>
<path d="M10.7934 14.5349C10.8496 14.4723 10.8019 14.3726 10.7183 14.3778L9.26691 14.4691C9.21538 14.4724 9.16748 14.497 9.13457 14.537L5.03422 19.5287C5.00194 19.568 5.04459 19.6218 5.08917 19.5976C5.64525 19.2959 7.2516 18.3776 8.31373 17.2944L10.7934 14.5349Z" fill="#316CF6"/>
<path d="M0.1875 7.93358C0.1875 7.93358 2.40486 7.33422 4.69206 7.92996L6.13253 9.49899L7.8188 11.7786L6.89629 11.8186C6.85548 11.8204 6.81522 11.8087 6.78167 11.7852L4.64224 10.2897L0.1875 7.93358Z" fill="#316CF6"/>
<path d="M10.25 22.1364V18.5H12.6151V19.0522H10.9087V20.0394H12.4925V20.5916H10.9087V21.5842H12.6293V22.1364H10.25Z" fill="white"/>
<path d="M14.2208 22.1843C14.0065 22.1843 13.8148 22.1293 13.6455 22.0192C13.4762 21.9091 13.3425 21.7493 13.2442 21.5398C13.146 21.3303 13.0968 21.0758 13.0968 20.7763C13.0968 20.4732 13.1466 20.2176 13.246 20.0092C13.3466 19.7997 13.4821 19.6417 13.6526 19.5352C13.823 19.4274 14.013 19.3736 14.2225 19.3736C14.3824 19.3736 14.5137 19.4008 14.6167 19.4553C14.7197 19.5085 14.8014 19.573 14.8618 19.6488C14.9221 19.7234 14.9689 19.7938 15.002 19.8601H15.0287V18.5H15.6732V22.1364H15.0411V21.7067H15.002C14.9689 21.773 14.9209 21.8434 14.8582 21.918C14.7955 21.9914 14.7126 22.0541 14.6096 22.1062C14.5066 22.1583 14.377 22.1843 14.2208 22.1843ZM14.4001 21.657C14.5362 21.657 14.6522 21.6203 14.7481 21.5469C14.844 21.4723 14.9168 21.3687 14.9665 21.2362C15.0162 21.1036 15.0411 20.9491 15.0411 20.7727C15.0411 20.5964 15.0162 20.4431 14.9665 20.3129C14.918 20.1826 14.8458 20.0814 14.7499 20.0092C14.6552 19.937 14.5386 19.9009 14.4001 19.9009C14.2569 19.9009 14.1373 19.9382 14.0414 20.0128C13.9456 20.0874 13.8734 20.1903 13.8248 20.3217C13.7763 20.4531 13.752 20.6035 13.752 20.7727C13.752 20.9432 13.7763 21.0953 13.8248 21.229C13.8745 21.3616 13.9473 21.4664 14.0432 21.5433C14.1403 21.6191 14.2592 21.657 14.4001 21.657Z" fill="white"/>
<path d="M17.4942 23.2159C17.2634 23.2159 17.0651 23.1845 16.8994 23.1218C16.7337 23.0603 16.6005 22.9774 16.4999 22.8732C16.3993 22.7691 16.3294 22.6536 16.2904 22.527L16.8692 22.3867C16.8952 22.44 16.9331 22.4927 16.9828 22.5447C17.0325 22.598 17.0994 22.6418 17.1835 22.6761C17.2687 22.7116 17.3758 22.7294 17.5048 22.7294C17.6871 22.7294 17.8381 22.685 17.9576 22.5962C18.0772 22.5086 18.1369 22.3642 18.1369 22.163V21.6463H18.105C18.0718 21.7126 18.0233 21.7807 17.9594 21.8505C17.8967 21.9203 17.8132 21.9789 17.709 22.0263C17.6061 22.0736 17.4764 22.0973 17.3202 22.0973C17.1107 22.0973 16.9207 22.0482 16.7502 21.9499C16.581 21.8505 16.446 21.7025 16.3454 21.506C16.246 21.3084 16.1963 21.061 16.1963 20.7638C16.1963 20.4644 16.246 20.2116 16.3454 20.0057C16.446 19.7985 16.5816 19.6417 16.752 19.5352C16.9225 19.4274 17.1124 19.3736 17.322 19.3736C17.4818 19.3736 17.6132 19.4008 17.7161 19.4553C17.8203 19.5085 17.9032 19.573 17.9647 19.6488C18.0263 19.7234 18.073 19.7938 18.105 19.8601H18.1405V19.4091H18.7744V22.1808C18.7744 22.4139 18.7187 22.6069 18.6075 22.7596C18.4962 22.9123 18.3441 23.0265 18.1512 23.1023C17.9582 23.178 17.7392 23.2159 17.4942 23.2159ZM17.4995 21.593C17.6356 21.593 17.7517 21.5599 17.8475 21.4936C17.9434 21.4273 18.0162 21.332 18.0659 21.2077C18.1156 21.0835 18.1405 20.9343 18.1405 20.7603C18.1405 20.5887 18.1156 20.4383 18.0659 20.3093C18.0174 20.1803 17.9452 20.0803 17.8493 20.0092C17.7546 19.937 17.638 19.9009 17.4995 19.9009C17.3563 19.9009 17.2367 19.9382 17.1409 20.0128C17.045 20.0874 16.9728 20.1897 16.9242 20.32C16.8757 20.449 16.8514 20.5958 16.8514 20.7603C16.8514 20.9272 16.8757 21.0734 16.9242 21.1989C16.974 21.3232 17.0468 21.4202 17.1426 21.4901C17.2397 21.5587 17.3587 21.593 17.4995 21.593Z" fill="white"/>
<path d="M20.5905 22.1896C20.3171 22.1896 20.0809 22.1328 19.882 22.0192C19.6844 21.9044 19.5323 21.7422 19.4257 21.5327C19.3192 21.322 19.2659 21.074 19.2659 20.7887C19.2659 20.5082 19.3192 20.262 19.4257 20.0501C19.5334 19.837 19.6838 19.6713 19.8767 19.5529C20.0697 19.4334 20.2963 19.3736 20.5568 19.3736C20.7249 19.3736 20.8835 19.4008 21.0326 19.4553C21.1829 19.5085 21.3155 19.5914 21.4303 19.7038C21.5463 19.8163 21.6375 19.9595 21.7038 20.1335C21.7701 20.3063 21.8032 20.5123 21.8032 20.7514V20.9485H19.5678V20.5153H21.1871C21.1859 20.3922 21.1593 20.2827 21.1072 20.1868C21.0551 20.0897 20.9823 20.0134 20.8888 19.9577C20.7965 19.9021 20.6887 19.8743 20.5656 19.8743C20.4343 19.8743 20.3188 19.9063 20.2194 19.9702C20.12 20.0329 20.0424 20.1158 19.9868 20.2188C19.9324 20.3205 19.9045 20.4324 19.9034 20.5543V20.9325C19.9034 21.0911 19.9324 21.2273 19.9904 21.3409C20.0484 21.4534 20.1294 21.5398 20.2336 21.6001C20.3378 21.6593 20.4597 21.6889 20.5994 21.6889C20.6929 21.6889 20.7775 21.6759 20.8533 21.6499C20.929 21.6226 20.9947 21.583 21.0504 21.5309C21.106 21.4788 21.148 21.4143 21.1764 21.3374L21.7766 21.4048C21.7387 21.5634 21.6665 21.7019 21.56 21.8203C21.4546 21.9375 21.3197 22.0286 21.1551 22.0938C20.9906 22.1577 20.8024 22.1896 20.5905 22.1896Z" fill="white"/>
</svg>
