<svg width="221" height="56" viewBox="0 0 221 56" fill="none" xmlns="http://www.w3.org/2000/svg">
<path d="M40.7766 25.291C40.8443 25.2434 40.9208 25.2155 41.0028 25.2067L42.757 25.0203C42.8063 25.015 42.8307 25.0789 42.7912 25.1092C39.5596 27.5794 37.1127 29.4088 33.5743 32.3038C32.5525 33.1398 29.9918 33.3498 30.2767 33.1437C32.6814 30.9884 39.8412 25.9475 40.7766 25.291Z" fill="url(#paint0_linear_865_1504)"/>
<path d="M39.7021 17.8526C40.7818 17.657 43.66 18.7188 44.7385 19.0268C44.9848 19.0972 45.2818 20.0387 45.244 20.3524C45.2406 20.381 45.2295 20.4074 45.2167 20.4333L43.4398 24.0423C43.4271 24.0681 43.4172 24.0953 43.4068 24.1221C43.339 24.2966 43.1779 24.4189 42.99 24.4345L41.8953 24.5249C41.8243 24.5307 40.7428 24.5828 40.7428 24.5828C40.7428 24.5828 30.8437 31.8271 29.5122 32.8732C29.3718 32.9835 27.6112 33.1993 27.447 33.13L22.1556 30.7036C21.7468 30.5311 22.4628 30.2733 22.8772 30.1151L36.5482 24.9008C36.828 24.7939 36.9486 24.4611 36.7961 24.2018C36.0098 22.8646 35.2746 21.951 34.8334 21.4536C34.6236 21.217 34.6569 20.8375 34.9203 20.6635C36.0045 19.9475 38.6423 18.0446 39.7021 17.8526Z" fill="url(#paint1_linear_865_1504)"/>
<path d="M11.6738 11.5624L10.8818 10.6143C10.5563 10.2247 10.9581 9.65402 11.4309 9.83435L27.4558 15.9461C27.4865 15.9578 27.5159 15.9725 27.5436 15.9902C31.4774 18.5 34.6149 22.4521 35.6585 23.8536C35.8506 24.1116 35.7386 24.4767 35.4385 24.5891L24.6625 28.625C24.4596 28.701 24.2312 28.634 24.1005 28.4603L16.2374 18.0089L11.6738 11.5624Z" fill="url(#paint2_linear_865_1504)"/>
<path d="M44.6719 24.1676C44.3636 24.1578 44.1509 23.8282 44.2829 23.5475L45.4484 21.0686C45.4581 21.048 45.4656 21.0265 45.4735 21.0052C45.576 20.7272 45.9331 20.6473 46.1428 20.8565C46.1573 20.871 46.1694 20.8878 46.1804 20.9051L48.1192 23.959C48.2563 24.1749 48.1086 24.4296 47.8552 24.4066C47.07 24.3356 45.6704 24.1994 44.6719 24.1676Z" fill="url(#paint3_linear_865_1504)"/>
<path d="M25.2809 33.7539C25.3682 33.5156 25.5812 33.1509 25.3542 33.04L23.0095 31.8618C22.4698 31.616 22.0538 31.4264 21.7331 31.2803C21.2115 31.0427 20.3779 31.3402 20.1203 31.8551L14.0544 43.9801C14.0344 44.0202 14.0229 44.0618 14.0152 44.106C13.9039 44.739 12.8113 48.5873 12.7194 48.9848C12.711 49.0211 12.7338 48.9849 12.7575 48.9562L25.2809 33.7539Z" fill="url(#paint4_linear_865_1504)"/>
<path d="M28.8836 33.8143C28.982 33.7048 28.8986 33.5302 28.7522 33.5394L26.2123 33.6993C26.1221 33.7049 26.0383 33.7479 25.9807 33.818L18.805 42.5536C18.7485 42.6223 18.8232 42.7165 18.9012 42.6741C19.8743 42.1461 22.6855 40.5392 24.5442 38.6434L28.8836 33.8143Z" fill="url(#paint5_linear_865_1504)"/>
<path d="M10.3232 22.262C10.3232 22.262 14.2036 21.2131 18.2063 22.2557L20.7271 25.0015L23.6781 28.9907L22.0637 29.0609C21.9923 29.064 21.9218 29.0434 21.8631 29.0024L18.1191 26.3852L10.3232 22.262Z" fill="url(#paint6_linear_865_1504)"/>
<mask id="mask0_865_1504" style="mask-type:alpha" maskUnits="userSpaceOnUse" x="56" y="0" width="165" height="56">
<rect width="163.927" height="56" transform="translate(56.5366)" fill="white"/>
</mask>
<g mask="url(#mask0_865_1504)">
<path d="M70.0437 39.2277C67.2312 39.2277 64.8648 38.5926 62.9447 37.3226C61.0246 36.025 59.6725 34.2718 58.8882 32.063L63.6749 29.2054C64.7837 32.1596 66.9607 33.6367 70.206 33.6367C71.7745 33.6367 72.9239 33.3469 73.6541 32.7671C74.3842 32.1873 74.7493 31.4556 74.7493 30.5721C74.7493 29.5505 74.3031 28.7637 73.4107 28.2115C72.5182 27.6317 70.9226 27.0105 68.6239 26.3478C67.3529 25.9613 66.2711 25.5748 65.3787 25.1883C64.5133 24.8017 63.6344 24.2909 62.7419 23.6559C61.8765 22.9933 61.2139 22.165 60.7542 21.1711C60.2945 20.1771 60.0646 19.0175 60.0646 17.6923C60.0646 15.0694 60.9706 12.9849 62.7825 11.4387C64.6215 9.865 66.8255 9.07812 69.3947 9.07812C71.6934 9.07812 73.7081 9.65792 75.4389 10.8175C77.1968 11.9495 78.5625 13.5371 79.536 15.5802L74.8305 18.3549C73.6946 15.8701 71.8827 14.6276 69.3947 14.6276C68.2318 14.6276 67.3123 14.9037 66.6362 15.4559C65.9872 15.9805 65.6626 16.6707 65.6626 17.5266C65.6626 18.4377 66.0277 19.1832 66.7579 19.763C67.5151 20.3152 68.9484 20.9226 71.0579 21.5852C71.9233 21.8613 72.5723 22.0822 73.005 22.2478C73.4647 22.3859 74.0732 22.6206 74.8305 22.9519C75.6147 23.2556 76.2097 23.5455 76.6153 23.8216C77.048 24.0977 77.5348 24.4704 78.0757 24.9398C78.6166 25.4091 79.0222 25.8923 79.2927 26.3893C79.5901 26.8862 79.8335 27.4936 80.0228 28.2115C80.2392 28.9017 80.3474 29.661 80.3474 30.4893C80.3474 33.1674 79.3873 35.2933 77.4672 36.8671C75.5741 38.4408 73.0997 39.2277 70.0437 39.2277ZM96.5738 17.361C99.3052 17.361 101.631 18.4239 103.551 20.5499C105.498 22.6482 106.472 25.2297 106.472 28.2943C106.472 31.359 105.498 33.9543 103.551 36.0802C101.631 38.1785 99.3052 39.2277 96.5738 39.2277C93.7342 39.2277 91.5437 38.2199 90.0022 36.2044V46.9307H84.7692V17.9408H90.0022V20.3842C91.5437 18.3687 93.7342 17.361 96.5738 17.361ZM91.5843 32.5186C92.639 33.5953 93.9776 34.1337 95.6002 34.1337C97.2229 34.1337 98.5615 33.5953 99.6162 32.5186C100.698 31.4142 101.239 30.0061 101.239 28.2943C101.239 26.5825 100.698 25.1882 99.6162 24.1115C98.5615 23.0071 97.2229 22.4549 95.6002 22.4549C93.9776 22.4549 92.639 23.0071 91.5843 24.1115C90.5295 25.1882 90.0022 26.5825 90.0022 28.2943C90.0022 30.0061 90.5295 31.4142 91.5843 32.5186ZM126.591 17.9408H131.824V38.6479H126.591V36.2044C125.023 38.2199 122.819 39.2277 119.979 39.2277C117.275 39.2277 114.949 38.1785 113.002 36.0802C111.082 33.9543 110.122 31.359 110.122 28.2943C110.122 25.2297 111.082 22.6482 113.002 20.5499C114.949 18.4239 117.275 17.361 119.979 17.361C122.819 17.361 125.023 18.3687 126.591 20.3842V17.9408ZM116.937 32.5186C117.992 33.5953 119.33 34.1337 120.953 34.1337C122.575 34.1337 123.914 33.5953 124.969 32.5186C126.051 31.4142 126.591 30.0061 126.591 28.2943C126.591 26.5825 126.051 25.1882 124.969 24.1115C123.914 23.0071 122.575 22.4549 120.953 22.4549C119.33 22.4549 117.992 23.0071 116.937 24.1115C115.882 25.1882 115.355 26.5825 115.355 28.2943C115.355 30.0061 115.882 31.4142 116.937 32.5186ZM142.817 21.5024C143.304 20.1771 144.101 19.1832 145.21 18.5206C146.346 17.8579 147.603 17.5266 148.983 17.5266V23.4903C147.387 23.297 145.954 23.6283 144.683 24.4842C143.439 25.3401 142.817 26.762 142.817 28.7499V38.6479H137.584V17.9408H142.817V21.5024ZM158.29 21.5024C158.777 20.1771 159.575 19.1832 160.684 18.5206C161.819 17.8579 163.077 17.5266 164.456 17.5266V23.4903C162.861 23.297 161.427 23.6283 160.156 24.4842C158.912 25.3401 158.29 26.762 158.29 28.7499V38.6479H153.057V17.9408H158.29V21.5024ZM185.059 36.0802C182.977 38.1785 180.435 39.2277 177.433 39.2277C174.431 39.2277 171.889 38.1785 169.806 36.0802C167.751 33.9543 166.723 31.359 166.723 28.2943C166.723 25.2297 167.751 22.6482 169.806 20.5499C171.889 18.4239 174.431 17.361 177.433 17.361C180.435 17.361 182.977 18.4239 185.059 20.5499C187.141 22.6482 188.183 25.2297 188.183 28.2943C188.183 31.359 187.141 33.9543 185.059 36.0802ZM173.498 32.3943C174.553 33.4711 175.864 34.0095 177.433 34.0095C179.001 34.0095 180.313 33.4711 181.368 32.3943C182.422 31.3176 182.95 29.9509 182.95 28.2943C182.95 26.6377 182.422 25.2711 181.368 24.1943C180.313 23.1175 179.001 22.5792 177.433 22.5792C175.864 22.5792 174.553 23.1175 173.498 24.1943C172.47 25.2711 171.956 26.6377 171.956 28.2943C171.956 29.9509 172.47 31.3176 173.498 32.3943ZM214.924 17.9408H220.481L214.031 38.6479H209.042L205.31 26.0994L201.578 38.6479H196.589L190.139 17.9408H195.696L199.144 30.6549L202.836 17.9408H207.784L211.476 30.6963L214.924 17.9408Z" fill="url(#paint7_linear_865_1504)"/>
</g>
<defs>
<linearGradient id="paint0_linear_865_1504" x1="10.3232" y1="9.80005" x2="55.2822" y2="39.5912" gradientUnits="userSpaceOnUse">
<stop stop-color="#11ADF0"/>
<stop offset="0.5" stop-color="#316CF6"/>
<stop offset="1" stop-color="#6147FF"/>
</linearGradient>
<linearGradient id="paint1_linear_865_1504" x1="10.3232" y1="9.80005" x2="55.2822" y2="39.5912" gradientUnits="userSpaceOnUse">
<stop stop-color="#11ADF0"/>
<stop offset="0.5" stop-color="#316CF6"/>
<stop offset="1" stop-color="#6147FF"/>
</linearGradient>
<linearGradient id="paint2_linear_865_1504" x1="10.3232" y1="9.80005" x2="55.2822" y2="39.5912" gradientUnits="userSpaceOnUse">
<stop stop-color="#11ADF0"/>
<stop offset="0.5" stop-color="#316CF6"/>
<stop offset="1" stop-color="#6147FF"/>
</linearGradient>
<linearGradient id="paint3_linear_865_1504" x1="10.3232" y1="9.80005" x2="55.2822" y2="39.5912" gradientUnits="userSpaceOnUse">
<stop stop-color="#11ADF0"/>
<stop offset="0.5" stop-color="#316CF6"/>
<stop offset="1" stop-color="#6147FF"/>
</linearGradient>
<linearGradient id="paint4_linear_865_1504" x1="10.3232" y1="9.80005" x2="55.2822" y2="39.5912" gradientUnits="userSpaceOnUse">
<stop stop-color="#11ADF0"/>
<stop offset="0.5" stop-color="#316CF6"/>
<stop offset="1" stop-color="#6147FF"/>
</linearGradient>
<linearGradient id="paint5_linear_865_1504" x1="10.3232" y1="9.80005" x2="55.2822" y2="39.5912" gradientUnits="userSpaceOnUse">
<stop stop-color="#11ADF0"/>
<stop offset="0.5" stop-color="#316CF6"/>
<stop offset="1" stop-color="#6147FF"/>
</linearGradient>
<linearGradient id="paint6_linear_865_1504" x1="10.3232" y1="9.80005" x2="55.2822" y2="39.5912" gradientUnits="userSpaceOnUse">
<stop stop-color="#11ADF0"/>
<stop offset="0.5" stop-color="#316CF6"/>
<stop offset="1" stop-color="#6147FF"/>
</linearGradient>
<linearGradient id="paint7_linear_865_1504" x1="58.8882" y1="9.07812" x2="87.7114" y2="93.5244" gradientUnits="userSpaceOnUse">
<stop stop-color="#11ADF0"/>
<stop offset="0.5" stop-color="#316CF6"/>
<stop offset="1" stop-color="#6147FF"/>
</linearGradient>
</defs>
</svg>
