<svg width="57" height="56" viewBox="0 0 57 56" fill="none" xmlns="http://www.w3.org/2000/svg">
<mask id="mask0_865_1542" style="mask-type:alpha" maskUnits="userSpaceOnUse" x="0" y="0" width="57" height="56">
<rect x="0.5" width="56" height="56" fill="#D9D9D9"/>
</mask>
<g mask="url(#mask0_865_1542)">
<path d="M40.0313 23.9127C40.099 23.8652 40.1755 23.8372 40.2576 23.8285L42.0117 23.642C42.0611 23.6368 42.0855 23.7007 42.0459 23.7309C38.8144 26.2011 36.3675 28.0306 32.8291 30.9256C31.8073 31.7615 29.2466 31.9715 29.5315 31.7654C31.9362 29.6102 39.096 24.5692 40.0313 23.9127Z" fill="url(#paint0_linear_865_1542)"/>
<path d="M38.9568 16.4744C40.0366 16.2788 42.9148 17.3405 43.9932 17.6486C44.2395 17.719 44.5365 18.6605 44.4988 18.9742C44.4953 19.0028 44.4842 19.0292 44.4715 19.0551L42.6945 22.6641C42.6818 22.6899 42.6719 22.7171 42.6615 22.7439C42.5938 22.9184 42.4327 23.0407 42.2448 23.0562L41.1501 23.1466C41.0791 23.1525 39.9976 23.2045 39.9976 23.2045C39.9976 23.2045 30.0985 30.4489 28.767 31.4949C28.6266 31.6052 26.866 31.821 26.7018 31.7517L21.4105 29.3254C21.0017 29.1528 21.7176 28.8951 22.1321 28.7368L35.803 23.5225C36.0828 23.4157 36.2033 23.0829 36.0509 22.8236C35.2646 21.4864 34.5294 20.5728 34.0882 20.0753C33.8784 19.8387 33.9117 19.4593 34.1751 19.2853C35.2592 18.5693 37.8971 16.6664 38.9568 16.4744Z" fill="url(#paint1_linear_865_1542)"/>
<path d="M10.9286 10.1842L10.1367 9.23614C9.8112 8.84652 10.213 8.27585 10.6858 8.45617L26.7107 14.5679C26.7413 14.5796 26.7707 14.5943 26.7984 14.612C30.7322 17.1218 33.8697 21.0738 34.9133 22.4754C35.1054 22.7333 34.9934 23.0985 34.6933 23.2109L23.9173 27.2467C23.7144 27.3227 23.4861 27.2558 23.3553 27.082L15.4922 16.6307L10.9286 10.1842Z" fill="url(#paint2_linear_865_1542)"/>
<path d="M43.9266 22.7893C43.6183 22.7795 43.4057 22.45 43.5376 22.1693L44.7031 19.6904C44.7128 19.6698 44.7204 19.6483 44.7282 19.627C44.8307 19.349 45.1879 19.2691 45.3975 19.4783C45.4121 19.4928 45.4241 19.5095 45.4351 19.5269L47.3739 22.5807C47.511 22.7966 47.3633 23.0513 47.1099 23.0284C46.3247 22.9574 44.9251 22.8212 43.9266 22.7893Z" fill="url(#paint3_linear_865_1542)"/>
<path d="M24.5357 32.3756C24.623 32.1373 24.836 31.7726 24.6091 31.6617L22.2643 30.4835C21.7247 30.2377 21.3087 30.0482 20.988 29.9021C20.4664 29.6644 19.6328 29.962 19.3752 30.4768L13.3093 42.6018C13.2892 42.6419 13.2778 42.6835 13.27 42.7277C13.1588 43.3607 12.0661 47.209 11.9742 47.6064C11.9658 47.6428 11.9887 47.6066 12.0123 47.5779L24.5357 32.3756Z" fill="url(#paint4_linear_865_1542)"/>
<path d="M28.1385 32.436C28.2369 32.3265 28.1534 32.152 28.007 32.1612L25.4671 32.321C25.3769 32.3267 25.2931 32.3697 25.2355 32.4398L18.0599 41.1753C18.0034 41.244 18.078 41.3382 18.156 41.2958C19.1292 40.7678 21.9403 39.1609 23.799 37.2652L28.1385 32.436Z" fill="url(#paint5_linear_865_1542)"/>
<path d="M9.57812 20.8838C9.57812 20.8838 13.4585 19.8349 17.4611 20.8774L19.9819 23.6232L22.9329 27.6125L21.3185 27.6826C21.2471 27.6857 21.1766 27.6652 21.1179 27.6241L17.3739 25.0069L9.57812 20.8838Z" fill="url(#paint6_linear_865_1542)"/>
<path d="M27.1875 45.7386V39.375H31.3263V40.3414H28.3403V42.069H31.1119V43.0353H28.3403V44.7723H31.3512V45.7386H27.1875Z" fill="white"/>
<path d="M34.1364 45.8225C33.7614 45.8225 33.4258 45.7262 33.1296 45.5336C32.8334 45.3409 32.5993 45.0613 32.4274 44.6946C32.2554 44.3279 32.1695 43.8826 32.1695 43.3585C32.1695 42.8282 32.2565 42.3807 32.4305 42.0162C32.6066 41.6495 32.8437 41.373 33.142 41.1865C33.4403 40.998 33.7728 40.9038 34.1395 40.9038C34.4191 40.9038 34.6491 40.9514 34.8293 41.0467C35.0095 41.1399 35.1524 41.2528 35.2581 41.3854C35.3637 41.5159 35.4455 41.6391 35.5035 41.7551H35.5502V39.375H36.6781V45.7386H35.5719V44.9867H35.5035C35.4455 45.1027 35.3616 45.2259 35.2519 45.3564C35.1421 45.4849 34.9971 45.5947 34.8168 45.6858C34.6366 45.777 34.4098 45.8225 34.1364 45.8225ZM34.4502 44.8997C34.6884 44.8997 34.8914 44.8355 35.0592 44.707C35.227 44.5765 35.3544 44.3953 35.4414 44.1633C35.5284 43.9313 35.5719 43.6609 35.5719 43.3523C35.5719 43.0436 35.5284 42.7754 35.4414 42.5475C35.3565 42.3196 35.2301 42.1425 35.0623 42.0162C34.8966 41.8898 34.6926 41.8266 34.4502 41.8266C34.1995 41.8266 33.9903 41.8919 33.8225 42.0224C33.6547 42.1529 33.5284 42.3331 33.4434 42.563C33.3585 42.793 33.316 43.056 33.316 43.3523C33.316 43.6506 33.3585 43.9168 33.4434 44.1508C33.5304 44.3828 33.6578 44.5662 33.8256 44.7008C33.9955 44.8334 34.2037 44.8997 34.4502 44.8997Z" fill="white"/>
<path d="M39.8648 47.6278C39.4609 47.6278 39.1139 47.5729 38.8239 47.4632C38.5339 47.3554 38.3009 47.2104 38.1248 47.0281C37.9487 46.8458 37.8265 46.6439 37.7581 46.4222L38.7711 46.1768C38.8167 46.27 38.883 46.3622 38.97 46.4533C39.057 46.5465 39.174 46.6232 39.3211 46.6832C39.4702 46.7454 39.6577 46.7765 39.8835 46.7765C40.2025 46.7765 40.4666 46.6988 40.6758 46.5434C40.8851 46.3901 40.9897 46.1374 40.9897 45.7852V44.881H40.9337C40.8757 44.997 40.7908 45.1161 40.6789 45.2384C40.5691 45.3606 40.4231 45.4631 40.2408 45.546C40.0606 45.6288 39.8338 45.6703 39.5603 45.6703C39.1937 45.6703 38.8612 45.5843 38.5629 45.4124C38.2667 45.2384 38.0305 44.9794 37.8545 44.6356C37.6804 44.2896 37.5934 43.8567 37.5934 43.3367C37.5934 42.8126 37.6804 42.3704 37.8545 42.0099C38.0305 41.6474 38.2677 41.373 38.566 41.1865C38.8643 40.998 39.1968 40.9038 39.5634 40.9038C39.8431 40.9038 40.073 40.9514 40.2532 41.0467C40.4355 41.1399 40.5805 41.2528 40.6883 41.3854C40.796 41.5159 40.8778 41.6391 40.9337 41.7551H40.9959V40.9659H42.1052V45.8163C42.1052 46.2244 42.0078 46.5621 41.8131 46.8293C41.6184 47.0965 41.3522 47.2964 41.0145 47.429C40.6769 47.5616 40.2936 47.6278 39.8648 47.6278ZM39.8742 44.7878C40.1124 44.7878 40.3154 44.7298 40.4832 44.6138C40.651 44.4978 40.7784 44.3311 40.8654 44.1135C40.9524 43.896 40.9959 43.635 40.9959 43.3305C40.9959 43.0302 40.9524 42.7671 40.8654 42.5413C40.7804 42.3155 40.6541 42.1404 40.4863 42.0162C40.3206 41.8898 40.1165 41.8266 39.8742 41.8266C39.6235 41.8266 39.4143 41.8919 39.2465 42.0224C39.0787 42.1529 38.9523 42.3321 38.8674 42.5599C38.7825 42.7857 38.74 43.0426 38.74 43.3305C38.74 43.6226 38.7825 43.8784 38.8674 44.098C38.9544 44.3155 39.0818 44.4854 39.2496 44.6076C39.4195 44.7277 39.6277 44.7878 39.8742 44.7878Z" fill="white"/>
<path d="M45.2834 45.8319C44.8049 45.8319 44.3916 45.7324 44.0436 45.5336C43.6976 45.3326 43.4315 45.0488 43.245 44.6822C43.0586 44.3134 42.9654 43.8795 42.9654 43.3802C42.9654 42.8893 43.0586 42.4584 43.245 42.0876C43.4335 41.7148 43.6966 41.4247 44.0343 41.2176C44.3719 41.0084 44.7686 40.9038 45.2243 40.9038C45.5185 40.9038 45.7961 40.9514 46.0571 41.0467C46.3202 41.1399 46.5522 41.2849 46.7531 41.4817C46.9561 41.6785 47.1156 41.9292 47.2316 42.2337C47.3476 42.5361 47.4056 42.8965 47.4056 43.315V43.6599H43.4936V42.9017H46.3274C46.3253 42.6863 46.2787 42.4947 46.1876 42.3269C46.0964 42.157 45.969 42.0234 45.8054 41.926C45.6438 41.8287 45.4553 41.78 45.2399 41.78C45.0099 41.78 44.808 41.8359 44.634 41.9478C44.46 42.0576 44.3243 42.2026 44.2269 42.3828C44.1316 42.561 44.0829 42.7567 44.0809 42.9701V43.6319C44.0809 43.9095 44.1316 44.1477 44.2331 44.3466C44.3346 44.5434 44.4765 44.6946 44.6588 44.8002C44.8411 44.9038 45.0545 44.9556 45.2989 44.9556C45.4626 44.9556 45.6107 44.9328 45.7432 44.8872C45.8758 44.8396 45.9908 44.7702 46.0882 44.6791C46.1855 44.5879 46.2591 44.475 46.3088 44.3404L47.359 44.4584C47.2927 44.736 47.1664 44.9784 46.9799 45.1855C46.7956 45.3906 46.5594 45.5501 46.2715 45.6641C45.9835 45.7759 45.6542 45.8319 45.2834 45.8319Z" fill="white"/>
</g>
<defs>
<linearGradient id="paint0_linear_865_1542" x1="9.57812" y1="8.42188" x2="54.5369" y2="38.2129" gradientUnits="userSpaceOnUse">
<stop stop-color="#11ADF0"/>
<stop offset="0.5" stop-color="#316CF6"/>
<stop offset="1" stop-color="#6147FF"/>
</linearGradient>
<linearGradient id="paint1_linear_865_1542" x1="9.57812" y1="8.42188" x2="54.5369" y2="38.2129" gradientUnits="userSpaceOnUse">
<stop stop-color="#11ADF0"/>
<stop offset="0.5" stop-color="#316CF6"/>
<stop offset="1" stop-color="#6147FF"/>
</linearGradient>
<linearGradient id="paint2_linear_865_1542" x1="9.57812" y1="8.42188" x2="54.5369" y2="38.2129" gradientUnits="userSpaceOnUse">
<stop stop-color="#11ADF0"/>
<stop offset="0.5" stop-color="#316CF6"/>
<stop offset="1" stop-color="#6147FF"/>
</linearGradient>
<linearGradient id="paint3_linear_865_1542" x1="9.57812" y1="8.42188" x2="54.5369" y2="38.2129" gradientUnits="userSpaceOnUse">
<stop stop-color="#11ADF0"/>
<stop offset="0.5" stop-color="#316CF6"/>
<stop offset="1" stop-color="#6147FF"/>
</linearGradient>
<linearGradient id="paint4_linear_865_1542" x1="9.57812" y1="8.42188" x2="54.5369" y2="38.2129" gradientUnits="userSpaceOnUse">
<stop stop-color="#11ADF0"/>
<stop offset="0.5" stop-color="#316CF6"/>
<stop offset="1" stop-color="#6147FF"/>
</linearGradient>
<linearGradient id="paint5_linear_865_1542" x1="9.57812" y1="8.42188" x2="54.5369" y2="38.2129" gradientUnits="userSpaceOnUse">
<stop stop-color="#11ADF0"/>
<stop offset="0.5" stop-color="#316CF6"/>
<stop offset="1" stop-color="#6147FF"/>
</linearGradient>
<linearGradient id="paint6_linear_865_1542" x1="9.57812" y1="8.42188" x2="54.5369" y2="38.2129" gradientUnits="userSpaceOnUse">
<stop stop-color="#11ADF0"/>
<stop offset="0.5" stop-color="#316CF6"/>
<stop offset="1" stop-color="#6147FF"/>
</linearGradient>
</defs>
</svg>
