<svg width="165" height="56" viewBox="0 0 165 56" fill="none" xmlns="http://www.w3.org/2000/svg">
<mask id="mask0_865_1433" style="mask-type:alpha" maskUnits="userSpaceOnUse" x="0" y="0" width="165" height="56">
<rect width="163.927" height="56" transform="translate(0.536133)" fill="white"/>
</mask>
<g mask="url(#mask0_865_1433)">
<path d="M14.0432 39.2277C11.2307 39.2277 8.86435 38.5926 6.94425 37.3226C5.02415 36.025 3.67196 34.2718 2.8877 32.063L7.67443 29.2054C8.78322 32.1596 10.9602 33.6367 14.2055 33.6367C15.774 33.6367 16.9234 33.3469 17.6536 32.7671C18.3837 32.1873 18.7488 31.4556 18.7488 30.5721C18.7488 29.5505 18.3026 28.7637 17.4102 28.2115C16.5177 27.6317 14.9221 27.0105 12.6234 26.3478C11.3524 25.9613 10.2706 25.5748 9.37819 25.1883C8.51279 24.8017 7.63386 24.2909 6.74142 23.6559C5.87602 22.9933 5.21345 22.165 4.75371 21.1711C4.29397 20.1771 4.0641 19.0175 4.0641 17.6923C4.0641 15.0694 4.97006 12.9849 6.78199 11.4387C8.62096 9.865 10.825 9.07812 13.3942 9.07812C15.6929 9.07812 17.7076 9.65792 19.4384 10.8175C21.1963 11.9495 22.562 13.5371 23.5356 15.5802L18.83 18.3549C17.6941 15.8701 15.8822 14.6276 13.3942 14.6276C12.2313 14.6276 11.3118 14.9037 10.6357 15.4559C9.98667 15.9805 9.66214 16.6707 9.66214 17.5266C9.66214 18.4377 10.0272 19.1832 10.7574 19.763C11.5146 20.3152 12.948 20.9226 15.0574 21.5852C15.9228 21.8613 16.5718 22.0822 17.0045 22.2478C17.4643 22.3859 18.0727 22.6206 18.83 22.9519C19.6142 23.2556 20.2092 23.5455 20.6148 23.8216C21.0475 24.0977 21.5343 24.4704 22.0752 24.9398C22.6161 25.4091 23.0217 25.8923 23.2922 26.3893C23.5897 26.8862 23.833 27.4936 24.0224 28.2115C24.2387 28.9017 24.3469 29.661 24.3469 30.4893C24.3469 33.1674 23.3868 35.2933 21.4667 36.8671C19.5737 38.4408 17.0992 39.2277 14.0432 39.2277ZM40.5733 17.361C43.3047 17.361 45.6305 18.4239 47.5506 20.5499C49.4977 22.6482 50.4713 25.2297 50.4713 28.2943C50.4713 31.359 49.4977 33.9543 47.5506 36.0802C45.6305 38.1785 43.3047 39.2277 40.5733 39.2277C37.7337 39.2277 35.5432 38.2199 34.0017 36.2044V46.9307H28.7687V17.9408H34.0017V20.3842C35.5432 18.3687 37.7337 17.361 40.5733 17.361ZM35.5838 32.5186C36.6385 33.5953 37.9771 34.1337 39.5998 34.1337C41.2224 34.1337 42.561 33.5953 43.6157 32.5186C44.6975 31.4142 45.2384 30.0061 45.2384 28.2943C45.2384 26.5825 44.6975 25.1882 43.6157 24.1115C42.561 23.0071 41.2224 22.4549 39.5998 22.4549C37.9771 22.4549 36.6385 23.0071 35.5838 24.1115C34.5291 25.1882 34.0017 26.5825 34.0017 28.2943C34.0017 30.0061 34.5291 31.4142 35.5838 32.5186ZM70.5909 17.9408H75.8239V38.6479H70.5909V36.2044C69.0224 38.2199 66.8183 39.2277 63.9787 39.2277C61.2744 39.2277 58.9486 38.1785 57.0015 36.0802C55.0814 33.9543 54.1213 31.359 54.1213 28.2943C54.1213 25.2297 55.0814 22.6482 57.0015 20.5499C58.9486 18.4239 61.2744 17.361 63.9787 17.361C66.8183 17.361 69.0224 18.3687 70.5909 20.3842V17.9408ZM60.9363 32.5186C61.991 33.5953 63.3297 34.1337 64.9523 34.1337C66.5749 34.1337 67.9136 33.5953 68.9683 32.5186C70.0501 31.4142 70.5909 30.0061 70.5909 28.2943C70.5909 26.5825 70.0501 25.1882 68.9683 24.1115C67.9136 23.0071 66.5749 22.4549 64.9523 22.4549C63.3297 22.4549 61.991 23.0071 60.9363 24.1115C59.8816 25.1882 59.3543 26.5825 59.3543 28.2943C59.3543 30.0061 59.8816 31.4142 60.9363 32.5186ZM86.8163 21.5024C87.303 20.1771 88.1008 19.1832 89.2096 18.5206C90.3455 17.8579 91.603 17.5266 92.9822 17.5266V23.4903C91.3866 23.297 89.9533 23.6283 88.6823 24.4842C87.4383 25.3401 86.8163 26.762 86.8163 28.7499V38.6479H81.5833V17.9408H86.8163V21.5024ZM102.29 21.5024C102.777 20.1771 103.574 19.1832 104.683 18.5206C105.819 17.8579 107.076 17.5266 108.456 17.5266V23.4903C106.86 23.297 105.427 23.6283 104.156 24.4842C102.912 25.3401 102.29 26.762 102.29 28.7499V38.6479H97.0568V17.9408H102.29V21.5024ZM129.059 36.0802C126.976 38.1785 124.434 39.2277 121.432 39.2277C118.43 39.2277 115.888 38.1785 113.806 36.0802C111.751 33.9543 110.723 31.359 110.723 28.2943C110.723 25.2297 111.751 22.6482 113.806 20.5499C115.888 18.4239 118.43 17.361 121.432 17.361C124.434 17.361 126.976 18.4239 129.059 20.5499C131.141 22.6482 132.182 25.2297 132.182 28.2943C132.182 31.359 131.141 33.9543 129.059 36.0802ZM117.497 32.3943C118.552 33.4711 119.864 34.0095 121.432 34.0095C123.001 34.0095 124.312 33.4711 125.367 32.3943C126.422 31.3176 126.949 29.9509 126.949 28.2943C126.949 26.6377 126.422 25.2711 125.367 24.1943C124.312 23.1175 123.001 22.5792 121.432 22.5792C119.864 22.5792 118.552 23.1175 117.497 24.1943C116.47 25.2711 115.956 26.6377 115.956 28.2943C115.956 29.9509 116.47 31.3176 117.497 32.3943ZM158.923 17.9408H164.481L158.031 38.6479H153.041L149.309 26.0994L145.578 38.6479H140.588L134.138 17.9408H139.696L143.144 30.6549L146.835 17.9408H151.784L155.475 30.6963L158.923 17.9408Z" fill="url(#paint0_linear_865_1433)"/>
</g>
<defs>
<linearGradient id="paint0_linear_865_1433" x1="2.8877" y1="9.07812" x2="31.7109" y2="93.5244" gradientUnits="userSpaceOnUse">
<stop stop-color="#11ADF0"/>
<stop offset="0.5" stop-color="#316CF6"/>
<stop offset="1" stop-color="#6147FF"/>
</linearGradient>
</defs>
</svg>
