<svg width="695" height="85" viewBox="0 0 695 85" fill="none" xmlns="http://www.w3.org/2000/svg">
<rect x="0.5" y="0.5" width="211" height="84" stroke="black"/>
<path d="M26.8295 51H24.6136L31.0227 33.5455H33.2045L39.6136 51H37.3977L32.1818 36.3068H32.0455L26.8295 51ZM27.6477 44.1818H36.5795V46.0568H27.6477V44.1818ZM45.9119 51.3068C45.0824 51.3068 44.3295 51.1506 43.6534 50.8381C42.9773 50.5199 42.4403 50.0625 42.0426 49.4659C41.6449 48.8636 41.446 48.1364 41.446 47.2841C41.446 46.5341 41.5938 45.9261 41.8892 45.4602C42.1847 44.9886 42.5795 44.6193 43.0739 44.3523C43.5682 44.0852 44.1136 43.8864 44.7102 43.7557C45.3125 43.6193 45.9176 43.5114 46.5256 43.4318C47.321 43.3295 47.9659 43.2528 48.4602 43.2017C48.9602 43.1449 49.3239 43.0511 49.5511 42.9205C49.7841 42.7898 49.9006 42.5625 49.9006 42.2386V42.1705C49.9006 41.3295 49.6705 40.6761 49.2102 40.2102C48.7557 39.7443 48.0653 39.5114 47.1392 39.5114C46.179 39.5114 45.4261 39.7216 44.8807 40.142C44.3352 40.5625 43.9517 41.0114 43.7301 41.4886L41.821 40.8068C42.1619 40.0114 42.6165 39.392 43.1847 38.9489C43.7585 38.5 44.3835 38.1875 45.0597 38.0114C45.7415 37.8295 46.4119 37.7386 47.071 37.7386C47.4915 37.7386 47.9744 37.7898 48.5199 37.892C49.071 37.9886 49.6023 38.1903 50.1136 38.4972C50.6307 38.804 51.0597 39.267 51.4006 39.8864C51.7415 40.5057 51.9119 41.3352 51.9119 42.375V51H49.9006V49.2273H49.7983C49.6619 49.5114 49.4347 49.8153 49.1165 50.1392C48.7983 50.4631 48.375 50.7386 47.8466 50.9659C47.3182 51.1932 46.6733 51.3068 45.9119 51.3068ZM46.2188 49.5C47.0142 49.5 47.6847 49.3438 48.2301 49.0312C48.7813 48.7188 49.196 48.3153 49.4744 47.821C49.7585 47.3267 49.9006 46.8068 49.9006 46.2614V44.4205C49.8153 44.5227 49.6278 44.6165 49.3381 44.7017C49.054 44.7812 48.7244 44.8523 48.3494 44.9148C47.9801 44.9716 47.6193 45.0227 47.267 45.0682C46.9205 45.108 46.6392 45.142 46.4233 45.1705C45.9006 45.2386 45.4119 45.3494 44.9574 45.5028C44.5085 45.6506 44.1449 45.875 43.8665 46.1761C43.5938 46.4716 43.4574 46.875 43.4574 47.3864C43.4574 48.0852 43.7159 48.6136 44.233 48.9716C44.7557 49.3239 45.4176 49.5 46.2188 49.5Z" fill="white"/>
<path d="M104.358 31H102.511L107.852 16.4545H109.67L115.011 31H113.165L108.818 18.7557H108.705L104.358 31ZM105.04 25.3182H112.483V26.8807H105.04V25.3182ZM117.167 31V20.0909H118.843V31H117.167ZM118.019 18.2727C117.692 18.2727 117.411 18.1615 117.174 17.9389C116.942 17.7164 116.826 17.4489 116.826 17.1364C116.826 16.8239 116.942 16.5563 117.174 16.3338C117.411 16.1113 117.692 16 118.019 16C118.346 16 118.625 16.1113 118.857 16.3338C119.094 16.5563 119.212 16.8239 119.212 17.1364C119.212 17.4489 119.094 17.7164 118.857 17.9389C118.625 18.1615 118.346 18.2727 118.019 18.2727ZM123.589 16.4545V31H121.913V16.4545H123.589ZM131.233 31.2273C130.182 31.2273 129.275 30.9953 128.513 30.5312C127.755 30.0625 127.17 29.4091 126.759 28.571C126.351 27.7282 126.148 26.7481 126.148 25.6307C126.148 24.5133 126.351 23.5284 126.759 22.6761C127.17 21.8191 127.743 21.1515 128.477 20.6733C129.216 20.1903 130.078 19.9489 131.062 19.9489C131.631 19.9489 132.192 20.0436 132.746 20.233C133.3 20.4223 133.804 20.7301 134.259 21.1562C134.713 21.5777 135.075 22.1364 135.345 22.8324C135.615 23.5284 135.75 24.3854 135.75 25.4034V26.1136H127.341V24.6648H134.045C134.045 24.0492 133.922 23.5 133.676 23.017C133.435 22.5341 133.089 22.1529 132.639 21.8736C132.194 21.5942 131.669 21.4545 131.062 21.4545C130.395 21.4545 129.817 21.6203 129.33 21.9517C128.847 22.2784 128.475 22.7045 128.214 23.2301C127.954 23.7557 127.824 24.3191 127.824 24.9205V25.8864C127.824 26.7102 127.966 27.4086 128.25 27.9815C128.539 28.5497 128.939 28.983 129.45 29.2812C129.962 29.5748 130.556 29.7216 131.233 29.7216C131.673 29.7216 132.071 29.66 132.426 29.5369C132.786 29.4091 133.096 29.2197 133.357 28.9688C133.617 28.7131 133.818 28.3958 133.96 28.017L135.58 28.4716C135.409 29.0208 135.123 29.5038 134.72 29.9205C134.318 30.3324 133.821 30.6544 133.229 30.8864C132.637 31.1136 131.972 31.2273 131.233 31.2273ZM138.3 31V20.0909H139.919V21.7386H140.033C140.232 21.1989 140.591 20.7609 141.112 20.4247C141.633 20.0885 142.22 19.9205 142.874 19.9205C142.997 19.9205 143.151 19.9228 143.335 19.9276C143.52 19.9323 143.66 19.9394 143.754 19.9489V21.6534C143.697 21.6392 143.567 21.6179 143.364 21.5895C143.165 21.5563 142.954 21.5398 142.732 21.5398C142.201 21.5398 141.728 21.651 141.311 21.8736C140.899 22.0914 140.572 22.3944 140.331 22.7827C140.094 23.1662 139.976 23.6042 139.976 24.0966V31H138.3ZM149.841 31.2273C148.856 31.2273 147.992 30.9929 147.249 30.5241C146.51 30.0554 145.932 29.3996 145.516 28.5568C145.104 27.714 144.898 26.7292 144.898 25.6023C144.898 24.4659 145.104 23.474 145.516 22.6264C145.932 21.7789 146.51 21.1207 147.249 20.652C147.992 20.1832 148.856 19.9489 149.841 19.9489C150.826 19.9489 151.688 20.1832 152.426 20.652C153.17 21.1207 153.747 21.7789 154.159 22.6264C154.576 23.474 154.784 24.4659 154.784 25.6023C154.784 26.7292 154.576 27.714 154.159 28.5568C153.747 29.3996 153.17 30.0554 152.426 30.5241C151.688 30.9929 150.826 31.2273 149.841 31.2273ZM149.841 29.7216C150.589 29.7216 151.205 29.5298 151.688 29.1463C152.17 28.7628 152.528 28.2585 152.76 27.6335C152.992 27.0085 153.108 26.3314 153.108 25.6023C153.108 24.8731 152.992 24.1937 152.76 23.5639C152.528 22.9342 152.17 22.4252 151.688 22.0369C151.205 21.6487 150.589 21.4545 149.841 21.4545C149.093 21.4545 148.477 21.6487 147.994 22.0369C147.511 22.4252 147.154 22.9342 146.922 23.5639C146.69 24.1937 146.574 24.8731 146.574 25.6023C146.574 26.3314 146.69 27.0085 146.922 27.6335C147.154 28.2585 147.511 28.7628 147.994 29.1463C148.477 29.5298 149.093 29.7216 149.841 29.7216ZM159.019 24.4375V31H157.343V20.0909H158.962V21.7955H159.104C159.36 21.2415 159.748 20.7964 160.269 20.4602C160.79 20.1193 161.462 19.9489 162.286 19.9489C163.025 19.9489 163.671 20.1004 164.225 20.4034C164.779 20.7017 165.21 21.1562 165.517 21.767C165.825 22.3731 165.979 23.1402 165.979 24.0682V31H164.303V24.1818C164.303 23.3248 164.08 22.6572 163.635 22.179C163.19 21.696 162.579 21.4545 161.803 21.4545C161.268 21.4545 160.79 21.5705 160.368 21.8026C159.952 22.0346 159.623 22.3731 159.381 22.8182C159.14 23.2633 159.019 23.803 159.019 24.4375Z" fill="white" fill-opacity="0.6"/>
<path d="M104.114 67V49.5455H110.011C111.375 49.5455 112.494 49.7784 113.369 50.2443C114.244 50.7045 114.892 51.3381 115.312 52.1449C115.733 52.9517 115.943 53.8693 115.943 54.8977C115.943 55.9261 115.733 56.8381 115.312 57.6335C114.892 58.429 114.247 59.054 113.378 59.5085C112.509 59.9574 111.398 60.1818 110.045 60.1818H105.273V58.2727H109.977C110.909 58.2727 111.659 58.1364 112.227 57.8636C112.801 57.5909 113.216 57.2045 113.472 56.7045C113.733 56.1989 113.864 55.5966 113.864 54.8977C113.864 54.1989 113.733 53.5881 113.472 53.0653C113.21 52.5426 112.793 52.1392 112.219 51.8551C111.645 51.5653 110.886 51.4205 109.943 51.4205H106.227V67H104.114ZM112.33 59.1591L116.625 67H114.17L109.943 59.1591H112.33ZM124.54 67.2727C123.279 67.2727 122.191 66.9943 121.276 66.4375C120.367 65.875 119.665 65.0909 119.171 64.0852C118.683 63.0739 118.438 61.8977 118.438 60.5568C118.438 59.2159 118.683 58.0341 119.171 57.0114C119.665 55.983 120.353 55.1818 121.234 54.608C122.12 54.0284 123.154 53.7386 124.336 53.7386C125.018 53.7386 125.691 53.8523 126.356 54.0795C127.021 54.3068 127.626 54.6761 128.171 55.1875C128.717 55.6932 129.151 56.3636 129.475 57.1989C129.799 58.0341 129.961 59.0625 129.961 60.2841V61.1364H119.87V59.3977H127.915C127.915 58.6591 127.768 58 127.472 57.4205C127.183 56.8409 126.768 56.3835 126.228 56.0483C125.694 55.7131 125.063 55.5455 124.336 55.5455C123.535 55.5455 122.842 55.7443 122.256 56.142C121.677 56.5341 121.231 57.0455 120.918 57.6761C120.606 58.3068 120.45 58.983 120.45 59.7045V60.8636C120.45 61.8523 120.62 62.6903 120.961 63.3778C121.308 64.0597 121.788 64.5795 122.401 64.9375C123.015 65.2898 123.728 65.4659 124.54 65.4659C125.069 65.4659 125.546 65.392 125.972 65.2443C126.404 65.0909 126.776 64.8636 127.089 64.5625C127.401 64.2557 127.643 63.875 127.813 63.4205L129.756 63.9659C129.552 64.625 129.208 65.2045 128.725 65.7045C128.242 66.1989 127.646 66.5852 126.935 66.8636C126.225 67.1364 125.427 67.2727 124.54 67.2727ZM138.305 72.1818C137.333 72.1818 136.498 72.0568 135.799 71.8068C135.1 71.5625 134.518 71.2386 134.052 70.8352C133.592 70.4375 133.225 70.0114 132.952 69.5568L134.555 68.4318C134.737 68.6705 134.967 68.9432 135.245 69.25C135.523 69.5625 135.904 69.8324 136.387 70.0597C136.876 70.2926 137.515 70.4091 138.305 70.4091C139.362 70.4091 140.234 70.1534 140.921 69.642C141.609 69.1307 141.952 68.3295 141.952 67.2386V64.5795H141.782C141.634 64.8182 141.424 65.1136 141.151 65.4659C140.884 65.8125 140.498 66.1222 139.992 66.3949C139.492 66.6619 138.816 66.7955 137.964 66.7955C136.907 66.7955 135.958 66.5455 135.117 66.0455C134.282 65.5455 133.62 64.8182 133.131 63.8636C132.648 62.9091 132.407 61.75 132.407 60.3864C132.407 59.0455 132.643 57.8778 133.114 56.8835C133.586 55.8835 134.242 55.1108 135.083 54.5653C135.924 54.0142 136.896 53.7386 137.998 53.7386C138.85 53.7386 139.526 53.8807 140.026 54.1648C140.532 54.4432 140.918 54.7614 141.185 55.1193C141.458 55.4716 141.668 55.7614 141.816 55.9886H142.021V53.9091H143.964V67.375C143.964 68.5 143.708 69.4148 143.197 70.1193C142.691 70.8295 142.009 71.3494 141.151 71.679C140.299 72.0142 139.35 72.1818 138.305 72.1818ZM138.237 64.9886C139.043 64.9886 139.725 64.804 140.282 64.4347C140.839 64.0653 141.262 63.5341 141.552 62.8409C141.842 62.1477 141.987 61.3182 141.987 60.3523C141.987 59.4091 141.844 58.5767 141.56 57.8551C141.276 57.1335 140.856 56.5682 140.299 56.1591C139.742 55.75 139.055 55.5455 138.237 55.5455C137.384 55.5455 136.674 55.7614 136.106 56.1932C135.543 56.625 135.12 57.2045 134.836 57.9318C134.558 58.6591 134.418 59.4659 134.418 60.3523C134.418 61.2614 134.56 62.0653 134.844 62.7642C135.134 63.4574 135.56 64.0028 136.123 64.4006C136.691 64.7926 137.396 64.9886 138.237 64.9886ZM155.896 61.6477V53.9091H157.907V67H155.896V64.7841H155.759C155.452 65.4489 154.975 66.0142 154.327 66.4801C153.68 66.9403 152.862 67.1705 151.873 67.1705C151.055 67.1705 150.327 66.9915 149.691 66.6335C149.055 66.2699 148.555 65.7244 148.191 64.9972C147.827 64.2642 147.646 63.3409 147.646 62.2273V53.9091H149.657V62.0909C149.657 63.0455 149.924 63.8068 150.458 64.375C150.998 64.9432 151.685 65.2273 152.521 65.2273C153.021 65.2273 153.529 65.0994 154.046 64.8438C154.569 64.5881 155.006 64.196 155.359 63.6676C155.717 63.1392 155.896 62.4659 155.896 61.6477ZM163.602 49.5455V67H161.591V49.5455H163.602ZM171.138 67.3068C170.309 67.3068 169.556 67.1506 168.88 66.8381C168.204 66.5199 167.667 66.0625 167.269 65.4659C166.871 64.8636 166.673 64.1364 166.673 63.2841C166.673 62.5341 166.82 61.9261 167.116 61.4602C167.411 60.9886 167.806 60.6193 168.3 60.3523C168.795 60.0852 169.34 59.8864 169.937 59.7557C170.539 59.6193 171.144 59.5114 171.752 59.4318C172.548 59.3295 173.192 59.2528 173.687 59.2017C174.187 59.1449 174.55 59.0511 174.778 58.9205C175.011 58.7898 175.127 58.5625 175.127 58.2386V58.1705C175.127 57.3295 174.897 56.6761 174.437 56.2102C173.982 55.7443 173.292 55.5114 172.366 55.5114C171.406 55.5114 170.653 55.7216 170.107 56.142C169.562 56.5625 169.178 57.0114 168.957 57.4886L167.048 56.8068C167.388 56.0114 167.843 55.392 168.411 54.9489C168.985 54.5 169.61 54.1875 170.286 54.0114C170.968 53.8295 171.638 53.7386 172.298 53.7386C172.718 53.7386 173.201 53.7898 173.746 53.892C174.298 53.9886 174.829 54.1903 175.34 54.4972C175.857 54.804 176.286 55.267 176.627 55.8864C176.968 56.5057 177.138 57.3352 177.138 58.375V67H175.127V65.2273H175.025C174.888 65.5114 174.661 65.8153 174.343 66.1392C174.025 66.4631 173.602 66.7386 173.073 66.9659C172.545 67.1932 171.9 67.3068 171.138 67.3068ZM171.445 65.5C172.241 65.5 172.911 65.3438 173.457 65.0312C174.008 64.7188 174.423 64.3153 174.701 63.821C174.985 63.3267 175.127 62.8068 175.127 62.2614V60.4205C175.042 60.5227 174.854 60.6165 174.565 60.7017C174.281 60.7812 173.951 60.8523 173.576 60.9148C173.207 60.9716 172.846 61.0227 172.494 61.0682C172.147 61.108 171.866 61.142 171.65 61.1705C171.127 61.2386 170.638 61.3494 170.184 61.5028C169.735 61.6506 169.371 61.875 169.093 62.1761C168.82 62.4716 168.684 62.875 168.684 63.3864C168.684 64.0852 168.942 64.6136 169.46 64.9716C169.982 65.3239 170.644 65.5 171.445 65.5ZM180.81 67V53.9091H182.753V55.8864H182.889C183.128 55.2386 183.56 54.7131 184.185 54.3097C184.81 53.9062 185.514 53.7045 186.298 53.7045C186.446 53.7045 186.631 53.7074 186.852 53.7131C187.074 53.7187 187.241 53.7273 187.355 53.7386V55.7841C187.287 55.767 187.131 55.7415 186.886 55.7074C186.648 55.6676 186.395 55.6477 186.128 55.6477C185.491 55.6477 184.923 55.7812 184.423 56.0483C183.929 56.3097 183.537 56.6733 183.247 57.1392C182.963 57.5994 182.821 58.125 182.821 58.7159V67H180.81Z" fill="white"/>
<rect x="236.5" y="0.5" width="240" height="84" stroke="#82858A"/>
<path d="M263.392 51H260.597L266.878 33.5455H269.92L276.202 51H273.406L268.472 36.7159H268.335L263.392 51ZM263.861 44.1648H272.929V46.3807H263.861V44.1648ZM282.327 51.2898C281.498 51.2898 280.748 51.1364 280.077 50.8295C279.407 50.517 278.876 50.0653 278.484 49.4744C278.097 48.8835 277.904 48.1591 277.904 47.3011C277.904 46.5625 278.046 45.9545 278.33 45.4773C278.614 45 278.998 44.6222 279.481 44.3438C279.964 44.0653 280.504 43.8551 281.1 43.7131C281.697 43.571 282.305 43.4631 282.924 43.3892C283.708 43.2983 284.344 43.2244 284.833 43.1676C285.322 43.1051 285.677 43.0057 285.898 42.8693C286.12 42.733 286.231 42.5114 286.231 42.2045V42.1449C286.231 41.4006 286.021 40.8239 285.6 40.4148C285.185 40.0057 284.566 39.8011 283.742 39.8011C282.884 39.8011 282.208 39.9915 281.714 40.3722C281.225 40.7472 280.887 41.1648 280.7 41.625L278.305 41.0795C278.589 40.2841 279.004 39.642 279.549 39.1534C280.1 38.6591 280.734 38.3011 281.45 38.0795C282.165 37.8523 282.918 37.7386 283.708 37.7386C284.231 37.7386 284.785 37.8011 285.37 37.9261C285.961 38.0455 286.512 38.267 287.023 38.5909C287.54 38.9148 287.964 39.3778 288.293 39.9801C288.623 40.5767 288.788 41.3523 288.788 42.3068V51H286.299V49.2102H286.197C286.032 49.5398 285.785 49.8636 285.455 50.1818C285.126 50.5 284.702 50.7642 284.185 50.9744C283.668 51.1847 283.049 51.2898 282.327 51.2898ZM282.881 49.2443C283.586 49.2443 284.188 49.1051 284.688 48.8267C285.194 48.5483 285.577 48.1847 285.839 47.7358C286.106 47.2812 286.239 46.7955 286.239 46.2784V44.5909C286.148 44.6818 285.972 44.767 285.711 44.8466C285.455 44.9205 285.163 44.9858 284.833 45.0426C284.504 45.0937 284.183 45.142 283.87 45.1875C283.558 45.2273 283.296 45.2614 283.086 45.2898C282.592 45.3523 282.14 45.4574 281.731 45.6051C281.327 45.7528 281.004 45.9659 280.759 46.2443C280.521 46.517 280.401 46.8807 280.401 47.3352C280.401 47.9659 280.634 48.4432 281.1 48.767C281.566 49.0852 282.16 49.2443 282.881 49.2443Z" fill="white"/>
<path d="M341.358 31H339.511L344.852 16.4545H346.67L352.011 31H350.165L345.818 18.7557H345.705L341.358 31ZM342.04 25.3182H349.483V26.8807H342.04V25.3182ZM354.167 31V20.0909H355.843V31H354.167ZM355.019 18.2727C354.692 18.2727 354.411 18.1615 354.174 17.9389C353.942 17.7164 353.826 17.4489 353.826 17.1364C353.826 16.8239 353.942 16.5563 354.174 16.3338C354.411 16.1113 354.692 16 355.019 16C355.346 16 355.625 16.1113 355.857 16.3338C356.094 16.5563 356.212 16.8239 356.212 17.1364C356.212 17.4489 356.094 17.7164 355.857 17.9389C355.625 18.1615 355.346 18.2727 355.019 18.2727ZM360.589 16.4545V31H358.913V16.4545H360.589ZM368.233 31.2273C367.182 31.2273 366.275 30.9953 365.513 30.5312C364.755 30.0625 364.17 29.4091 363.759 28.571C363.351 27.7282 363.148 26.7481 363.148 25.6307C363.148 24.5133 363.351 23.5284 363.759 22.6761C364.17 21.8191 364.743 21.1515 365.477 20.6733C366.216 20.1903 367.078 19.9489 368.062 19.9489C368.631 19.9489 369.192 20.0436 369.746 20.233C370.3 20.4223 370.804 20.7301 371.259 21.1562C371.713 21.5777 372.075 22.1364 372.345 22.8324C372.615 23.5284 372.75 24.3854 372.75 25.4034V26.1136H364.341V24.6648H371.045C371.045 24.0492 370.922 23.5 370.676 23.017C370.435 22.5341 370.089 22.1529 369.639 21.8736C369.194 21.5942 368.669 21.4545 368.062 21.4545C367.395 21.4545 366.817 21.6203 366.33 21.9517C365.847 22.2784 365.475 22.7045 365.214 23.2301C364.954 23.7557 364.824 24.3191 364.824 24.9205V25.8864C364.824 26.7102 364.966 27.4086 365.25 27.9815C365.539 28.5497 365.939 28.983 366.45 29.2812C366.962 29.5748 367.556 29.7216 368.233 29.7216C368.673 29.7216 369.071 29.66 369.426 29.5369C369.786 29.4091 370.096 29.2197 370.357 28.9688C370.617 28.7131 370.818 28.3958 370.96 28.017L372.58 28.4716C372.409 29.0208 372.123 29.5038 371.72 29.9205C371.318 30.3324 370.821 30.6544 370.229 30.8864C369.637 31.1136 368.972 31.2273 368.233 31.2273ZM375.3 31V20.0909H376.919V21.7386H377.033C377.232 21.1989 377.591 20.7609 378.112 20.4247C378.633 20.0885 379.22 19.9205 379.874 19.9205C379.997 19.9205 380.151 19.9228 380.335 19.9276C380.52 19.9323 380.66 19.9394 380.754 19.9489V21.6534C380.697 21.6392 380.567 21.6179 380.364 21.5895C380.165 21.5563 379.954 21.5398 379.732 21.5398C379.201 21.5398 378.728 21.651 378.311 21.8736C377.899 22.0914 377.572 22.3944 377.331 22.7827C377.094 23.1662 376.976 23.6042 376.976 24.0966V31H375.3ZM386.841 31.2273C385.856 31.2273 384.992 30.9929 384.249 30.5241C383.51 30.0554 382.932 29.3996 382.516 28.5568C382.104 27.714 381.898 26.7292 381.898 25.6023C381.898 24.4659 382.104 23.474 382.516 22.6264C382.932 21.7789 383.51 21.1207 384.249 20.652C384.992 20.1832 385.856 19.9489 386.841 19.9489C387.826 19.9489 388.688 20.1832 389.426 20.652C390.17 21.1207 390.747 21.7789 391.159 22.6264C391.576 23.474 391.784 24.4659 391.784 25.6023C391.784 26.7292 391.576 27.714 391.159 28.5568C390.747 29.3996 390.17 30.0554 389.426 30.5241C388.688 30.9929 387.826 31.2273 386.841 31.2273ZM386.841 29.7216C387.589 29.7216 388.205 29.5298 388.688 29.1463C389.17 28.7628 389.528 28.2585 389.76 27.6335C389.992 27.0085 390.108 26.3314 390.108 25.6023C390.108 24.8731 389.992 24.1937 389.76 23.5639C389.528 22.9342 389.17 22.4252 388.688 22.0369C388.205 21.6487 387.589 21.4545 386.841 21.4545C386.093 21.4545 385.477 21.6487 384.994 22.0369C384.511 22.4252 384.154 22.9342 383.922 23.5639C383.69 24.1937 383.574 24.8731 383.574 25.6023C383.574 26.3314 383.69 27.0085 383.922 27.6335C384.154 28.2585 384.511 28.7628 384.994 29.1463C385.477 29.5298 386.093 29.7216 386.841 29.7216ZM396.019 24.4375V31H394.343V20.0909H395.962V21.7955H396.104C396.36 21.2415 396.748 20.7964 397.269 20.4602C397.79 20.1193 398.462 19.9489 399.286 19.9489C400.025 19.9489 400.671 20.1004 401.225 20.4034C401.779 20.7017 402.21 21.1562 402.517 21.767C402.825 22.3731 402.979 23.1402 402.979 24.0682V31H401.303V24.1818C401.303 23.3248 401.08 22.6572 400.635 22.179C400.19 21.696 399.579 21.4545 398.803 21.4545C398.268 21.4545 397.79 21.5705 397.368 21.8026C396.952 22.0346 396.623 22.3731 396.381 22.8182C396.14 23.2633 396.019 23.803 396.019 24.4375Z" fill="white" fill-opacity="0.6"/>
<path d="M350.438 54.1307C350.347 53.3239 349.972 52.6989 349.312 52.2557C348.653 51.8068 347.824 51.5824 346.824 51.5824C346.108 51.5824 345.489 51.696 344.966 51.9233C344.443 52.1449 344.037 52.4517 343.747 52.8438C343.463 53.2301 343.321 53.6705 343.321 54.1648C343.321 54.5795 343.418 54.9375 343.611 55.2386C343.81 55.5398 344.068 55.7926 344.386 55.9972C344.71 56.196 345.057 56.3636 345.426 56.5C345.795 56.6307 346.151 56.7386 346.491 56.8239L348.196 57.267C348.753 57.4034 349.324 57.5881 349.909 57.821C350.494 58.054 351.037 58.3608 351.537 58.7415C352.037 59.1222 352.44 59.5938 352.747 60.1562C353.06 60.7188 353.216 61.392 353.216 62.1761C353.216 63.1648 352.96 64.0426 352.449 64.8097C351.943 65.5767 351.207 66.1818 350.241 66.625C349.281 67.0682 348.119 67.2898 346.756 67.2898C345.449 67.2898 344.318 67.0824 343.364 66.6676C342.409 66.2528 341.662 65.6648 341.122 64.9034C340.582 64.1364 340.284 63.2273 340.227 62.1761H342.869C342.92 62.8068 343.125 63.3324 343.483 63.7528C343.847 64.1676 344.31 64.4773 344.872 64.6818C345.44 64.8807 346.062 64.9801 346.739 64.9801C347.483 64.9801 348.145 64.8636 348.724 64.6307C349.31 64.392 349.77 64.0625 350.105 63.642C350.44 63.2159 350.608 62.7187 350.608 62.1506C350.608 61.6335 350.46 61.2102 350.165 60.8807C349.875 60.5511 349.48 60.2784 348.98 60.0625C348.486 59.8466 347.926 59.6562 347.301 59.4915L345.239 58.929C343.841 58.5483 342.733 57.9886 341.915 57.25C341.102 56.5114 340.696 55.5341 340.696 54.3182C340.696 53.3125 340.969 52.4347 341.514 51.6847C342.06 50.9347 342.798 50.3523 343.73 49.9375C344.662 49.517 345.713 49.3068 346.884 49.3068C348.065 49.3068 349.108 49.5142 350.011 49.929C350.92 50.3438 351.636 50.9148 352.159 51.642C352.682 52.3636 352.955 53.1932 352.977 54.1307H350.438ZM361.8 67.2642C360.511 67.2642 359.4 66.9886 358.468 66.4375C357.542 65.8807 356.826 65.0994 356.32 64.0938C355.82 63.0824 355.57 61.8977 355.57 60.5398C355.57 59.1989 355.82 58.017 356.32 56.9943C356.826 55.9716 357.531 55.1733 358.434 54.5994C359.343 54.0256 360.406 53.7386 361.621 53.7386C362.36 53.7386 363.076 53.8608 363.769 54.1051C364.462 54.3494 365.085 54.733 365.636 55.2557C366.187 55.7784 366.621 56.4574 366.94 57.2926C367.258 58.1222 367.417 59.1307 367.417 60.3182V61.2216H357.011V59.3125H364.92C364.92 58.642 364.783 58.0483 364.511 57.5312C364.238 57.0085 363.854 56.5966 363.36 56.2955C362.871 55.9943 362.298 55.8438 361.638 55.8438C360.923 55.8438 360.298 56.0199 359.763 56.3722C359.235 56.7187 358.826 57.1733 358.536 57.7358C358.252 58.2926 358.11 58.8977 358.11 59.5511V61.0426C358.11 61.9176 358.263 62.6619 358.57 63.2756C358.883 63.8892 359.317 64.358 359.874 64.6818C360.431 65 361.082 65.1591 361.826 65.1591C362.309 65.1591 362.749 65.0909 363.147 64.9545C363.545 64.8125 363.888 64.6023 364.178 64.3239C364.468 64.0455 364.69 63.7017 364.843 63.2926L367.255 63.7273C367.062 64.4375 366.715 65.0597 366.215 65.5938C365.721 66.1222 365.099 66.5341 364.349 66.8295C363.604 67.1193 362.755 67.2642 361.8 67.2642ZM370.244 67V53.9091H372.69V56.0398H372.852C373.125 55.3182 373.571 54.7557 374.19 54.3523C374.81 53.9432 375.551 53.7386 376.415 53.7386C377.29 53.7386 378.023 53.9432 378.614 54.3523C379.21 54.7614 379.651 55.3239 379.935 56.0398H380.071C380.384 55.3409 380.881 54.7841 381.562 54.3693C382.244 53.9489 383.057 53.7386 384 53.7386C385.188 53.7386 386.156 54.1108 386.906 54.8551C387.662 55.5994 388.04 56.7216 388.04 58.2216V67H385.491V58.4602C385.491 57.5739 385.25 56.9318 384.767 56.5341C384.284 56.1364 383.707 55.9375 383.037 55.9375C382.207 55.9375 381.562 56.1932 381.102 56.7045C380.642 57.2102 380.412 57.8608 380.412 58.6562V67H377.872V58.2983C377.872 57.5881 377.651 57.017 377.207 56.5852C376.764 56.1534 376.188 55.9375 375.477 55.9375C374.994 55.9375 374.548 56.0653 374.139 56.321C373.736 56.571 373.409 56.9205 373.159 57.3693C372.915 57.8182 372.793 58.3381 372.793 58.929V67H370.244ZM391.455 67V53.9091H394.004V67H391.455ZM392.742 51.8892C392.299 51.8892 391.918 51.7415 391.6 51.446C391.288 51.1449 391.131 50.7869 391.131 50.3722C391.131 49.9517 391.288 49.5937 391.6 49.2983C391.918 48.9972 392.299 48.8466 392.742 48.8466C393.185 48.8466 393.563 48.9972 393.876 49.2983C394.194 49.5937 394.353 49.9517 394.353 50.3722C394.353 50.7869 394.194 51.1449 393.876 51.446C393.563 51.7415 393.185 51.8892 392.742 51.8892ZM403.988 67V49.5455H406.536V56.0312H406.69C406.837 55.7585 407.05 55.4432 407.329 55.0852C407.607 54.7273 407.994 54.4148 408.488 54.1477C408.982 53.875 409.636 53.7386 410.448 53.7386C411.505 53.7386 412.448 54.0057 413.278 54.5398C414.107 55.0739 414.758 55.8437 415.229 56.8494C415.707 57.8551 415.945 59.0653 415.945 60.4801C415.945 61.8949 415.71 63.108 415.238 64.1193C414.766 65.125 414.119 65.9006 413.295 66.446C412.471 66.9858 411.531 67.2557 410.474 67.2557C409.678 67.2557 409.028 67.1222 408.522 66.8551C408.022 66.5881 407.63 66.2756 407.346 65.9176C407.062 65.5597 406.843 65.2415 406.69 64.9631H406.477V67H403.988ZM406.485 60.4545C406.485 61.375 406.619 62.1818 406.886 62.875C407.153 63.5682 407.539 64.1108 408.045 64.5028C408.55 64.8892 409.17 65.0824 409.903 65.0824C410.664 65.0824 411.3 64.8807 411.812 64.4773C412.323 64.0682 412.71 63.5142 412.971 62.8153C413.238 62.1165 413.371 61.3295 413.371 60.4545C413.371 59.5909 413.241 58.8153 412.979 58.1278C412.724 57.4403 412.337 56.8977 411.82 56.5C411.309 56.1023 410.67 55.9034 409.903 55.9034C409.164 55.9034 408.539 56.0937 408.028 56.4744C407.522 56.8551 407.138 57.3864 406.877 58.0682C406.616 58.75 406.485 59.5455 406.485 60.4545ZM424.321 67.2642C423.094 67.2642 422.023 66.983 421.108 66.4205C420.193 65.858 419.483 65.071 418.977 64.0597C418.472 63.0483 418.219 61.8665 418.219 60.5142C418.219 59.1562 418.472 57.9687 418.977 56.9517C419.483 55.9347 420.193 55.1449 421.108 54.5824C422.023 54.0199 423.094 53.7386 424.321 53.7386C425.548 53.7386 426.619 54.0199 427.534 54.5824C428.449 55.1449 429.159 55.9347 429.665 56.9517C430.17 57.9687 430.423 59.1562 430.423 60.5142C430.423 61.8665 430.17 63.0483 429.665 64.0597C429.159 65.071 428.449 65.858 427.534 66.4205C426.619 66.983 425.548 67.2642 424.321 67.2642ZM424.33 65.125C425.125 65.125 425.784 64.9148 426.307 64.4943C426.83 64.0739 427.216 63.5142 427.466 62.8153C427.722 62.1165 427.849 61.3466 427.849 60.5057C427.849 59.6705 427.722 58.9034 427.466 58.2045C427.216 57.5 426.83 56.9347 426.307 56.5085C425.784 56.0824 425.125 55.8693 424.33 55.8693C423.528 55.8693 422.864 56.0824 422.335 56.5085C421.813 56.9347 421.423 57.5 421.168 58.2045C420.918 58.9034 420.793 59.6705 420.793 60.5057C420.793 61.3466 420.918 62.1165 421.168 62.8153C421.423 63.5142 421.813 64.0739 422.335 64.4943C422.864 64.9148 423.528 65.125 424.33 65.125ZM435.816 49.5455V67H433.268V49.5455H435.816ZM444.145 67.2557C443.088 67.2557 442.145 66.9858 441.315 66.446C440.491 65.9006 439.844 65.125 439.372 64.1193C438.906 63.108 438.673 61.8949 438.673 60.4801C438.673 59.0653 438.909 57.8551 439.381 56.8494C439.858 55.8437 440.511 55.0739 441.341 54.5398C442.17 54.0057 443.111 53.7386 444.162 53.7386C444.974 53.7386 445.628 53.875 446.122 54.1477C446.622 54.4148 447.009 54.7273 447.281 55.0852C447.56 55.4432 447.776 55.7585 447.929 56.0312H448.082V49.5455H450.631V67H448.142V64.9631H447.929C447.776 65.2415 447.554 65.5597 447.264 65.9176C446.98 66.2756 446.588 66.5881 446.088 66.8551C445.588 67.1222 444.94 67.2557 444.145 67.2557ZM444.707 65.0824C445.44 65.0824 446.06 64.8892 446.565 64.5028C447.077 64.1108 447.463 63.5682 447.724 62.875C447.991 62.1818 448.125 61.375 448.125 60.4545C448.125 59.5455 447.994 58.75 447.733 58.0682C447.472 57.3864 447.088 56.8551 446.582 56.4744C446.077 56.0937 445.452 55.9034 444.707 55.9034C443.94 55.9034 443.301 56.1023 442.79 56.5C442.278 56.8977 441.892 57.4403 441.631 58.1278C441.375 58.8153 441.247 59.5909 441.247 60.4545C441.247 61.3295 441.378 62.1165 441.639 62.8153C441.901 63.5142 442.287 64.0682 442.798 64.4773C443.315 64.8807 443.952 65.0824 444.707 65.0824Z" fill="white"/>
<rect x="501.5" y="0.5" width="193" height="84" stroke="#82858A"/>
<path d="M528.963 51H525.588L531.733 33.5455H535.636L541.79 51H538.415L533.753 37.125H533.616L528.963 51ZM529.074 44.1562H538.278V46.696H529.074V44.1562ZM547.719 51.2642C546.89 51.2642 546.143 51.1165 545.478 50.821C544.819 50.5199 544.296 50.0767 543.91 49.4915C543.529 48.9062 543.339 48.1847 543.339 47.3267C543.339 46.5881 543.475 45.9773 543.748 45.4943C544.021 45.0114 544.393 44.625 544.864 44.3352C545.336 44.0455 545.867 43.8267 546.458 43.679C547.055 43.5256 547.671 43.4148 548.308 43.3466C549.075 43.267 549.697 43.196 550.174 43.1335C550.651 43.0653 550.998 42.9631 551.214 42.8267C551.435 42.6847 551.546 42.4659 551.546 42.1705V42.1193C551.546 41.4773 551.356 40.9801 550.975 40.6278C550.594 40.2756 550.046 40.0994 549.33 40.0994C548.575 40.0994 547.975 40.2642 547.532 40.5938C547.094 40.9233 546.799 41.3125 546.646 41.7614L543.765 41.3523C543.992 40.5568 544.367 39.892 544.89 39.358C545.413 38.8182 546.052 38.4148 546.808 38.1477C547.563 37.875 548.398 37.7386 549.313 37.7386C549.944 37.7386 550.572 37.8125 551.197 37.9602C551.822 38.108 552.393 38.3523 552.91 38.6932C553.427 39.0284 553.842 39.4858 554.154 40.0653C554.472 40.6449 554.631 41.3693 554.631 42.2386V51H551.665V49.2017H551.563C551.376 49.5653 551.112 49.9062 550.771 50.2244C550.435 50.5369 550.012 50.7898 549.501 50.983C548.995 51.1705 548.401 51.2642 547.719 51.2642ZM548.521 48.9972C549.14 48.9972 549.677 48.875 550.131 48.6307C550.586 48.3807 550.935 48.0511 551.18 47.642C551.43 47.233 551.555 46.7869 551.555 46.304V44.7614C551.458 44.8409 551.293 44.9148 551.06 44.983C550.833 45.0511 550.577 45.1108 550.293 45.1619C550.009 45.2131 549.728 45.2585 549.45 45.2983C549.171 45.3381 548.93 45.3722 548.725 45.4006C548.265 45.4631 547.853 45.5653 547.489 45.7074C547.126 45.8494 546.839 46.0483 546.629 46.304C546.418 46.554 546.313 46.8778 546.313 47.2756C546.313 47.8438 546.521 48.2727 546.935 48.5625C547.35 48.8523 547.879 48.9972 548.521 48.9972Z" fill="white"/>
<path d="M607.358 31H605.511L610.852 16.4545H612.67L618.011 31H616.165L611.818 18.7557H611.705L607.358 31ZM608.04 25.3182H615.483V26.8807H608.04V25.3182ZM620.167 31V20.0909H621.843V31H620.167ZM621.019 18.2727C620.692 18.2727 620.411 18.1615 620.174 17.9389C619.942 17.7164 619.826 17.4489 619.826 17.1364C619.826 16.8239 619.942 16.5563 620.174 16.3338C620.411 16.1113 620.692 16 621.019 16C621.346 16 621.625 16.1113 621.857 16.3338C622.094 16.5563 622.212 16.8239 622.212 17.1364C622.212 17.4489 622.094 17.7164 621.857 17.9389C621.625 18.1615 621.346 18.2727 621.019 18.2727ZM626.589 16.4545V31H624.913V16.4545H626.589ZM634.233 31.2273C633.182 31.2273 632.275 30.9953 631.513 30.5312C630.755 30.0625 630.17 29.4091 629.759 28.571C629.351 27.7282 629.148 26.7481 629.148 25.6307C629.148 24.5133 629.351 23.5284 629.759 22.6761C630.17 21.8191 630.743 21.1515 631.477 20.6733C632.216 20.1903 633.078 19.9489 634.062 19.9489C634.631 19.9489 635.192 20.0436 635.746 20.233C636.3 20.4223 636.804 20.7301 637.259 21.1562C637.713 21.5777 638.075 22.1364 638.345 22.8324C638.615 23.5284 638.75 24.3854 638.75 25.4034V26.1136H630.341V24.6648H637.045C637.045 24.0492 636.922 23.5 636.676 23.017C636.435 22.5341 636.089 22.1529 635.639 21.8736C635.194 21.5942 634.669 21.4545 634.062 21.4545C633.395 21.4545 632.817 21.6203 632.33 21.9517C631.847 22.2784 631.475 22.7045 631.214 23.2301C630.954 23.7557 630.824 24.3191 630.824 24.9205V25.8864C630.824 26.7102 630.966 27.4086 631.25 27.9815C631.539 28.5497 631.939 28.983 632.45 29.2812C632.962 29.5748 633.556 29.7216 634.233 29.7216C634.673 29.7216 635.071 29.66 635.426 29.5369C635.786 29.4091 636.096 29.2197 636.357 28.9688C636.617 28.7131 636.818 28.3958 636.96 28.017L638.58 28.4716C638.409 29.0208 638.123 29.5038 637.72 29.9205C637.318 30.3324 636.821 30.6544 636.229 30.8864C635.637 31.1136 634.972 31.2273 634.233 31.2273ZM641.3 31V20.0909H642.919V21.7386H643.033C643.232 21.1989 643.591 20.7609 644.112 20.4247C644.633 20.0885 645.22 19.9205 645.874 19.9205C645.997 19.9205 646.151 19.9228 646.335 19.9276C646.52 19.9323 646.66 19.9394 646.754 19.9489V21.6534C646.697 21.6392 646.567 21.6179 646.364 21.5895C646.165 21.5563 645.954 21.5398 645.732 21.5398C645.201 21.5398 644.728 21.651 644.311 21.8736C643.899 22.0914 643.572 22.3944 643.331 22.7827C643.094 23.1662 642.976 23.6042 642.976 24.0966V31H641.3ZM652.841 31.2273C651.856 31.2273 650.992 30.9929 650.249 30.5241C649.51 30.0554 648.932 29.3996 648.516 28.5568C648.104 27.714 647.898 26.7292 647.898 25.6023C647.898 24.4659 648.104 23.474 648.516 22.6264C648.932 21.7789 649.51 21.1207 650.249 20.652C650.992 20.1832 651.856 19.9489 652.841 19.9489C653.826 19.9489 654.688 20.1832 655.426 20.652C656.17 21.1207 656.747 21.7789 657.159 22.6264C657.576 23.474 657.784 24.4659 657.784 25.6023C657.784 26.7292 657.576 27.714 657.159 28.5568C656.747 29.3996 656.17 30.0554 655.426 30.5241C654.688 30.9929 653.826 31.2273 652.841 31.2273ZM652.841 29.7216C653.589 29.7216 654.205 29.5298 654.688 29.1463C655.17 28.7628 655.528 28.2585 655.76 27.6335C655.992 27.0085 656.108 26.3314 656.108 25.6023C656.108 24.8731 655.992 24.1937 655.76 23.5639C655.528 22.9342 655.17 22.4252 654.688 22.0369C654.205 21.6487 653.589 21.4545 652.841 21.4545C652.093 21.4545 651.477 21.6487 650.994 22.0369C650.511 22.4252 650.154 22.9342 649.922 23.5639C649.69 24.1937 649.574 24.8731 649.574 25.6023C649.574 26.3314 649.69 27.0085 649.922 27.6335C650.154 28.2585 650.511 28.7628 650.994 29.1463C651.477 29.5298 652.093 29.7216 652.841 29.7216ZM662.019 24.4375V31H660.343V20.0909H661.962V21.7955H662.104C662.36 21.2415 662.748 20.7964 663.269 20.4602C663.79 20.1193 664.462 19.9489 665.286 19.9489C666.025 19.9489 666.671 20.1004 667.225 20.4034C667.779 20.7017 668.21 21.1562 668.517 21.767C668.825 22.3731 668.979 23.1402 668.979 24.0682V31H667.303V24.1818C667.303 23.3248 667.08 22.6572 666.635 22.179C666.19 21.696 665.579 21.4545 664.803 21.4545C664.268 21.4545 663.79 21.5705 663.368 21.8026C662.952 22.0346 662.623 22.3731 662.381 22.8182C662.14 23.2633 662.019 23.803 662.019 24.4375Z" fill="white" fill-opacity="0.6"/>
<path d="M606.722 67V49.5455H613.403C614.665 49.5455 615.713 49.7443 616.548 50.142C617.389 50.5341 618.017 51.071 618.432 51.7528C618.852 52.4347 619.062 53.2074 619.062 54.071C619.062 54.7812 618.926 55.3892 618.653 55.8949C618.381 56.3949 618.014 56.8011 617.554 57.1136C617.094 57.4261 616.58 57.6506 616.011 57.7869V57.9574C616.631 57.9915 617.224 58.1818 617.793 58.5284C618.366 58.8693 618.835 59.3523 619.199 59.9773C619.563 60.6023 619.744 61.358 619.744 62.2443C619.744 63.1477 619.526 63.9602 619.088 64.6818C618.651 65.3977 617.991 65.9631 617.111 66.3778C616.23 66.7926 615.122 67 613.787 67H606.722ZM609.884 64.358H613.284C614.432 64.358 615.259 64.1392 615.764 63.7017C616.276 63.2585 616.531 62.6903 616.531 61.9972C616.531 61.4801 616.403 61.0142 616.148 60.5994C615.892 60.179 615.528 59.8494 615.057 59.6108C614.585 59.3665 614.023 59.2443 613.369 59.2443H609.884V64.358ZM609.884 56.9688H613.011C613.557 56.9688 614.048 56.8693 614.486 56.6705C614.923 56.4659 615.267 56.179 615.517 55.8097C615.773 55.4347 615.901 54.9915 615.901 54.4801C615.901 53.804 615.662 53.2472 615.185 52.8097C614.713 52.3722 614.011 52.1534 613.08 52.1534H609.884V56.9688ZM628.069 67.2557C626.79 67.2557 625.683 66.9744 624.745 66.4119C623.808 65.8494 623.08 65.0625 622.563 64.0511C622.052 63.0398 621.796 61.858 621.796 60.5057C621.796 59.1534 622.052 57.9687 622.563 56.9517C623.08 55.9347 623.808 55.1449 624.745 54.5824C625.683 54.0199 626.79 53.7386 628.069 53.7386C629.347 53.7386 630.455 54.0199 631.393 54.5824C632.33 55.1449 633.055 55.9347 633.566 56.9517C634.083 57.9687 634.342 59.1534 634.342 60.5057C634.342 61.858 634.083 63.0398 633.566 64.0511C633.055 65.0625 632.33 65.8494 631.393 66.4119C630.455 66.9744 629.347 67.2557 628.069 67.2557ZM628.086 64.7841C628.779 64.7841 629.359 64.5937 629.825 64.2131C630.29 63.8267 630.637 63.3097 630.864 62.6619C631.097 62.0142 631.214 61.2926 631.214 60.4972C631.214 59.696 631.097 58.9716 630.864 58.3239C630.637 57.6705 630.29 57.1506 629.825 56.7642C629.359 56.3778 628.779 56.1847 628.086 56.1847C627.376 56.1847 626.785 56.3778 626.313 56.7642C625.847 57.1506 625.498 57.6705 625.265 58.3239C625.038 58.9716 624.924 59.696 624.924 60.4972C624.924 61.2926 625.038 62.0142 625.265 62.6619C625.498 63.3097 625.847 63.8267 626.313 64.2131C626.785 64.5937 627.376 64.7841 628.086 64.7841ZM640.045 49.5455V67H636.96V49.5455H640.045ZM648.076 67.2301C647.048 67.2301 646.127 66.9659 645.315 66.4375C644.502 65.9091 643.86 65.142 643.388 64.1364C642.917 63.1307 642.681 61.9091 642.681 60.4716C642.681 59.017 642.92 57.7898 643.397 56.7898C643.88 55.7841 644.531 55.0256 645.349 54.5142C646.167 53.9972 647.079 53.7386 648.085 53.7386C648.852 53.7386 649.482 53.8693 649.977 54.1307C650.471 54.3864 650.863 54.696 651.153 55.0597C651.442 55.4176 651.667 55.7557 651.826 56.0739H651.954V49.5455H655.048V67H652.013V64.9375H651.826C651.667 65.2557 651.437 65.5937 651.136 65.9517C650.835 66.304 650.437 66.6051 649.942 66.8551C649.448 67.1051 648.826 67.2301 648.076 67.2301ZM648.937 64.6989C649.59 64.6989 650.147 64.5227 650.607 64.1705C651.067 63.8125 651.417 63.3153 651.656 62.679C651.894 62.0426 652.013 61.3011 652.013 60.4545C652.013 59.608 651.894 58.8722 651.656 58.2472C651.423 57.6222 651.076 57.1364 650.616 56.7898C650.161 56.4432 649.602 56.2699 648.937 56.2699C648.249 56.2699 647.675 56.4489 647.215 56.8068C646.755 57.1648 646.408 57.6591 646.175 58.2898C645.942 58.9205 645.826 59.642 645.826 60.4545C645.826 61.2727 645.942 62.0028 646.175 62.6449C646.414 63.2812 646.763 63.7841 647.224 64.1534C647.69 64.517 648.261 64.6989 648.937 64.6989Z" fill="white"/>
</svg>
