<svg width="20" height="20" viewBox="0 0 20 20" fill="none" xmlns="http://www.w3.org/2000/svg">
<g clip-path="url(#clip0_6024_15871)">
<path d="M9.99967 16.6667C11.7678 16.6667 13.4635 15.9643 14.7137 14.714C15.964 13.4638 16.6663 11.7681 16.6663 9.99999C16.6663 8.23188 15.964 6.53619 14.7137 5.28595C13.4635 4.03571 11.7678 3.33333 9.99967 3.33333C8.23156 3.33333 6.53587 4.03571 5.28563 5.28595C4.03539 6.53619 3.33301 8.23188 3.33301 9.99999C3.33301 11.7681 4.03539 13.4638 5.28563 14.714C6.53587 15.9643 8.23156 16.6667 9.99967 16.6667ZM8.95801 12.0833H9.58301V10.4167H8.95801C8.61165 10.4167 8.33301 10.138 8.33301 9.79166C8.33301 9.44531 8.61165 9.16666 8.95801 9.16666H10.208C10.5544 9.16666 10.833 9.44531 10.833 9.79166V12.0833H11.0413C11.3877 12.0833 11.6663 12.362 11.6663 12.7083C11.6663 13.0547 11.3877 13.3333 11.0413 13.3333H8.95801C8.61165 13.3333 8.33301 13.0547 8.33301 12.7083C8.33301 12.362 8.61165 12.0833 8.95801 12.0833ZM9.99967 6.66666C10.2207 6.66666 10.4326 6.75446 10.5889 6.91074C10.7452 7.06702 10.833 7.27898 10.833 7.49999C10.833 7.72101 10.7452 7.93297 10.5889 8.08925C10.4326 8.24553 10.2207 8.33333 9.99967 8.33333C9.77866 8.33333 9.5667 8.24553 9.41042 8.08925C9.25414 7.93297 9.16634 7.72101 9.16634 7.49999C9.16634 7.27898 9.25414 7.06702 9.41042 6.91074C9.5667 6.75446 9.77866 6.66666 9.99967 6.66666Z" fill="white"/>
</g>
<defs>
<clipPath id="clip0_6024_15871">
<rect width="13.3333" height="13.3333" fill="white" transform="translate(3.33301 3.33333)"/>
</clipPath>
</defs>
</svg>
