<svg width="12" height="12" viewBox="0 0 12 12" fill="none" xmlns="http://www.w3.org/2000/svg">
<path d="M0.588591 0.715694L0.646447 0.646447C0.820013 0.47288 1.08944 0.453595 1.28431 0.588591L1.35355 0.646447L6 5.293L10.6464 0.646447C10.8417 0.451185 11.1583 0.451185 11.3536 0.646447C11.5488 0.841709 11.5488 1.15829 11.3536 1.35355L6.707 6L11.3536 10.6464C11.5271 10.82 11.5464 11.0894 11.4114 11.2843L11.3536 11.3536C11.18 11.5271 10.9106 11.5464 10.7157 11.4114L10.6464 11.3536L6 6.707L1.35355 11.3536C1.15829 11.5488 0.841709 11.5488 0.646447 11.3536C0.451185 11.1583 0.451185 10.8417 0.646447 10.6464L5.293 6L0.646447 1.35355C0.47288 1.17999 0.453595 0.910563 0.588591 0.715694L0.646447 0.646447L0.588591 0.715694Z" fill="#D8D8D9"/>
</svg>
