<svg width="16" height="16" viewBox="0 0 16 16" fill="none" xmlns="http://www.w3.org/2000/svg">
<path d="M4.08859 4.21569L4.14645 4.14645C4.32001 3.97288 4.58944 3.9536 4.78431 4.08859L4.85355 4.14645L8 7.293L11.1464 4.14645C11.3417 3.95118 11.6583 3.95118 11.8536 4.14645C12.0488 4.34171 12.0488 4.65829 11.8536 4.85355L8.707 8L11.8536 11.1464C12.0271 11.32 12.0464 11.5894 11.9114 11.7843L11.8536 11.8536C11.68 12.0271 11.4106 12.0464 11.2157 11.9114L11.1464 11.8536L8 8.707L4.85355 11.8536C4.65829 12.0488 4.34171 12.0488 4.14645 11.8536C3.95118 11.6583 3.95118 11.3417 4.14645 11.1464L7.293 8L4.14645 4.85355C3.97288 4.67999 3.9536 4.41056 4.08859 4.21569L4.14645 4.14645L4.08859 4.21569Z" fill="white"/>
</svg>
