<svg width="14" height="12" viewBox="0 0 14 12" fill="none" xmlns="http://www.w3.org/2000/svg">
<path d="M0 1.5C0 0.671573 0.671573 0 1.5 0H8.5C9.32843 0 10 0.671573 10 1.5V6.5C10 7.32843 9.32843 8 8.5 8H1.5C0.671573 8 0 7.32843 0 6.5V1.5ZM1.5 1C1.22386 1 1 1.22386 1 1.5V6.5C1 6.77614 1.22386 7 1.5 7H8.5C8.77614 7 9 6.77614 9 6.5V1.5C9 1.22386 8.77614 1 8.5 1H1.5ZM4.08496 11C4.29088 11.5826 4.8465 12 5.49961 12H8.49961C11.5372 12 13.9996 9.53754 13.9996 6.49997V5.49997C13.9996 4.84686 13.5822 4.29125 12.9996 4.08533V6.49997C12.9996 8.98526 10.9849 11 8.49961 11H4.08496ZM3.49961 9.99997C2.8465 9.99997 2.29088 9.58257 2.08496 8.99997H8.49961C9.88032 8.99997 10.9996 7.88069 10.9996 6.49997V2.08533C11.5822 2.29125 11.9996 2.84686 11.9996 3.49997V6.49997C11.9996 8.43297 10.4326 9.99997 8.49961 9.99997H3.49961Z" fill="#D8D8D9"/>
</svg>
