<svg width="20" height="20" viewBox="0 0 20 20" fill="none" xmlns="http://www.w3.org/2000/svg">
<path d="M19.4672 4.54074L10.419 0.0930876C10.152 -0.0310292 9.84754 -0.0310292 9.58057 0.0930876L0.533271 4.54074C0.209158 4.69343 0.000244141 5.02649 0.000244141 5.38811C0.000244141 5.74974 0.210065 6.08371 0.533271 6.24532L9.58057 10.6841C9.7136 10.751 9.85645 10.7885 9.99931 10.7885C10.1422 10.7885 10.285 10.7501 10.418 10.6841L19.4653 6.24532C19.7895 6.0837 19.9984 5.74974 19.9984 5.38811C19.9984 5.02649 19.7886 4.69252 19.4653 4.54074H19.4672Z" fill="white"/>
<path d="M18.6287 9.14301L10.0002 13.3781L1.3716 9.14301C0.900176 8.91175 0.328749 9.1064 0.0975039 9.57966C-0.133741 10.052 0.0600047 10.6226 0.53412 10.8539L9.58141 15.2953C9.71356 15.3605 9.8573 15.3927 10.0002 15.3927C10.143 15.3927 10.2877 15.3605 10.4189 15.2953L19.4662 10.8539C19.9385 10.6226 20.1341 10.052 19.9028 9.57966C19.6707 9.1073 19.1001 8.91175 18.6287 9.14301Z" fill="white"/>
<path d="M18.6287 13.7503L10.0002 17.9854L1.3716 13.7503C0.900176 13.5199 0.328749 13.7137 0.0975039 14.1869C-0.133741 14.6593 0.0600047 15.2299 0.53412 15.4611L9.58141 19.9026C9.71356 19.9678 9.8573 20 10.0002 20C10.143 20 10.2877 19.9678 10.4189 19.9026L19.4662 15.4611C19.9385 15.2299 20.1341 14.6593 19.9028 14.1869C19.6707 13.7146 19.1001 13.5181 18.6287 13.7503Z" fill="white"/>
</svg>
