<svg width="14" height="12" viewBox="0 0 14 12" fill="none" xmlns="http://www.w3.org/2000/svg">
<path d="M9.33333 11.4444H10.5C10.7771 11.4444 11.0323 11.2986 11.1708 11.058L13.8931 6.39131C14.034 6.15068 14.034 5.85415 13.8955 5.6111C13.7569 5.36804 13.5017 5.22221 13.2222 5.22221H3.5C3.22292 5.22221 2.96771 5.36804 2.82917 5.60867L1.16667 8.45728V2.1111C1.16667 1.89721 1.34167 1.72221 1.55556 1.72221H4.41146C4.51354 1.72221 4.61319 1.76353 4.68611 1.83644L5.33021 2.48054C5.84062 2.99096 6.53333 3.27776 7.25521 3.27776H10.1111C10.325 3.27776 10.5 3.45276 10.5 3.66665V4.44443H11.6667V3.66665C11.6667 2.80867 10.9691 2.1111 10.1111 2.1111H7.25521C6.84201 2.1111 6.44583 1.94825 6.15417 1.65658L5.51007 1.01006C5.2184 0.718389 4.82222 0.555542 4.40903 0.555542H1.55556C0.697569 0.555542 0 1.25311 0 2.1111V9.88888C0 10.7469 0.697569 11.4444 1.55556 11.4444H2.1316H9.33333Z" fill="#D8D8D9"/>
</svg>
