<svg width="25" height="26" viewBox="0 0 25 26" fill="none" xmlns="http://www.w3.org/2000/svg">
<path d="M17.9702 11.7906C18.0005 11.7694 18.0346 11.7569 18.0712 11.753L18.8543 11.6697C18.8764 11.6674 18.8873 11.6959 18.8696 11.7094C17.427 12.8122 16.3346 13.6289 14.7549 14.9213C14.2988 15.2945 13.1556 15.3883 13.2828 15.2963C14.3563 14.3341 17.5527 12.0837 17.9702 11.7906Z" fill="#1193F0"/>
<path d="M17.4906 8.46988C17.9726 8.38255 19.2575 8.85656 19.7389 8.99411C19.8489 9.02552 19.9815 9.44582 19.9646 9.58587C19.9631 9.59866 19.9581 9.61045 19.9524 9.62198L19.1592 11.2331C19.1535 11.2447 19.1491 11.2568 19.1444 11.2688C19.1142 11.3467 19.0423 11.4013 18.9584 11.4082L18.4697 11.4486C18.438 11.4512 17.9552 11.4744 17.9552 11.4744C17.9552 11.4744 13.5359 14.7085 12.9415 15.1755C12.8788 15.2247 12.0928 15.3211 12.0195 15.2901L9.65732 14.207C9.47482 14.1299 9.79443 14.0148 9.97946 13.9442L16.0826 11.6164C16.2075 11.5687 16.2613 11.4201 16.1932 11.3044C15.8422 10.7074 15.514 10.2995 15.317 10.0775C15.2234 9.97183 15.2382 9.80243 15.3558 9.72477C15.8398 9.40511 17.0175 8.55559 17.4906 8.46988Z" fill="#1193F0"/>
<path d="M4.97791 5.66177L4.62434 5.23851C4.47905 5.06458 4.65842 4.80981 4.8695 4.89031L12.0235 7.61878C12.0372 7.624 12.0503 7.63057 12.0626 7.63845C13.8188 8.75893 15.2195 10.5232 15.6854 11.1489C15.7712 11.2641 15.7211 11.4271 15.5872 11.4773L10.7765 13.279C10.6859 13.3129 10.5839 13.283 10.5256 13.2055L7.01523 8.53966L4.97791 5.66177Z" fill="#1193F0"/>
<path d="M19.7092 11.2891C19.5716 11.2847 19.4766 11.1376 19.5356 11.0123L20.0559 9.90559C20.0602 9.89642 20.0636 9.88681 20.0671 9.8773C20.1128 9.7532 20.2723 9.71753 20.3659 9.81092C20.3724 9.81739 20.3777 9.82487 20.3826 9.83261L21.2482 11.1959C21.3094 11.2923 21.2435 11.406 21.1303 11.3958C20.7798 11.3641 20.155 11.3033 19.7092 11.2891Z" fill="#1193F0"/>
<path d="M11.0525 15.5687C11.0915 15.4623 11.1866 15.2995 11.0853 15.25L10.0385 14.724C9.79759 14.6142 9.61187 14.5296 9.4687 14.4644C9.23584 14.3583 8.8637 14.4912 8.74871 14.721L6.04071 20.134C6.03176 20.1519 6.02665 20.1704 6.02318 20.1901C5.97351 20.4727 5.48573 22.1907 5.4447 22.3682C5.44095 22.3844 5.45114 22.3683 5.46171 22.3554L11.0525 15.5687Z" fill="#1193F0"/>
<path d="M12.6609 15.5956C12.7048 15.5467 12.6676 15.4688 12.6022 15.4729L11.4683 15.5443C11.4281 15.5468 11.3906 15.566 11.3649 15.5973L8.16151 19.4971C8.1363 19.5278 8.16961 19.5698 8.20444 19.5509C8.63888 19.3152 9.89385 18.5978 10.7236 17.7515L12.6609 15.5956Z" fill="#1193F0"/>
<path d="M4.375 10.4384C4.375 10.4384 6.10732 9.97012 7.8942 10.4355L9.01958 11.6614L10.337 13.4423L9.61626 13.4736C9.58438 13.475 9.55293 13.4658 9.52671 13.4475L7.85528 12.2791L4.375 10.4384Z" fill="#1193F0"/>
</svg>
