<svg width="16" height="16" viewBox="0 0 16 16" fill="none" xmlns="http://www.w3.org/2000/svg">
<path d="M9.09318 3.15901C7.95749 2.64795 6.66053 3.42659 6.57767 4.6692L6.49851 5.85631H5.64197C5.44465 5.85631 5.28469 6.01627 5.28469 6.21359C5.28469 6.41091 5.44465 6.57087 5.64197 6.57087H6.45086L6.13662 11.2833C6.08691 12.0288 5.30873 12.496 4.62732 12.1894L4.35921 12.0687C4.17927 11.9877 3.96775 12.068 3.88678 12.2479C3.80581 12.4279 3.88604 12.6394 4.06598 12.7203L4.33409 12.841C5.46977 13.352 6.76674 12.5734 6.8496 11.3308L7.167 6.57087H8.5002C8.69752 6.57087 8.85748 6.41091 8.85748 6.21359C8.85748 6.01627 8.69752 5.85631 8.5002 5.85631H7.21465L7.29064 4.71675C7.34036 3.97118 8.11854 3.504 8.79995 3.81063L9.06806 3.93128C9.248 4.01225 9.45951 3.93202 9.54048 3.75208C9.62145 3.57214 9.54123 3.36063 9.36129 3.27966L9.09318 3.15901Z" fill="white"/>
<path d="M8.97125 8.03421C9.05454 7.95092 9.19423 7.96963 9.25267 8.0719L10.1983 9.72674L8.24762 11.6774C8.10809 11.8169 8.10809 12.0432 8.24762 12.1827C8.38715 12.3222 8.61336 12.3222 8.75289 12.1827L10.5658 10.3698L11.4147 11.8554C11.7069 12.3667 12.4053 12.4603 12.8218 12.0438L13.0402 11.8254C13.1797 11.6859 13.1797 11.4597 13.0402 11.3201C12.9007 11.1806 12.6744 11.1806 12.5349 11.3201L12.3165 11.5386C12.2332 11.6219 12.0935 11.6031 12.0351 11.5009L11.0895 9.84609L13.0402 7.89534C13.1798 7.75582 13.1798 7.5296 13.0402 7.39007C12.9007 7.25055 12.6745 7.25055 12.535 7.39007L10.722 9.20302L9.87308 7.71738C9.58088 7.20603 8.88243 7.11249 8.46598 7.52894L8.24757 7.74736C8.10804 7.88689 8.10804 8.1131 8.24757 8.25263C8.38709 8.39215 8.61331 8.39215 8.75283 8.25263L8.97125 8.03421Z" fill="white"/>
</svg>
