<svg width="11" height="10" viewBox="0 0 11 10" fill="none" xmlns="http://www.w3.org/2000/svg">
<path d="M6.09342 0.159009C4.95774 -0.352048 3.66077 0.426588 3.57791 1.6692L3.49875 2.85631H2.64221C2.44489 2.85631 2.28493 3.01627 2.28493 3.21359C2.28493 3.41091 2.44489 3.57087 2.64221 3.57087H3.4511L3.13687 8.28326C3.08715 9.02882 2.30897 9.49601 1.62756 9.18937L1.35945 9.06872C1.17951 8.98775 0.967999 9.06798 0.887026 9.24792C0.806053 9.42786 0.886281 9.63937 1.06622 9.72034L1.33433 9.84099C2.47001 10.352 3.76698 9.57341 3.84984 8.3308L4.16725 3.57087H5.50044C5.69776 3.57087 5.85772 3.41091 5.85772 3.21359C5.85772 3.01627 5.69776 2.85631 5.50044 2.85631H4.2149L4.29088 1.71675C4.3406 0.971177 5.11878 0.503995 5.80019 0.81063L6.0683 0.93128C6.24824 1.01225 6.45975 0.932024 6.54073 0.752084C6.6217 0.572144 6.54147 0.360632 6.36153 0.279659L6.09342 0.159009Z" fill="white"/>
<path d="M5.97149 5.03421C6.05478 4.95092 6.19447 4.96963 6.25291 5.0719L7.19854 6.72674L5.24786 8.67742C5.10834 8.81695 5.10834 9.04316 5.24786 9.18269C5.38739 9.32222 5.61361 9.32222 5.75313 9.18269L7.56601 7.36981L8.41491 8.8554C8.70711 9.36675 9.40556 9.46028 9.82201 9.04383L10.0404 8.82542C10.18 8.68589 10.18 8.45967 10.0404 8.32015C9.9009 8.18062 9.67468 8.18062 9.53516 8.32015L9.31674 8.53856C9.23345 8.62185 9.09376 8.60315 9.03532 8.50088L8.08973 6.84609L10.0405 4.89534C10.18 4.75582 10.18 4.5296 10.0405 4.39007C9.90095 4.25055 9.67474 4.25055 9.53521 4.39007L7.72226 6.20302L6.87332 4.71738C6.58112 4.20603 5.88268 4.11249 5.46623 4.52894L5.24781 4.74736C5.10828 4.88689 5.10828 5.1131 5.24781 5.25263C5.38734 5.39215 5.61355 5.39215 5.75308 5.25263L5.97149 5.03421Z" fill="white"/>
</svg>
