<svg width="17" height="16" viewBox="0 0 17 16" fill="none" xmlns="http://www.w3.org/2000/svg">
<g clip-path="url(#clip0_6859_4239)">
<path d="M9.16669 4.94355V9.9998C9.16669 10.3686 8.86877 10.6665 8.50002 10.6665C8.13127 10.6665 7.83335 10.3686 7.83335 9.9998V4.94355L6.30419 6.47272C6.04377 6.73314 5.62085 6.73314 5.36044 6.47272C5.10002 6.2123 5.10002 5.78939 5.36044 5.52897L8.0271 2.8623C8.28752 2.60189 8.71044 2.60189 8.97085 2.8623L11.6375 5.52897C11.8979 5.78939 11.8979 6.2123 11.6375 6.47272C11.3771 6.73314 10.9542 6.73314 10.6938 6.47272L9.16669 4.94355ZM4.50002 9.9998H7.16669C7.16669 10.7352 7.7646 11.3331 8.50002 11.3331C9.23544 11.3331 9.83335 10.7352 9.83335 9.9998H12.5C13.2354 9.9998 13.8334 10.5977 13.8334 11.3331V11.9998C13.8334 12.7352 13.2354 13.3331 12.5 13.3331H4.50002C3.7646 13.3331 3.16669 12.7352 3.16669 11.9998V11.3331C3.16669 10.5977 3.7646 9.9998 4.50002 9.9998ZM12.1667 12.1665C12.2993 12.1665 12.4265 12.1138 12.5202 12.02C12.614 11.9263 12.6667 11.7991 12.6667 11.6665C12.6667 11.5339 12.614 11.4067 12.5202 11.3129C12.4265 11.2191 12.2993 11.1665 12.1667 11.1665C12.0341 11.1665 11.9069 11.2191 11.8131 11.3129C11.7194 11.4067 11.6667 11.5339 11.6667 11.6665C11.6667 11.7991 11.7194 11.9263 11.8131 12.02C11.9069 12.1138 12.0341 12.1665 12.1667 12.1665Z" fill="#1193F0"/>
</g>
<defs>
<clipPath id="clip0_6859_4239">
<rect width="10.6667" height="10.6667" fill="white" transform="translate(3.16669 2.6665)"/>
</clipPath>
</defs>
</svg>
