<svg width="237" height="184" viewBox="0 0 237 184" fill="none" xmlns="http://www.w3.org/2000/svg">
<path d="M12 4C12 1.79086 13.7909 0 16 0H201C203.209 0 205 1.79086 205 4V24C205 26.2091 203.209 28 201 28H16C13.7909 28 12 26.2091 12 24V4Z" fill="#181C26"/>
<path d="M36.5045 7.11661C36.1924 6.93379 35.8059 6.93379 35.4937 7.11661L29.4848 10.6361C28.8246 11.0228 28.8256 11.9776 29.4867 12.3629L35.4956 15.8652C35.8068 16.0466 36.1915 16.0466 36.5027 15.8652L42.5116 12.3629C43.1727 11.9776 43.1737 11.0228 42.5134 10.6361L36.5045 7.11661ZM35.4937 8.27551C35.8059 8.09269 36.1924 8.09269 36.5045 8.27551L42.008 11.499L36.5027 14.7078C36.1915 14.8892 35.8068 14.8892 35.4956 14.7078L29.9902 11.499L35.4937 8.27551ZM29.0707 13.65L35.5088 17.2725C35.8132 17.4438 36.185 17.4438 36.4895 17.2725L42.9275 13.65C43.1145 14.0883 42.9757 14.6395 42.5116 14.91L36.5027 18.4123C36.1915 18.5937 35.8068 18.5937 35.4956 18.4123L29.4867 14.91C29.0225 14.6395 28.8838 14.0883 29.0707 13.65ZM29.0707 16.103L35.5088 19.7254C35.8132 19.8967 36.185 19.8967 36.4895 19.7254L42.9275 16.103C43.1145 16.5412 42.9757 17.0924 42.5116 17.3629L36.5027 20.8653C36.1915 21.0467 35.8068 21.0467 35.4956 20.8653L29.4867 17.3629C29.0225 17.0924 28.8838 16.5412 29.0707 16.103Z" fill="#316CF6"/>
<path d="M64.0327 9.27273V18H62.6264L58.5142 12.0554H58.4418V18H56.8608V9.27273H58.2756L62.3835 15.2216H62.4602V9.27273H64.0327ZM68.5423 18.1278C67.9031 18.1278 67.3491 17.9872 66.8803 17.706C66.4116 17.4247 66.0479 17.0312 65.7894 16.5256C65.5337 16.0199 65.4059 15.429 65.4059 14.7528C65.4059 14.0767 65.5337 13.4844 65.7894 12.9759C66.0479 12.4673 66.4116 12.0724 66.8803 11.7912C67.3491 11.5099 67.9031 11.3693 68.5423 11.3693C69.1815 11.3693 69.7354 11.5099 70.2042 11.7912C70.6729 12.0724 71.0352 12.4673 71.2908 12.9759C71.5494 13.4844 71.6786 14.0767 71.6786 14.7528C71.6786 15.429 71.5494 16.0199 71.2908 16.5256C71.0352 17.0312 70.6729 17.4247 70.2042 17.706C69.7354 17.9872 69.1815 18.1278 68.5423 18.1278ZM68.5508 16.892C68.8974 16.892 69.1871 16.7969 69.4201 16.6065C69.6531 16.4134 69.8263 16.1548 69.94 15.831C70.0565 15.5071 70.1147 15.1463 70.1147 14.7486C70.1147 14.348 70.0565 13.9858 69.94 13.6619C69.8263 13.3352 69.6531 13.0753 69.4201 12.8821C69.1871 12.6889 68.8974 12.5923 68.5508 12.5923C68.1957 12.5923 67.9002 12.6889 67.6644 12.8821C67.4315 13.0753 67.2567 13.3352 67.1403 13.6619C67.0266 13.9858 66.9698 14.348 66.9698 14.7486C66.9698 15.1463 67.0266 15.5071 67.1403 15.831C67.2567 16.1548 67.4315 16.4134 67.6644 16.6065C67.9002 16.7969 68.1957 16.892 68.5508 16.892ZM76.0327 18V9.27273H81.7088V10.598H77.6136V12.9673H81.4148V14.2926H77.6136V16.6747H81.7429V18H76.0327ZM84.7962 14.1648V18H83.2536V11.4545H84.728V12.5668H84.8047C84.9553 12.2003 85.1953 11.9091 85.5249 11.6932C85.8572 11.4773 86.2678 11.3693 86.7564 11.3693C87.2081 11.3693 87.6016 11.4659 87.9368 11.6591C88.2749 11.8523 88.5362 12.1321 88.7209 12.4986C88.9084 12.8651 89.0007 13.3097 88.9979 13.8324V18H87.4553V14.071C87.4553 13.6335 87.3416 13.2912 87.1143 13.044C86.8899 12.7969 86.5788 12.6733 86.1811 12.6733C85.9112 12.6733 85.6712 12.733 85.4609 12.8523C85.2536 12.9687 85.0902 13.1378 84.9709 13.3594C84.8544 13.581 84.7962 13.8494 84.7962 14.1648ZM96.1783 11.4545L93.8473 18H92.1428L89.8118 11.4545H91.4567L92.9609 16.3168H93.0291L94.5376 11.4545H96.1783ZM97.2457 18V11.4545H98.7884V18H97.2457ZM98.0213 10.5256C97.777 10.5256 97.5668 10.4446 97.3906 10.2827C97.2145 10.1179 97.1264 9.92045 97.1264 9.69034C97.1264 9.45739 97.2145 9.25994 97.3906 9.09801C97.5668 8.93324 97.777 8.85085 98.0213 8.85085C98.2685 8.85085 98.4787 8.93324 98.652 9.09801C98.8281 9.25994 98.9162 9.45739 98.9162 9.69034C98.9162 9.92045 98.8281 10.1179 98.652 10.2827C98.4787 10.4446 98.2685 10.5256 98.0213 10.5256ZM100.375 18V11.4545H101.87V12.5455H101.939C102.058 12.1676 102.262 11.8764 102.552 11.6719C102.845 11.4645 103.179 11.3608 103.554 11.3608C103.639 11.3608 103.734 11.3651 103.839 11.3736C103.947 11.3793 104.037 11.3892 104.108 11.4034V12.8224C104.042 12.7997 103.939 12.7798 103.797 12.7628C103.657 12.7429 103.522 12.733 103.392 12.733C103.11 12.733 102.858 12.794 102.633 12.9162C102.412 13.0355 102.237 13.2017 102.109 13.4148C101.981 13.6278 101.917 13.8736 101.917 14.152V18H100.375ZM107.718 18.1278C107.079 18.1278 106.525 17.9872 106.056 17.706C105.587 17.4247 105.224 17.0312 104.965 16.5256C104.71 16.0199 104.582 15.429 104.582 14.7528C104.582 14.0767 104.71 13.4844 104.965 12.9759C105.224 12.4673 105.587 12.0724 106.056 11.7912C106.525 11.5099 107.079 11.3693 107.718 11.3693C108.357 11.3693 108.911 11.5099 109.38 11.7912C109.849 12.0724 110.211 12.4673 110.467 12.9759C110.725 13.4844 110.854 14.0767 110.854 14.7528C110.854 15.429 110.725 16.0199 110.467 16.5256C110.211 17.0312 109.849 17.4247 109.38 17.706C108.911 17.9872 108.357 18.1278 107.718 18.1278ZM107.727 16.892C108.073 16.892 108.363 16.7969 108.596 16.6065C108.829 16.4134 109.002 16.1548 109.116 15.831C109.232 15.5071 109.29 15.1463 109.29 14.7486C109.29 14.348 109.232 13.9858 109.116 13.6619C109.002 13.3352 108.829 13.0753 108.596 12.8821C108.363 12.6889 108.073 12.5923 107.727 12.5923C107.371 12.5923 107.076 12.6889 106.84 12.8821C106.607 13.0753 106.433 13.3352 106.316 13.6619C106.202 13.9858 106.146 14.348 106.146 14.7486C106.146 15.1463 106.202 15.5071 106.316 15.831C106.433 16.1548 106.607 16.4134 106.84 16.6065C107.076 16.7969 107.371 16.892 107.727 16.892ZM113.706 14.1648V18H112.164V11.4545H113.638V12.5668H113.715C113.865 12.2003 114.105 11.9091 114.435 11.6932C114.767 11.4773 115.178 11.3693 115.667 11.3693C116.118 11.3693 116.512 11.4659 116.847 11.6591C117.185 11.8523 117.446 12.1321 117.631 12.4986C117.819 12.8651 117.911 13.3097 117.908 13.8324V18H116.365V14.071C116.365 13.6335 116.252 13.2912 116.025 13.044C115.8 12.7969 115.489 12.6733 115.091 12.6733C114.821 12.6733 114.581 12.733 114.371 12.8523C114.164 12.9687 114 13.1378 113.881 13.3594C113.765 13.581 113.706 13.8494 113.706 14.1648ZM119.476 18V11.4545H120.951V12.5668H121.027C121.164 12.1918 121.39 11.8991 121.705 11.6889C122.02 11.4759 122.397 11.3693 122.834 11.3693C123.277 11.3693 123.651 11.4773 123.955 11.6932C124.262 11.9062 124.478 12.1974 124.603 12.5668H124.671C124.816 12.2031 125.06 11.9134 125.404 11.6974C125.75 11.4787 126.161 11.3693 126.635 11.3693C127.238 11.3693 127.729 11.5597 128.11 11.9403C128.49 12.321 128.681 12.8764 128.681 13.6065V18H127.134V13.8452C127.134 13.4389 127.026 13.142 126.81 12.9545C126.594 12.7642 126.33 12.669 126.017 12.669C125.645 12.669 125.354 12.7855 125.144 13.0185C124.936 13.2486 124.833 13.5483 124.833 13.9176V18H123.32V13.7812C123.32 13.4432 123.218 13.1733 123.013 12.9716C122.811 12.7699 122.547 12.669 122.221 12.669C121.999 12.669 121.797 12.7259 121.615 12.8395C121.434 12.9503 121.289 13.108 121.181 13.3125C121.073 13.5142 121.019 13.75 121.019 14.0199V18H119.476ZM133.143 18.1278C132.487 18.1278 131.92 17.9915 131.443 17.7188C130.969 17.4432 130.604 17.054 130.348 16.5511C130.092 16.0455 129.964 15.4503 129.964 14.7656C129.964 14.0923 130.092 13.5014 130.348 12.9929C130.607 12.4815 130.967 12.0838 131.43 11.7997C131.893 11.5128 132.438 11.3693 133.062 11.3693C133.466 11.3693 133.847 11.4347 134.205 11.5653C134.565 11.6932 134.884 11.892 135.159 12.1619C135.438 12.4318 135.656 12.7756 135.815 13.1932C135.974 13.608 136.054 14.1023 136.054 14.6761V15.1491H130.689V14.1094H134.575C134.572 13.8139 134.509 13.5511 134.384 13.321C134.259 13.0881 134.084 12.9048 133.859 12.7713C133.638 12.6378 133.379 12.571 133.084 12.571C132.768 12.571 132.491 12.6477 132.253 12.8011C132.014 12.9517 131.828 13.1506 131.695 13.3977C131.564 13.642 131.497 13.9105 131.494 14.2031V15.1108C131.494 15.4915 131.564 15.8182 131.703 16.0909C131.842 16.3608 132.037 16.5682 132.287 16.7131C132.537 16.8551 132.83 16.9261 133.165 16.9261C133.389 16.9261 133.592 16.8949 133.774 16.8324C133.956 16.767 134.114 16.6719 134.247 16.5469C134.381 16.4219 134.482 16.267 134.55 16.0824L135.99 16.2443C135.899 16.625 135.726 16.9574 135.47 17.2415C135.217 17.5227 134.893 17.7415 134.499 17.8977C134.104 18.0511 133.652 18.1278 133.143 18.1278ZM138.902 14.1648V18H137.359V11.4545H138.833V12.5668H138.91C139.061 12.2003 139.301 11.9091 139.63 11.6932C139.963 11.4773 140.373 11.3693 140.862 11.3693C141.314 11.3693 141.707 11.4659 142.042 11.6591C142.38 11.8523 142.642 12.1321 142.826 12.4986C143.014 12.8651 143.106 13.3097 143.103 13.8324V18H141.561V14.071C141.561 13.6335 141.447 13.2912 141.22 13.044C140.995 12.7969 140.684 12.6733 140.287 12.6733C140.017 12.6733 139.777 12.733 139.566 12.8523C139.359 12.9687 139.196 13.1378 139.076 13.3594C138.96 13.581 138.902 13.8494 138.902 14.1648ZM147.94 11.4545V12.6477H144.177V11.4545H147.94ZM145.106 9.88636H146.649V16.0312C146.649 16.2386 146.68 16.3977 146.743 16.5085C146.808 16.6165 146.893 16.6903 146.998 16.7301C147.103 16.7699 147.22 16.7898 147.348 16.7898C147.444 16.7898 147.532 16.7827 147.612 16.7685C147.694 16.7543 147.757 16.7415 147.799 16.7301L148.059 17.9361C147.977 17.9645 147.859 17.9957 147.706 18.0298C147.555 18.0639 147.37 18.0838 147.152 18.0895C146.765 18.1009 146.417 18.0426 146.108 17.9148C145.798 17.7841 145.552 17.5824 145.37 17.3097C145.191 17.0369 145.103 16.696 145.106 16.2869V9.88636Z" fill="#D8D8D9"/>
<path d="M181.957 16.9989C181.149 16.9989 180.675 16.0909 181.136 15.4278L183.769 11.6434C184.365 10.7855 185.634 10.7856 186.231 11.6434L188.864 15.4278C189.325 16.0909 188.851 16.9989 188.043 16.9989H181.957Z" fill="white"/>
<g filter="url(#filter0_d_2147_6813)">
<path d="M14 36C14 33.7909 15.7909 32 18 32H201C203.209 32 205 33.7909 205 36V140C205 142.209 203.209 144 201 144H18C15.7909 144 14 142.209 14 140V36Z" fill="#181C26" shape-rendering="crispEdges"/>
<path d="M18 40C18 37.7909 19.7909 36 22 36H197C199.209 36 201 37.7909 201 40V64C201 66.2091 199.209 68 197 68H22C19.7909 68 18 66.2091 18 64V40Z" fill="#181C26"/>
<path d="M30.9588 56V47.2727H36.4304V48.4062H32.2756V51.0653H36.1449V52.1946H32.2756V54.8665H36.4815V56H30.9588ZM39.3612 52.1136V56H38.087V49.4545H39.31V50.5199H39.391C39.5415 50.1733 39.7773 49.8949 40.0984 49.6847C40.4222 49.4744 40.8299 49.3693 41.3214 49.3693C41.7674 49.3693 42.158 49.4631 42.4933 49.6506C42.8285 49.8352 43.0884 50.1108 43.2731 50.4773C43.4577 50.8437 43.5501 51.2969 43.5501 51.8366V56H42.2759V51.9901C42.2759 51.5156 42.1523 51.1449 41.9052 50.8778C41.658 50.608 41.3185 50.473 40.8867 50.473C40.5913 50.473 40.3285 50.5369 40.0984 50.6648C39.8711 50.7926 39.6907 50.9801 39.5572 51.2273C39.4265 51.4716 39.3612 51.767 39.3612 52.1136ZM50.6239 49.4545L48.2504 56H46.8867L44.5089 49.4545H45.8768L47.5344 54.4915H47.6026L49.256 49.4545H50.6239ZM51.8214 56V49.4545H53.0955V56H51.8214ZM52.4648 48.4446C52.2433 48.4446 52.0529 48.3707 51.8938 48.223C51.7376 48.0724 51.6594 47.8935 51.6594 47.6861C51.6594 47.4759 51.7376 47.2969 51.8938 47.1491C52.0529 46.9986 52.2433 46.9233 52.4648 46.9233C52.6864 46.9233 52.8754 46.9986 53.0316 47.1491C53.1907 47.2969 53.2702 47.4759 53.2702 47.6861C53.2702 47.8935 53.1907 48.0724 53.0316 48.223C52.8754 48.3707 52.6864 48.4446 52.4648 48.4446ZM54.8097 56V49.4545H56.0412V50.4943H56.1094C56.2287 50.142 56.4389 49.8651 56.7401 49.6634C57.044 49.4588 57.3878 49.3565 57.7713 49.3565C57.8509 49.3565 57.9446 49.3594 58.0526 49.3651C58.1634 49.3707 58.25 49.3778 58.3125 49.3864V50.6051C58.2614 50.5909 58.1705 50.5753 58.0398 50.5582C57.9091 50.5384 57.7784 50.5284 57.6477 50.5284C57.3466 50.5284 57.0781 50.5923 56.8423 50.7202C56.6094 50.8452 56.4247 51.0199 56.2884 51.2443C56.152 51.4659 56.0838 51.7187 56.0838 52.0028V56H54.8097ZM61.9379 56.1321C61.3242 56.1321 60.7887 55.9915 60.3313 55.7102C59.8739 55.429 59.5188 55.0355 59.266 54.5298C59.0131 54.0241 58.8867 53.4332 58.8867 52.7571C58.8867 52.0781 59.0131 51.4844 59.266 50.9759C59.5188 50.4673 59.8739 50.0724 60.3313 49.7912C60.7887 49.5099 61.3242 49.3693 61.9379 49.3693C62.5515 49.3693 63.087 49.5099 63.5444 49.7912C64.0018 50.0724 64.3569 50.4673 64.6097 50.9759C64.8626 51.4844 64.989 52.0781 64.989 52.7571C64.989 53.4332 64.8626 54.0241 64.6097 54.5298C64.3569 55.0355 64.0018 55.429 63.5444 55.7102C63.087 55.9915 62.5515 56.1321 61.9379 56.1321ZM61.9421 55.0625C62.3398 55.0625 62.6694 54.9574 62.9308 54.7472C63.1921 54.5369 63.3853 54.2571 63.5103 53.9077C63.6381 53.5582 63.7021 53.1733 63.7021 52.7528C63.7021 52.3352 63.6381 51.9517 63.5103 51.6023C63.3853 51.25 63.1921 50.9673 62.9308 50.7543C62.6694 50.5412 62.3398 50.4347 61.9421 50.4347C61.5415 50.4347 61.2092 50.5412 60.945 50.7543C60.6836 50.9673 60.489 51.25 60.3612 51.6023C60.2362 51.9517 60.1737 52.3352 60.1737 52.7528C60.1737 53.1733 60.2362 53.5582 60.3612 53.9077C60.489 54.2571 60.6836 54.5369 60.945 54.7472C61.2092 54.9574 61.5415 55.0625 61.9421 55.0625ZM67.6854 52.1136V56H66.4112V49.4545H67.6342V50.5199H67.7152C67.8658 50.1733 68.1016 49.8949 68.4226 49.6847C68.7464 49.4744 69.1541 49.3693 69.6456 49.3693C70.0916 49.3693 70.4822 49.4631 70.8175 49.6506C71.1527 49.8352 71.4126 50.1108 71.5973 50.4773C71.782 50.8437 71.8743 51.2969 71.8743 51.8366V56H70.6001V51.9901C70.6001 51.5156 70.4766 51.1449 70.2294 50.8778C69.9822 50.608 69.6428 50.473 69.2109 50.473C68.9155 50.473 68.6527 50.5369 68.4226 50.6648C68.1953 50.7926 68.0149 50.9801 67.8814 51.2273C67.7507 51.4716 67.6854 51.767 67.6854 52.1136ZM73.5831 56V49.4545H74.8061V50.5199H74.8871C75.0234 50.1591 75.2464 49.8778 75.5561 49.6761C75.8658 49.4716 76.2365 49.3693 76.6683 49.3693C77.1058 49.3693 77.4723 49.4716 77.7678 49.6761C78.0661 49.8807 78.2862 50.1619 78.4283 50.5199H78.4964C78.6527 50.1705 78.9013 49.892 79.2422 49.6847C79.5831 49.4744 79.9893 49.3693 80.4609 49.3693C81.0547 49.3693 81.5391 49.5554 81.9141 49.9276C82.2919 50.2997 82.4808 50.8608 82.4808 51.6108V56H81.2067V51.7301C81.2067 51.2869 81.0859 50.9659 80.8445 50.767C80.603 50.5682 80.3146 50.4688 79.9794 50.4688C79.5646 50.4688 79.2422 50.5966 79.0121 50.8523C78.782 51.1051 78.6669 51.4304 78.6669 51.8281V56H77.397V51.6491C77.397 51.294 77.2862 51.0085 77.0646 50.7926C76.843 50.5767 76.5547 50.4688 76.1996 50.4688C75.9581 50.4688 75.7351 50.5327 75.5305 50.6605C75.3288 50.7855 75.1655 50.9602 75.0405 51.1847C74.9183 51.4091 74.8572 51.669 74.8572 51.9645V56H73.5831ZM87.0096 56.1321C86.3647 56.1321 85.8093 55.9943 85.3434 55.7188C84.8803 55.4403 84.5224 55.0497 84.2695 54.5469C84.0195 54.0412 83.8945 53.4489 83.8945 52.7699C83.8945 52.0994 84.0195 51.5085 84.2695 50.9972C84.5224 50.4858 84.8746 50.0866 85.3263 49.7997C85.7809 49.5128 86.3121 49.3693 86.9201 49.3693C87.2894 49.3693 87.6474 49.4304 87.994 49.5526C88.3406 49.6747 88.6516 49.8665 88.9272 50.1278C89.2028 50.3892 89.4201 50.7287 89.5792 51.1463C89.7383 51.5611 89.8178 52.0653 89.8178 52.6591V53.1108H84.6147V52.1562H88.5692C88.5692 51.821 88.5011 51.5241 88.3647 51.2656C88.2283 51.0043 88.0366 50.7983 87.7894 50.6477C87.5451 50.4972 87.2582 50.4219 86.9286 50.4219C86.5707 50.4219 86.2582 50.5099 85.9911 50.6861C85.7269 50.8594 85.5224 51.0866 85.3775 51.3679C85.2354 51.6463 85.1644 51.9489 85.1644 52.2756V53.0213C85.1644 53.4588 85.2411 53.831 85.3945 54.1378C85.5508 54.4446 85.7681 54.679 86.0465 54.8409C86.3249 55 86.6502 55.0795 87.0224 55.0795C87.2638 55.0795 87.484 55.0455 87.6829 54.9773C87.8817 54.9062 88.0536 54.8011 88.1985 54.6619C88.3434 54.5227 88.4542 54.3509 88.5309 54.1463L89.7369 54.3636C89.6403 54.7187 89.467 55.0298 89.217 55.2969C88.9698 55.5611 88.6587 55.767 88.2837 55.9148C87.9116 56.0597 87.4869 56.1321 87.0096 56.1321ZM92.5057 52.1136V56H91.2315V49.4545H92.4545V50.5199H92.5355C92.6861 50.1733 92.9219 49.8949 93.2429 49.6847C93.5668 49.4744 93.9744 49.3693 94.4659 49.3693C94.9119 49.3693 95.3026 49.4631 95.6378 49.6506C95.973 49.8352 96.233 50.1108 96.4176 50.4773C96.6023 50.8437 96.6946 51.2969 96.6946 51.8366V56H95.4205V51.9901C95.4205 51.5156 95.2969 51.1449 95.0497 50.8778C94.8026 50.608 94.4631 50.473 94.0312 50.473C93.7358 50.473 93.473 50.5369 93.2429 50.6648C93.0156 50.7926 92.8352 50.9801 92.7017 51.2273C92.571 51.4716 92.5057 51.767 92.5057 52.1136ZM101.459 49.4545V50.4773H97.8835V49.4545H101.459ZM98.8423 47.8864H100.116V54.0781C100.116 54.3253 100.153 54.5114 100.227 54.6364C100.301 54.7585 100.396 54.8423 100.513 54.8878C100.632 54.9304 100.761 54.9517 100.901 54.9517C101.003 54.9517 101.092 54.9446 101.169 54.9304C101.246 54.9162 101.305 54.9048 101.348 54.8963L101.578 55.9489C101.504 55.9773 101.399 56.0057 101.263 56.0341C101.126 56.0653 100.956 56.0824 100.751 56.0852C100.416 56.0909 100.104 56.0312 99.8139 55.9062C99.5241 55.7812 99.2898 55.5881 99.1108 55.3267C98.9318 55.0653 98.8423 54.7372 98.8423 54.3423V47.8864ZM109.338 47.2727V56H108.017V48.5938H107.966L105.878 49.9574V48.696L108.055 47.2727H109.338Z" fill="white"/>
<path d="M18 76C18 73.7909 19.7909 72 22 72H197C199.209 72 201 73.7909 201 76V100C201 102.209 199.209 104 197 104H22C19.7909 104 18 102.209 18 100V76Z" fill="#181C26"/>
<path d="M30.5284 84.4062V83.2727H37.2827V84.4062H34.5597V92H33.2472V84.4062H30.5284ZM40.5447 92.1321C39.8999 92.1321 39.3445 91.9943 38.8786 91.7188C38.4155 91.4403 38.0575 91.0497 37.8047 90.5469C37.5547 90.0412 37.4297 89.4489 37.4297 88.7699C37.4297 88.0994 37.5547 87.5085 37.8047 86.9972C38.0575 86.4858 38.4098 86.0866 38.8615 85.7997C39.3161 85.5128 39.8473 85.3693 40.4553 85.3693C40.8246 85.3693 41.1825 85.4304 41.5291 85.5526C41.8757 85.6747 42.1868 85.8665 42.4624 86.1278C42.7379 86.3892 42.9553 86.7287 43.1143 87.1463C43.2734 87.5611 43.353 88.0653 43.353 88.6591V89.1108H38.1499V88.1562H42.1044C42.1044 87.821 42.0362 87.5241 41.8999 87.2656C41.7635 87.0043 41.5717 86.7983 41.3246 86.6477C41.0803 86.4972 40.7933 86.4219 40.4638 86.4219C40.1058 86.4219 39.7933 86.5099 39.5263 86.6861C39.2621 86.8594 39.0575 87.0866 38.9126 87.3679C38.7706 87.6463 38.6996 87.9489 38.6996 88.2756V89.0213C38.6996 89.4588 38.7763 89.831 38.9297 90.1378C39.0859 90.4446 39.3033 90.679 39.5817 90.8409C39.8601 91 40.1854 91.0795 40.5575 91.0795C40.799 91.0795 41.0192 91.0455 41.218 90.9773C41.4169 90.9062 41.5888 90.8011 41.7337 90.6619C41.8786 90.5227 41.9893 90.3509 42.0661 90.1463L43.272 90.3636C43.1754 90.7187 43.0021 91.0298 42.7521 91.2969C42.505 91.5611 42.1939 91.767 41.8189 91.9148C41.4467 92.0597 41.022 92.1321 40.5447 92.1321ZM49.6715 87.0526L48.5167 87.2571C48.4684 87.1094 48.3917 86.9687 48.2866 86.8352C48.1843 86.7017 48.0451 86.5923 47.869 86.5071C47.6928 86.4219 47.4727 86.3793 47.2085 86.3793C46.8477 86.3793 46.5465 86.4602 46.305 86.6222C46.0636 86.7812 45.9428 86.9872 45.9428 87.2401C45.9428 87.4588 46.0238 87.6349 46.1857 87.7685C46.3477 87.902 46.609 88.0114 46.9698 88.0966L48.0096 88.3352C48.6119 88.4744 49.0607 88.6889 49.3562 88.9787C49.6516 89.2685 49.7994 89.6449 49.7994 90.108C49.7994 90.5 49.6857 90.8494 49.4585 91.1562C49.234 91.4602 48.9201 91.6989 48.5167 91.8722C48.1161 92.0455 47.6516 92.1321 47.1232 92.1321C46.3903 92.1321 45.7923 91.9759 45.3292 91.6634C44.8661 91.348 44.582 90.9006 44.4769 90.321L45.7085 90.1335C45.7852 90.4545 45.9428 90.6974 46.1815 90.8622C46.4201 91.0241 46.7312 91.1051 47.1147 91.1051C47.5323 91.1051 47.8661 91.0185 48.1161 90.8452C48.3661 90.669 48.4911 90.4545 48.4911 90.2017C48.4911 89.9972 48.4144 89.8253 48.261 89.6861C48.1104 89.5469 47.8789 89.4418 47.5664 89.3707L46.4585 89.1278C45.8477 88.9886 45.396 88.767 45.1033 88.4631C44.8136 88.1591 44.6687 87.7741 44.6687 87.3082C44.6687 86.9219 44.7766 86.5838 44.9925 86.294C45.2085 86.0043 45.5067 85.7784 45.8874 85.6165C46.2681 85.4517 46.7042 85.3693 47.1957 85.3693C47.9031 85.3693 48.4599 85.5227 48.8661 85.8295C49.2724 86.1335 49.5408 86.5412 49.6715 87.0526ZM54.2557 85.4545V86.4773H50.6804V85.4545H54.2557ZM51.6392 83.8864H52.9134V90.0781C52.9134 90.3253 52.9503 90.5114 53.0241 90.6364C53.098 90.7585 53.1932 90.8423 53.3097 90.8878C53.429 90.9304 53.5582 90.9517 53.6974 90.9517C53.7997 90.9517 53.8892 90.9446 53.9659 90.9304C54.0426 90.9162 54.1023 90.9048 54.1449 90.8963L54.375 91.9489C54.3011 91.9773 54.196 92.0057 54.0597 92.0341C53.9233 92.0653 53.7528 92.0824 53.5483 92.0852C53.2131 92.0909 52.9006 92.0312 52.6108 91.9062C52.321 91.7812 52.0866 91.5881 51.9077 91.3267C51.7287 91.0653 51.6392 90.7372 51.6392 90.3423V83.8864ZM63.3484 87.6364C63.3484 88.5682 63.1779 89.3693 62.837 90.0398C62.4961 90.7074 62.0288 91.2216 61.435 91.5824C60.8441 91.9403 60.1722 92.1193 59.4194 92.1193C58.6637 92.1193 57.989 91.9403 57.3952 91.5824C56.8043 91.2216 56.3384 90.706 55.9975 90.0355C55.6566 89.3651 55.4862 88.5653 55.4862 87.6364C55.4862 86.7045 55.6566 85.9048 55.9975 85.2372C56.3384 84.5668 56.8043 84.0526 57.3952 83.6946C57.989 83.3338 58.6637 83.1534 59.4194 83.1534C60.1722 83.1534 60.8441 83.3338 61.435 83.6946C62.0288 84.0526 62.4961 84.5668 62.837 85.2372C63.1779 85.9048 63.3484 86.7045 63.3484 87.6364ZM62.0444 87.6364C62.0444 86.9261 61.9293 86.3281 61.6992 85.8423C61.4719 85.3537 61.1594 84.9844 60.7617 84.7344C60.3668 84.4815 59.9194 84.3551 59.4194 84.3551C58.9165 84.3551 58.4677 84.4815 58.0728 84.7344C57.6779 84.9844 57.3654 85.3537 57.1353 85.8423C56.908 86.3281 56.7944 86.9261 56.7944 87.6364C56.7944 88.3466 56.908 88.946 57.1353 89.4347C57.3654 89.9205 57.6779 90.2898 58.0728 90.5426C58.4677 90.7926 58.9165 90.9176 59.4194 90.9176C59.9194 90.9176 60.3668 90.7926 60.7617 90.5426C61.1594 90.2898 61.4719 89.9205 61.6992 89.4347C61.9293 88.946 62.0444 88.3466 62.0444 87.6364ZM70.4872 85.4545L68.1136 92H66.75L64.3722 85.4545H65.7401L67.3977 90.4915H67.4659L69.1193 85.4545H70.4872ZM74.283 92.1321C73.6381 92.1321 73.0827 91.9943 72.6168 91.7188C72.1538 91.4403 71.7958 91.0497 71.543 90.5469C71.293 90.0412 71.168 89.4489 71.168 88.7699C71.168 88.0994 71.293 87.5085 71.543 86.9972C71.7958 86.4858 72.1481 86.0866 72.5998 85.7997C73.0543 85.5128 73.5856 85.3693 74.1935 85.3693C74.5629 85.3693 74.9208 85.4304 75.2674 85.5526C75.614 85.6747 75.9251 85.8665 76.2006 86.1278C76.4762 86.3892 76.6935 86.7287 76.8526 87.1463C77.0117 87.5611 77.0913 88.0653 77.0913 88.6591V89.1108H71.8881V88.1562H75.8427C75.8427 87.821 75.7745 87.5241 75.6381 87.2656C75.5018 87.0043 75.31 86.7983 75.0629 86.6477C74.8185 86.4972 74.5316 86.4219 74.2021 86.4219C73.8441 86.4219 73.5316 86.5099 73.2646 86.6861C73.0004 86.8594 72.7958 87.0866 72.6509 87.3679C72.5089 87.6463 72.4379 87.9489 72.4379 88.2756V89.0213C72.4379 89.4588 72.5146 89.831 72.668 90.1378C72.8242 90.4446 73.0415 90.679 73.32 90.8409C73.5984 91 73.9237 91.0795 74.2958 91.0795C74.5373 91.0795 74.7575 91.0455 74.9563 90.9773C75.1552 90.9062 75.3271 90.8011 75.4719 90.6619C75.6168 90.5227 75.7276 90.3509 75.8043 90.1463L77.0103 90.3636C76.9137 90.7187 76.7404 91.0298 76.4904 91.2969C76.2433 91.5611 75.9322 91.767 75.5572 91.9148C75.185 92.0597 74.7603 92.1321 74.283 92.1321ZM78.505 92V85.4545H79.7365V86.4943H79.8047C79.924 86.142 80.1342 85.8651 80.4354 85.6634C80.7393 85.4588 81.0831 85.3565 81.4666 85.3565C81.5462 85.3565 81.6399 85.3594 81.7479 85.3651C81.8587 85.3707 81.9453 85.3778 82.0078 85.3864V86.6051C81.9567 86.5909 81.8658 86.5753 81.7351 86.5582C81.6044 86.5384 81.4737 86.5284 81.343 86.5284C81.0419 86.5284 80.7734 86.5923 80.5376 86.7202C80.3047 86.8452 80.12 87.0199 79.9837 87.2443C79.8473 87.4659 79.7791 87.7187 79.7791 88.0028V92H78.505ZM86.6122 85.4545V86.4773H82.9134V85.4545H86.6122ZM83.9276 92V84.696C83.9276 84.2869 84.017 83.9474 84.196 83.6776C84.375 83.4048 84.6122 83.2017 84.9077 83.0682C85.2031 82.9318 85.5241 82.8636 85.8707 82.8636C86.1264 82.8636 86.3452 82.8849 86.527 82.9276C86.7088 82.9673 86.8438 83.0043 86.9318 83.0384L86.6335 84.0696C86.5739 84.0526 86.4972 84.0327 86.4034 84.0099C86.3097 83.9844 86.196 83.9716 86.0625 83.9716C85.7528 83.9716 85.5313 84.0483 85.3977 84.2017C85.267 84.3551 85.2017 84.5767 85.2017 84.8665V92H83.9276ZM89.201 83.2727V92H87.9268V83.2727H89.201ZM93.6722 92.1321C93.0586 92.1321 92.5231 91.9915 92.0657 91.7102C91.6083 91.429 91.2532 91.0355 91.0004 90.5298C90.7475 90.0241 90.6211 89.4332 90.6211 88.7571C90.6211 88.0781 90.7475 87.4844 91.0004 86.9759C91.2532 86.4673 91.6083 86.0724 92.0657 85.7912C92.5231 85.5099 93.0586 85.3693 93.6722 85.3693C94.2859 85.3693 94.8214 85.5099 95.2788 85.7912C95.7362 86.0724 96.0913 86.4673 96.3441 86.9759C96.5969 87.4844 96.7234 88.0781 96.7234 88.7571C96.7234 89.4332 96.5969 90.0241 96.3441 90.5298C96.0913 91.0355 95.7362 91.429 95.2788 91.7102C94.8214 91.9915 94.2859 92.1321 93.6722 92.1321ZM93.6765 91.0625C94.0742 91.0625 94.4038 90.9574 94.6651 90.7472C94.9265 90.5369 95.1197 90.2571 95.2447 89.9077C95.3725 89.5582 95.4364 89.1733 95.4364 88.7528C95.4364 88.3352 95.3725 87.9517 95.2447 87.6023C95.1197 87.25 94.9265 86.9673 94.6651 86.7543C94.4038 86.5412 94.0742 86.4347 93.6765 86.4347C93.2759 86.4347 92.9435 86.5412 92.6793 86.7543C92.418 86.9673 92.2234 87.25 92.0955 87.6023C91.9705 87.9517 91.908 88.3352 91.908 88.7528C91.908 89.1733 91.9705 89.5582 92.0955 89.9077C92.2234 90.2571 92.418 90.5369 92.6793 90.7472C92.9435 90.9574 93.2759 91.0625 93.6765 91.0625ZM99.3654 92L97.4393 85.4545H98.756L100.039 90.2614H100.103L101.39 85.4545H102.706L103.985 90.2401H104.049L105.323 85.4545H106.64L104.718 92H103.418L102.088 87.2741H101.99L100.661 92H99.3654ZM107.951 83.2727H109.549L112.327 90.0568H112.43L115.208 83.2727H116.806V92H115.553V85.6847H115.472L112.898 91.9872H111.859L109.285 85.6804H109.204V92H107.951V83.2727ZM121.439 92.1321C120.794 92.1321 120.239 91.9943 119.773 91.7188C119.31 91.4403 118.952 91.0497 118.699 90.5469C118.449 90.0412 118.324 89.4489 118.324 88.7699C118.324 88.0994 118.449 87.5085 118.699 86.9972C118.952 86.4858 119.304 86.0866 119.756 85.7997C120.211 85.5128 120.742 85.3693 121.35 85.3693C121.719 85.3693 122.077 85.4304 122.424 85.5526C122.77 85.6747 123.081 85.8665 123.357 86.1278C123.632 86.3892 123.85 86.7287 124.009 87.1463C124.168 87.5611 124.248 88.0653 124.248 88.6591V89.1108H119.044V88.1562H122.999C122.999 87.821 122.931 87.5241 122.794 87.2656C122.658 87.0043 122.466 86.7983 122.219 86.6477C121.975 86.4972 121.688 86.4219 121.358 86.4219C121 86.4219 120.688 86.5099 120.421 86.6861C120.157 86.8594 119.952 87.0866 119.807 87.3679C119.665 87.6463 119.594 87.9489 119.594 88.2756V89.0213C119.594 89.4588 119.671 89.831 119.824 90.1378C119.98 90.4446 120.198 90.679 120.476 90.8409C120.755 91 121.08 91.0795 121.452 91.0795C121.694 91.0795 121.914 91.0455 122.113 90.9773C122.311 90.9062 122.483 90.8011 122.628 90.6619C122.773 90.5227 122.884 90.3509 122.961 90.1463L124.167 90.3636C124.07 90.7187 123.897 91.0298 123.647 91.2969C123.4 91.5611 123.088 91.767 122.713 91.9148C122.341 92.0597 121.917 92.1321 121.439 92.1321ZM126.935 88.1136V92H125.661V85.4545H126.884V86.5199H126.965C127.116 86.1733 127.352 85.8949 127.673 85.6847C127.996 85.4744 128.404 85.3693 128.896 85.3693C129.342 85.3693 129.732 85.4631 130.067 85.6506C130.403 85.8352 130.663 86.1108 130.847 86.4773C131.032 86.8437 131.124 87.2969 131.124 87.8366V92H129.85V87.9901C129.85 87.5156 129.727 87.1449 129.479 86.8778C129.232 86.608 128.893 86.473 128.461 86.473C128.165 86.473 127.903 86.5369 127.673 86.6648C127.445 86.7926 127.265 86.9801 127.131 87.2273C127.001 87.4716 126.935 87.767 126.935 88.1136ZM136.979 89.2855V85.4545H138.258V92H137.005V90.8665H136.937C136.786 91.2159 136.545 91.5071 136.212 91.7401C135.883 91.9702 135.472 92.0852 134.981 92.0852C134.56 92.0852 134.188 91.9929 133.864 91.8082C133.543 91.6207 133.29 91.3438 133.106 90.9773C132.924 90.6108 132.833 90.1577 132.833 89.6179V85.4545H134.107V89.4645C134.107 89.9105 134.231 90.2656 134.478 90.5298C134.725 90.794 135.046 90.9261 135.441 90.9261C135.68 90.9261 135.917 90.8665 136.153 90.7472C136.391 90.6278 136.589 90.4474 136.745 90.206C136.904 89.9645 136.982 89.6577 136.979 89.2855ZM140.072 92V83.2727H145.544V84.4062H141.389V87.0653H145.258V88.1946H141.389V90.8665H145.595V92H140.072ZM148.053 92.081C147.82 92.081 147.619 91.9986 147.452 91.8338C147.284 91.6662 147.2 91.4645 147.2 91.2287C147.2 90.9957 147.284 90.7969 147.452 90.6321C147.619 90.4645 147.82 90.3807 148.053 90.3807C148.286 90.3807 148.486 90.4645 148.653 90.6321C148.821 90.7969 148.905 90.9957 148.905 91.2287C148.905 91.3849 148.865 91.5284 148.786 91.6591C148.709 91.7869 148.607 91.8892 148.479 91.9659C148.351 92.0426 148.209 92.081 148.053 92.081ZM151.236 92.081C151.003 92.081 150.803 91.9986 150.635 91.8338C150.467 91.6662 150.384 91.4645 150.384 91.2287C150.384 90.9957 150.467 90.7969 150.635 90.6321C150.803 90.4645 151.003 90.3807 151.236 90.3807C151.469 90.3807 151.669 90.4645 151.837 90.6321C152.004 90.7969 152.088 90.9957 152.088 91.2287C152.088 91.3849 152.048 91.5284 151.969 91.6591C151.892 91.7869 151.79 91.8892 151.662 91.9659C151.534 92.0426 151.392 92.081 151.236 92.081ZM154.423 92.081C154.19 92.081 153.99 91.9986 153.822 91.8338C153.655 91.6662 153.571 91.4645 153.571 91.2287C153.571 90.9957 153.655 90.7969 153.822 90.6321C153.99 90.4645 154.19 90.3807 154.423 90.3807C154.656 90.3807 154.857 90.4645 155.024 90.6321C155.192 90.7969 155.276 90.9957 155.276 91.2287C155.276 91.3849 155.236 91.5284 155.156 91.6591C155.08 91.7869 154.977 91.8892 154.849 91.9659C154.722 92.0426 154.58 92.081 154.423 92.081Z" fill="#6894F9"/>
<path d="M188.864 83.6561C189.053 83.857 189.044 84.1735 188.843 84.3629L180.913 91.8368C180.676 92.0605 180.303 92.0536 180.074 91.8213L177.394 89.1009C177.2 88.9042 177.202 88.5877 177.399 88.3938C177.596 88.2 177.912 88.2024 178.106 88.3991L180.512 90.8407L188.157 83.6352C188.358 83.4458 188.674 83.4551 188.864 83.6561Z" fill="#6894F9"/>
<path d="M18 112C18 109.791 19.7909 108 22 108H197C199.209 108 201 109.791 201 112V136C201 138.209 199.209 140 197 140H22C19.7909 140 18 138.209 18 136V112Z" fill="#181C26"/>
<path d="M30.9588 128V119.273H36.4304V120.406H32.2756V123.065H36.1449V124.195H32.2756V126.866H36.4815V128H30.9588ZM39.3612 124.114V128H38.087V121.455H39.31V122.52H39.391C39.5415 122.173 39.7773 121.895 40.0984 121.685C40.4222 121.474 40.8299 121.369 41.3214 121.369C41.7674 121.369 42.158 121.463 42.4933 121.651C42.8285 121.835 43.0884 122.111 43.2731 122.477C43.4577 122.844 43.5501 123.297 43.5501 123.837V128H42.2759V123.99C42.2759 123.516 42.1523 123.145 41.9052 122.878C41.658 122.608 41.3185 122.473 40.8867 122.473C40.5913 122.473 40.3285 122.537 40.0984 122.665C39.8711 122.793 39.6907 122.98 39.5572 123.227C39.4265 123.472 39.3612 123.767 39.3612 124.114ZM50.6239 121.455L48.2504 128H46.8867L44.5089 121.455H45.8768L47.5344 126.491H47.6026L49.256 121.455H50.6239ZM51.8214 128V121.455H53.0955V128H51.8214ZM52.4648 120.445C52.2433 120.445 52.0529 120.371 51.8938 120.223C51.7376 120.072 51.6594 119.893 51.6594 119.686C51.6594 119.476 51.7376 119.297 51.8938 119.149C52.0529 118.999 52.2433 118.923 52.4648 118.923C52.6864 118.923 52.8754 118.999 53.0316 119.149C53.1907 119.297 53.2702 119.476 53.2702 119.686C53.2702 119.893 53.1907 120.072 53.0316 120.223C52.8754 120.371 52.6864 120.445 52.4648 120.445ZM54.8097 128V121.455H56.0412V122.494H56.1094C56.2287 122.142 56.4389 121.865 56.7401 121.663C57.044 121.459 57.3878 121.357 57.7713 121.357C57.8509 121.357 57.9446 121.359 58.0526 121.365C58.1634 121.371 58.25 121.378 58.3125 121.386V122.605C58.2614 122.591 58.1705 122.575 58.0398 122.558C57.9091 122.538 57.7784 122.528 57.6477 122.528C57.3466 122.528 57.0781 122.592 56.8423 122.72C56.6094 122.845 56.4247 123.02 56.2884 123.244C56.152 123.466 56.0838 123.719 56.0838 124.003V128H54.8097ZM61.9379 128.132C61.3242 128.132 60.7887 127.991 60.3313 127.71C59.8739 127.429 59.5188 127.036 59.266 126.53C59.0131 126.024 58.8867 125.433 58.8867 124.757C58.8867 124.078 59.0131 123.484 59.266 122.976C59.5188 122.467 59.8739 122.072 60.3313 121.791C60.7887 121.51 61.3242 121.369 61.9379 121.369C62.5515 121.369 63.087 121.51 63.5444 121.791C64.0018 122.072 64.3569 122.467 64.6097 122.976C64.8626 123.484 64.989 124.078 64.989 124.757C64.989 125.433 64.8626 126.024 64.6097 126.53C64.3569 127.036 64.0018 127.429 63.5444 127.71C63.087 127.991 62.5515 128.132 61.9379 128.132ZM61.9421 127.062C62.3398 127.062 62.6694 126.957 62.9308 126.747C63.1921 126.537 63.3853 126.257 63.5103 125.908C63.6381 125.558 63.7021 125.173 63.7021 124.753C63.7021 124.335 63.6381 123.952 63.5103 123.602C63.3853 123.25 63.1921 122.967 62.9308 122.754C62.6694 122.541 62.3398 122.435 61.9421 122.435C61.5415 122.435 61.2092 122.541 60.945 122.754C60.6836 122.967 60.489 123.25 60.3612 123.602C60.2362 123.952 60.1737 124.335 60.1737 124.753C60.1737 125.173 60.2362 125.558 60.3612 125.908C60.489 126.257 60.6836 126.537 60.945 126.747C61.2092 126.957 61.5415 127.062 61.9421 127.062ZM67.6854 124.114V128H66.4112V121.455H67.6342V122.52H67.7152C67.8658 122.173 68.1016 121.895 68.4226 121.685C68.7464 121.474 69.1541 121.369 69.6456 121.369C70.0916 121.369 70.4822 121.463 70.8175 121.651C71.1527 121.835 71.4126 122.111 71.5973 122.477C71.782 122.844 71.8743 123.297 71.8743 123.837V128H70.6001V123.99C70.6001 123.516 70.4766 123.145 70.2294 122.878C69.9822 122.608 69.6428 122.473 69.2109 122.473C68.9155 122.473 68.6527 122.537 68.4226 122.665C68.1953 122.793 68.0149 122.98 67.8814 123.227C67.7507 123.472 67.6854 123.767 67.6854 124.114ZM73.5831 128V121.455H74.8061V122.52H74.8871C75.0234 122.159 75.2464 121.878 75.5561 121.676C75.8658 121.472 76.2365 121.369 76.6683 121.369C77.1058 121.369 77.4723 121.472 77.7678 121.676C78.0661 121.881 78.2862 122.162 78.4283 122.52H78.4964C78.6527 122.17 78.9013 121.892 79.2422 121.685C79.5831 121.474 79.9893 121.369 80.4609 121.369C81.0547 121.369 81.5391 121.555 81.9141 121.928C82.2919 122.3 82.4808 122.861 82.4808 123.611V128H81.2067V123.73C81.2067 123.287 81.0859 122.966 80.8445 122.767C80.603 122.568 80.3146 122.469 79.9794 122.469C79.5646 122.469 79.2422 122.597 79.0121 122.852C78.782 123.105 78.6669 123.43 78.6669 123.828V128H77.397V123.649C77.397 123.294 77.2862 123.009 77.0646 122.793C76.843 122.577 76.5547 122.469 76.1996 122.469C75.9581 122.469 75.7351 122.533 75.5305 122.661C75.3288 122.786 75.1655 122.96 75.0405 123.185C74.9183 123.409 74.8572 123.669 74.8572 123.964V128H73.5831ZM87.0096 128.132C86.3647 128.132 85.8093 127.994 85.3434 127.719C84.8803 127.44 84.5224 127.05 84.2695 126.547C84.0195 126.041 83.8945 125.449 83.8945 124.77C83.8945 124.099 84.0195 123.509 84.2695 122.997C84.5224 122.486 84.8746 122.087 85.3263 121.8C85.7809 121.513 86.3121 121.369 86.9201 121.369C87.2894 121.369 87.6474 121.43 87.994 121.553C88.3406 121.675 88.6516 121.866 88.9272 122.128C89.2028 122.389 89.4201 122.729 89.5792 123.146C89.7383 123.561 89.8178 124.065 89.8178 124.659V125.111H84.6147V124.156H88.5692C88.5692 123.821 88.5011 123.524 88.3647 123.266C88.2283 123.004 88.0366 122.798 87.7894 122.648C87.5451 122.497 87.2582 122.422 86.9286 122.422C86.5707 122.422 86.2582 122.51 85.9911 122.686C85.7269 122.859 85.5224 123.087 85.3775 123.368C85.2354 123.646 85.1644 123.949 85.1644 124.276V125.021C85.1644 125.459 85.2411 125.831 85.3945 126.138C85.5508 126.445 85.7681 126.679 86.0465 126.841C86.3249 127 86.6502 127.08 87.0224 127.08C87.2638 127.08 87.484 127.045 87.6829 126.977C87.8817 126.906 88.0536 126.801 88.1985 126.662C88.3434 126.523 88.4542 126.351 88.5309 126.146L89.7369 126.364C89.6403 126.719 89.467 127.03 89.217 127.297C88.9698 127.561 88.6587 127.767 88.2837 127.915C87.9116 128.06 87.4869 128.132 87.0096 128.132ZM92.5057 124.114V128H91.2315V121.455H92.4545V122.52H92.5355C92.6861 122.173 92.9219 121.895 93.2429 121.685C93.5668 121.474 93.9744 121.369 94.4659 121.369C94.9119 121.369 95.3026 121.463 95.6378 121.651C95.973 121.835 96.233 122.111 96.4176 122.477C96.6023 122.844 96.6946 123.297 96.6946 123.837V128H95.4205V123.99C95.4205 123.516 95.2969 123.145 95.0497 122.878C94.8026 122.608 94.4631 122.473 94.0312 122.473C93.7358 122.473 93.473 122.537 93.2429 122.665C93.0156 122.793 92.8352 122.98 92.7017 123.227C92.571 123.472 92.5057 123.767 92.5057 124.114ZM101.459 121.455V122.477H97.8835V121.455H101.459ZM98.8423 119.886H100.116V126.078C100.116 126.325 100.153 126.511 100.227 126.636C100.301 126.759 100.396 126.842 100.513 126.888C100.632 126.93 100.761 126.952 100.901 126.952C101.003 126.952 101.092 126.945 101.169 126.93C101.246 126.916 101.305 126.905 101.348 126.896L101.578 127.949C101.504 127.977 101.399 128.006 101.263 128.034C101.126 128.065 100.956 128.082 100.751 128.085C100.416 128.091 100.104 128.031 99.8139 127.906C99.5241 127.781 99.2898 127.588 99.1108 127.327C98.9318 127.065 98.8423 126.737 98.8423 126.342V119.886ZM106.027 128V127.045L108.98 123.986C109.295 123.653 109.555 123.362 109.76 123.112C109.967 122.859 110.122 122.619 110.224 122.392C110.327 122.165 110.378 121.923 110.378 121.668C110.378 121.378 110.31 121.128 110.173 120.918C110.037 120.705 109.851 120.541 109.615 120.428C109.379 120.311 109.114 120.253 108.818 120.253C108.506 120.253 108.233 120.317 108 120.445C107.767 120.572 107.588 120.753 107.463 120.986C107.338 121.219 107.276 121.491 107.276 121.804H106.018C106.018 121.273 106.141 120.808 106.385 120.411C106.629 120.013 106.964 119.705 107.391 119.486C107.817 119.264 108.301 119.153 108.844 119.153C109.392 119.153 109.875 119.263 110.293 119.482C110.713 119.697 111.041 119.993 111.277 120.368C111.513 120.74 111.631 121.161 111.631 121.629C111.631 121.953 111.57 122.27 111.447 122.58C111.328 122.889 111.119 123.234 110.821 123.615C110.523 123.993 110.108 124.452 109.577 124.991L107.842 126.807V126.871H111.771V128H106.027Z" fill="white"/>
</g>
<defs>
<filter id="filter0_d_2147_6813" x="-18" y="16" width="255" height="176" filterUnits="userSpaceOnUse" color-interpolation-filters="sRGB">
<feFlood flood-opacity="0" result="BackgroundImageFix"/>
<feColorMatrix in="SourceAlpha" type="matrix" values="0 0 0 0 0 0 0 0 0 0 0 0 0 0 0 0 0 0 127 0" result="hardAlpha"/>
<feOffset dy="16"/>
<feGaussianBlur stdDeviation="16"/>
<feComposite in2="hardAlpha" operator="out"/>
<feColorMatrix type="matrix" values="0 0 0 0 0 0 0 0 0 0 0 0 0 0 0 0 0 0 0.3 0"/>
<feBlend mode="normal" in2="BackgroundImageFix" result="effect1_dropShadow_2147_6813"/>
<feBlend mode="normal" in="SourceGraphic" in2="effect1_dropShadow_2147_6813" result="shape"/>
</filter>
</defs>
</svg>
