<svg width="324" height="36" viewBox="0 0 324 36" fill="none" xmlns="http://www.w3.org/2000/svg">
<path d="M0.5 4C0.5 2.067 2.067 0.5 4 0.5H320C321.933 0.5 323.5 2.067 323.5 4V32C323.5 33.933 321.933 35.5 320 35.5H4C2.067 35.5 0.5 33.933 0.5 32V4Z" fill="#181C26"/>
<path d="M0.5 4C0.5 2.067 2.067 0.5 4 0.5H320C321.933 0.5 323.5 2.067 323.5 4V32C323.5 33.933 321.933 35.5 320 35.5H4C2.067 35.5 0.5 33.933 0.5 32V4Z" stroke="#6894F9"/>
<path d="M12.6733 12.3409L9.39205 24.5312H8.31818L11.5994 12.3409H12.6733ZM14.0641 23V15.3636H15.2374V23H14.0641ZM14.6607 14.0909C14.432 14.0909 14.2348 14.013 14.0691 13.8572C13.9067 13.7015 13.8255 13.5142 13.8255 13.2955C13.8255 13.0767 13.9067 12.8894 14.0691 12.7337C14.2348 12.5779 14.432 12.5 14.6607 12.5C14.8894 12.5 15.0849 12.5779 15.2473 12.7337C15.4131 12.8894 15.4959 13.0767 15.4959 13.2955C15.4959 13.5142 15.4131 13.7015 15.2473 13.8572C15.0849 14.013 14.8894 14.0909 14.6607 14.0909ZM18.5597 18.4062V23H17.3864V15.3636H18.5199V16.5568H18.6193C18.7983 16.169 19.0701 15.8575 19.4347 15.6222C19.7992 15.3835 20.2699 15.2642 20.8466 15.2642C21.3636 15.2642 21.8161 15.3703 22.2038 15.5824C22.5916 15.7912 22.8932 16.1094 23.1087 16.5369C23.3241 16.9612 23.4318 17.4981 23.4318 18.1477V23H22.2585V18.2273C22.2585 17.6274 22.1027 17.16 21.7912 16.8253C21.4796 16.4872 21.0521 16.3182 20.5085 16.3182C20.134 16.3182 19.7992 16.3994 19.5043 16.5618C19.2126 16.7242 18.9822 16.9612 18.8132 17.2727C18.6442 17.5843 18.5597 17.9621 18.5597 18.4062ZM28.9764 15.3636V16.358H24.8599V15.3636H28.9764ZM26.0929 23V14.3097C26.0929 13.8722 26.1956 13.5076 26.4011 13.2159C26.6066 12.9242 26.8734 12.7055 27.2015 12.5597C27.5297 12.4138 27.876 12.3409 28.2406 12.3409C28.5289 12.3409 28.7643 12.3641 28.9466 12.4105C29.1288 12.4569 29.2647 12.5 29.3542 12.5398L29.0162 13.554C28.9565 13.5341 28.8736 13.5092 28.7676 13.4794C28.6648 13.4496 28.5289 13.4347 28.3599 13.4347C27.9721 13.4347 27.6921 13.5324 27.5197 13.728C27.3507 13.9235 27.2662 14.2102 27.2662 14.5881V23H26.0929ZM33.4086 23.1591C32.7192 23.1591 32.1143 22.995 31.5939 22.6669C31.0769 22.3388 30.6725 21.8797 30.3809 21.2898C30.0925 20.6998 29.9483 20.0104 29.9483 19.2216C29.9483 18.4261 30.0925 17.7318 30.3809 17.1385C30.6725 16.5452 31.0769 16.0845 31.5939 15.7564C32.1143 15.4283 32.7192 15.2642 33.4086 15.2642C34.098 15.2642 34.7012 15.4283 35.2182 15.7564C35.7386 16.0845 36.1429 16.5452 36.4313 17.1385C36.723 17.7318 36.8688 18.4261 36.8688 19.2216C36.8688 20.0104 36.723 20.6998 36.4313 21.2898C36.1429 21.8797 35.7386 22.3388 35.2182 22.6669C34.7012 22.995 34.098 23.1591 33.4086 23.1591ZM33.4086 22.1051C33.9322 22.1051 34.3631 21.9709 34.7012 21.7024C35.0392 21.4339 35.2895 21.081 35.4519 20.6435C35.6143 20.206 35.6955 19.732 35.6955 19.2216C35.6955 18.7112 35.6143 18.2356 35.4519 17.7947C35.2895 17.3539 35.0392 16.9976 34.7012 16.7259C34.3631 16.4541 33.9322 16.3182 33.4086 16.3182C32.8849 16.3182 32.454 16.4541 32.1159 16.7259C31.7779 16.9976 31.5276 17.3539 31.3652 17.7947C31.2028 18.2356 31.1216 18.7112 31.1216 19.2216C31.1216 19.732 31.2028 20.206 31.3652 20.6435C31.5276 21.081 31.7779 21.4339 32.1159 21.7024C32.454 21.9709 32.8849 22.1051 33.4086 22.1051ZM40.1911 20.1364V20.0767C40.1977 19.4437 40.264 18.9399 40.3899 18.5653C40.5159 18.1908 40.6948 17.8875 40.9268 17.6555C41.1589 17.4235 41.4373 17.2098 41.7621 17.0142C41.9576 16.8949 42.1333 16.754 42.2891 16.5916C42.4448 16.4259 42.5675 16.2353 42.657 16.0199C42.7498 15.8045 42.7962 15.5658 42.7962 15.304C42.7962 14.9792 42.7199 14.6974 42.5675 14.4588C42.415 14.2202 42.2112 14.0362 41.956 13.907C41.7008 13.7777 41.4174 13.7131 41.1058 13.7131C40.834 13.7131 40.5722 13.7694 40.3203 13.8821C40.0684 13.9948 39.858 14.1721 39.6889 14.4141C39.5199 14.656 39.4221 14.9725 39.3956 15.3636H38.1428C38.1693 14.8002 38.3151 14.3179 38.5803 13.9169C38.8487 13.5159 39.2017 13.2093 39.6392 12.9972C40.08 12.785 40.5689 12.679 41.1058 12.679C41.6892 12.679 42.1963 12.795 42.6271 13.027C43.0613 13.259 43.3961 13.5772 43.6314 13.9815C43.87 14.3859 43.9893 14.8466 43.9893 15.3636C43.9893 15.7282 43.933 16.058 43.8203 16.353C43.7109 16.648 43.5518 16.9115 43.343 17.1435C43.1375 17.3755 42.889 17.581 42.5973 17.7599C42.3056 17.9422 42.072 18.1345 41.8963 18.3366C41.7206 18.5355 41.593 18.7725 41.5135 19.0476C41.4339 19.3227 41.3909 19.6657 41.3842 20.0767V20.1364H40.1911ZM40.8274 23.0795C40.5821 23.0795 40.3717 22.9917 40.196 22.8161C40.0204 22.6404 39.9325 22.4299 39.9325 22.1847C39.9325 21.9394 40.0204 21.7289 40.196 21.5533C40.3717 21.3776 40.5821 21.2898 40.8274 21.2898C41.0727 21.2898 41.2831 21.3776 41.4588 21.5533C41.6345 21.7289 41.7223 21.9394 41.7223 22.1847C41.7223 22.3471 41.6809 22.4962 41.598 22.6321C41.5185 22.768 41.4107 22.8774 41.2749 22.9602C41.1423 23.0398 40.9931 23.0795 40.8274 23.0795ZM45.7555 23V15.3636H46.9288V23H45.7555ZM46.3521 14.0909C46.1234 14.0909 45.9262 14.013 45.7605 13.8572C45.5981 13.7015 45.5169 13.5142 45.5169 13.2955C45.5169 13.0767 45.5981 12.8894 45.7605 12.7337C45.9262 12.5779 46.1234 12.5 46.3521 12.5C46.5808 12.5 46.7763 12.5779 46.9387 12.7337C47.1045 12.8894 47.1873 13.0767 47.1873 13.2955C47.1873 13.5142 47.1045 13.7015 46.9387 13.8572C46.7763 14.013 46.5808 14.0909 46.3521 14.0909ZM51.9613 23.1591C51.3249 23.1591 50.7631 22.9983 50.2759 22.6768C49.7887 22.352 49.4076 21.8946 49.1325 21.3047C48.8574 20.7114 48.7198 20.0104 48.7198 19.2017C48.7198 18.3996 48.8574 17.7036 49.1325 17.1136C49.4076 16.5237 49.7904 16.0679 50.2809 15.7464C50.7714 15.425 51.3382 15.2642 51.9812 15.2642C52.4783 15.2642 52.8711 15.3471 53.1594 15.5128C53.4511 15.6752 53.6732 15.8608 53.8256 16.0696C53.9814 16.2751 54.1024 16.4441 54.1886 16.5767H54.288V12.8182H55.4613V23H54.3278V21.8267H54.1886C54.1024 21.9659 53.9798 22.1416 53.8207 22.3537C53.6616 22.5625 53.4345 22.7498 53.1396 22.9155C52.8446 23.0779 52.4518 23.1591 51.9613 23.1591ZM52.1204 22.1051C52.591 22.1051 52.9888 21.9825 53.3136 21.7372C53.6384 21.4886 53.8853 21.1456 54.0543 20.7081C54.2234 20.2673 54.3079 19.7585 54.3079 19.1818C54.3079 18.6117 54.225 18.1129 54.0593 17.6854C53.8936 17.2545 53.6483 16.9197 53.3235 16.6811C52.9987 16.4392 52.5977 16.3182 52.1204 16.3182C51.6232 16.3182 51.2089 16.4458 50.8775 16.701C50.5494 16.9529 50.3024 17.2959 50.1367 17.7301C49.9743 18.161 49.8931 18.6449 49.8931 19.1818C49.8931 19.7254 49.976 20.2192 50.1417 20.6634C50.3107 21.1042 50.5593 21.4555 50.8874 21.7173C51.2189 21.9759 51.6299 22.1051 52.1204 22.1051ZM58.2504 18.0881V17.0142H64.3754V18.0881H58.2504ZM58.2504 21.0312V19.9574H64.3754V21.0312H58.2504ZM70.5613 12.8182V23H69.3283V14.1108H69.2686L66.7828 15.7614V14.5085L69.3283 12.8182H70.5613Z" fill="white"/>
<path d="M72.9526 18.7244V18.108C73.5061 18.108 73.8922 17.992 74.111 17.7599C74.333 17.5279 74.4441 17.1402 74.4441 16.5966V15.0057C74.4441 14.5483 74.4872 14.1522 74.5733 13.8175C74.6628 13.4827 74.807 13.206 75.0059 12.9872C75.2047 12.7685 75.4699 12.6061 75.8013 12.5C76.1328 12.3939 76.5421 12.3409 77.0293 12.3409V13.3153C76.6448 13.3153 76.3416 13.375 76.1195 13.4943C75.9007 13.6136 75.745 13.7992 75.6522 14.0511C75.5627 14.2997 75.5179 14.6179 75.5179 15.0057V16.9943C75.5179 17.2528 75.4831 17.4882 75.4135 17.7003C75.3472 17.9124 75.223 18.0947 75.0407 18.2472C74.8584 18.3996 74.5982 18.5173 74.2601 18.6001C73.9254 18.683 73.4895 18.7244 72.9526 18.7244ZM77.0293 25.0682C76.5421 25.0682 76.1328 25.0152 75.8013 24.9091C75.4699 24.803 75.2047 24.6406 75.0059 24.4219C74.807 24.2031 74.6628 23.9264 74.5733 23.5916C74.4872 23.2569 74.4441 22.8608 74.4441 22.4034V20.8125C74.4441 20.2689 74.333 19.8812 74.111 19.6491C73.8922 19.4171 73.5061 19.3011 72.9526 19.3011V18.6847C73.4895 18.6847 73.9254 18.7261 74.2601 18.8089C74.5982 18.8918 74.8584 19.0095 75.0407 19.1619C75.223 19.3144 75.3472 19.4967 75.4135 19.7088C75.4831 19.9209 75.5179 20.1562 75.5179 20.4148V22.4034C75.5179 22.7912 75.5627 23.1094 75.6522 23.358C75.745 23.6065 75.9007 23.7905 76.1195 23.9098C76.3416 24.0324 76.6448 24.0938 77.0293 24.0938V25.0682ZM72.9526 19.3011V18.108H74.1259V19.3011H72.9526ZM78.0249 18.7244V18.108C78.5784 18.108 78.9645 17.992 79.1832 17.7599C79.4053 17.5279 79.5163 17.1402 79.5163 16.5966V15.0057C79.5163 14.5483 79.5594 14.1522 79.6456 13.8175C79.7351 13.4827 79.8793 13.206 80.0781 12.9872C80.277 12.7685 80.5421 12.6061 80.8736 12.5C81.205 12.3939 81.6143 12.3409 82.1016 12.3409V13.3153C81.7171 13.3153 81.4138 13.375 81.1918 13.4943C80.973 13.6136 80.8172 13.7992 80.7244 14.0511C80.6349 14.2997 80.5902 14.6179 80.5902 15.0057V16.9943C80.5902 17.2528 80.5554 17.4882 80.4858 17.7003C80.4195 17.9124 80.2952 18.0947 80.1129 18.2472C79.9306 18.3996 79.6705 18.5173 79.3324 18.6001C78.9976 18.683 78.5618 18.7244 78.0249 18.7244ZM82.1016 25.0682C81.6143 25.0682 81.205 25.0152 80.8736 24.9091C80.5421 24.803 80.277 24.6406 80.0781 24.4219C79.8793 24.2031 79.7351 23.9264 79.6456 23.5916C79.5594 23.2569 79.5163 22.8608 79.5163 22.4034V20.8125C79.5163 20.2689 79.4053 19.8812 79.1832 19.6491C78.9645 19.4171 78.5784 19.3011 78.0249 19.3011V18.6847C78.5618 18.6847 78.9976 18.7261 79.3324 18.8089C79.6705 18.8918 79.9306 19.0095 80.1129 19.1619C80.2952 19.3144 80.4195 19.4967 80.4858 19.7088C80.5554 19.9209 80.5902 20.1562 80.5902 20.4148V22.4034C80.5902 22.7912 80.6349 23.1094 80.7244 23.358C80.8172 23.6065 80.973 23.7905 81.1918 23.9098C81.4138 24.0324 81.7171 24.0938 82.1016 24.0938V25.0682ZM78.0249 19.3011V18.108H79.1982V19.3011H78.0249ZM83.813 23V12.8182H84.9863V16.5767H85.0858C85.1719 16.4441 85.2913 16.2751 85.4437 16.0696C85.5995 15.8608 85.8216 15.6752 86.1099 15.5128C86.4016 15.3471 86.796 15.2642 87.2931 15.2642C87.9361 15.2642 88.5029 15.425 88.9934 15.7464C89.484 16.0679 89.8668 16.5237 90.1419 17.1136C90.417 17.7036 90.5545 18.3996 90.5545 19.2017C90.5545 20.0104 90.417 20.7114 90.1419 21.3047C89.8668 21.8946 89.4856 22.352 88.9984 22.6768C88.5112 22.9983 87.9494 23.1591 87.313 23.1591C86.8225 23.1591 86.4297 23.0779 86.1348 22.9155C85.8398 22.7498 85.6127 22.5625 85.4537 22.3537C85.2946 22.1416 85.1719 21.9659 85.0858 21.8267H84.9466V23H83.813ZM84.9664 19.1818C84.9664 19.7585 85.051 20.2673 85.22 20.7081C85.389 21.1456 85.6359 21.4886 85.9608 21.7372C86.2856 21.9825 86.6833 22.1051 87.1539 22.1051C87.6445 22.1051 88.0538 21.9759 88.3819 21.7173C88.7134 21.4555 88.9619 21.1042 89.1277 20.6634C89.2967 20.2192 89.3812 19.7254 89.3812 19.1818C89.3812 18.6449 89.2984 18.161 89.1326 17.7301C88.9702 17.2959 88.7233 16.9529 88.3919 16.701C88.0637 16.4458 87.6511 16.3182 87.1539 16.3182C86.6767 16.3182 86.2756 16.4392 85.9508 16.6811C85.626 16.9197 85.3807 17.2545 85.215 17.6854C85.0493 18.1129 84.9664 18.6117 84.9664 19.1818ZM94.5964 23.179C94.1125 23.179 93.6734 23.0878 93.2789 22.9055C92.8845 22.7199 92.5713 22.4531 92.3393 22.1051C92.1073 21.7538 91.9913 21.3295 91.9913 20.8324C91.9913 20.3949 92.0775 20.0402 92.2498 19.7685C92.4222 19.4934 92.6525 19.2779 92.9409 19.1222C93.2292 18.9664 93.5474 18.8504 93.8954 18.7741C94.2467 18.6946 94.5997 18.6316 94.9544 18.5852C95.4184 18.5256 95.7946 18.4808 96.0829 18.451C96.3746 18.4179 96.5867 18.3632 96.7193 18.2869C96.8552 18.2107 96.9231 18.0781 96.9231 17.8892V17.8494C96.9231 17.3589 96.7889 16.9777 96.5204 16.706C96.2553 16.4342 95.8526 16.2983 95.3123 16.2983C94.7522 16.2983 94.313 16.4209 93.9949 16.6662C93.6767 16.9115 93.4529 17.1733 93.3237 17.4517L92.21 17.054C92.4089 16.59 92.6741 16.2287 93.0055 15.9702C93.3403 15.7083 93.7048 15.526 94.0993 15.4233C94.497 15.3172 94.8881 15.2642 95.2725 15.2642C95.5178 15.2642 95.7995 15.294 96.1177 15.3537C96.4392 15.41 96.7491 15.5277 97.0474 15.7067C97.349 15.8857 97.5993 16.1558 97.7981 16.517C97.997 16.8783 98.0964 17.3622 98.0964 17.9688V23H96.9231V21.9659H96.8635C96.7839 22.1316 96.6513 22.3089 96.4657 22.4979C96.2801 22.6868 96.0332 22.8475 95.725 22.9801C95.4167 23.1127 95.0405 23.179 94.5964 23.179ZM94.7754 22.125C95.2394 22.125 95.6305 22.0339 95.9487 21.8516C96.2702 21.6693 96.5121 21.4339 96.6745 21.1456C96.8403 20.8572 96.9231 20.554 96.9231 20.2358V19.1619C96.8734 19.2216 96.764 19.2763 96.595 19.326C96.4293 19.3724 96.237 19.4138 96.0183 19.4503C95.8029 19.4834 95.5924 19.5133 95.3869 19.5398C95.1847 19.563 95.0207 19.5829 94.8947 19.5994C94.5898 19.6392 94.3047 19.7038 94.0396 19.7933C93.7778 19.8795 93.5656 20.0104 93.4032 20.1861C93.2441 20.3584 93.1646 20.5937 93.1646 20.892C93.1646 21.2997 93.3154 21.608 93.617 21.8168C93.9219 22.0223 94.3081 22.125 94.7754 22.125ZM105.647 17.0739L104.593 17.3722C104.527 17.1965 104.429 17.0258 104.3 16.8601C104.174 16.6911 104.001 16.5518 103.783 16.4425C103.564 16.3331 103.284 16.2784 102.942 16.2784C102.475 16.2784 102.086 16.3861 101.774 16.6016C101.466 16.8137 101.312 17.0838 101.312 17.4119C101.312 17.7036 101.418 17.9339 101.63 18.103C101.842 18.272 102.174 18.4129 102.624 18.5256L103.758 18.804C104.441 18.9697 104.949 19.2232 105.284 19.5646C105.619 19.9027 105.786 20.3385 105.786 20.8722C105.786 21.3097 105.66 21.7008 105.408 22.0455C105.16 22.3902 104.812 22.6619 104.364 22.8608C103.917 23.0597 103.397 23.1591 102.803 23.1591C102.024 23.1591 101.38 22.9901 100.869 22.652C100.359 22.3139 100.036 21.8201 99.8999 21.1705L101.013 20.892C101.12 21.303 101.32 21.6113 101.615 21.8168C101.913 22.0223 102.303 22.125 102.783 22.125C103.33 22.125 103.764 22.009 104.086 21.777C104.411 21.5417 104.573 21.2599 104.573 20.9318C104.573 20.6667 104.48 20.4446 104.295 20.2656C104.109 20.0833 103.824 19.9474 103.44 19.858L102.167 19.5597C101.468 19.3939 100.954 19.1371 100.626 18.7891C100.301 18.4377 100.138 17.9986 100.138 17.4716C100.138 17.0407 100.259 16.6596 100.501 16.3281C100.747 15.9967 101.08 15.7365 101.501 15.5476C101.925 15.3587 102.406 15.2642 102.942 15.2642C103.698 15.2642 104.291 15.4299 104.722 15.7614C105.156 16.0928 105.465 16.5303 105.647 17.0739ZM110.754 23.1591C110.018 23.1591 109.384 22.9967 108.85 22.6719C108.32 22.3438 107.91 21.8864 107.622 21.2997C107.337 20.7098 107.194 20.0237 107.194 19.2415C107.194 18.4593 107.337 17.7699 107.622 17.1733C107.91 16.5734 108.311 16.1061 108.825 15.7713C109.342 15.4332 109.945 15.2642 110.635 15.2642C111.032 15.2642 111.425 15.3305 111.813 15.4631C112.201 15.5956 112.554 15.8111 112.872 16.1094C113.19 16.4044 113.444 16.7955 113.633 17.2827C113.822 17.7699 113.916 18.3698 113.916 19.0824V19.5795H108.03V18.5653H112.723C112.723 18.1345 112.637 17.75 112.464 17.4119C112.295 17.0739 112.053 16.8071 111.738 16.6115C111.427 16.416 111.059 16.3182 110.635 16.3182C110.167 16.3182 109.763 16.4342 109.422 16.6662C109.084 16.8949 108.823 17.1932 108.641 17.5611C108.459 17.929 108.368 18.3234 108.368 18.7443V19.4205C108.368 19.9972 108.467 20.486 108.666 20.8871C108.868 21.2848 109.148 21.5881 109.506 21.7969C109.864 22.0024 110.28 22.1051 110.754 22.1051C111.062 22.1051 111.341 22.062 111.589 21.9759C111.841 21.8864 112.058 21.7538 112.241 21.5781C112.423 21.3991 112.564 21.1771 112.663 20.9119L113.797 21.2301C113.677 21.6146 113.477 21.9527 113.195 22.2443C112.913 22.5327 112.565 22.758 112.151 22.9205C111.737 23.0795 111.271 23.1591 110.754 23.1591ZM120.971 23V24.0938H114.607V23H120.971ZM126.843 19.8778V15.3636H128.017V23H126.843V21.7074H126.764C126.585 22.0952 126.306 22.425 125.929 22.6967C125.551 22.9652 125.074 23.0994 124.497 23.0994C124.02 23.0994 123.595 22.995 123.224 22.7862C122.853 22.5741 122.561 22.2559 122.349 21.8317C122.137 21.4041 122.031 20.8655 122.031 20.2159V15.3636H123.204V20.1364C123.204 20.6932 123.36 21.1373 123.672 21.4688C123.986 21.8002 124.387 21.9659 124.875 21.9659C125.166 21.9659 125.463 21.8913 125.765 21.7422C126.069 21.593 126.325 21.3643 126.53 21.0561C126.739 20.7479 126.843 20.3551 126.843 19.8778ZM130.166 23V15.3636H131.299V16.517H131.379C131.518 16.1392 131.77 15.8326 132.134 15.5973C132.499 15.362 132.91 15.2443 133.367 15.2443C133.454 15.2443 133.561 15.246 133.691 15.2493C133.82 15.2526 133.918 15.2576 133.984 15.2642V16.4574C133.944 16.4474 133.853 16.4325 133.71 16.4126C133.571 16.3894 133.424 16.3778 133.268 16.3778C132.897 16.3778 132.565 16.4557 132.274 16.6115C131.985 16.764 131.757 16.9761 131.588 17.2479C131.422 17.5163 131.339 17.8229 131.339 18.1676V23H130.166ZM136.548 12.8182V23H135.375V12.8182H136.548ZM142.177 18.6847V19.3011C141.624 19.3011 141.236 19.4171 141.014 19.6491C140.795 19.8812 140.686 20.2689 140.686 20.8125V22.4034C140.686 22.8608 140.641 23.2569 140.551 23.5916C140.465 23.9264 140.323 24.2031 140.124 24.4219C139.925 24.6406 139.66 24.803 139.328 24.9091C138.997 25.0152 138.588 25.0682 138.1 25.0682V24.0938C138.485 24.0938 138.786 24.0324 139.005 23.9098C139.227 23.7905 139.383 23.6065 139.472 23.358C139.565 23.1094 139.612 22.7912 139.612 22.4034V20.4148C139.612 20.1562 139.645 19.9209 139.711 19.7088C139.781 19.4967 139.907 19.3144 140.089 19.1619C140.271 19.0095 140.53 18.8918 140.865 18.8089C141.203 18.7261 141.64 18.6847 142.177 18.6847ZM138.1 12.3409C138.588 12.3409 138.997 12.3939 139.328 12.5C139.66 12.6061 139.925 12.7685 140.124 12.9872C140.323 13.206 140.465 13.4827 140.551 13.8175C140.641 14.1522 140.686 14.5483 140.686 15.0057V16.5966C140.686 17.1402 140.795 17.5279 141.014 17.7599C141.236 17.992 141.624 18.108 142.177 18.108V18.7244C141.64 18.7244 141.203 18.683 140.865 18.6001C140.53 18.5173 140.271 18.3996 140.089 18.2472C139.907 18.0947 139.781 17.9124 139.711 17.7003C139.645 17.4882 139.612 17.2528 139.612 16.9943V15.0057C139.612 14.6179 139.565 14.2997 139.472 14.0511C139.383 13.7992 139.227 13.6136 139.005 13.4943C138.786 13.375 138.485 13.3153 138.1 13.3153V12.3409ZM142.177 18.108V19.3011H141.004V18.108H142.177ZM147.249 18.6847V19.3011C146.696 19.3011 146.308 19.4171 146.086 19.6491C145.867 19.8812 145.758 20.2689 145.758 20.8125V22.4034C145.758 22.8608 145.713 23.2569 145.624 23.5916C145.537 23.9264 145.395 24.2031 145.196 24.4219C144.997 24.6406 144.732 24.803 144.401 24.9091C144.069 25.0152 143.66 25.0682 143.173 25.0682V24.0938C143.557 24.0938 143.859 24.0324 144.077 23.9098C144.299 23.7905 144.455 23.6065 144.545 23.358C144.638 23.1094 144.684 22.7912 144.684 22.4034V20.4148C144.684 20.1562 144.717 19.9209 144.783 19.7088C144.853 19.4967 144.979 19.3144 145.161 19.1619C145.344 19.0095 145.602 18.8918 145.937 18.8089C146.275 18.7261 146.712 18.6847 147.249 18.6847ZM143.173 12.3409C143.66 12.3409 144.069 12.3939 144.401 12.5C144.732 12.6061 144.997 12.7685 145.196 12.9872C145.395 13.206 145.537 13.4827 145.624 13.8175C145.713 14.1522 145.758 14.5483 145.758 15.0057V16.5966C145.758 17.1402 145.867 17.5279 146.086 17.7599C146.308 17.992 146.696 18.108 147.249 18.108V18.7244C146.712 18.7244 146.275 18.683 145.937 18.6001C145.602 18.5173 145.344 18.3996 145.161 18.2472C144.979 18.0947 144.853 17.9124 144.783 17.7003C144.717 17.4882 144.684 17.2528 144.684 16.9943V15.0057C144.684 14.6179 144.638 14.2997 144.545 14.0511C144.455 13.7992 144.299 13.6136 144.077 13.4943C143.859 13.375 143.557 13.3153 143.173 13.3153V12.3409ZM147.249 18.108V19.3011H146.076V18.108H147.249Z" fill="#316CF6"/>
<rect x="150" y="8" width="2" height="20" fill="#6894F9"/>
</svg>
