<svg width="252" height="348" viewBox="0 0 252 348" fill="none" xmlns="http://www.w3.org/2000/svg">
<path d="M0 4.00001C0 1.79087 1.79086 0 4 0H248C250.209 0 252 1.79086 252 4V344C252 346.209 250.209 348 248 348H4C1.79086 348 0 346.209 0 344V4.00001Z" fill="#181C26"/>
<path d="M13.5197 25V16.2727H18.7868V17.2102H14.5765V20.1591H18.514V21.0966H14.5765V24.0625H18.8549V25H13.5197ZM27.612 16.2727V25H26.5893L21.8336 18.1477H21.7484V25H20.6916V16.2727H21.7143L26.487 23.142H26.5723V16.2727H27.612ZM30.0847 16.2727L32.6756 23.6193H32.7779L35.3688 16.2727H36.4767L33.2722 25H32.1813L28.9767 16.2727H30.0847ZM38.8929 16.2727V25H37.8361V16.2727H38.8929ZM41.0119 25V16.2727H43.9608C44.6426 16.2727 45.2022 16.3892 45.6397 16.6222C46.0772 16.8523 46.4011 17.169 46.6113 17.5724C46.8216 17.9759 46.9267 18.4347 46.9267 18.9489C46.9267 19.4631 46.8216 19.919 46.6113 20.3168C46.4011 20.7145 46.0787 21.027 45.644 21.2543C45.2093 21.4787 44.6539 21.5909 43.9778 21.5909H41.5914V20.6364H43.9437C44.4096 20.6364 44.7846 20.5682 45.0687 20.4318C45.3556 20.2955 45.563 20.1023 45.6909 19.8523C45.8216 19.5994 45.8869 19.2983 45.8869 18.9489C45.8869 18.5994 45.8216 18.294 45.6909 18.0327C45.5602 17.7713 45.3514 17.5696 45.0645 17.4276C44.7775 17.2827 44.3983 17.2102 43.9267 17.2102H42.0687V25H41.0119ZM45.1199 21.0795L47.2676 25H46.0403L43.9267 21.0795H45.1199ZM56.0513 20.6364C56.0513 21.5568 55.8851 22.3523 55.5527 23.0227C55.2203 23.6932 54.7644 24.2102 54.1848 24.5739C53.6053 24.9375 52.9434 25.1193 52.199 25.1193C51.4547 25.1193 50.7928 24.9375 50.2132 24.5739C49.6337 24.2102 49.1777 23.6932 48.8453 23.0227C48.513 22.3523 48.3468 21.5568 48.3468 20.6364C48.3468 19.7159 48.513 18.9205 48.8453 18.25C49.1777 17.5795 49.6337 17.0625 50.2132 16.6989C50.7928 16.3352 51.4547 16.1534 52.199 16.1534C52.9434 16.1534 53.6053 16.3352 54.1848 16.6989C54.7644 17.0625 55.2203 17.5795 55.5527 18.25C55.8851 18.9205 56.0513 19.7159 56.0513 20.6364ZM55.0286 20.6364C55.0286 19.8807 54.9022 19.2429 54.6493 18.723C54.3993 18.2031 54.0598 17.8097 53.6309 17.5426C53.2047 17.2756 52.7275 17.142 52.199 17.142C51.6706 17.142 51.1919 17.2756 50.763 17.5426C50.3368 17.8097 49.9973 18.2031 49.7445 18.723C49.4945 19.2429 49.3695 19.8807 49.3695 20.6364C49.3695 21.392 49.4945 22.0298 49.7445 22.5497C49.9973 23.0696 50.3368 23.4631 50.763 23.7301C51.1919 23.9972 51.6706 24.1307 52.199 24.1307C52.7275 24.1307 53.2047 23.9972 53.6309 23.7301C54.0598 23.4631 54.3993 23.0696 54.6493 22.5497C54.9022 22.0298 55.0286 21.392 55.0286 20.6364ZM57.8283 16.2727H59.0897L62.0556 23.517H62.1578L65.1238 16.2727H66.3851V25H65.3965V18.3693H65.3113L62.584 25H61.6294L58.9022 18.3693H58.8169V25H57.8283V16.2727ZM68.5041 25V16.2727H73.7711V17.2102H69.5609V20.1591H73.4984V21.0966H69.5609V24.0625H73.8393V25H68.5041ZM82.5964 16.2727V25H81.5737L76.818 18.1477H76.7328V25H75.676V16.2727H76.6987L81.4714 23.142H81.5566V16.2727H82.5964ZM84.2338 17.2102V16.2727H90.7793V17.2102H88.035V25H86.9782V17.2102H84.2338ZM96.1433 16.2727L98.7342 23.6193H98.8365L101.427 16.2727H102.535L99.3308 25H98.2399L95.0353 16.2727H96.1433ZM103.503 25H102.395L105.599 16.2727H106.69L109.895 25H108.787L106.179 17.6534H106.111L103.503 25ZM103.912 21.5909H108.378V22.5284H103.912V21.5909ZM111.254 25V16.2727H114.203C114.885 16.2727 115.444 16.3892 115.882 16.6222C116.319 16.8523 116.643 17.169 116.854 17.5724C117.064 17.9759 117.169 18.4347 117.169 18.9489C117.169 19.4631 117.064 19.919 116.854 20.3168C116.643 20.7145 116.321 21.027 115.886 21.2543C115.452 21.4787 114.896 21.5909 114.22 21.5909H111.834V20.6364H114.186C114.652 20.6364 115.027 20.5682 115.311 20.4318C115.598 20.2955 115.805 20.1023 115.933 19.8523C116.064 19.5994 116.129 19.2983 116.129 18.9489C116.129 18.5994 116.064 18.294 115.933 18.0327C115.802 17.7713 115.594 17.5696 115.307 17.4276C115.02 17.2827 114.64 17.2102 114.169 17.2102H112.311V25H111.254ZM115.362 21.0795L117.51 25H116.282L114.169 21.0795H115.362ZM119.987 16.2727V25H118.93V16.2727H119.987ZM122.464 25H121.356L124.56 16.2727H125.651L128.856 25H127.748L125.14 17.6534H125.072L122.464 25ZM122.873 21.5909H127.339V22.5284H122.873V21.5909ZM130.215 25V16.2727H133.266C133.874 16.2727 134.376 16.3778 134.77 16.5881C135.165 16.7955 135.459 17.0753 135.653 17.4276C135.846 17.777 135.942 18.1648 135.942 18.5909C135.942 18.9659 135.876 19.2756 135.742 19.5199C135.611 19.7642 135.438 19.9574 135.222 20.0994C135.009 20.2415 134.778 20.3466 134.528 20.4148V20.5C134.795 20.517 135.063 20.6108 135.333 20.7812C135.603 20.9517 135.829 21.196 136.01 21.5142C136.192 21.8324 136.283 22.2216 136.283 22.6818C136.283 23.1193 136.184 23.5128 135.985 23.8622C135.786 24.2116 135.472 24.4886 135.043 24.6932C134.614 24.8977 134.056 25 133.368 25H130.215ZM131.272 24.0625H133.368C134.059 24.0625 134.549 23.929 134.839 23.6619C135.131 23.392 135.278 23.0653 135.278 22.6818C135.278 22.3864 135.202 22.1136 135.052 21.8636C134.901 21.6108 134.687 21.4091 134.408 21.2585C134.13 21.1051 133.8 21.0284 133.42 21.0284H131.272V24.0625ZM131.272 20.108H133.232C133.55 20.108 133.837 20.0455 134.093 19.9205C134.351 19.7955 134.556 19.6193 134.706 19.392C134.86 19.1648 134.937 18.8977 134.937 18.5909C134.937 18.2074 134.803 17.8821 134.536 17.6151C134.269 17.3452 133.846 17.2102 133.266 17.2102H131.272V20.108ZM138.02 25V16.2727H139.077V24.0625H143.133V25H138.02ZM144.77 25V16.2727H150.037V17.2102H145.827V20.1591H149.764V21.0966H145.827V24.0625H150.105V25H144.77ZM156.714 18.4545C156.663 18.0227 156.456 17.6875 156.092 17.4489C155.729 17.2102 155.282 17.0909 154.754 17.0909C154.368 17.0909 154.03 17.1534 153.74 17.2784C153.453 17.4034 153.229 17.5753 153.067 17.794C152.907 18.0128 152.828 18.2614 152.828 18.5398C152.828 18.7727 152.883 18.973 152.994 19.1406C153.108 19.3054 153.253 19.4432 153.429 19.554C153.605 19.6619 153.79 19.7514 153.983 19.8224C154.176 19.8906 154.354 19.946 154.515 19.9886L155.402 20.2273C155.629 20.2869 155.882 20.3693 156.16 20.4744C156.442 20.5795 156.71 20.723 156.966 20.9048C157.224 21.0838 157.437 21.3139 157.605 21.5952C157.773 21.8764 157.856 22.2216 157.856 22.6307C157.856 23.1023 157.733 23.5284 157.486 23.9091C157.241 24.2898 156.883 24.5923 156.412 24.8168C155.943 25.0412 155.373 25.1534 154.703 25.1534C154.078 25.1534 153.537 25.0526 153.079 24.8509C152.625 24.6491 152.267 24.3679 152.006 24.0071C151.747 23.6463 151.601 23.2273 151.567 22.75H152.657C152.686 23.0795 152.797 23.3523 152.99 23.5682C153.186 23.7812 153.433 23.9403 153.731 24.0455C154.032 24.1477 154.356 24.1989 154.703 24.1989C155.106 24.1989 155.469 24.1335 155.79 24.0028C156.111 23.8693 156.365 23.6847 156.552 23.4489C156.74 23.2102 156.834 22.9318 156.834 22.6136C156.834 22.3239 156.753 22.0881 156.591 21.9062C156.429 21.7244 156.216 21.5767 155.952 21.4631C155.687 21.3494 155.402 21.25 155.095 21.1648L154.021 20.858C153.339 20.6619 152.8 20.3821 152.402 20.0185C152.004 19.6548 151.805 19.179 151.805 18.5909C151.805 18.1023 151.937 17.6761 152.202 17.3125C152.469 16.946 152.827 16.6619 153.275 16.4602C153.727 16.2557 154.231 16.1534 154.788 16.1534C155.351 16.1534 155.851 16.2543 156.288 16.456C156.726 16.6548 157.072 16.9276 157.328 17.2741C157.586 17.6207 157.723 18.0142 157.737 18.4545H156.714Z" fill="white"/>
<path d="M12 40C12 37.7909 13.7909 36 16 36H216C218.209 36 220 37.7909 220 40V76C220 78.2091 218.209 80 216 80H16C13.7909 80 12 78.2091 12 76V40Z" fill="#181C26"/>
<path d="M24.6667 48C24.6667 46.1591 26.1591 44.6667 28 44.6667H48C49.8409 44.6667 51.3333 46.1591 51.3333 48V68C51.3333 69.8409 49.8409 71.3333 48 71.3333H28C26.1591 71.3333 24.6667 69.841 24.6667 68V48Z" fill="#19B259"/>
<path d="M24.6667 48C24.6667 46.1591 26.1591 44.6667 28 44.6667H48C49.8409 44.6667 51.3333 46.1591 51.3333 48V68C51.3333 69.8409 49.8409 71.3333 48 71.3333H28C26.1591 71.3333 24.6667 69.841 24.6667 68V48Z" stroke="#414858" stroke-width="1.33333"/>
<path d="M34.9008 63V52.8182H41.2844V54.1406H36.4371V57.2429H40.9513V58.5604H36.4371V61.6776H41.344V63H34.9008Z" fill="white"/>
<path d="M62.9588 53V44.2727H64.2756V51.8665H68.2301V53H62.9588ZM71.5348 53.1449C71.12 53.1449 70.745 53.0682 70.4098 52.9148C70.0746 52.7585 69.8089 52.5327 69.6129 52.2372C69.4197 51.9418 69.3232 51.5795 69.3232 51.1506C69.3232 50.7812 69.3942 50.4773 69.5362 50.2386C69.6783 50 69.87 49.8111 70.1115 49.6719C70.353 49.5327 70.6229 49.4276 70.9212 49.3565C71.2195 49.2855 71.5234 49.2315 71.8331 49.1946C72.2251 49.1491 72.5433 49.1122 72.7876 49.0838C73.032 49.0526 73.2095 49.0028 73.3203 48.9347C73.4311 48.8665 73.4865 48.7557 73.4865 48.6023V48.5724C73.4865 48.2003 73.3814 47.9119 73.1712 47.7074C72.9638 47.5028 72.6541 47.4006 72.2422 47.4006C71.8132 47.4006 71.4751 47.4957 71.228 47.6861C70.9837 47.8736 70.8146 48.0824 70.7209 48.3125L69.5234 48.0398C69.6655 47.642 69.8729 47.321 70.1456 47.0767C70.4212 46.8295 70.7379 46.6506 71.0959 46.5398C71.4538 46.4261 71.8303 46.3693 72.2251 46.3693C72.4865 46.3693 72.7635 46.4006 73.0561 46.4631C73.3516 46.5227 73.6271 46.6335 73.8828 46.7955C74.1413 46.9574 74.353 47.1889 74.5178 47.4901C74.6825 47.7884 74.7649 48.1761 74.7649 48.6534V53H73.5206V52.1051H73.4695C73.3871 52.2699 73.2635 52.4318 73.0987 52.5909C72.9339 52.75 72.7223 52.8821 72.4638 52.9872C72.2053 53.0923 71.8956 53.1449 71.5348 53.1449ZM71.8118 52.1222C72.1641 52.1222 72.4652 52.0526 72.7152 51.9134C72.968 51.7741 73.1598 51.5923 73.2905 51.3679C73.424 51.1406 73.4908 50.8977 73.4908 50.6392V49.7955C73.4453 49.8409 73.3572 49.8835 73.2266 49.9233C73.0987 49.9602 72.9524 49.9929 72.7876 50.0213C72.6229 50.0469 72.4624 50.071 72.3061 50.0938C72.1499 50.1136 72.0192 50.1307 71.9141 50.1449C71.6669 50.1761 71.4411 50.2287 71.2365 50.3026C71.0348 50.3764 70.8729 50.483 70.7507 50.6222C70.6314 50.7585 70.5717 50.9403 70.5717 51.1676C70.5717 51.483 70.6882 51.7216 70.9212 51.8835C71.1541 52.0426 71.451 52.1222 71.8118 52.1222ZM76.5643 53V44.2727H77.8384V47.5156H77.9151C77.989 47.3793 78.0955 47.2216 78.2347 47.0426C78.3739 46.8636 78.5671 46.7074 78.8143 46.5739C79.0614 46.4375 79.3881 46.3693 79.7944 46.3693C80.3228 46.3693 80.7944 46.5028 81.2092 46.7699C81.6239 47.0369 81.9492 47.4219 82.185 47.9247C82.4237 48.4276 82.543 49.0327 82.543 49.7401C82.543 50.4474 82.4251 51.054 82.1893 51.5597C81.9535 52.0625 81.6296 52.4503 81.2177 52.723C80.8058 52.9929 80.3356 53.1278 79.8072 53.1278C79.4094 53.1278 79.0842 53.0611 78.8313 52.9276C78.5813 52.794 78.3853 52.6378 78.2433 52.4588C78.1012 52.2798 77.9918 52.1207 77.9151 51.9815H77.8086V53H76.5643ZM77.8129 49.7273C77.8129 50.1875 77.8796 50.5909 78.0131 50.9375C78.1467 51.2841 78.3398 51.5554 78.5927 51.7514C78.8455 51.9446 79.1552 52.0412 79.5217 52.0412C79.9023 52.0412 80.2205 51.9403 80.4762 51.7386C80.7319 51.5341 80.9251 51.2571 81.0558 50.9077C81.1893 50.5582 81.256 50.1648 81.256 49.7273C81.256 49.2955 81.1907 48.9077 81.06 48.5639C80.9322 48.2202 80.739 47.9489 80.4805 47.75C80.2248 47.5511 79.9052 47.4517 79.5217 47.4517C79.1523 47.4517 78.8398 47.5469 78.5842 47.7372C78.3313 47.9276 78.1396 48.1932 78.0089 48.5341C77.8782 48.875 77.8129 49.2727 77.8129 49.7273ZM86.7947 53.1321C86.1499 53.1321 85.5945 52.9943 85.1286 52.7188C84.6655 52.4403 84.3075 52.0497 84.0547 51.5469C83.8047 51.0412 83.6797 50.4489 83.6797 49.7699C83.6797 49.0994 83.8047 48.5085 84.0547 47.9972C84.3075 47.4858 84.6598 47.0866 85.1115 46.7997C85.5661 46.5128 86.0973 46.3693 86.7053 46.3693C87.0746 46.3693 87.4325 46.4304 87.7791 46.5526C88.1257 46.6747 88.4368 46.8665 88.7124 47.1278C88.9879 47.3892 89.2053 47.7287 89.3643 48.1463C89.5234 48.5611 89.603 49.0653 89.603 49.6591V50.1108H84.3999V49.1562H88.3544C88.3544 48.821 88.2862 48.5241 88.1499 48.2656C88.0135 48.0043 87.8217 47.7983 87.5746 47.6477C87.3303 47.4972 87.0433 47.4219 86.7138 47.4219C86.3558 47.4219 86.0433 47.5099 85.7763 47.6861C85.5121 47.8594 85.3075 48.0866 85.1626 48.3679C85.0206 48.6463 84.9496 48.9489 84.9496 49.2756V50.0213C84.9496 50.4588 85.0263 50.831 85.1797 51.1378C85.3359 51.4446 85.5533 51.679 85.8317 51.8409C86.1101 52 86.4354 52.0795 86.8075 52.0795C87.049 52.0795 87.2692 52.0455 87.468 51.9773C87.6669 51.9062 87.8388 51.8011 87.9837 51.6619C88.1286 51.5227 88.2393 51.3509 88.3161 51.1463L89.522 51.3636C89.4254 51.7187 89.2521 52.0298 89.0021 52.2969C88.755 52.5611 88.4439 52.767 88.0689 52.9148C87.6967 53.0597 87.272 53.1321 86.7947 53.1321ZM92.2908 44.2727V53H91.0167V44.2727H92.2908Z" fill="white"/>
<path d="M65.75 71H63.0568V62.2727H65.8693C66.7159 62.2727 67.4403 62.4474 68.0426 62.7969C68.6449 63.1435 69.1065 63.642 69.4276 64.2926C69.7486 64.9403 69.9091 65.7159 69.9091 66.6193C69.9091 67.5284 69.7472 68.3111 69.4233 68.9673C69.0994 69.6207 68.6278 70.1236 68.0085 70.4759C67.3892 70.8253 66.6364 71 65.75 71ZM64.1136 70.0625H65.6818C66.4034 70.0625 67.0014 69.9233 67.4759 69.6449C67.9503 69.3665 68.304 68.9702 68.5369 68.456C68.7699 67.9418 68.8864 67.3295 68.8864 66.6193C68.8864 65.9148 68.7713 65.3082 68.5412 64.7997C68.3111 64.2884 67.9673 63.8963 67.5099 63.6236C67.0526 63.348 66.483 63.2102 65.8011 63.2102H64.1136V70.0625ZM74.2898 71.1364C73.6591 71.1364 73.1151 70.9972 72.6577 70.7188C72.2031 70.4375 71.8523 70.0455 71.6051 69.5426C71.3608 69.0369 71.2386 68.4489 71.2386 67.7784C71.2386 67.108 71.3608 66.517 71.6051 66.0057C71.8523 65.4915 72.196 65.0909 72.6364 64.804C73.0795 64.5142 73.5966 64.3693 74.1875 64.3693C74.5284 64.3693 74.8651 64.4261 75.1974 64.5398C75.5298 64.6534 75.8324 64.8381 76.1051 65.0938C76.3778 65.3466 76.5952 65.6818 76.7571 66.0994C76.919 66.517 77 67.0312 77 67.642V68.0682H71.9545V67.1989H75.9773C75.9773 66.8295 75.9034 66.5 75.7557 66.2102C75.6108 65.9205 75.4034 65.6918 75.1335 65.5241C74.8665 65.3565 74.5511 65.2727 74.1875 65.2727C73.7869 65.2727 73.4403 65.3722 73.1477 65.571C72.858 65.767 72.6349 66.0227 72.4787 66.3381C72.3224 66.6534 72.2443 66.9915 72.2443 67.3523V67.9318C72.2443 68.4261 72.3295 68.8452 72.5 69.1889C72.6733 69.5298 72.9134 69.7898 73.2202 69.9688C73.527 70.1449 73.8835 70.233 74.2898 70.233C74.554 70.233 74.7926 70.196 75.0057 70.1222C75.2216 70.0455 75.4077 69.9318 75.5639 69.7812C75.7202 69.6278 75.8409 69.4375 75.9261 69.2102L76.8977 69.483C76.7955 69.8125 76.6236 70.1023 76.3821 70.3523C76.1406 70.5994 75.8423 70.7926 75.4872 70.9318C75.1321 71.0682 74.733 71.1364 74.2898 71.1364ZM81.3764 64.4545V65.3068H77.9844V64.4545H81.3764ZM78.973 62.8864H79.9787V69.125C79.9787 69.4091 80.0199 69.6222 80.1023 69.7642C80.1875 69.9034 80.2955 69.9972 80.4261 70.0455C80.5597 70.0909 80.7003 70.1136 80.848 70.1136C80.9588 70.1136 81.0497 70.108 81.1207 70.0966C81.1918 70.0824 81.2486 70.071 81.2912 70.0625L81.4957 70.9659C81.4276 70.9915 81.3324 71.017 81.2102 71.0426C81.0881 71.071 80.9332 71.0852 80.7457 71.0852C80.4616 71.0852 80.1832 71.0241 79.9105 70.902C79.6406 70.7798 79.4162 70.5938 79.2372 70.3438C79.0611 70.0938 78.973 69.7784 78.973 69.3977V62.8864ZM84.8153 71.1534C84.4006 71.1534 84.0241 71.0753 83.6861 70.919C83.348 70.7599 83.0795 70.5312 82.8807 70.233C82.6818 69.9318 82.5824 69.5682 82.5824 69.142C82.5824 68.767 82.6563 68.4631 82.804 68.2301C82.9517 67.9943 83.1491 67.8097 83.3963 67.6761C83.6435 67.5426 83.9162 67.4432 84.2145 67.3778C84.5156 67.3097 84.8182 67.2557 85.1222 67.2159C85.5199 67.1648 85.8423 67.1264 86.0895 67.1009C86.3395 67.0724 86.5213 67.0256 86.6349 66.9602C86.7514 66.8949 86.8097 66.7812 86.8097 66.6193V66.5852C86.8097 66.1648 86.6946 65.8381 86.4645 65.6051C86.2372 65.3722 85.892 65.2557 85.429 65.2557C84.9489 65.2557 84.5724 65.3608 84.2997 65.571C84.027 65.7812 83.8352 66.0057 83.7244 66.2443L82.7699 65.9034C82.9403 65.5057 83.1676 65.196 83.4517 64.9744C83.7386 64.75 84.0511 64.5937 84.3892 64.5057C84.7301 64.4148 85.0653 64.3693 85.3949 64.3693C85.6051 64.3693 85.8466 64.3949 86.1193 64.446C86.3949 64.4943 86.6605 64.5952 86.9162 64.7486C87.1747 64.902 87.3892 65.1335 87.5597 65.4432C87.7301 65.7528 87.8153 66.1676 87.8153 66.6875V71H86.8097V70.1136H86.7585C86.6903 70.2557 86.5767 70.4077 86.4176 70.5696C86.2585 70.7315 86.0469 70.8693 85.7827 70.983C85.5185 71.0966 85.196 71.1534 84.8153 71.1534ZM84.9688 70.25C85.3665 70.25 85.7017 70.1719 85.9744 70.0156C86.25 69.8594 86.4574 69.6577 86.5966 69.4105C86.7386 69.1634 86.8097 68.9034 86.8097 68.6307V67.7102C86.767 67.7614 86.6733 67.8082 86.5284 67.8509C86.3864 67.8906 86.2216 67.9261 86.0341 67.9574C85.8494 67.9858 85.669 68.0114 85.4929 68.0341C85.3196 68.054 85.179 68.071 85.071 68.0852C84.8097 68.1193 84.5653 68.1747 84.3381 68.2514C84.1136 68.3253 83.9318 68.4375 83.7926 68.5881C83.6563 68.7358 83.5881 68.9375 83.5881 69.1932C83.5881 69.5426 83.7173 69.8068 83.9759 69.9858C84.2372 70.1619 84.5682 70.25 84.9688 70.25ZM89.6509 71V64.4545H90.6566V71H89.6509ZM90.1623 63.3636C89.9663 63.3636 89.7972 63.2969 89.6552 63.1634C89.516 63.0298 89.4464 62.8693 89.4464 62.6818C89.4464 62.4943 89.516 62.3338 89.6552 62.2003C89.7972 62.0668 89.9663 62 90.1623 62C90.3583 62 90.5259 62.0668 90.6651 62.2003C90.8072 62.3338 90.8782 62.4943 90.8782 62.6818C90.8782 62.8693 90.8072 63.0298 90.6651 63.1634C90.5259 63.2969 90.3583 63.3636 90.1623 63.3636ZM93.5043 62.2727V71H92.4986V62.2727H93.5043ZM99.9826 65.9205L99.0792 66.1761C99.0224 66.0256 98.9386 65.8793 98.8278 65.7372C98.7198 65.5923 98.5721 65.473 98.3846 65.3793C98.1971 65.2855 97.957 65.2386 97.6644 65.2386C97.2638 65.2386 96.93 65.331 96.663 65.5156C96.3988 65.6974 96.2667 65.929 96.2667 66.2102C96.2667 66.4602 96.3576 66.6577 96.5394 66.8026C96.7212 66.9474 97.0053 67.0682 97.3917 67.1648L98.3633 67.4034C98.9485 67.5455 99.3846 67.7628 99.6715 68.0554C99.9585 68.3452 100.102 68.7187 100.102 69.1761C100.102 69.5511 99.994 69.8864 99.7781 70.1818C99.565 70.4773 99.2667 70.7102 98.8832 70.8807C98.4996 71.0511 98.0536 71.1364 97.5451 71.1364C96.8775 71.1364 96.3249 70.9915 95.8874 70.7017C95.4499 70.4119 95.1729 69.9886 95.0565 69.4318L96.011 69.1932C96.1019 69.5455 96.2738 69.8097 96.5266 69.9858C96.7823 70.1619 97.1161 70.25 97.5281 70.25C97.9968 70.25 98.369 70.1506 98.6445 69.9517C98.9229 69.75 99.0621 69.5085 99.0621 69.2273C99.0621 69 98.9826 68.8097 98.8235 68.6562C98.6644 68.5 98.4201 68.3835 98.0906 68.3068L96.9996 68.0511C96.4002 67.9091 95.9599 67.6889 95.6786 67.3906C95.4002 67.0895 95.261 66.7131 95.261 66.2614C95.261 65.892 95.3647 65.5653 95.5721 65.2812C95.7823 64.9972 96.0678 64.7741 96.4286 64.6122C96.7923 64.4503 97.2042 64.3693 97.6644 64.3693C98.3121 64.3693 98.8207 64.5114 99.19 64.7955C99.5621 65.0795 99.8263 65.4545 99.9826 65.9205Z" fill="#9B9DA1"/>
<path d="M12 84C12 81.7909 13.7909 80 16 80H216C218.209 80 220 81.7909 220 84V120C220 122.209 218.209 124 216 124H16C13.7909 124 12 122.209 12 120V84Z" fill="#181C26"/>
<g clip-path="url(#clip0_2150_7002)">
<path d="M24.6667 92C24.6667 90.1591 26.1591 88.6667 28 88.6667H48C49.8409 88.6667 51.3333 90.1591 51.3333 92V112C51.3333 113.841 49.8409 115.333 48 115.333H28C26.1591 115.333 24.6667 113.841 24.6667 112V92Z" fill="#19B259"/>
<path d="M24.6667 92C24.6667 90.1591 26.1591 88.6667 28 88.6667H48C49.8409 88.6667 51.3333 90.1591 51.3333 92V112C51.3333 113.841 49.8409 115.333 48 115.333H28C26.1591 115.333 24.6667 113.841 24.6667 112V92Z" stroke="#414858" stroke-width="1.33333"/>
<path d="M34.9008 107V96.8182H41.2844V98.1406H36.4371V101.243H40.9513V102.56H36.4371V105.678H41.344V107H34.9008Z" fill="white"/>
</g>
<path d="M62.9588 97V88.2727H64.2756V95.8665H68.2301V97H62.9588ZM71.5348 97.1449C71.12 97.1449 70.745 97.0682 70.4098 96.9148C70.0746 96.7585 69.8089 96.5327 69.6129 96.2372C69.4197 95.9418 69.3232 95.5795 69.3232 95.1506C69.3232 94.7812 69.3942 94.4773 69.5362 94.2386C69.6783 94 69.87 93.8111 70.1115 93.6719C70.353 93.5327 70.6229 93.4276 70.9212 93.3565C71.2195 93.2855 71.5234 93.2315 71.8331 93.1946C72.2251 93.1491 72.5433 93.1122 72.7876 93.0838C73.032 93.0526 73.2095 93.0028 73.3203 92.9347C73.4311 92.8665 73.4865 92.7557 73.4865 92.6023V92.5724C73.4865 92.2003 73.3814 91.9119 73.1712 91.7074C72.9638 91.5028 72.6541 91.4006 72.2422 91.4006C71.8132 91.4006 71.4751 91.4957 71.228 91.6861C70.9837 91.8736 70.8146 92.0824 70.7209 92.3125L69.5234 92.0398C69.6655 91.642 69.8729 91.321 70.1456 91.0767C70.4212 90.8295 70.7379 90.6506 71.0959 90.5398C71.4538 90.4261 71.8303 90.3693 72.2251 90.3693C72.4865 90.3693 72.7635 90.4006 73.0561 90.4631C73.3516 90.5227 73.6271 90.6335 73.8828 90.7955C74.1413 90.9574 74.353 91.1889 74.5178 91.4901C74.6825 91.7884 74.7649 92.1761 74.7649 92.6534V97H73.5206V96.1051H73.4695C73.3871 96.2699 73.2635 96.4318 73.0987 96.5909C72.9339 96.75 72.7223 96.8821 72.4638 96.9872C72.2053 97.0923 71.8956 97.1449 71.5348 97.1449ZM71.8118 96.1222C72.1641 96.1222 72.4652 96.0526 72.7152 95.9134C72.968 95.7741 73.1598 95.5923 73.2905 95.3679C73.424 95.1406 73.4908 94.8977 73.4908 94.6392V93.7955C73.4453 93.8409 73.3572 93.8835 73.2266 93.9233C73.0987 93.9602 72.9524 93.9929 72.7876 94.0213C72.6229 94.0469 72.4624 94.071 72.3061 94.0938C72.1499 94.1136 72.0192 94.1307 71.9141 94.1449C71.6669 94.1761 71.4411 94.2287 71.2365 94.3026C71.0348 94.3764 70.8729 94.483 70.7507 94.6222C70.6314 94.7585 70.5717 94.9403 70.5717 95.1676C70.5717 95.483 70.6882 95.7216 70.9212 95.8835C71.1541 96.0426 71.451 96.1222 71.8118 96.1222ZM76.5643 97V88.2727H77.8384V91.5156H77.9151C77.989 91.3793 78.0955 91.2216 78.2347 91.0426C78.3739 90.8636 78.5671 90.7074 78.8143 90.5739C79.0614 90.4375 79.3881 90.3693 79.7944 90.3693C80.3228 90.3693 80.7944 90.5028 81.2092 90.7699C81.6239 91.0369 81.9492 91.4219 82.185 91.9247C82.4237 92.4276 82.543 93.0327 82.543 93.7401C82.543 94.4474 82.4251 95.054 82.1893 95.5597C81.9535 96.0625 81.6296 96.4503 81.2177 96.723C80.8058 96.9929 80.3356 97.1278 79.8072 97.1278C79.4094 97.1278 79.0842 97.0611 78.8313 96.9276C78.5813 96.794 78.3853 96.6378 78.2433 96.4588C78.1012 96.2798 77.9918 96.1207 77.9151 95.9815H77.8086V97H76.5643ZM77.8129 93.7273C77.8129 94.1875 77.8796 94.5909 78.0131 94.9375C78.1467 95.2841 78.3398 95.5554 78.5927 95.7514C78.8455 95.9446 79.1552 96.0412 79.5217 96.0412C79.9023 96.0412 80.2205 95.9403 80.4762 95.7386C80.7319 95.5341 80.9251 95.2571 81.0558 94.9077C81.1893 94.5582 81.256 94.1648 81.256 93.7273C81.256 93.2955 81.1907 92.9077 81.06 92.5639C80.9322 92.2202 80.739 91.9489 80.4805 91.75C80.2248 91.5511 79.9052 91.4517 79.5217 91.4517C79.1523 91.4517 78.8398 91.5469 78.5842 91.7372C78.3313 91.9276 78.1396 92.1932 78.0089 92.5341C77.8782 92.875 77.8129 93.2727 77.8129 93.7273ZM86.7947 97.1321C86.1499 97.1321 85.5945 96.9943 85.1286 96.7188C84.6655 96.4403 84.3075 96.0497 84.0547 95.5469C83.8047 95.0412 83.6797 94.4489 83.6797 93.7699C83.6797 93.0994 83.8047 92.5085 84.0547 91.9972C84.3075 91.4858 84.6598 91.0866 85.1115 90.7997C85.5661 90.5128 86.0973 90.3693 86.7053 90.3693C87.0746 90.3693 87.4325 90.4304 87.7791 90.5526C88.1257 90.6747 88.4368 90.8665 88.7124 91.1278C88.9879 91.3892 89.2053 91.7287 89.3643 92.1463C89.5234 92.5611 89.603 93.0653 89.603 93.6591V94.1108H84.3999V93.1562H88.3544C88.3544 92.821 88.2862 92.5241 88.1499 92.2656C88.0135 92.0043 87.8217 91.7983 87.5746 91.6477C87.3303 91.4972 87.0433 91.4219 86.7138 91.4219C86.3558 91.4219 86.0433 91.5099 85.7763 91.6861C85.5121 91.8594 85.3075 92.0866 85.1626 92.3679C85.0206 92.6463 84.9496 92.9489 84.9496 93.2756V94.0213C84.9496 94.4588 85.0263 94.831 85.1797 95.1378C85.3359 95.4446 85.5533 95.679 85.8317 95.8409C86.1101 96 86.4354 96.0795 86.8075 96.0795C87.049 96.0795 87.2692 96.0455 87.468 95.9773C87.6669 95.9062 87.8388 95.8011 87.9837 95.6619C88.1286 95.5227 88.2393 95.3509 88.3161 95.1463L89.522 95.3636C89.4254 95.7187 89.2521 96.0298 89.0021 96.2969C88.755 96.5611 88.4439 96.767 88.0689 96.9148C87.6967 97.0597 87.272 97.1321 86.7947 97.1321ZM92.2908 88.2727V97H91.0167V88.2727H92.2908Z" fill="white"/>
<path d="M65.75 115H63.0568V106.273H65.8693C66.7159 106.273 67.4403 106.447 68.0426 106.797C68.6449 107.143 69.1065 107.642 69.4276 108.293C69.7486 108.94 69.9091 109.716 69.9091 110.619C69.9091 111.528 69.7472 112.311 69.4233 112.967C69.0994 113.621 68.6278 114.124 68.0085 114.476C67.3892 114.825 66.6364 115 65.75 115ZM64.1136 114.062H65.6818C66.4034 114.062 67.0014 113.923 67.4759 113.645C67.9503 113.366 68.304 112.97 68.5369 112.456C68.7699 111.942 68.8864 111.33 68.8864 110.619C68.8864 109.915 68.7713 109.308 68.5412 108.8C68.3111 108.288 67.9673 107.896 67.5099 107.624C67.0526 107.348 66.483 107.21 65.8011 107.21H64.1136V114.062ZM74.2898 115.136C73.6591 115.136 73.1151 114.997 72.6577 114.719C72.2031 114.438 71.8523 114.045 71.6051 113.543C71.3608 113.037 71.2386 112.449 71.2386 111.778C71.2386 111.108 71.3608 110.517 71.6051 110.006C71.8523 109.491 72.196 109.091 72.6364 108.804C73.0795 108.514 73.5966 108.369 74.1875 108.369C74.5284 108.369 74.8651 108.426 75.1974 108.54C75.5298 108.653 75.8324 108.838 76.1051 109.094C76.3778 109.347 76.5952 109.682 76.7571 110.099C76.919 110.517 77 111.031 77 111.642V112.068H71.9545V111.199H75.9773C75.9773 110.83 75.9034 110.5 75.7557 110.21C75.6108 109.92 75.4034 109.692 75.1335 109.524C74.8665 109.357 74.5511 109.273 74.1875 109.273C73.7869 109.273 73.4403 109.372 73.1477 109.571C72.858 109.767 72.6349 110.023 72.4787 110.338C72.3224 110.653 72.2443 110.991 72.2443 111.352V111.932C72.2443 112.426 72.3295 112.845 72.5 113.189C72.6733 113.53 72.9134 113.79 73.2202 113.969C73.527 114.145 73.8835 114.233 74.2898 114.233C74.554 114.233 74.7926 114.196 75.0057 114.122C75.2216 114.045 75.4077 113.932 75.5639 113.781C75.7202 113.628 75.8409 113.437 75.9261 113.21L76.8977 113.483C76.7955 113.812 76.6236 114.102 76.3821 114.352C76.1406 114.599 75.8423 114.793 75.4872 114.932C75.1321 115.068 74.733 115.136 74.2898 115.136ZM81.3764 108.455V109.307H77.9844V108.455H81.3764ZM78.973 106.886H79.9787V113.125C79.9787 113.409 80.0199 113.622 80.1023 113.764C80.1875 113.903 80.2955 113.997 80.4261 114.045C80.5597 114.091 80.7003 114.114 80.848 114.114C80.9588 114.114 81.0497 114.108 81.1207 114.097C81.1918 114.082 81.2486 114.071 81.2912 114.062L81.4957 114.966C81.4276 114.991 81.3324 115.017 81.2102 115.043C81.0881 115.071 80.9332 115.085 80.7457 115.085C80.4616 115.085 80.1832 115.024 79.9105 114.902C79.6406 114.78 79.4162 114.594 79.2372 114.344C79.0611 114.094 78.973 113.778 78.973 113.398V106.886ZM84.8153 115.153C84.4006 115.153 84.0241 115.075 83.6861 114.919C83.348 114.76 83.0795 114.531 82.8807 114.233C82.6818 113.932 82.5824 113.568 82.5824 113.142C82.5824 112.767 82.6563 112.463 82.804 112.23C82.9517 111.994 83.1491 111.81 83.3963 111.676C83.6435 111.543 83.9162 111.443 84.2145 111.378C84.5156 111.31 84.8182 111.256 85.1222 111.216C85.5199 111.165 85.8423 111.126 86.0895 111.101C86.3395 111.072 86.5213 111.026 86.6349 110.96C86.7514 110.895 86.8097 110.781 86.8097 110.619V110.585C86.8097 110.165 86.6946 109.838 86.4645 109.605C86.2372 109.372 85.892 109.256 85.429 109.256C84.9489 109.256 84.5724 109.361 84.2997 109.571C84.027 109.781 83.8352 110.006 83.7244 110.244L82.7699 109.903C82.9403 109.506 83.1676 109.196 83.4517 108.974C83.7386 108.75 84.0511 108.594 84.3892 108.506C84.7301 108.415 85.0653 108.369 85.3949 108.369C85.6051 108.369 85.8466 108.395 86.1193 108.446C86.3949 108.494 86.6605 108.595 86.9162 108.749C87.1747 108.902 87.3892 109.134 87.5597 109.443C87.7301 109.753 87.8153 110.168 87.8153 110.688V115H86.8097V114.114H86.7585C86.6903 114.256 86.5767 114.408 86.4176 114.57C86.2585 114.732 86.0469 114.869 85.7827 114.983C85.5185 115.097 85.196 115.153 84.8153 115.153ZM84.9688 114.25C85.3665 114.25 85.7017 114.172 85.9744 114.016C86.25 113.859 86.4574 113.658 86.5966 113.411C86.7386 113.163 86.8097 112.903 86.8097 112.631V111.71C86.767 111.761 86.6733 111.808 86.5284 111.851C86.3864 111.891 86.2216 111.926 86.0341 111.957C85.8494 111.986 85.669 112.011 85.4929 112.034C85.3196 112.054 85.179 112.071 85.071 112.085C84.8097 112.119 84.5653 112.175 84.3381 112.251C84.1136 112.325 83.9318 112.437 83.7926 112.588C83.6563 112.736 83.5881 112.937 83.5881 113.193C83.5881 113.543 83.7173 113.807 83.9759 113.986C84.2372 114.162 84.5682 114.25 84.9688 114.25ZM89.6509 115V108.455H90.6566V115H89.6509ZM90.1623 107.364C89.9663 107.364 89.7972 107.297 89.6552 107.163C89.516 107.03 89.4464 106.869 89.4464 106.682C89.4464 106.494 89.516 106.334 89.6552 106.2C89.7972 106.067 89.9663 106 90.1623 106C90.3583 106 90.5259 106.067 90.6651 106.2C90.8072 106.334 90.8782 106.494 90.8782 106.682C90.8782 106.869 90.8072 107.03 90.6651 107.163C90.5259 107.297 90.3583 107.364 90.1623 107.364ZM93.5043 106.273V115H92.4986V106.273H93.5043ZM99.9826 109.92L99.0792 110.176C99.0224 110.026 98.9386 109.879 98.8278 109.737C98.7198 109.592 98.5721 109.473 98.3846 109.379C98.1971 109.286 97.957 109.239 97.6644 109.239C97.2638 109.239 96.93 109.331 96.663 109.516C96.3988 109.697 96.2667 109.929 96.2667 110.21C96.2667 110.46 96.3576 110.658 96.5394 110.803C96.7212 110.947 97.0053 111.068 97.3917 111.165L98.3633 111.403C98.9485 111.545 99.3846 111.763 99.6715 112.055C99.9585 112.345 100.102 112.719 100.102 113.176C100.102 113.551 99.994 113.886 99.7781 114.182C99.565 114.477 99.2667 114.71 98.8832 114.881C98.4996 115.051 98.0536 115.136 97.5451 115.136C96.8775 115.136 96.3249 114.991 95.8874 114.702C95.4499 114.412 95.1729 113.989 95.0565 113.432L96.011 113.193C96.1019 113.545 96.2738 113.81 96.5266 113.986C96.7823 114.162 97.1161 114.25 97.5281 114.25C97.9968 114.25 98.369 114.151 98.6445 113.952C98.9229 113.75 99.0621 113.509 99.0621 113.227C99.0621 113 98.9826 112.81 98.8235 112.656C98.6644 112.5 98.4201 112.384 98.0906 112.307L96.9996 112.051C96.4002 111.909 95.9599 111.689 95.6786 111.391C95.4002 111.089 95.261 110.713 95.261 110.261C95.261 109.892 95.3647 109.565 95.5721 109.281C95.7823 108.997 96.0678 108.774 96.4286 108.612C96.7923 108.45 97.2042 108.369 97.6644 108.369C98.3121 108.369 98.8207 108.511 99.19 108.795C99.5621 109.08 99.8263 109.455 99.9826 109.92Z" fill="#9B9DA1"/>
<path d="M12 128C12 125.791 13.7909 124 16 124H216C218.209 124 220 125.791 220 128V164C220 166.209 218.209 168 216 168H16C13.7909 168 12 166.209 12 164V128Z" fill="#181C26"/>
<g clip-path="url(#clip1_2150_7002)">
<path d="M24.6667 136C24.6667 134.159 26.1591 132.667 28 132.667H48C49.8409 132.667 51.3333 134.159 51.3333 136V156C51.3333 157.841 49.8409 159.333 48 159.333H28C26.1591 159.333 24.6667 157.841 24.6667 156V136Z" fill="#19B259"/>
<path d="M24.6667 136C24.6667 134.159 26.1591 132.667 28 132.667H48C49.8409 132.667 51.3333 134.159 51.3333 136V156C51.3333 157.841 49.8409 159.333 48 159.333H28C26.1591 159.333 24.6667 157.841 24.6667 156V136Z" stroke="#414858" stroke-width="1.33333"/>
<path d="M34.9008 151V140.818H41.2844V142.141H36.4371V145.243H40.9513V146.56H36.4371V149.678H41.344V151H34.9008Z" fill="white"/>
</g>
<path d="M62.9588 141V132.273H64.2756V139.866H68.2301V141H62.9588ZM71.5348 141.145C71.12 141.145 70.745 141.068 70.4098 140.915C70.0746 140.759 69.8089 140.533 69.6129 140.237C69.4197 139.942 69.3232 139.58 69.3232 139.151C69.3232 138.781 69.3942 138.477 69.5362 138.239C69.6783 138 69.87 137.811 70.1115 137.672C70.353 137.533 70.6229 137.428 70.9212 137.357C71.2195 137.286 71.5234 137.232 71.8331 137.195C72.2251 137.149 72.5433 137.112 72.7876 137.084C73.032 137.053 73.2095 137.003 73.3203 136.935C73.4311 136.866 73.4865 136.756 73.4865 136.602V136.572C73.4865 136.2 73.3814 135.912 73.1712 135.707C72.9638 135.503 72.6541 135.401 72.2422 135.401C71.8132 135.401 71.4751 135.496 71.228 135.686C70.9837 135.874 70.8146 136.082 70.7209 136.312L69.5234 136.04C69.6655 135.642 69.8729 135.321 70.1456 135.077C70.4212 134.83 70.7379 134.651 71.0959 134.54C71.4538 134.426 71.8303 134.369 72.2251 134.369C72.4865 134.369 72.7635 134.401 73.0561 134.463C73.3516 134.523 73.6271 134.634 73.8828 134.795C74.1413 134.957 74.353 135.189 74.5178 135.49C74.6825 135.788 74.7649 136.176 74.7649 136.653V141H73.5206V140.105H73.4695C73.3871 140.27 73.2635 140.432 73.0987 140.591C72.9339 140.75 72.7223 140.882 72.4638 140.987C72.2053 141.092 71.8956 141.145 71.5348 141.145ZM71.8118 140.122C72.1641 140.122 72.4652 140.053 72.7152 139.913C72.968 139.774 73.1598 139.592 73.2905 139.368C73.424 139.141 73.4908 138.898 73.4908 138.639V137.795C73.4453 137.841 73.3572 137.884 73.2266 137.923C73.0987 137.96 72.9524 137.993 72.7876 138.021C72.6229 138.047 72.4624 138.071 72.3061 138.094C72.1499 138.114 72.0192 138.131 71.9141 138.145C71.6669 138.176 71.4411 138.229 71.2365 138.303C71.0348 138.376 70.8729 138.483 70.7507 138.622C70.6314 138.759 70.5717 138.94 70.5717 139.168C70.5717 139.483 70.6882 139.722 70.9212 139.884C71.1541 140.043 71.451 140.122 71.8118 140.122ZM76.5643 141V132.273H77.8384V135.516H77.9151C77.989 135.379 78.0955 135.222 78.2347 135.043C78.3739 134.864 78.5671 134.707 78.8143 134.574C79.0614 134.438 79.3881 134.369 79.7944 134.369C80.3228 134.369 80.7944 134.503 81.2092 134.77C81.6239 135.037 81.9492 135.422 82.185 135.925C82.4237 136.428 82.543 137.033 82.543 137.74C82.543 138.447 82.4251 139.054 82.1893 139.56C81.9535 140.062 81.6296 140.45 81.2177 140.723C80.8058 140.993 80.3356 141.128 79.8072 141.128C79.4094 141.128 79.0842 141.061 78.8313 140.928C78.5813 140.794 78.3853 140.638 78.2433 140.459C78.1012 140.28 77.9918 140.121 77.9151 139.982H77.8086V141H76.5643ZM77.8129 137.727C77.8129 138.187 77.8796 138.591 78.0131 138.938C78.1467 139.284 78.3398 139.555 78.5927 139.751C78.8455 139.945 79.1552 140.041 79.5217 140.041C79.9023 140.041 80.2205 139.94 80.4762 139.739C80.7319 139.534 80.9251 139.257 81.0558 138.908C81.1893 138.558 81.256 138.165 81.256 137.727C81.256 137.295 81.1907 136.908 81.06 136.564C80.9322 136.22 80.739 135.949 80.4805 135.75C80.2248 135.551 79.9052 135.452 79.5217 135.452C79.1523 135.452 78.8398 135.547 78.5842 135.737C78.3313 135.928 78.1396 136.193 78.0089 136.534C77.8782 136.875 77.8129 137.273 77.8129 137.727ZM86.7947 141.132C86.1499 141.132 85.5945 140.994 85.1286 140.719C84.6655 140.44 84.3075 140.05 84.0547 139.547C83.8047 139.041 83.6797 138.449 83.6797 137.77C83.6797 137.099 83.8047 136.509 84.0547 135.997C84.3075 135.486 84.6598 135.087 85.1115 134.8C85.5661 134.513 86.0973 134.369 86.7053 134.369C87.0746 134.369 87.4325 134.43 87.7791 134.553C88.1257 134.675 88.4368 134.866 88.7124 135.128C88.9879 135.389 89.2053 135.729 89.3643 136.146C89.5234 136.561 89.603 137.065 89.603 137.659V138.111H84.3999V137.156H88.3544C88.3544 136.821 88.2862 136.524 88.1499 136.266C88.0135 136.004 87.8217 135.798 87.5746 135.648C87.3303 135.497 87.0433 135.422 86.7138 135.422C86.3558 135.422 86.0433 135.51 85.7763 135.686C85.5121 135.859 85.3075 136.087 85.1626 136.368C85.0206 136.646 84.9496 136.949 84.9496 137.276V138.021C84.9496 138.459 85.0263 138.831 85.1797 139.138C85.3359 139.445 85.5533 139.679 85.8317 139.841C86.1101 140 86.4354 140.08 86.8075 140.08C87.049 140.08 87.2692 140.045 87.468 139.977C87.6669 139.906 87.8388 139.801 87.9837 139.662C88.1286 139.523 88.2393 139.351 88.3161 139.146L89.522 139.364C89.4254 139.719 89.2521 140.03 89.0021 140.297C88.755 140.561 88.4439 140.767 88.0689 140.915C87.6967 141.06 87.272 141.132 86.7947 141.132ZM92.2908 132.273V141H91.0167V132.273H92.2908Z" fill="white"/>
<path d="M65.75 159H63.0568V150.273H65.8693C66.7159 150.273 67.4403 150.447 68.0426 150.797C68.6449 151.143 69.1065 151.642 69.4276 152.293C69.7486 152.94 69.9091 153.716 69.9091 154.619C69.9091 155.528 69.7472 156.311 69.4233 156.967C69.0994 157.621 68.6278 158.124 68.0085 158.476C67.3892 158.825 66.6364 159 65.75 159ZM64.1136 158.062H65.6818C66.4034 158.062 67.0014 157.923 67.4759 157.645C67.9503 157.366 68.304 156.97 68.5369 156.456C68.7699 155.942 68.8864 155.33 68.8864 154.619C68.8864 153.915 68.7713 153.308 68.5412 152.8C68.3111 152.288 67.9673 151.896 67.5099 151.624C67.0526 151.348 66.483 151.21 65.8011 151.21H64.1136V158.062ZM74.2898 159.136C73.6591 159.136 73.1151 158.997 72.6577 158.719C72.2031 158.438 71.8523 158.045 71.6051 157.543C71.3608 157.037 71.2386 156.449 71.2386 155.778C71.2386 155.108 71.3608 154.517 71.6051 154.006C71.8523 153.491 72.196 153.091 72.6364 152.804C73.0795 152.514 73.5966 152.369 74.1875 152.369C74.5284 152.369 74.8651 152.426 75.1974 152.54C75.5298 152.653 75.8324 152.838 76.1051 153.094C76.3778 153.347 76.5952 153.682 76.7571 154.099C76.919 154.517 77 155.031 77 155.642V156.068H71.9545V155.199H75.9773C75.9773 154.83 75.9034 154.5 75.7557 154.21C75.6108 153.92 75.4034 153.692 75.1335 153.524C74.8665 153.357 74.5511 153.273 74.1875 153.273C73.7869 153.273 73.4403 153.372 73.1477 153.571C72.858 153.767 72.6349 154.023 72.4787 154.338C72.3224 154.653 72.2443 154.991 72.2443 155.352V155.932C72.2443 156.426 72.3295 156.845 72.5 157.189C72.6733 157.53 72.9134 157.79 73.2202 157.969C73.527 158.145 73.8835 158.233 74.2898 158.233C74.554 158.233 74.7926 158.196 75.0057 158.122C75.2216 158.045 75.4077 157.932 75.5639 157.781C75.7202 157.628 75.8409 157.437 75.9261 157.21L76.8977 157.483C76.7955 157.812 76.6236 158.102 76.3821 158.352C76.1406 158.599 75.8423 158.793 75.4872 158.932C75.1321 159.068 74.733 159.136 74.2898 159.136ZM81.3764 152.455V153.307H77.9844V152.455H81.3764ZM78.973 150.886H79.9787V157.125C79.9787 157.409 80.0199 157.622 80.1023 157.764C80.1875 157.903 80.2955 157.997 80.4261 158.045C80.5597 158.091 80.7003 158.114 80.848 158.114C80.9588 158.114 81.0497 158.108 81.1207 158.097C81.1918 158.082 81.2486 158.071 81.2912 158.062L81.4957 158.966C81.4276 158.991 81.3324 159.017 81.2102 159.043C81.0881 159.071 80.9332 159.085 80.7457 159.085C80.4616 159.085 80.1832 159.024 79.9105 158.902C79.6406 158.78 79.4162 158.594 79.2372 158.344C79.0611 158.094 78.973 157.778 78.973 157.398V150.886ZM84.8153 159.153C84.4006 159.153 84.0241 159.075 83.6861 158.919C83.348 158.76 83.0795 158.531 82.8807 158.233C82.6818 157.932 82.5824 157.568 82.5824 157.142C82.5824 156.767 82.6563 156.463 82.804 156.23C82.9517 155.994 83.1491 155.81 83.3963 155.676C83.6435 155.543 83.9162 155.443 84.2145 155.378C84.5156 155.31 84.8182 155.256 85.1222 155.216C85.5199 155.165 85.8423 155.126 86.0895 155.101C86.3395 155.072 86.5213 155.026 86.6349 154.96C86.7514 154.895 86.8097 154.781 86.8097 154.619V154.585C86.8097 154.165 86.6946 153.838 86.4645 153.605C86.2372 153.372 85.892 153.256 85.429 153.256C84.9489 153.256 84.5724 153.361 84.2997 153.571C84.027 153.781 83.8352 154.006 83.7244 154.244L82.7699 153.903C82.9403 153.506 83.1676 153.196 83.4517 152.974C83.7386 152.75 84.0511 152.594 84.3892 152.506C84.7301 152.415 85.0653 152.369 85.3949 152.369C85.6051 152.369 85.8466 152.395 86.1193 152.446C86.3949 152.494 86.6605 152.595 86.9162 152.749C87.1747 152.902 87.3892 153.134 87.5597 153.443C87.7301 153.753 87.8153 154.168 87.8153 154.688V159H86.8097V158.114H86.7585C86.6903 158.256 86.5767 158.408 86.4176 158.57C86.2585 158.732 86.0469 158.869 85.7827 158.983C85.5185 159.097 85.196 159.153 84.8153 159.153ZM84.9688 158.25C85.3665 158.25 85.7017 158.172 85.9744 158.016C86.25 157.859 86.4574 157.658 86.5966 157.411C86.7386 157.163 86.8097 156.903 86.8097 156.631V155.71C86.767 155.761 86.6733 155.808 86.5284 155.851C86.3864 155.891 86.2216 155.926 86.0341 155.957C85.8494 155.986 85.669 156.011 85.4929 156.034C85.3196 156.054 85.179 156.071 85.071 156.085C84.8097 156.119 84.5653 156.175 84.3381 156.251C84.1136 156.325 83.9318 156.437 83.7926 156.588C83.6563 156.736 83.5881 156.937 83.5881 157.193C83.5881 157.543 83.7173 157.807 83.9759 157.986C84.2372 158.162 84.5682 158.25 84.9688 158.25ZM89.6509 159V152.455H90.6566V159H89.6509ZM90.1623 151.364C89.9663 151.364 89.7972 151.297 89.6552 151.163C89.516 151.03 89.4464 150.869 89.4464 150.682C89.4464 150.494 89.516 150.334 89.6552 150.2C89.7972 150.067 89.9663 150 90.1623 150C90.3583 150 90.5259 150.067 90.6651 150.2C90.8072 150.334 90.8782 150.494 90.8782 150.682C90.8782 150.869 90.8072 151.03 90.6651 151.163C90.5259 151.297 90.3583 151.364 90.1623 151.364ZM93.5043 150.273V159H92.4986V150.273H93.5043ZM99.9826 153.92L99.0792 154.176C99.0224 154.026 98.9386 153.879 98.8278 153.737C98.7198 153.592 98.5721 153.473 98.3846 153.379C98.1971 153.286 97.957 153.239 97.6644 153.239C97.2638 153.239 96.93 153.331 96.663 153.516C96.3988 153.697 96.2667 153.929 96.2667 154.21C96.2667 154.46 96.3576 154.658 96.5394 154.803C96.7212 154.947 97.0053 155.068 97.3917 155.165L98.3633 155.403C98.9485 155.545 99.3846 155.763 99.6715 156.055C99.9585 156.345 100.102 156.719 100.102 157.176C100.102 157.551 99.994 157.886 99.7781 158.182C99.565 158.477 99.2667 158.71 98.8832 158.881C98.4996 159.051 98.0536 159.136 97.5451 159.136C96.8775 159.136 96.3249 158.991 95.8874 158.702C95.4499 158.412 95.1729 157.989 95.0565 157.432L96.011 157.193C96.1019 157.545 96.2738 157.81 96.5266 157.986C96.7823 158.162 97.1161 158.25 97.5281 158.25C97.9968 158.25 98.369 158.151 98.6445 157.952C98.9229 157.75 99.0621 157.509 99.0621 157.227C99.0621 157 98.9826 156.81 98.8235 156.656C98.6644 156.5 98.4201 156.384 98.0906 156.307L96.9996 156.051C96.4002 155.909 95.9599 155.689 95.6786 155.391C95.4002 155.089 95.261 154.713 95.261 154.261C95.261 153.892 95.3647 153.565 95.5721 153.281C95.7823 152.997 96.0678 152.774 96.4286 152.612C96.7923 152.45 97.2042 152.369 97.6644 152.369C98.3121 152.369 98.8207 152.511 99.19 152.795C99.5621 153.08 99.8263 153.455 99.9826 153.92Z" fill="#9B9DA1"/>
<path d="M19.3645 187C19.2708 186.713 19.1472 186.456 18.9938 186.229C18.8432 185.999 18.6628 185.803 18.4526 185.641C18.2452 185.479 18.0094 185.355 17.7452 185.27C17.481 185.185 17.1912 185.142 16.8759 185.142C16.3588 185.142 15.8887 185.276 15.4654 185.543C15.0421 185.81 14.7054 186.203 14.4554 186.723C14.2054 187.243 14.0804 187.881 14.0804 188.636C14.0804 189.392 14.2069 190.03 14.4597 190.55C14.7125 191.07 15.0549 191.463 15.4867 191.73C15.9185 191.997 16.4043 192.131 16.9441 192.131C17.4441 192.131 17.8844 192.024 18.2651 191.811C18.6486 191.595 18.9469 191.291 19.16 190.899C19.3759 190.504 19.4838 190.04 19.4838 189.506L19.8077 189.574H17.1827V188.636H20.5066V189.574C20.5066 190.293 20.3532 190.918 20.0463 191.449C19.7424 191.98 19.3219 192.392 18.785 192.685C18.2509 192.974 17.6373 193.119 16.9441 193.119C16.1713 193.119 15.4924 192.938 14.9071 192.574C14.3248 192.21 13.8702 191.693 13.5435 191.023C13.2196 190.352 13.0577 189.557 13.0577 188.636C13.0577 187.946 13.15 187.325 13.3347 186.774C13.5222 186.22 13.7864 185.749 14.1273 185.359C14.4682 184.97 14.8716 184.672 15.3375 184.464C15.8034 184.257 16.3162 184.153 16.8759 184.153C17.3361 184.153 17.7651 184.223 18.1628 184.362C18.5634 184.499 18.9199 184.693 19.2324 184.946C19.5478 185.196 19.8105 185.496 20.0208 185.845C20.231 186.192 20.3759 186.577 20.4554 187H19.3645ZM22.3166 193V184.273H23.3734V192.062H27.4302V193H22.3166ZM36.0904 188.636C36.0904 189.557 35.9242 190.352 35.5918 191.023C35.2594 191.693 34.8034 192.21 34.2239 192.574C33.6444 192.938 32.9824 193.119 32.2381 193.119C31.4938 193.119 30.8319 192.938 30.2523 192.574C29.6728 192.21 29.2168 191.693 28.8844 191.023C28.552 190.352 28.3858 189.557 28.3858 188.636C28.3858 187.716 28.552 186.92 28.8844 186.25C29.2168 185.58 29.6728 185.062 30.2523 184.699C30.8319 184.335 31.4938 184.153 32.2381 184.153C32.9824 184.153 33.6444 184.335 34.2239 184.699C34.8034 185.062 35.2594 185.58 35.5918 186.25C35.9242 186.92 36.0904 187.716 36.0904 188.636ZM35.0676 188.636C35.0676 187.881 34.9412 187.243 34.6884 186.723C34.4384 186.203 34.0989 185.81 33.6699 185.543C33.2438 185.276 32.7665 185.142 32.2381 185.142C31.7097 185.142 31.231 185.276 30.802 185.543C30.3759 185.81 30.0364 186.203 29.7836 186.723C29.5336 187.243 29.4086 187.881 29.4086 188.636C29.4086 189.392 29.5336 190.03 29.7836 190.55C30.0364 191.07 30.3759 191.463 30.802 191.73C31.231 191.997 31.7097 192.131 32.2381 192.131C32.7665 192.131 33.2438 191.997 33.6699 191.73C34.0989 191.463 34.4384 191.07 34.6884 190.55C34.9412 190.03 35.0676 189.392 35.0676 188.636ZM37.8674 193V184.273H40.9185C41.5265 184.273 42.0279 184.378 42.4228 184.588C42.8176 184.795 43.1117 185.075 43.3049 185.428C43.498 185.777 43.5946 186.165 43.5946 186.591C43.5946 186.966 43.5279 187.276 43.3944 187.52C43.2637 187.764 43.0904 187.957 42.8745 188.099C42.6614 188.241 42.4299 188.347 42.1799 188.415V188.5C42.4469 188.517 42.7154 188.611 42.9853 188.781C43.2551 188.952 43.481 189.196 43.6628 189.514C43.8446 189.832 43.9355 190.222 43.9355 190.682C43.9355 191.119 43.8361 191.513 43.6373 191.862C43.4384 192.212 43.1245 192.489 42.6955 192.693C42.2665 192.898 41.7083 193 41.0208 193H37.8674ZM38.9242 192.062H41.0208C41.7111 192.062 42.2012 191.929 42.4909 191.662C42.7836 191.392 42.9299 191.065 42.9299 190.682C42.9299 190.386 42.8546 190.114 42.704 189.864C42.5534 189.611 42.339 189.409 42.0605 189.259C41.7821 189.105 41.4526 189.028 41.0719 189.028H38.9242V192.062ZM38.9242 188.108H40.8844C41.2026 188.108 41.4895 188.045 41.7452 187.92C42.0037 187.795 42.2083 187.619 42.3588 187.392C42.5123 187.165 42.589 186.898 42.589 186.591C42.589 186.207 42.4554 185.882 42.1884 185.615C41.9213 185.345 41.498 185.21 40.9185 185.21H38.9242V188.108ZM46.03 193H44.9221L48.1266 184.273H49.2175L52.4221 193H51.3141L48.7061 185.653H48.638L46.03 193ZM46.4391 189.591H50.905V190.528H46.4391V189.591ZM53.7814 193V184.273H54.8382V192.062H58.8951V193H53.7814ZM64.2644 184.273L66.8553 191.619H66.9576L69.5485 184.273H70.6564L67.4519 193H66.361L63.1564 184.273H64.2644ZM71.6238 193H70.5158L73.7203 184.273H74.8113L78.0158 193H76.9078L74.2999 185.653H74.2317L71.6238 193ZM72.0328 189.591H76.4988V190.528H72.0328V189.591ZM79.3752 193V184.273H82.324C83.0059 184.273 83.5655 184.389 84.003 184.622C84.4405 184.852 84.7644 185.169 84.9746 185.572C85.1848 185.976 85.29 186.435 85.29 186.949C85.29 187.463 85.1848 187.919 84.9746 188.317C84.7644 188.714 84.4419 189.027 84.0073 189.254C83.5726 189.479 83.0172 189.591 82.3411 189.591H79.9547V188.636H82.307C82.7729 188.636 83.1479 188.568 83.432 188.432C83.7189 188.295 83.9263 188.102 84.0542 187.852C84.1848 187.599 84.2502 187.298 84.2502 186.949C84.2502 186.599 84.1848 186.294 84.0542 186.033C83.9235 185.771 83.7147 185.57 83.4277 185.428C83.1408 185.283 82.7615 185.21 82.29 185.21H80.432V193H79.3752ZM83.4831 189.08L85.6309 193H84.4036L82.29 189.08H83.4831ZM88.1078 184.273V193H87.051V184.273H88.1078ZM90.5847 193H89.4767L92.6813 184.273H93.7722L96.9767 193H95.8688L93.2608 185.653H93.1926L90.5847 193ZM90.9938 189.591H95.4597V190.528H90.9938V189.591ZM98.3361 193V184.273H101.387C101.995 184.273 102.497 184.378 102.892 184.588C103.286 184.795 103.58 185.075 103.774 185.428C103.967 185.777 104.063 186.165 104.063 186.591C104.063 186.966 103.997 187.276 103.863 187.52C103.732 187.764 103.559 187.957 103.343 188.099C103.13 188.241 102.899 188.347 102.649 188.415V188.5C102.916 188.517 103.184 188.611 103.454 188.781C103.724 188.952 103.95 189.196 104.132 189.514C104.313 189.832 104.404 190.222 104.404 190.682C104.404 191.119 104.305 191.513 104.106 191.862C103.907 192.212 103.593 192.489 103.164 192.693C102.735 192.898 102.177 193 101.49 193H98.3361ZM99.3929 192.062H101.49C102.18 192.062 102.67 191.929 102.96 191.662C103.252 191.392 103.399 191.065 103.399 190.682C103.399 190.386 103.323 190.114 103.173 189.864C103.022 189.611 102.808 189.409 102.529 189.259C102.251 189.105 101.921 189.028 101.541 189.028H99.3929V192.062ZM99.3929 188.108H101.353C101.671 188.108 101.958 188.045 102.214 187.92C102.472 187.795 102.677 187.619 102.828 187.392C102.981 187.165 103.058 186.898 103.058 186.591C103.058 186.207 102.924 185.882 102.657 185.615C102.39 185.345 101.967 185.21 101.387 185.21H99.3929V188.108ZM106.141 193V184.273H107.198V192.062H111.254V193H106.141ZM112.891 193V184.273H118.158V185.21H113.948V188.159H117.885V189.097H113.948V192.062H118.226V193H112.891ZM124.835 186.455C124.784 186.023 124.577 185.688 124.213 185.449C123.85 185.21 123.404 185.091 122.875 185.091C122.489 185.091 122.151 185.153 121.861 185.278C121.574 185.403 121.35 185.575 121.188 185.794C121.029 186.013 120.949 186.261 120.949 186.54C120.949 186.773 121.004 186.973 121.115 187.141C121.229 187.305 121.374 187.443 121.55 187.554C121.726 187.662 121.911 187.751 122.104 187.822C122.297 187.891 122.475 187.946 122.637 187.989L123.523 188.227C123.75 188.287 124.003 188.369 124.281 188.474C124.563 188.58 124.831 188.723 125.087 188.905C125.345 189.084 125.558 189.314 125.726 189.595C125.894 189.876 125.977 190.222 125.977 190.631C125.977 191.102 125.854 191.528 125.607 191.909C125.362 192.29 125.004 192.592 124.533 192.817C124.064 193.041 123.494 193.153 122.824 193.153C122.199 193.153 121.658 193.053 121.2 192.851C120.746 192.649 120.388 192.368 120.127 192.007C119.868 191.646 119.722 191.227 119.688 190.75H120.779C120.807 191.08 120.918 191.352 121.111 191.568C121.307 191.781 121.554 191.94 121.852 192.045C122.154 192.148 122.477 192.199 122.824 192.199C123.227 192.199 123.59 192.134 123.911 192.003C124.232 191.869 124.486 191.685 124.673 191.449C124.861 191.21 124.955 190.932 124.955 190.614C124.955 190.324 124.874 190.088 124.712 189.906C124.55 189.724 124.337 189.577 124.073 189.463C123.808 189.349 123.523 189.25 123.216 189.165L122.142 188.858C121.46 188.662 120.921 188.382 120.523 188.018C120.125 187.655 119.926 187.179 119.926 186.591C119.926 186.102 120.058 185.676 120.323 185.312C120.59 184.946 120.948 184.662 121.396 184.46C121.848 184.256 122.352 184.153 122.909 184.153C123.472 184.153 123.972 184.254 124.409 184.456C124.847 184.655 125.193 184.928 125.449 185.274C125.708 185.621 125.844 186.014 125.858 186.455H124.835Z" fill="white"/>
<path d="M12 208C12 205.791 13.7909 204 16 204H216C218.209 204 220 205.791 220 208V244C220 246.209 218.209 248 216 248H16C13.7909 248 12 246.209 12 244V208Z" fill="#181C26"/>
<g clip-path="url(#clip2_2150_7002)">
<path d="M24.6667 216C24.6667 214.159 26.1591 212.667 28 212.667H48C49.8409 212.667 51.3333 214.159 51.3333 216V236C51.3333 237.841 49.8409 239.333 48 239.333H28C26.1591 239.333 24.6667 237.841 24.6667 236V216Z" fill="#2854B9"/>
<path d="M24.6667 216C24.6667 214.159 26.1591 212.667 28 212.667H48C49.8409 212.667 51.3333 214.159 51.3333 216V236C51.3333 237.841 49.8409 239.333 48 239.333H28C26.1591 239.333 24.6667 237.841 24.6667 236V216Z" stroke="#414858" stroke-width="1.33333"/>
<path d="M40.7661 224.035C40.67 223.733 40.5407 223.463 40.3783 223.224C40.2192 222.982 40.0286 222.777 39.8066 222.608C39.5845 222.436 39.3309 222.305 39.0459 222.215C38.7642 222.126 38.4543 222.081 38.1162 222.081C37.5428 222.081 37.0258 222.228 36.5651 222.523C36.1044 222.818 35.7398 223.251 35.4713 223.821C35.2062 224.388 35.0736 225.082 35.0736 225.904C35.0736 226.729 35.2078 227.427 35.4763 227.997C35.7448 228.567 36.1127 229 36.58 229.295C37.0473 229.59 37.5793 229.737 38.1759 229.737C38.7294 229.737 39.2116 229.625 39.6226 229.399C40.0369 229.174 40.3567 228.856 40.5821 228.445C40.8108 228.03 40.9252 227.543 40.9252 226.983L41.3229 227.058H38.4095V225.79H42.4117V226.948C42.4117 227.803 42.2294 228.546 41.8648 229.175C41.5035 229.802 41.003 230.286 40.3634 230.627C39.727 230.969 38.9978 231.139 38.1759 231.139C37.2545 231.139 36.4458 230.927 35.7497 230.503C35.057 230.079 34.5168 229.477 34.129 228.698C33.7412 227.916 33.5473 226.988 33.5473 225.914C33.5473 225.102 33.66 224.373 33.8854 223.727C34.1108 223.08 34.4273 222.532 34.835 222.081C35.2459 221.627 35.7282 221.281 36.2817 221.042C36.8385 220.8 37.4467 220.679 38.1063 220.679C38.6565 220.679 39.1685 220.76 39.6425 220.923C40.1198 221.085 40.544 221.315 40.9152 221.614C41.2897 221.912 41.5996 222.267 41.8449 222.678C42.0902 223.085 42.2559 223.538 42.3421 224.035H40.7661Z" fill="white"/>
</g>
<path d="M62.9588 221V212.273H64.2756V219.866H68.2301V221H62.9588ZM71.5348 221.145C71.12 221.145 70.745 221.068 70.4098 220.915C70.0746 220.759 69.8089 220.533 69.6129 220.237C69.4197 219.942 69.3232 219.58 69.3232 219.151C69.3232 218.781 69.3942 218.477 69.5362 218.239C69.6783 218 69.87 217.811 70.1115 217.672C70.353 217.533 70.6229 217.428 70.9212 217.357C71.2195 217.286 71.5234 217.232 71.8331 217.195C72.2251 217.149 72.5433 217.112 72.7876 217.084C73.032 217.053 73.2095 217.003 73.3203 216.935C73.4311 216.866 73.4865 216.756 73.4865 216.602V216.572C73.4865 216.2 73.3814 215.912 73.1712 215.707C72.9638 215.503 72.6541 215.401 72.2422 215.401C71.8132 215.401 71.4751 215.496 71.228 215.686C70.9837 215.874 70.8146 216.082 70.7209 216.312L69.5234 216.04C69.6655 215.642 69.8729 215.321 70.1456 215.077C70.4212 214.83 70.7379 214.651 71.0959 214.54C71.4538 214.426 71.8303 214.369 72.2251 214.369C72.4865 214.369 72.7635 214.401 73.0561 214.463C73.3516 214.523 73.6271 214.634 73.8828 214.795C74.1413 214.957 74.353 215.189 74.5178 215.49C74.6825 215.788 74.7649 216.176 74.7649 216.653V221H73.5206V220.105H73.4695C73.3871 220.27 73.2635 220.432 73.0987 220.591C72.9339 220.75 72.7223 220.882 72.4638 220.987C72.2053 221.092 71.8956 221.145 71.5348 221.145ZM71.8118 220.122C72.1641 220.122 72.4652 220.053 72.7152 219.913C72.968 219.774 73.1598 219.592 73.2905 219.368C73.424 219.141 73.4908 218.898 73.4908 218.639V217.795C73.4453 217.841 73.3572 217.884 73.2266 217.923C73.0987 217.96 72.9524 217.993 72.7876 218.021C72.6229 218.047 72.4624 218.071 72.3061 218.094C72.1499 218.114 72.0192 218.131 71.9141 218.145C71.6669 218.176 71.4411 218.229 71.2365 218.303C71.0348 218.376 70.8729 218.483 70.7507 218.622C70.6314 218.759 70.5717 218.94 70.5717 219.168C70.5717 219.483 70.6882 219.722 70.9212 219.884C71.1541 220.043 71.451 220.122 71.8118 220.122ZM76.5643 221V212.273H77.8384V215.516H77.9151C77.989 215.379 78.0955 215.222 78.2347 215.043C78.3739 214.864 78.5671 214.707 78.8143 214.574C79.0614 214.438 79.3881 214.369 79.7944 214.369C80.3228 214.369 80.7944 214.503 81.2092 214.77C81.6239 215.037 81.9492 215.422 82.185 215.925C82.4237 216.428 82.543 217.033 82.543 217.74C82.543 218.447 82.4251 219.054 82.1893 219.56C81.9535 220.062 81.6296 220.45 81.2177 220.723C80.8058 220.993 80.3356 221.128 79.8072 221.128C79.4094 221.128 79.0842 221.061 78.8313 220.928C78.5813 220.794 78.3853 220.638 78.2433 220.459C78.1012 220.28 77.9918 220.121 77.9151 219.982H77.8086V221H76.5643ZM77.8129 217.727C77.8129 218.187 77.8796 218.591 78.0131 218.938C78.1467 219.284 78.3398 219.555 78.5927 219.751C78.8455 219.945 79.1552 220.041 79.5217 220.041C79.9023 220.041 80.2205 219.94 80.4762 219.739C80.7319 219.534 80.9251 219.257 81.0558 218.908C81.1893 218.558 81.256 218.165 81.256 217.727C81.256 217.295 81.1907 216.908 81.06 216.564C80.9322 216.22 80.739 215.949 80.4805 215.75C80.2248 215.551 79.9052 215.452 79.5217 215.452C79.1523 215.452 78.8398 215.547 78.5842 215.737C78.3313 215.928 78.1396 216.193 78.0089 216.534C77.8782 216.875 77.8129 217.273 77.8129 217.727ZM86.7947 221.132C86.1499 221.132 85.5945 220.994 85.1286 220.719C84.6655 220.44 84.3075 220.05 84.0547 219.547C83.8047 219.041 83.6797 218.449 83.6797 217.77C83.6797 217.099 83.8047 216.509 84.0547 215.997C84.3075 215.486 84.6598 215.087 85.1115 214.8C85.5661 214.513 86.0973 214.369 86.7053 214.369C87.0746 214.369 87.4325 214.43 87.7791 214.553C88.1257 214.675 88.4368 214.866 88.7124 215.128C88.9879 215.389 89.2053 215.729 89.3643 216.146C89.5234 216.561 89.603 217.065 89.603 217.659V218.111H84.3999V217.156H88.3544C88.3544 216.821 88.2862 216.524 88.1499 216.266C88.0135 216.004 87.8217 215.798 87.5746 215.648C87.3303 215.497 87.0433 215.422 86.7138 215.422C86.3558 215.422 86.0433 215.51 85.7763 215.686C85.5121 215.859 85.3075 216.087 85.1626 216.368C85.0206 216.646 84.9496 216.949 84.9496 217.276V218.021C84.9496 218.459 85.0263 218.831 85.1797 219.138C85.3359 219.445 85.5533 219.679 85.8317 219.841C86.1101 220 86.4354 220.08 86.8075 220.08C87.049 220.08 87.2692 220.045 87.468 219.977C87.6669 219.906 87.8388 219.801 87.9837 219.662C88.1286 219.523 88.2393 219.351 88.3161 219.146L89.522 219.364C89.4254 219.719 89.2521 220.03 89.0021 220.297C88.755 220.561 88.4439 220.767 88.0689 220.915C87.6967 221.06 87.272 221.132 86.7947 221.132ZM92.2908 212.273V221H91.0167V212.273H92.2908Z" fill="white"/>
<path d="M65.75 239H63.0568V230.273H65.8693C66.7159 230.273 67.4403 230.447 68.0426 230.797C68.6449 231.143 69.1065 231.642 69.4276 232.293C69.7486 232.94 69.9091 233.716 69.9091 234.619C69.9091 235.528 69.7472 236.311 69.4233 236.967C69.0994 237.621 68.6278 238.124 68.0085 238.476C67.3892 238.825 66.6364 239 65.75 239ZM64.1136 238.062H65.6818C66.4034 238.062 67.0014 237.923 67.4759 237.645C67.9503 237.366 68.304 236.97 68.5369 236.456C68.7699 235.942 68.8864 235.33 68.8864 234.619C68.8864 233.915 68.7713 233.308 68.5412 232.8C68.3111 232.288 67.9673 231.896 67.5099 231.624C67.0526 231.348 66.483 231.21 65.8011 231.21H64.1136V238.062ZM74.2898 239.136C73.6591 239.136 73.1151 238.997 72.6577 238.719C72.2031 238.438 71.8523 238.045 71.6051 237.543C71.3608 237.037 71.2386 236.449 71.2386 235.778C71.2386 235.108 71.3608 234.517 71.6051 234.006C71.8523 233.491 72.196 233.091 72.6364 232.804C73.0795 232.514 73.5966 232.369 74.1875 232.369C74.5284 232.369 74.8651 232.426 75.1974 232.54C75.5298 232.653 75.8324 232.838 76.1051 233.094C76.3778 233.347 76.5952 233.682 76.7571 234.099C76.919 234.517 77 235.031 77 235.642V236.068H71.9545V235.199H75.9773C75.9773 234.83 75.9034 234.5 75.7557 234.21C75.6108 233.92 75.4034 233.692 75.1335 233.524C74.8665 233.357 74.5511 233.273 74.1875 233.273C73.7869 233.273 73.4403 233.372 73.1477 233.571C72.858 233.767 72.6349 234.023 72.4787 234.338C72.3224 234.653 72.2443 234.991 72.2443 235.352V235.932C72.2443 236.426 72.3295 236.845 72.5 237.189C72.6733 237.53 72.9134 237.79 73.2202 237.969C73.527 238.145 73.8835 238.233 74.2898 238.233C74.554 238.233 74.7926 238.196 75.0057 238.122C75.2216 238.045 75.4077 237.932 75.5639 237.781C75.7202 237.628 75.8409 237.437 75.9261 237.21L76.8977 237.483C76.7955 237.812 76.6236 238.102 76.3821 238.352C76.1406 238.599 75.8423 238.793 75.4872 238.932C75.1321 239.068 74.733 239.136 74.2898 239.136ZM81.3764 232.455V233.307H77.9844V232.455H81.3764ZM78.973 230.886H79.9787V237.125C79.9787 237.409 80.0199 237.622 80.1023 237.764C80.1875 237.903 80.2955 237.997 80.4261 238.045C80.5597 238.091 80.7003 238.114 80.848 238.114C80.9588 238.114 81.0497 238.108 81.1207 238.097C81.1918 238.082 81.2486 238.071 81.2912 238.062L81.4957 238.966C81.4276 238.991 81.3324 239.017 81.2102 239.043C81.0881 239.071 80.9332 239.085 80.7457 239.085C80.4616 239.085 80.1832 239.024 79.9105 238.902C79.6406 238.78 79.4162 238.594 79.2372 238.344C79.0611 238.094 78.973 237.778 78.973 237.398V230.886ZM84.8153 239.153C84.4006 239.153 84.0241 239.075 83.6861 238.919C83.348 238.76 83.0795 238.531 82.8807 238.233C82.6818 237.932 82.5824 237.568 82.5824 237.142C82.5824 236.767 82.6563 236.463 82.804 236.23C82.9517 235.994 83.1491 235.81 83.3963 235.676C83.6435 235.543 83.9162 235.443 84.2145 235.378C84.5156 235.31 84.8182 235.256 85.1222 235.216C85.5199 235.165 85.8423 235.126 86.0895 235.101C86.3395 235.072 86.5213 235.026 86.6349 234.96C86.7514 234.895 86.8097 234.781 86.8097 234.619V234.585C86.8097 234.165 86.6946 233.838 86.4645 233.605C86.2372 233.372 85.892 233.256 85.429 233.256C84.9489 233.256 84.5724 233.361 84.2997 233.571C84.027 233.781 83.8352 234.006 83.7244 234.244L82.7699 233.903C82.9403 233.506 83.1676 233.196 83.4517 232.974C83.7386 232.75 84.0511 232.594 84.3892 232.506C84.7301 232.415 85.0653 232.369 85.3949 232.369C85.6051 232.369 85.8466 232.395 86.1193 232.446C86.3949 232.494 86.6605 232.595 86.9162 232.749C87.1747 232.902 87.3892 233.134 87.5597 233.443C87.7301 233.753 87.8153 234.168 87.8153 234.688V239H86.8097V238.114H86.7585C86.6903 238.256 86.5767 238.408 86.4176 238.57C86.2585 238.732 86.0469 238.869 85.7827 238.983C85.5185 239.097 85.196 239.153 84.8153 239.153ZM84.9688 238.25C85.3665 238.25 85.7017 238.172 85.9744 238.016C86.25 237.859 86.4574 237.658 86.5966 237.411C86.7386 237.163 86.8097 236.903 86.8097 236.631V235.71C86.767 235.761 86.6733 235.808 86.5284 235.851C86.3864 235.891 86.2216 235.926 86.0341 235.957C85.8494 235.986 85.669 236.011 85.4929 236.034C85.3196 236.054 85.179 236.071 85.071 236.085C84.8097 236.119 84.5653 236.175 84.3381 236.251C84.1136 236.325 83.9318 236.437 83.7926 236.588C83.6563 236.736 83.5881 236.937 83.5881 237.193C83.5881 237.543 83.7173 237.807 83.9759 237.986C84.2372 238.162 84.5682 238.25 84.9688 238.25ZM89.6509 239V232.455H90.6566V239H89.6509ZM90.1623 231.364C89.9663 231.364 89.7972 231.297 89.6552 231.163C89.516 231.03 89.4464 230.869 89.4464 230.682C89.4464 230.494 89.516 230.334 89.6552 230.2C89.7972 230.067 89.9663 230 90.1623 230C90.3583 230 90.5259 230.067 90.6651 230.2C90.8072 230.334 90.8782 230.494 90.8782 230.682C90.8782 230.869 90.8072 231.03 90.6651 231.163C90.5259 231.297 90.3583 231.364 90.1623 231.364ZM93.5043 230.273V239H92.4986V230.273H93.5043ZM99.9826 233.92L99.0792 234.176C99.0224 234.026 98.9386 233.879 98.8278 233.737C98.7198 233.592 98.5721 233.473 98.3846 233.379C98.1971 233.286 97.957 233.239 97.6644 233.239C97.2638 233.239 96.93 233.331 96.663 233.516C96.3988 233.697 96.2667 233.929 96.2667 234.21C96.2667 234.46 96.3576 234.658 96.5394 234.803C96.7212 234.947 97.0053 235.068 97.3917 235.165L98.3633 235.403C98.9485 235.545 99.3846 235.763 99.6715 236.055C99.9585 236.345 100.102 236.719 100.102 237.176C100.102 237.551 99.994 237.886 99.7781 238.182C99.565 238.477 99.2667 238.71 98.8832 238.881C98.4996 239.051 98.0536 239.136 97.5451 239.136C96.8775 239.136 96.3249 238.991 95.8874 238.702C95.4499 238.412 95.1729 237.989 95.0565 237.432L96.011 237.193C96.1019 237.545 96.2738 237.81 96.5266 237.986C96.7823 238.162 97.1161 238.25 97.5281 238.25C97.9968 238.25 98.369 238.151 98.6445 237.952C98.9229 237.75 99.0621 237.509 99.0621 237.227C99.0621 237 98.9826 236.81 98.8235 236.656C98.6644 236.5 98.4201 236.384 98.0906 236.307L96.9996 236.051C96.4002 235.909 95.9599 235.689 95.6786 235.391C95.4002 235.089 95.261 234.713 95.261 234.261C95.261 233.892 95.3647 233.565 95.5721 233.281C95.7823 232.997 96.0678 232.774 96.4286 232.612C96.7923 232.45 97.2042 232.369 97.6644 232.369C98.3121 232.369 98.8207 232.511 99.19 232.795C99.5621 233.08 99.8263 233.455 99.9826 233.92Z" fill="#9B9DA1"/>
<path d="M12 252C12 249.791 13.7909 248 16 248H216C218.209 248 220 249.791 220 252V288C220 290.209 218.209 292 216 292H16C13.7909 292 12 290.209 12 288V252Z" fill="#181C26"/>
<path d="M24.6667 260C24.6667 258.159 26.1591 256.667 28 256.667H48C49.8409 256.667 51.3333 258.159 51.3333 260V280C51.3333 281.841 49.8409 283.333 48 283.333H28C26.1591 283.333 24.6667 281.841 24.6667 280V260Z" fill="#2854B9"/>
<path d="M24.6667 260C24.6667 258.159 26.1591 256.667 28 256.667H48C49.8409 256.667 51.3333 258.159 51.3333 260V280C51.3333 281.841 49.8409 283.333 48 283.333H28C26.1591 283.333 24.6667 281.841 24.6667 280V260Z" stroke="#414858" stroke-width="1.33333"/>
<path d="M40.7661 268.035C40.67 267.733 40.5407 267.463 40.3783 267.224C40.2192 266.982 40.0286 266.777 39.8066 266.608C39.5845 266.436 39.3309 266.305 39.0459 266.215C38.7642 266.126 38.4543 266.081 38.1162 266.081C37.5428 266.081 37.0258 266.228 36.5651 266.523C36.1044 266.818 35.7398 267.251 35.4713 267.821C35.2062 268.388 35.0736 269.082 35.0736 269.904C35.0736 270.729 35.2078 271.427 35.4763 271.997C35.7448 272.567 36.1127 273 36.58 273.295C37.0473 273.59 37.5793 273.737 38.1759 273.737C38.7294 273.737 39.2116 273.625 39.6226 273.399C40.0369 273.174 40.3567 272.856 40.5821 272.445C40.8108 272.03 40.9252 271.543 40.9252 270.983L41.3229 271.058H38.4095V269.79H42.4117V270.948C42.4117 271.803 42.2294 272.546 41.8648 273.175C41.5035 273.802 41.003 274.286 40.3634 274.627C39.727 274.969 38.9978 275.139 38.1759 275.139C37.2545 275.139 36.4458 274.927 35.7497 274.503C35.057 274.079 34.5168 273.477 34.129 272.698C33.7412 271.916 33.5473 270.988 33.5473 269.914C33.5473 269.102 33.66 268.373 33.8854 267.727C34.1108 267.08 34.4273 266.532 34.835 266.081C35.2459 265.627 35.7282 265.281 36.2817 265.042C36.8385 264.8 37.4467 264.679 38.1063 264.679C38.6565 264.679 39.1685 264.76 39.6425 264.923C40.1198 265.085 40.544 265.315 40.9152 265.614C41.2897 265.912 41.5996 266.267 41.8449 266.678C42.0902 267.085 42.2559 267.538 42.3421 268.035H40.7661Z" fill="white"/>
<path d="M62.9588 265V256.273H64.2756V263.866H68.2301V265H62.9588ZM71.5348 265.145C71.12 265.145 70.745 265.068 70.4098 264.915C70.0746 264.759 69.8089 264.533 69.6129 264.237C69.4197 263.942 69.3232 263.58 69.3232 263.151C69.3232 262.781 69.3942 262.477 69.5362 262.239C69.6783 262 69.87 261.811 70.1115 261.672C70.353 261.533 70.6229 261.428 70.9212 261.357C71.2195 261.286 71.5234 261.232 71.8331 261.195C72.2251 261.149 72.5433 261.112 72.7876 261.084C73.032 261.053 73.2095 261.003 73.3203 260.935C73.4311 260.866 73.4865 260.756 73.4865 260.602V260.572C73.4865 260.2 73.3814 259.912 73.1712 259.707C72.9638 259.503 72.6541 259.401 72.2422 259.401C71.8132 259.401 71.4751 259.496 71.228 259.686C70.9837 259.874 70.8146 260.082 70.7209 260.312L69.5234 260.04C69.6655 259.642 69.8729 259.321 70.1456 259.077C70.4212 258.83 70.7379 258.651 71.0959 258.54C71.4538 258.426 71.8303 258.369 72.2251 258.369C72.4865 258.369 72.7635 258.401 73.0561 258.463C73.3516 258.523 73.6271 258.634 73.8828 258.795C74.1413 258.957 74.353 259.189 74.5178 259.49C74.6825 259.788 74.7649 260.176 74.7649 260.653V265H73.5206V264.105H73.4695C73.3871 264.27 73.2635 264.432 73.0987 264.591C72.9339 264.75 72.7223 264.882 72.4638 264.987C72.2053 265.092 71.8956 265.145 71.5348 265.145ZM71.8118 264.122C72.1641 264.122 72.4652 264.053 72.7152 263.913C72.968 263.774 73.1598 263.592 73.2905 263.368C73.424 263.141 73.4908 262.898 73.4908 262.639V261.795C73.4453 261.841 73.3572 261.884 73.2266 261.923C73.0987 261.96 72.9524 261.993 72.7876 262.021C72.6229 262.047 72.4624 262.071 72.3061 262.094C72.1499 262.114 72.0192 262.131 71.9141 262.145C71.6669 262.176 71.4411 262.229 71.2365 262.303C71.0348 262.376 70.8729 262.483 70.7507 262.622C70.6314 262.759 70.5717 262.94 70.5717 263.168C70.5717 263.483 70.6882 263.722 70.9212 263.884C71.1541 264.043 71.451 264.122 71.8118 264.122ZM76.5643 265V256.273H77.8384V259.516H77.9151C77.989 259.379 78.0955 259.222 78.2347 259.043C78.3739 258.864 78.5671 258.707 78.8143 258.574C79.0614 258.438 79.3881 258.369 79.7944 258.369C80.3228 258.369 80.7944 258.503 81.2092 258.77C81.6239 259.037 81.9492 259.422 82.185 259.925C82.4237 260.428 82.543 261.033 82.543 261.74C82.543 262.447 82.4251 263.054 82.1893 263.56C81.9535 264.062 81.6296 264.45 81.2177 264.723C80.8058 264.993 80.3356 265.128 79.8072 265.128C79.4094 265.128 79.0842 265.061 78.8313 264.928C78.5813 264.794 78.3853 264.638 78.2433 264.459C78.1012 264.28 77.9918 264.121 77.9151 263.982H77.8086V265H76.5643ZM77.8129 261.727C77.8129 262.187 77.8796 262.591 78.0131 262.938C78.1467 263.284 78.3398 263.555 78.5927 263.751C78.8455 263.945 79.1552 264.041 79.5217 264.041C79.9023 264.041 80.2205 263.94 80.4762 263.739C80.7319 263.534 80.9251 263.257 81.0558 262.908C81.1893 262.558 81.256 262.165 81.256 261.727C81.256 261.295 81.1907 260.908 81.06 260.564C80.9322 260.22 80.739 259.949 80.4805 259.75C80.2248 259.551 79.9052 259.452 79.5217 259.452C79.1523 259.452 78.8398 259.547 78.5842 259.737C78.3313 259.928 78.1396 260.193 78.0089 260.534C77.8782 260.875 77.8129 261.273 77.8129 261.727ZM86.7947 265.132C86.1499 265.132 85.5945 264.994 85.1286 264.719C84.6655 264.44 84.3075 264.05 84.0547 263.547C83.8047 263.041 83.6797 262.449 83.6797 261.77C83.6797 261.099 83.8047 260.509 84.0547 259.997C84.3075 259.486 84.6598 259.087 85.1115 258.8C85.5661 258.513 86.0973 258.369 86.7053 258.369C87.0746 258.369 87.4325 258.43 87.7791 258.553C88.1257 258.675 88.4368 258.866 88.7124 259.128C88.9879 259.389 89.2053 259.729 89.3643 260.146C89.5234 260.561 89.603 261.065 89.603 261.659V262.111H84.3999V261.156H88.3544C88.3544 260.821 88.2862 260.524 88.1499 260.266C88.0135 260.004 87.8217 259.798 87.5746 259.648C87.3303 259.497 87.0433 259.422 86.7138 259.422C86.3558 259.422 86.0433 259.51 85.7763 259.686C85.5121 259.859 85.3075 260.087 85.1626 260.368C85.0206 260.646 84.9496 260.949 84.9496 261.276V262.021C84.9496 262.459 85.0263 262.831 85.1797 263.138C85.3359 263.445 85.5533 263.679 85.8317 263.841C86.1101 264 86.4354 264.08 86.8075 264.08C87.049 264.08 87.2692 264.045 87.468 263.977C87.6669 263.906 87.8388 263.801 87.9837 263.662C88.1286 263.523 88.2393 263.351 88.3161 263.146L89.522 263.364C89.4254 263.719 89.2521 264.03 89.0021 264.297C88.755 264.561 88.4439 264.767 88.0689 264.915C87.6967 265.06 87.272 265.132 86.7947 265.132ZM92.2908 256.273V265H91.0167V256.273H92.2908Z" fill="white"/>
<path d="M65.75 283H63.0568V274.273H65.8693C66.7159 274.273 67.4403 274.447 68.0426 274.797C68.6449 275.143 69.1065 275.642 69.4276 276.293C69.7486 276.94 69.9091 277.716 69.9091 278.619C69.9091 279.528 69.7472 280.311 69.4233 280.967C69.0994 281.621 68.6278 282.124 68.0085 282.476C67.3892 282.825 66.6364 283 65.75 283ZM64.1136 282.062H65.6818C66.4034 282.062 67.0014 281.923 67.4759 281.645C67.9503 281.366 68.304 280.97 68.5369 280.456C68.7699 279.942 68.8864 279.33 68.8864 278.619C68.8864 277.915 68.7713 277.308 68.5412 276.8C68.3111 276.288 67.9673 275.896 67.5099 275.624C67.0526 275.348 66.483 275.21 65.8011 275.21H64.1136V282.062ZM74.2898 283.136C73.6591 283.136 73.1151 282.997 72.6577 282.719C72.2031 282.438 71.8523 282.045 71.6051 281.543C71.3608 281.037 71.2386 280.449 71.2386 279.778C71.2386 279.108 71.3608 278.517 71.6051 278.006C71.8523 277.491 72.196 277.091 72.6364 276.804C73.0795 276.514 73.5966 276.369 74.1875 276.369C74.5284 276.369 74.8651 276.426 75.1974 276.54C75.5298 276.653 75.8324 276.838 76.1051 277.094C76.3778 277.347 76.5952 277.682 76.7571 278.099C76.919 278.517 77 279.031 77 279.642V280.068H71.9545V279.199H75.9773C75.9773 278.83 75.9034 278.5 75.7557 278.21C75.6108 277.92 75.4034 277.692 75.1335 277.524C74.8665 277.357 74.5511 277.273 74.1875 277.273C73.7869 277.273 73.4403 277.372 73.1477 277.571C72.858 277.767 72.6349 278.023 72.4787 278.338C72.3224 278.653 72.2443 278.991 72.2443 279.352V279.932C72.2443 280.426 72.3295 280.845 72.5 281.189C72.6733 281.53 72.9134 281.79 73.2202 281.969C73.527 282.145 73.8835 282.233 74.2898 282.233C74.554 282.233 74.7926 282.196 75.0057 282.122C75.2216 282.045 75.4077 281.932 75.5639 281.781C75.7202 281.628 75.8409 281.437 75.9261 281.21L76.8977 281.483C76.7955 281.812 76.6236 282.102 76.3821 282.352C76.1406 282.599 75.8423 282.793 75.4872 282.932C75.1321 283.068 74.733 283.136 74.2898 283.136ZM81.3764 276.455V277.307H77.9844V276.455H81.3764ZM78.973 274.886H79.9787V281.125C79.9787 281.409 80.0199 281.622 80.1023 281.764C80.1875 281.903 80.2955 281.997 80.4261 282.045C80.5597 282.091 80.7003 282.114 80.848 282.114C80.9588 282.114 81.0497 282.108 81.1207 282.097C81.1918 282.082 81.2486 282.071 81.2912 282.062L81.4957 282.966C81.4276 282.991 81.3324 283.017 81.2102 283.043C81.0881 283.071 80.9332 283.085 80.7457 283.085C80.4616 283.085 80.1832 283.024 79.9105 282.902C79.6406 282.78 79.4162 282.594 79.2372 282.344C79.0611 282.094 78.973 281.778 78.973 281.398V274.886ZM84.8153 283.153C84.4006 283.153 84.0241 283.075 83.6861 282.919C83.348 282.76 83.0795 282.531 82.8807 282.233C82.6818 281.932 82.5824 281.568 82.5824 281.142C82.5824 280.767 82.6563 280.463 82.804 280.23C82.9517 279.994 83.1491 279.81 83.3963 279.676C83.6435 279.543 83.9162 279.443 84.2145 279.378C84.5156 279.31 84.8182 279.256 85.1222 279.216C85.5199 279.165 85.8423 279.126 86.0895 279.101C86.3395 279.072 86.5213 279.026 86.6349 278.96C86.7514 278.895 86.8097 278.781 86.8097 278.619V278.585C86.8097 278.165 86.6946 277.838 86.4645 277.605C86.2372 277.372 85.892 277.256 85.429 277.256C84.9489 277.256 84.5724 277.361 84.2997 277.571C84.027 277.781 83.8352 278.006 83.7244 278.244L82.7699 277.903C82.9403 277.506 83.1676 277.196 83.4517 276.974C83.7386 276.75 84.0511 276.594 84.3892 276.506C84.7301 276.415 85.0653 276.369 85.3949 276.369C85.6051 276.369 85.8466 276.395 86.1193 276.446C86.3949 276.494 86.6605 276.595 86.9162 276.749C87.1747 276.902 87.3892 277.134 87.5597 277.443C87.7301 277.753 87.8153 278.168 87.8153 278.688V283H86.8097V282.114H86.7585C86.6903 282.256 86.5767 282.408 86.4176 282.57C86.2585 282.732 86.0469 282.869 85.7827 282.983C85.5185 283.097 85.196 283.153 84.8153 283.153ZM84.9688 282.25C85.3665 282.25 85.7017 282.172 85.9744 282.016C86.25 281.859 86.4574 281.658 86.5966 281.411C86.7386 281.163 86.8097 280.903 86.8097 280.631V279.71C86.767 279.761 86.6733 279.808 86.5284 279.851C86.3864 279.891 86.2216 279.926 86.0341 279.957C85.8494 279.986 85.669 280.011 85.4929 280.034C85.3196 280.054 85.179 280.071 85.071 280.085C84.8097 280.119 84.5653 280.175 84.3381 280.251C84.1136 280.325 83.9318 280.437 83.7926 280.588C83.6563 280.736 83.5881 280.937 83.5881 281.193C83.5881 281.543 83.7173 281.807 83.9759 281.986C84.2372 282.162 84.5682 282.25 84.9688 282.25ZM89.6509 283V276.455H90.6566V283H89.6509ZM90.1623 275.364C89.9663 275.364 89.7972 275.297 89.6552 275.163C89.516 275.03 89.4464 274.869 89.4464 274.682C89.4464 274.494 89.516 274.334 89.6552 274.2C89.7972 274.067 89.9663 274 90.1623 274C90.3583 274 90.5259 274.067 90.6651 274.2C90.8072 274.334 90.8782 274.494 90.8782 274.682C90.8782 274.869 90.8072 275.03 90.6651 275.163C90.5259 275.297 90.3583 275.364 90.1623 275.364ZM93.5043 274.273V283H92.4986V274.273H93.5043ZM99.9826 277.92L99.0792 278.176C99.0224 278.026 98.9386 277.879 98.8278 277.737C98.7198 277.592 98.5721 277.473 98.3846 277.379C98.1971 277.286 97.957 277.239 97.6644 277.239C97.2638 277.239 96.93 277.331 96.663 277.516C96.3988 277.697 96.2667 277.929 96.2667 278.21C96.2667 278.46 96.3576 278.658 96.5394 278.803C96.7212 278.947 97.0053 279.068 97.3917 279.165L98.3633 279.403C98.9485 279.545 99.3846 279.763 99.6715 280.055C99.9585 280.345 100.102 280.719 100.102 281.176C100.102 281.551 99.994 281.886 99.7781 282.182C99.565 282.477 99.2667 282.71 98.8832 282.881C98.4996 283.051 98.0536 283.136 97.5451 283.136C96.8775 283.136 96.3249 282.991 95.8874 282.702C95.4499 282.412 95.1729 281.989 95.0565 281.432L96.011 281.193C96.1019 281.545 96.2738 281.81 96.5266 281.986C96.7823 282.162 97.1161 282.25 97.5281 282.25C97.9968 282.25 98.369 282.151 98.6445 281.952C98.9229 281.75 99.0621 281.509 99.0621 281.227C99.0621 281 98.9826 280.81 98.8235 280.656C98.6644 280.5 98.4201 280.384 98.0906 280.307L96.9996 280.051C96.4002 279.909 95.9599 279.689 95.6786 279.391C95.4002 279.089 95.261 278.713 95.261 278.261C95.261 277.892 95.3647 277.565 95.5721 277.281C95.7823 276.997 96.0678 276.774 96.4286 276.612C96.7923 276.45 97.2042 276.369 97.6644 276.369C98.3121 276.369 98.8207 276.511 99.19 276.795C99.5621 277.08 99.8263 277.455 99.9826 277.92Z" fill="#9B9DA1"/>
<path d="M12 296C12 293.791 13.7909 292 16 292H216C218.209 292 220 293.791 220 296V332C220 334.209 218.209 336 216 336H16C13.7909 336 12 334.209 12 332V296Z" fill="#181C26"/>
<g clip-path="url(#clip3_2150_7002)">
<path d="M24.6667 304C24.6667 302.159 26.1591 300.667 28 300.667H48C49.8409 300.667 51.3333 302.159 51.3333 304V324C51.3333 325.841 49.8409 327.333 48 327.333H28C26.1591 327.333 24.6667 325.841 24.6667 324V304Z" fill="#2854B9"/>
<path d="M24.6667 304C24.6667 302.159 26.1591 300.667 28 300.667H48C49.8409 300.667 51.3333 302.159 51.3333 304V324C51.3333 325.841 49.8409 327.333 48 327.333H28C26.1591 327.333 24.6667 325.841 24.6667 324V304Z" stroke="#414858" stroke-width="1.33333"/>
<path d="M40.7661 312.035C40.67 311.733 40.5407 311.463 40.3783 311.224C40.2192 310.982 40.0286 310.777 39.8066 310.608C39.5845 310.436 39.3309 310.305 39.0459 310.215C38.7642 310.126 38.4543 310.081 38.1162 310.081C37.5428 310.081 37.0258 310.228 36.5651 310.523C36.1044 310.818 35.7398 311.251 35.4713 311.821C35.2062 312.388 35.0736 313.082 35.0736 313.904C35.0736 314.729 35.2078 315.427 35.4763 315.997C35.7448 316.567 36.1127 317 36.58 317.295C37.0473 317.59 37.5793 317.737 38.1759 317.737C38.7294 317.737 39.2116 317.625 39.6226 317.399C40.0369 317.174 40.3567 316.856 40.5821 316.445C40.8108 316.03 40.9252 315.543 40.9252 314.983L41.3229 315.058H38.4095V313.79H42.4117V314.948C42.4117 315.803 42.2294 316.546 41.8648 317.175C41.5035 317.802 41.003 318.286 40.3634 318.627C39.727 318.969 38.9978 319.139 38.1759 319.139C37.2545 319.139 36.4458 318.927 35.7497 318.503C35.057 318.079 34.5168 317.477 34.129 316.698C33.7412 315.916 33.5473 314.988 33.5473 313.914C33.5473 313.102 33.66 312.373 33.8854 311.727C34.1108 311.08 34.4273 310.532 34.835 310.081C35.2459 309.627 35.7282 309.281 36.2817 309.042C36.8385 308.8 37.4467 308.679 38.1063 308.679C38.6565 308.679 39.1685 308.76 39.6425 308.923C40.1198 309.085 40.544 309.315 40.9152 309.614C41.2897 309.912 41.5996 310.267 41.8449 310.678C42.0902 311.085 42.2559 311.538 42.3421 312.035H40.7661Z" fill="white"/>
</g>
<path d="M62.9588 309V300.273H64.2756V307.866H68.2301V309H62.9588ZM71.5348 309.145C71.12 309.145 70.745 309.068 70.4098 308.915C70.0746 308.759 69.8089 308.533 69.6129 308.237C69.4197 307.942 69.3232 307.58 69.3232 307.151C69.3232 306.781 69.3942 306.477 69.5362 306.239C69.6783 306 69.87 305.811 70.1115 305.672C70.353 305.533 70.6229 305.428 70.9212 305.357C71.2195 305.286 71.5234 305.232 71.8331 305.195C72.2251 305.149 72.5433 305.112 72.7876 305.084C73.032 305.053 73.2095 305.003 73.3203 304.935C73.4311 304.866 73.4865 304.756 73.4865 304.602V304.572C73.4865 304.2 73.3814 303.912 73.1712 303.707C72.9638 303.503 72.6541 303.401 72.2422 303.401C71.8132 303.401 71.4751 303.496 71.228 303.686C70.9837 303.874 70.8146 304.082 70.7209 304.312L69.5234 304.04C69.6655 303.642 69.8729 303.321 70.1456 303.077C70.4212 302.83 70.7379 302.651 71.0959 302.54C71.4538 302.426 71.8303 302.369 72.2251 302.369C72.4865 302.369 72.7635 302.401 73.0561 302.463C73.3516 302.523 73.6271 302.634 73.8828 302.795C74.1413 302.957 74.353 303.189 74.5178 303.49C74.6825 303.788 74.7649 304.176 74.7649 304.653V309H73.5206V308.105H73.4695C73.3871 308.27 73.2635 308.432 73.0987 308.591C72.9339 308.75 72.7223 308.882 72.4638 308.987C72.2053 309.092 71.8956 309.145 71.5348 309.145ZM71.8118 308.122C72.1641 308.122 72.4652 308.053 72.7152 307.913C72.968 307.774 73.1598 307.592 73.2905 307.368C73.424 307.141 73.4908 306.898 73.4908 306.639V305.795C73.4453 305.841 73.3572 305.884 73.2266 305.923C73.0987 305.96 72.9524 305.993 72.7876 306.021C72.6229 306.047 72.4624 306.071 72.3061 306.094C72.1499 306.114 72.0192 306.131 71.9141 306.145C71.6669 306.176 71.4411 306.229 71.2365 306.303C71.0348 306.376 70.8729 306.483 70.7507 306.622C70.6314 306.759 70.5717 306.94 70.5717 307.168C70.5717 307.483 70.6882 307.722 70.9212 307.884C71.1541 308.043 71.451 308.122 71.8118 308.122ZM76.5643 309V300.273H77.8384V303.516H77.9151C77.989 303.379 78.0955 303.222 78.2347 303.043C78.3739 302.864 78.5671 302.707 78.8143 302.574C79.0614 302.438 79.3881 302.369 79.7944 302.369C80.3228 302.369 80.7944 302.503 81.2092 302.77C81.6239 303.037 81.9492 303.422 82.185 303.925C82.4237 304.428 82.543 305.033 82.543 305.74C82.543 306.447 82.4251 307.054 82.1893 307.56C81.9535 308.062 81.6296 308.45 81.2177 308.723C80.8058 308.993 80.3356 309.128 79.8072 309.128C79.4094 309.128 79.0842 309.061 78.8313 308.928C78.5813 308.794 78.3853 308.638 78.2433 308.459C78.1012 308.28 77.9918 308.121 77.9151 307.982H77.8086V309H76.5643ZM77.8129 305.727C77.8129 306.187 77.8796 306.591 78.0131 306.938C78.1467 307.284 78.3398 307.555 78.5927 307.751C78.8455 307.945 79.1552 308.041 79.5217 308.041C79.9023 308.041 80.2205 307.94 80.4762 307.739C80.7319 307.534 80.9251 307.257 81.0558 306.908C81.1893 306.558 81.256 306.165 81.256 305.727C81.256 305.295 81.1907 304.908 81.06 304.564C80.9322 304.22 80.739 303.949 80.4805 303.75C80.2248 303.551 79.9052 303.452 79.5217 303.452C79.1523 303.452 78.8398 303.547 78.5842 303.737C78.3313 303.928 78.1396 304.193 78.0089 304.534C77.8782 304.875 77.8129 305.273 77.8129 305.727ZM86.7947 309.132C86.1499 309.132 85.5945 308.994 85.1286 308.719C84.6655 308.44 84.3075 308.05 84.0547 307.547C83.8047 307.041 83.6797 306.449 83.6797 305.77C83.6797 305.099 83.8047 304.509 84.0547 303.997C84.3075 303.486 84.6598 303.087 85.1115 302.8C85.5661 302.513 86.0973 302.369 86.7053 302.369C87.0746 302.369 87.4325 302.43 87.7791 302.553C88.1257 302.675 88.4368 302.866 88.7124 303.128C88.9879 303.389 89.2053 303.729 89.3643 304.146C89.5234 304.561 89.603 305.065 89.603 305.659V306.111H84.3999V305.156H88.3544C88.3544 304.821 88.2862 304.524 88.1499 304.266C88.0135 304.004 87.8217 303.798 87.5746 303.648C87.3303 303.497 87.0433 303.422 86.7138 303.422C86.3558 303.422 86.0433 303.51 85.7763 303.686C85.5121 303.859 85.3075 304.087 85.1626 304.368C85.0206 304.646 84.9496 304.949 84.9496 305.276V306.021C84.9496 306.459 85.0263 306.831 85.1797 307.138C85.3359 307.445 85.5533 307.679 85.8317 307.841C86.1101 308 86.4354 308.08 86.8075 308.08C87.049 308.08 87.2692 308.045 87.468 307.977C87.6669 307.906 87.8388 307.801 87.9837 307.662C88.1286 307.523 88.2393 307.351 88.3161 307.146L89.522 307.364C89.4254 307.719 89.2521 308.03 89.0021 308.297C88.755 308.561 88.4439 308.767 88.0689 308.915C87.6967 309.06 87.272 309.132 86.7947 309.132ZM92.2908 300.273V309H91.0167V300.273H92.2908Z" fill="white"/>
<path d="M65.75 327H63.0568V318.273H65.8693C66.7159 318.273 67.4403 318.447 68.0426 318.797C68.6449 319.143 69.1065 319.642 69.4276 320.293C69.7486 320.94 69.9091 321.716 69.9091 322.619C69.9091 323.528 69.7472 324.311 69.4233 324.967C69.0994 325.621 68.6278 326.124 68.0085 326.476C67.3892 326.825 66.6364 327 65.75 327ZM64.1136 326.062H65.6818C66.4034 326.062 67.0014 325.923 67.4759 325.645C67.9503 325.366 68.304 324.97 68.5369 324.456C68.7699 323.942 68.8864 323.33 68.8864 322.619C68.8864 321.915 68.7713 321.308 68.5412 320.8C68.3111 320.288 67.9673 319.896 67.5099 319.624C67.0526 319.348 66.483 319.21 65.8011 319.21H64.1136V326.062ZM74.2898 327.136C73.6591 327.136 73.1151 326.997 72.6577 326.719C72.2031 326.438 71.8523 326.045 71.6051 325.543C71.3608 325.037 71.2386 324.449 71.2386 323.778C71.2386 323.108 71.3608 322.517 71.6051 322.006C71.8523 321.491 72.196 321.091 72.6364 320.804C73.0795 320.514 73.5966 320.369 74.1875 320.369C74.5284 320.369 74.8651 320.426 75.1974 320.54C75.5298 320.653 75.8324 320.838 76.1051 321.094C76.3778 321.347 76.5952 321.682 76.7571 322.099C76.919 322.517 77 323.031 77 323.642V324.068H71.9545V323.199H75.9773C75.9773 322.83 75.9034 322.5 75.7557 322.21C75.6108 321.92 75.4034 321.692 75.1335 321.524C74.8665 321.357 74.5511 321.273 74.1875 321.273C73.7869 321.273 73.4403 321.372 73.1477 321.571C72.858 321.767 72.6349 322.023 72.4787 322.338C72.3224 322.653 72.2443 322.991 72.2443 323.352V323.932C72.2443 324.426 72.3295 324.845 72.5 325.189C72.6733 325.53 72.9134 325.79 73.2202 325.969C73.527 326.145 73.8835 326.233 74.2898 326.233C74.554 326.233 74.7926 326.196 75.0057 326.122C75.2216 326.045 75.4077 325.932 75.5639 325.781C75.7202 325.628 75.8409 325.437 75.9261 325.21L76.8977 325.483C76.7955 325.812 76.6236 326.102 76.3821 326.352C76.1406 326.599 75.8423 326.793 75.4872 326.932C75.1321 327.068 74.733 327.136 74.2898 327.136ZM81.3764 320.455V321.307H77.9844V320.455H81.3764ZM78.973 318.886H79.9787V325.125C79.9787 325.409 80.0199 325.622 80.1023 325.764C80.1875 325.903 80.2955 325.997 80.4261 326.045C80.5597 326.091 80.7003 326.114 80.848 326.114C80.9588 326.114 81.0497 326.108 81.1207 326.097C81.1918 326.082 81.2486 326.071 81.2912 326.062L81.4957 326.966C81.4276 326.991 81.3324 327.017 81.2102 327.043C81.0881 327.071 80.9332 327.085 80.7457 327.085C80.4616 327.085 80.1832 327.024 79.9105 326.902C79.6406 326.78 79.4162 326.594 79.2372 326.344C79.0611 326.094 78.973 325.778 78.973 325.398V318.886ZM84.8153 327.153C84.4006 327.153 84.0241 327.075 83.6861 326.919C83.348 326.76 83.0795 326.531 82.8807 326.233C82.6818 325.932 82.5824 325.568 82.5824 325.142C82.5824 324.767 82.6563 324.463 82.804 324.23C82.9517 323.994 83.1491 323.81 83.3963 323.676C83.6435 323.543 83.9162 323.443 84.2145 323.378C84.5156 323.31 84.8182 323.256 85.1222 323.216C85.5199 323.165 85.8423 323.126 86.0895 323.101C86.3395 323.072 86.5213 323.026 86.6349 322.96C86.7514 322.895 86.8097 322.781 86.8097 322.619V322.585C86.8097 322.165 86.6946 321.838 86.4645 321.605C86.2372 321.372 85.892 321.256 85.429 321.256C84.9489 321.256 84.5724 321.361 84.2997 321.571C84.027 321.781 83.8352 322.006 83.7244 322.244L82.7699 321.903C82.9403 321.506 83.1676 321.196 83.4517 320.974C83.7386 320.75 84.0511 320.594 84.3892 320.506C84.7301 320.415 85.0653 320.369 85.3949 320.369C85.6051 320.369 85.8466 320.395 86.1193 320.446C86.3949 320.494 86.6605 320.595 86.9162 320.749C87.1747 320.902 87.3892 321.134 87.5597 321.443C87.7301 321.753 87.8153 322.168 87.8153 322.688V327H86.8097V326.114H86.7585C86.6903 326.256 86.5767 326.408 86.4176 326.57C86.2585 326.732 86.0469 326.869 85.7827 326.983C85.5185 327.097 85.196 327.153 84.8153 327.153ZM84.9688 326.25C85.3665 326.25 85.7017 326.172 85.9744 326.016C86.25 325.859 86.4574 325.658 86.5966 325.411C86.7386 325.163 86.8097 324.903 86.8097 324.631V323.71C86.767 323.761 86.6733 323.808 86.5284 323.851C86.3864 323.891 86.2216 323.926 86.0341 323.957C85.8494 323.986 85.669 324.011 85.4929 324.034C85.3196 324.054 85.179 324.071 85.071 324.085C84.8097 324.119 84.5653 324.175 84.3381 324.251C84.1136 324.325 83.9318 324.437 83.7926 324.588C83.6563 324.736 83.5881 324.937 83.5881 325.193C83.5881 325.543 83.7173 325.807 83.9759 325.986C84.2372 326.162 84.5682 326.25 84.9688 326.25ZM89.6509 327V320.455H90.6566V327H89.6509ZM90.1623 319.364C89.9663 319.364 89.7972 319.297 89.6552 319.163C89.516 319.03 89.4464 318.869 89.4464 318.682C89.4464 318.494 89.516 318.334 89.6552 318.2C89.7972 318.067 89.9663 318 90.1623 318C90.3583 318 90.5259 318.067 90.6651 318.2C90.8072 318.334 90.8782 318.494 90.8782 318.682C90.8782 318.869 90.8072 319.03 90.6651 319.163C90.5259 319.297 90.3583 319.364 90.1623 319.364ZM93.5043 318.273V327H92.4986V318.273H93.5043ZM99.9826 321.92L99.0792 322.176C99.0224 322.026 98.9386 321.879 98.8278 321.737C98.7198 321.592 98.5721 321.473 98.3846 321.379C98.1971 321.286 97.957 321.239 97.6644 321.239C97.2638 321.239 96.93 321.331 96.663 321.516C96.3988 321.697 96.2667 321.929 96.2667 322.21C96.2667 322.46 96.3576 322.658 96.5394 322.803C96.7212 322.947 97.0053 323.068 97.3917 323.165L98.3633 323.403C98.9485 323.545 99.3846 323.763 99.6715 324.055C99.9585 324.345 100.102 324.719 100.102 325.176C100.102 325.551 99.994 325.886 99.7781 326.182C99.565 326.477 99.2667 326.71 98.8832 326.881C98.4996 327.051 98.0536 327.136 97.5451 327.136C96.8775 327.136 96.3249 326.991 95.8874 326.702C95.4499 326.412 95.1729 325.989 95.0565 325.432L96.011 325.193C96.1019 325.545 96.2738 325.81 96.5266 325.986C96.7823 326.162 97.1161 326.25 97.5281 326.25C97.9968 326.25 98.369 326.151 98.6445 325.952C98.9229 325.75 99.0621 325.509 99.0621 325.227C99.0621 325 98.9826 324.81 98.8235 324.656C98.6644 324.5 98.4201 324.384 98.0906 324.307L96.9996 324.051C96.4002 323.909 95.9599 323.689 95.6786 323.391C95.4002 323.089 95.261 322.713 95.261 322.261C95.261 321.892 95.3647 321.565 95.5721 321.281C95.7823 320.997 96.0678 320.774 96.4286 320.612C96.7923 320.45 97.2042 320.369 97.6644 320.369C98.3121 320.369 98.8207 320.511 99.19 320.795C99.5621 321.08 99.8263 321.455 99.9826 321.92Z" fill="#9B9DA1"/>
<path d="M227.076 23.3827C227.231 23.7564 227.596 24 228 24H232C232.404 24 232.769 23.7564 232.924 23.3827C233.079 23.009 232.993 22.5789 232.707 22.2929L230.707 20.2929C230.317 19.9024 229.683 19.9024 229.293 20.2929L227.293 22.2929C227.007 22.5789 226.921 23.009 227.076 23.3827Z" fill="#31353F"/>
<rect x="228" y="32" width="4" height="32" rx="2" fill="#31353F"/>
<path d="M227.076 324.617C227.231 324.244 227.596 324 228 324H232C232.404 324 232.769 324.244 232.924 324.617C233.079 324.991 232.993 325.421 232.707 325.707L230.707 327.707C230.317 328.098 229.683 328.098 229.293 327.707L227.293 325.707C227.007 325.421 226.921 324.991 227.076 324.617Z" fill="#31353F"/>
<defs>
<clipPath id="clip0_2150_7002">
<path d="M24 92C24 89.7909 25.7909 88 28 88H48C50.2091 88 52 89.7909 52 92V112C52 114.209 50.2091 116 48 116H28C25.7909 116 24 114.209 24 112V92Z" fill="white"/>
</clipPath>
<clipPath id="clip1_2150_7002">
<path d="M24 136C24 133.791 25.7909 132 28 132H48C50.2091 132 52 133.791 52 136V156C52 158.209 50.2091 160 48 160H28C25.7909 160 24 158.209 24 156V136Z" fill="white"/>
</clipPath>
<clipPath id="clip2_2150_7002">
<path d="M24 216C24 213.791 25.7909 212 28 212H48C50.2091 212 52 213.791 52 216V236C52 238.209 50.2091 240 48 240H28C25.7909 240 24 238.209 24 236V216Z" fill="white"/>
</clipPath>
<clipPath id="clip3_2150_7002">
<path d="M24 304C24 301.791 25.7909 300 28 300H48C50.2091 300 52 301.791 52 304V324C52 326.209 50.2091 328 48 328H28C25.7909 328 24 326.209 24 324V304Z" fill="white"/>
</clipPath>
</defs>
</svg>
