<svg width="20" height="20" viewBox="0 0 20 20" fill="none" xmlns="http://www.w3.org/2000/svg">
<path d="M10 2.5V7.5C10 8.87858 8.87858 10 7.5 10H2.5C1.12142 10 0 8.87858 0 7.5V2.5C0 1.12142 1.12142 0 2.5 0H7.5C8.87858 0 10 1.12142 10 2.5ZM7.5 10.8333H2.5C1.12142 10.8333 0 11.9548 0 13.3333V17.5C0 18.8786 1.12142 20 2.5 20H7.5C8.87858 20 10 18.8786 10 17.5V13.3333C10 11.9548 8.87858 10.8333 7.5 10.8333ZM17.5 0H13.3333C11.9548 0 10.8333 1.12142 10.8333 2.5V11.6667C10.8333 13.0453 11.9548 14.1667 13.3333 14.1667H17.5C18.8786 14.1667 20 13.0453 20 11.6667V2.5C20 1.12142 18.8786 0 17.5 0ZM18.3333 14.6875H12.5C11.5808 14.6875 10.8333 15.435 10.8333 16.3542V18.3333C10.8333 19.2525 11.5808 20 12.5 20H18.3333C19.2525 20 20 19.2525 20 18.3333V16.3542C20 15.435 19.2525 14.6875 18.3333 14.6875Z" fill="url(#paint0_linear_176_2650)"/>
<defs>
<linearGradient id="paint0_linear_176_2650" x1="2.72727" y1="0" x2="15.9091" y2="0" gradientUnits="userSpaceOnUse">
<stop stop-color="#158FF1"/>
<stop offset="1" stop-color="#5751FD"/>
</linearGradient>
</defs>
</svg>