<svg width="19" height="19" viewBox="0 0 19 19" fill="none" xmlns="http://www.w3.org/2000/svg">
<path d="M8.499 7.49917L8.5 19.0012L3.25006 19.0018C1.51701 19.0018 0.100757 17.6455 0.00514483 15.9364L0 15.7519V7.49917H8.499ZM9.999 13.4992H18.5L18.5008 15.7519C18.5006 17.5467 17.0456 19.0018 15.2507 19.0018L10 19.0012L9.999 13.4992ZM15.2514 0.498169C16.9844 0.498169 18.4007 1.85452 18.4963 3.56367L18.5014 3.74809L18.5 11.9992H9.999L10 0.498169H15.2514ZM8.5 0.498169L8.499 5.99917H0L0.000600576 3.74811C0.000809496 1.95328 1.45582 0.498169 3.25065 0.498169H8.5Z" fill="white"/>
</svg>
