<svg width="19" height="19" viewBox="0 0 19 19" fill="none" xmlns="http://www.w3.org/2000/svg">
<path d="M15.2514 0.498169C16.9844 0.498169 18.4007 1.85449 18.4963 3.56364L18.5014 3.74807L18.5008 15.7519C18.5006 17.5467 17.0456 19.0018 15.2507 19.0018H3.25006C1.51701 19.0018 0.100757 17.6455 0.00514483 15.9363L0 15.7519L0.000600576 3.74808C0.000809496 1.95325 1.45582 0.498169 3.25065 0.498169H15.2514ZM8.5 7.49817L1.5 7.49917L1.5001 15.7518L1.50728 15.9126C1.58839 16.8038 2.33765 17.5018 3.25 17.5018L8.5 17.5012V7.49817ZM17 13.4982L10 13.4992V17.5012L15.2506 17.5018C16.2172 17.5018 17.0007 16.7182 17.0008 15.7518L17 13.4982ZM15.2514 1.99817L10 1.99717V11.9992L17 11.9982L17.0013 3.74814L16.9941 3.58741C16.913 2.69622 16.1638 1.99817 15.2514 1.99817ZM8.5 1.99717L3.25073 1.99817L3.10723 2.00398C2.20785 2.07705 1.50071 2.83007 1.5006 3.7482L1.5 5.99917L8.5 5.99817V1.99717Z" fill="#B6B7B9"/>
</svg>
