<svg width="21" height="20" viewBox="0 0 21 20" fill="none" xmlns="http://www.w3.org/2000/svg">
<path d="M6 1.5C4.61929 1.5 3.5 2.61929 3.5 4C3.5 5.38071 4.61929 6.5 6 6.5C7.38071 6.5 8.5 5.38071 8.5 4C8.5 2.61929 7.38071 1.5 6 1.5ZM2 4C2 1.79086 3.79086 0 6 0C8.20914 0 10 1.79086 10 4C10 6.20914 8.20914 8 6 8C3.79086 8 2 6.20914 2 4ZM15 3.5C14.1716 3.5 13.5 4.17157 13.5 5C13.5 5.82843 14.1716 6.5 15 6.5C15.8284 6.5 16.5 5.82843 16.5 5C16.5 4.17157 15.8284 3.5 15 3.5ZM12 5C12 3.34315 13.3431 2 15 2C16.6569 2 18 3.34315 18 5C18 6.65685 16.6569 8 15 8C13.3431 8 12 6.65685 12 5ZM0 12.25C0 11.0074 1.00736 10 2.25 10H9.75C10.0663 10 10.3674 10.0653 10.6405 10.1831C10.2865 10.5813 9.98065 11.0233 9.73221 11.5H2.25C1.83579 11.5 1.5 11.8358 1.5 12.25V12.4947L1.50047 12.5072C1.50117 12.5222 1.50281 12.5493 1.50653 12.5865C1.514 12.6612 1.5297 12.7753 1.56241 12.9155C1.62818 13.1974 1.75971 13.5721 2.02067 13.9449C2.51434 14.6501 3.57822 15.5 6 15.5C7.41267 15.5 8.3633 15.2108 9.00823 14.8299C9.03503 15.366 9.12679 15.8851 9.27581 16.3793C8.44107 16.7598 7.36897 17 6 17C3.17178 17 1.61066 15.9749 0.791826 14.8051C0.396544 14.2404 0.199948 13.6776 0.10165 13.2564C0.0523263 13.045 0.0270116 12.8661 0.013976 12.7358C0.00744516 12.6705 0.00395602 12.6169 0.00209707 12.5771C0.00116694 12.5571 0.000642955 12.5406 0.000351369 12.5277L6.634e-05 12.5111L1.38879e-05 12.5048L3.15905e-06 12.5022L0 12.5011V12.25ZM15.5011 20.0024C18.5393 20.0024 21.0023 17.5395 21.0023 14.5012C21.0023 11.463 18.5393 9 15.5011 9C12.4629 9 10 11.463 10 14.5012C10 15.4692 10.25 16.3787 10.6889 17.1688L10.0231 19.3553C9.90658 19.7381 10.2644 20.0959 10.6471 19.9795L12.8343 19.3139C13.6242 19.7526 14.5335 20.0024 15.5011 20.0024ZM13.5009 14.0011C13.2247 14.0011 13.0008 13.7772 13.0008 13.501C13.0008 13.2248 13.2247 13.0009 13.5009 13.0009H17.5015C17.7777 13.0009 18.0016 13.2248 18.0016 13.501C18.0016 13.7772 17.7777 14.0011 17.5015 14.0011H13.5009ZM15.5011 16.0015H13.5009C13.2247 16.0015 13.0008 15.7776 13.0008 15.5014C13.0008 15.2252 13.2247 15.0013 13.5009 15.0013H15.5011C15.7773 15.0013 16.0012 15.2252 16.0012 15.5014C16.0012 15.7776 15.7773 16.0015 15.5011 16.0015Z" fill="#B6B7B9"/>
</svg>
