<svg width="18" height="18" viewBox="0 0 18 18" fill="none" xmlns="http://www.w3.org/2000/svg">
<path d="M0.5 1.25C0.5 0.835786 0.835786 0.5 1.25 0.5H1.80826C2.75873 0.5 3.32782 1.13899 3.65325 1.73299C3.87016 2.12894 4.02708 2.58818 4.14982 3.00395C4.18306 3.00134 4.21674 3 4.2508 3H16.7481C17.5783 3 18.1778 3.79442 17.9502 4.5928L16.1224 11.0019C15.7856 12.1832 14.7062 12.9978 13.4779 12.9978H7.52977C6.29128 12.9978 5.2056 12.1699 4.87783 10.9756L4.11734 8.20455L2.85874 3.95578L2.8567 3.94834C2.701 3.38051 2.55487 2.85005 2.33773 2.4537C2.12686 2.0688 1.95877 2 1.80826 2H1.25C0.835786 2 0.5 1.66421 0.5 1.25ZM5.57283 7.84027L6.32434 10.5786C6.47333 11.1215 6.96682 11.4978 7.52977 11.4978H13.4779C14.0362 11.4978 14.5268 11.1275 14.68 10.5906L16.4168 4.5H4.58549L5.55906 7.78682C5.56434 7.8046 5.56892 7.82243 5.57283 7.84027ZM9 16C9 17.1046 8.10457 18 7 18C5.89543 18 5 17.1046 5 16C5 14.8954 5.89543 14 7 14C8.10457 14 9 14.8954 9 16ZM7.5 16C7.5 15.7239 7.27614 15.5 7 15.5C6.72386 15.5 6.5 15.7239 6.5 16C6.5 16.2761 6.72386 16.5 7 16.5C7.27614 16.5 7.5 16.2761 7.5 16ZM16 16C16 17.1046 15.1046 18 14 18C12.8954 18 12 17.1046 12 16C12 14.8954 12.8954 14 14 14C15.1046 14 16 14.8954 16 16ZM14.5 16C14.5 15.7239 14.2761 15.5 14 15.5C13.7239 15.5 13.5 15.7239 13.5 16C13.5 16.2761 13.7239 16.5 14 16.5C14.2761 16.5 14.5 16.2761 14.5 16Z" fill="#B6B7B9"/>
</svg>
