<svg width="18" height="18" viewBox="0 0 18 18" fill="none" xmlns="http://www.w3.org/2000/svg">
<path d="M0.5 1.25C0.5 0.835786 0.835786 0.5 1.25 0.5H1.80826C2.75873 0.5 3.32782 1.13899 3.65325 1.73299C3.87016 2.12894 4.02708 2.58818 4.14982 3.00395C4.18306 3.00134 4.21674 3 4.2508 3H16.7481C17.5783 3 18.1778 3.79442 17.9502 4.5928L16.1224 11.0019C15.7856 12.1832 14.7062 12.9978 13.4779 12.9978H7.52977C6.29128 12.9978 5.2056 12.1699 4.87783 10.9756L4.11734 8.20455L2.85874 3.95578L2.8567 3.94834C2.701 3.38051 2.55487 2.85005 2.33773 2.4537C2.12686 2.0688 1.95877 2 1.80826 2H1.25C0.835786 2 0.5 1.66421 0.5 1.25ZM7 18C8.10457 18 9 17.1046 9 16C9 14.8954 8.10457 14 7 14C5.89543 14 5 14.8954 5 16C5 17.1046 5.89543 18 7 18ZM14 18C15.1046 18 16 17.1046 16 16C16 14.8954 15.1046 14 14 14C12.8954 14 12 14.8954 12 16C12 17.1046 12.8954 18 14 18Z" fill="white"/>
</svg>
