<svg width="20" height="20" viewBox="0 0 20 20" fill="none" xmlns="http://www.w3.org/2000/svg">
<g clip-path="url(#clip0_176_2707)">
<path d="M19.3711 13.4922L18.9021 13.3188C18.7401 13.7569 18.5447 14.1778 18.319 14.5853L18.1397 14.8943C17.8957 15.3006 17.6219 15.6854 17.3216 16.0486L17.3203 16.0503C17.2327 16.1572 17.0706 16.2101 16.9016 16.1563L16.9014 16.1563L14.7257 15.4649L14.4767 15.3858L14.2695 15.545C13.7804 15.921 13.2406 16.2345 12.6652 16.4712L12.423 16.5708L12.367 16.8267L11.8789 19.0567C11.8406 19.2308 11.7147 19.3433 11.5758 19.3659L11.5741 19.3662C11.0621 19.4515 10.5349 19.4961 9.9961 19.4961C9.45732 19.4961 8.93013 19.4515 8.41815 19.3662L8.41641 19.3659C8.27759 19.3433 8.15168 19.2308 8.11339 19.0569C8.11338 19.0568 8.11337 19.0568 8.11335 19.0567L7.62516 16.8267L7.56915 16.5708L7.32696 16.4712C6.75158 16.2345 6.21183 15.921 5.72269 15.545L5.515 15.3853L5.26553 15.4652L3.0945 16.1603C3.0944 16.1603 3.09429 16.1603 3.09419 16.1604C2.92927 16.2127 2.76429 16.1602 2.67399 16.052C2.37395 15.6889 2.10028 15.3043 1.85639 14.8982L1.67714 14.5893C1.45147 14.1818 1.2561 13.7611 1.09414 13.3231C1.04442 13.1875 1.08218 13.0212 1.20919 12.9071L1.2092 12.9071L1.21152 12.905L2.90292 11.3659L3.0961 11.1901L3.06218 10.9312C3.02182 10.6229 3.00001 10.3126 3.00001 10C3.00001 9.68726 3.02183 9.37719 3.06208 9.0735L3.09646 8.8141L2.90292 8.638L1.21152 7.09893L1.21152 7.09893L1.20919 7.09684C1.08217 6.98269 1.04441 6.81639 1.09416 6.68073C1.25612 6.24278 1.45147 5.82205 1.67714 5.41465L1.8564 5.10571C2.10042 4.69938 2.37425 4.31459 2.67447 3.95135L2.67581 3.94972C2.7634 3.84284 2.92554 3.78989 3.0945 3.84365L3.09468 3.84371L5.27046 4.53511L5.51945 4.61424L5.7266 4.45502C6.21574 4.07904 6.75548 3.76551 7.33086 3.52881L7.57306 3.42917L7.62907 3.17333L8.11726 0.943266C8.11728 0.94317 8.1173 0.943074 8.11732 0.942978C8.15565 0.769101 8.28153 0.656737 8.42031 0.634109L8.42032 0.634136L8.42552 0.633231C8.93522 0.544587 9.46121 0.5 10 0.5C10.5388 0.5 11.066 0.544585 11.578 0.629919L11.5797 0.630203C11.7186 0.652843 11.8445 0.765319 11.8828 0.93936L12.371 3.16942L12.427 3.42526L12.6692 3.5249C13.2445 3.76161 13.7843 4.07513 14.2734 4.45111L14.4806 4.61033L14.7296 4.53121L16.9053 3.8398L16.9055 3.83974C17.0705 3.78724 17.2357 3.83969 17.326 3.94803C17.6261 4.31109 17.8997 4.6957 18.1436 5.10183L18.3229 5.41077C18.503 5.73598 18.6639 6.06968 18.8038 6.41385L18.9018 6.68042C18.9518 6.81614 18.914 6.98261 18.7869 7.09683L18.7846 7.09893L17.0932 8.638L16.8997 8.8141L16.934 9.0735C16.9743 9.37719 16.9961 9.68725 16.9961 10C16.9961 10.3127 16.9743 10.6228 16.934 10.9265L16.8997 11.1859L17.0932 11.362L18.7846 12.9011L18.7869 12.9032C18.914 13.0174 18.9518 13.1839 18.9018 13.3196L19.3711 13.4922ZM19.3711 13.4922C19.4961 13.1523 19.3906 12.7734 19.1211 12.5312L18.7539 14.832C18.9922 14.4023 19.1992 13.957 19.3711 13.4922ZM2.28907 3.63281C2.51954 3.35156 2.90235 3.25781 3.2461 3.36719L2.28907 3.63281ZM10 13.625C10.9614 13.625 11.8835 13.2431 12.5633 12.5633C13.2431 11.8834 13.625 10.9614 13.625 10C13.625 9.03859 13.2431 8.11656 12.5633 7.43674C11.8835 6.75692 10.9614 6.375 10 6.375C9.0386 6.375 8.11657 6.75692 7.43675 7.43674C6.75693 8.11656 6.37501 9.03859 6.37501 10C6.37501 10.9614 6.75693 11.8834 7.43675 12.5633C8.11657 13.2431 9.0386 13.625 10 13.625Z" stroke="#A5B5CA"/>
</g>
<defs>
<clipPath id="clip0_176_2707">
<rect width="20" height="20" fill="white"/>
</clipPath>
</defs>
</svg>
