<!-- <svg width="20" height="20" viewBox="0 0 20 20" fill="none" xmlns="http://www.w3.org/2000/svg">
<path d="M2.12248 7.97467C2.20776 7.97436 2.20776 7.97436 2.29476 7.97404C2.3572 7.97405 2.41964 7.97406 2.48397 7.97407C2.58349 7.97381 2.58349 7.97381 2.68503 7.97355C2.86934 7.97308 3.05365 7.97291 3.23796 7.97279C3.43671 7.9726 3.63545 7.97216 3.83419 7.97175C4.31428 7.97083 4.79436 7.97036 5.27445 7.96994C5.50063 7.96974 5.72681 7.96949 5.95299 7.96924C6.70506 7.96845 7.45713 7.96777 8.20921 7.96743C8.40436 7.96734 8.59951 7.96725 8.79466 7.96716C8.86741 7.96713 8.86741 7.96713 8.94163 7.96709C9.72695 7.96671 10.5123 7.96553 11.2976 7.96401C12.1042 7.96246 12.9108 7.96162 13.7174 7.96148C14.1701 7.96137 14.6229 7.96097 15.0756 7.95977C15.4613 7.95876 15.8469 7.95839 16.2326 7.95884C16.4292 7.95905 16.6258 7.95897 16.8224 7.95806C17.036 7.95708 17.2496 7.95756 17.4633 7.95818C17.5248 7.95766 17.5863 7.95715 17.6497 7.95662C18.3091 7.96118 18.8731 8.13609 19.3591 8.54101C19.7801 8.93621 19.9821 9.37997 19.982 9.92167C19.9822 9.95749 19.9824 9.99331 19.9826 10.0302C19.9831 10.1503 19.9833 10.2705 19.9835 10.3906C19.9839 10.4767 19.9842 10.5628 19.9846 10.6489C19.9857 10.9318 19.9862 11.2147 19.9867 11.4976C19.9869 11.5951 19.9871 11.6925 19.9874 11.79C19.9884 12.2481 19.9891 12.7062 19.9895 13.1643C19.99 13.6926 19.9914 14.2208 19.9935 14.7491C19.9951 15.1577 19.9958 15.5663 19.996 15.975C19.9961 16.2189 19.9966 16.4627 19.9979 16.7066C19.9991 16.9363 19.9993 17.1659 19.9988 17.3956C19.9988 17.4796 19.9991 17.5636 19.9998 17.6476C20.0055 18.3545 19.8843 18.8651 19.3509 19.4156C18.9397 19.7797 18.3433 19.981 17.7706 19.9819C17.6863 19.9823 17.6863 19.9823 17.6003 19.9826C17.5389 19.9826 17.4774 19.9826 17.4141 19.9826C17.3486 19.9827 17.2831 19.9829 17.2156 19.9831C17.0339 19.9835 16.8522 19.9837 16.6704 19.9838C16.4744 19.984 16.2783 19.9845 16.0823 19.9849C15.6088 19.9858 15.1354 19.9863 14.662 19.9867C14.4389 19.9869 14.2157 19.9871 13.9926 19.9874C13.2506 19.9882 12.5086 19.9889 11.7666 19.9892C11.5741 19.9893 11.3816 19.9894 11.1892 19.9895C11.1174 19.9895 11.1174 19.9895 11.0442 19.9895C10.2697 19.9899 9.49514 19.9911 8.72062 19.9926C7.92488 19.9942 7.12914 19.995 6.33339 19.9951C5.88684 19.9952 5.44029 19.9957 4.99374 19.9968C4.61334 19.9979 4.23295 19.9982 3.85255 19.9978C3.65866 19.9976 3.46478 19.9977 3.27089 19.9986C3.06014 19.9995 2.84941 19.9991 2.63865 19.9984C2.54788 19.9992 2.54788 19.9992 2.45527 20C1.79349 19.9954 1.15288 19.8282 0.651087 19.4276C0.237399 19.0365 0.0178633 18.5682 0.0180161 18.035C0.0178251 17.9991 0.017634 17.9633 0.0174372 17.9264C0.0168647 17.8063 0.0166644 17.6862 0.0164664 17.566C0.0161409 17.4799 0.0157956 17.3938 0.0154319 17.3077C0.0143394 17.0248 0.0138005 16.7419 0.0132829 16.459C0.0130726 16.3616 0.0128589 16.2641 0.0126415 16.1666C0.0116518 15.7085 0.0109124 15.2504 0.0104796 14.7923C0.00997226 14.264 0.00860587 13.7358 0.00650545 13.2075C0.00493665 12.7989 0.00416925 12.3903 0.00399738 11.9817C0.00387547 11.7378 0.00341241 11.4939 0.00210305 11.25C0.000890012 11.0203 0.000675157 10.7907 0.00120751 10.561C0.00123316 10.477 0.000907291 10.393 0.000191676 10.309C-0.00539286 9.61426 0.10874 9.06541 0.647231 8.53353C1.04523 8.18761 1.5662 7.97562 2.12248 7.97467ZM10 13.75C10 11.0523 10 16.3683 10 13.75C4.73646 13.75 15.1087 13.75 10 13.75C10 16.4477 10 11.1317 10 13.75C15.2635 13.75 4.89127 13.75 10 13.75Z" fill="white"/>
<path d="M2.20755 4.01381C7.35057 4.01381 12.4936 4.01381 17.7925 4.01381C17.7925 4.67608 17.7925 5.33836 17.7925 6.02071C12.6494 6.02071 7.50642 6.02071 2.20755 6.02071C2.20755 5.35843 2.20755 4.69615 2.20755 4.01381Z" fill="white"/>
<path d="M4.44138 0C8.11007 0 11.7788 0 15.5586 0C15.5586 0.67768 15.5586 1.35536 15.5586 2.05357C11.8899 2.05357 8.22124 2.05357 4.44138 2.05357C4.44138 1.3759 4.44138 0.698215 4.44138 0Z" fill="white"/>
</svg> -->


<svg width="20" height="20" viewBox="0 0 20 20" fill="none" xmlns="http://www.w3.org/2000/svg">
<path d="M10 2.5V7.5C10 8.87858 8.87858 10 7.5 10H2.5C1.12142 10 0 8.87858 0 7.5V2.5C0 1.12142 1.12142 0 2.5 0H7.5C8.87858 0 10 1.12142 10 2.5ZM7.5 10.8333H2.5C1.12142 10.8333 0 11.9548 0 13.3333V17.5C0 18.8786 1.12142 20 2.5 20H7.5C8.87858 20 10 18.8786 10 17.5V13.3333C10 11.9548 8.87858 10.8333 7.5 10.8333ZM17.5 0H13.3333C11.9548 0 10.8333 1.12142 10.8333 2.5V11.6667C10.8333 13.0453 11.9548 14.1667 13.3333 14.1667H17.5C18.8786 14.1667 20 13.0453 20 11.6667V2.5C20 1.12142 18.8786 0 17.5 0ZM18.3333 14.6875H12.5C11.5808 14.6875 10.8333 15.435 10.8333 16.3542V18.3333C10.8333 19.2525 11.5808 20 12.5 20H18.3333C19.2525 20 20 19.2525 20 18.3333V16.3542C20 15.435 19.2525 14.6875 18.3333 14.6875Z" fill="white"/>
</svg>