<svg width="18" height="19" viewBox="0 0 18 19" fill="none" xmlns="http://www.w3.org/2000/svg">
<path d="M10.4508 0.533177C9.61281 -0.173819 8.38719 -0.173819 7.54916 0.533177L0.799155 6.22772C0.292405 6.65523 0 7.28447 0 7.94747V17.2526C0 18.2191 0.783502 19.0026 1.75 19.0026H4.75C5.7165 19.0026 6.5 18.2191 6.5 17.2526V13.25C6.5 12.5707 7.04184 12.018 7.71689 12.0004H10.2831C10.9582 12.018 11.5 12.5707 11.5 13.25V17.2526C11.5 18.2191 12.2835 19.0026 13.25 19.0026H16.25C17.2165 19.0026 18 18.2191 18 17.2526V7.94747C18 7.28447 17.7076 6.65523 17.2008 6.22772L10.4508 0.533177Z" fill="url(#paint0_linear_2361_111)"/>
<defs>
<linearGradient id="paint0_linear_2361_111" x1="0" y1="0.00292969" x2="21.6273" y2="14.0646" gradientUnits="userSpaceOnUse">
<stop stop-color="#11ADF0"/>
<stop offset="0.5" stop-color="#316CF6"/>
<stop offset="1" stop-color="#6147FF"/>
</linearGradient>
</defs>
</svg>
