<svg xmlns="http://www.w3.org/2000/svg" width="10" height="12" viewBox="0 0 10 12" fill="none">
  <g clip-path="url(#clip0_5989_2294)">
    <path d="M3.33337 3.66666V4.66666H6.66671V3.66666C6.66671 2.74582 5.92087 1.99999 5.00004 1.99999C4.07921 1.99999 3.33337 2.74582 3.33337 3.66666ZM2.00004 4.66666V3.66666C2.00004 2.01041 3.34379 0.666656 5.00004 0.666656C6.65629 0.666656 8.00004 2.01041 8.00004 3.66666V4.66666H8.33337C9.06879 4.66666 9.66671 5.26457 9.66671 5.99999V9.99999C9.66671 10.7354 9.06879 11.3333 8.33337 11.3333H1.66671C0.931291 11.3333 0.333374 10.7354 0.333374 9.99999V5.99999C0.333374 5.26457 0.931291 4.66666 1.66671 4.66666H2.00004Z" fill="white"/>
  </g>
  <defs>
    <clipPath id="clip0_5989_2294">
      <rect width="9.33333" height="10.6667" fill="white" transform="translate(0.333374 0.666656)"/>
    </clipPath>
  </defs>
</svg>