<svg width="18" height="17" viewBox="0 0 18 17" fill="none" xmlns="http://www.w3.org/2000/svg">
<path d="M5.91152 13.25L9.06152 11.35L12.2115 13.275L11.3865 9.675L14.1615 7.275L10.5115 6.95L9.06152 3.55L7.61152 6.925L3.96152 7.25L6.73652 9.675L5.91152 13.25ZM9.06152 13.7L4.91152 16.2C4.72819 16.3167 4.53652 16.3667 4.33652 16.35C4.13652 16.3333 3.96152 16.2667 3.81152 16.15C3.66152 16.0333 3.54486 15.8875 3.46152 15.7125C3.37819 15.5375 3.36152 15.3417 3.41152 15.125L4.51152 10.4L0.836523 7.225C0.669857 7.075 0.56569 6.90417 0.524023 6.7125C0.482357 6.52083 0.494857 6.33333 0.561523 6.15C0.62819 5.96667 0.72819 5.81667 0.861523 5.7C0.994857 5.58333 1.17819 5.50833 1.41152 5.475L6.26152 5.05L8.13652 0.6C8.21986 0.4 8.34902 0.25 8.52402 0.15C8.69902 0.05 8.87819 0 9.06152 0C9.24486 0 9.42402 0.05 9.59902 0.15C9.77402 0.25 9.90319 0.4 9.98652 0.6L11.8615 5.05L16.7115 5.475C16.9449 5.50833 17.1282 5.58333 17.2615 5.7C17.3949 5.81667 17.4949 5.96667 17.5615 6.15C17.6282 6.33333 17.6407 6.52083 17.599 6.7125C17.5574 6.90417 17.4532 7.075 17.2865 7.225L13.6115 10.4L14.7115 15.125C14.7615 15.3417 14.7449 15.5375 14.6615 15.7125C14.5782 15.8875 14.4615 16.0333 14.3115 16.15C14.1615 16.2667 13.9865 16.3333 13.7865 16.35C13.5865 16.3667 13.3949 16.3167 13.2115 16.2L9.06152 13.7Z" fill="white"/>
</svg>
