<svg width="24" height="24" viewBox="0 0 24 24" fill="none" xmlns="http://www.w3.org/2000/svg">
<g clip-path="url(#clip0_1823_8172)">
<path d="M5.0997 9.34664C3.63376 10.7841 3.63376 13.1873 5.0997 14.6529L9.34689 18.8998C10.7844 20.3654 13.1875 20.3654 14.6531 18.8998L18.9 14.6529C20.3656 13.1873 20.3656 10.7841 18.9 9.34664L14.6531 5.09945C13.1875 3.63352 10.7844 3.63352 9.34689 5.09945L5.0997 9.34664ZM13.8594 13.8591C12.8313 14.8841 11.1688 14.8841 10.1438 13.8591C9.11563 12.831 9.11563 11.1685 10.1438 10.1435C11.1688 9.11539 12.8313 9.11539 13.8594 10.1435C14.8844 11.1685 14.8844 12.831 13.8594 13.8591Z" fill="white"/>
</g>
<defs>
<clipPath id="clip0_1823_8172">
<rect width="16" height="16" fill="white" transform="translate(4 4)"/>
</clipPath>
</defs>
</svg>
