<svg
  width="28"
  height="28"
  viewBox="0 0 28 28"
  fill="#ffffff"
  xmlns="http://www.w3.org/2000/svg"
>
  <path
    d="M18.7062 10.7062C19.0968 10.3156 19.0968 9.68124 18.7062 9.29062C18.3155 8.89999 17.6812 8.89999 17.2905 9.29062L13.9999 12.5844L10.7062 9.29374C10.3155 8.90312 9.68115 8.90312 9.29053 9.29374C8.8999 9.68437 8.8999 10.3187 9.29053 10.7094L12.5843 14L9.29365 17.2937C8.90303 17.6844 8.90303 18.3187 9.29365 18.7094C9.68428 19.1 10.3187 19.1 10.7093 18.7094L13.9999 15.4156L17.2937 18.7062C17.6843 19.0969 18.3187 19.0969 18.7093 18.7062C19.0999 18.3156 19.0999 17.6812 18.7093 17.2906L15.4155 14L18.7062 10.7062Z"
    fill="#fffff"
  />
</svg>