<svg width="24" height="24" viewBox="0 0 24 24" fill="none" xmlns="http://www.w3.org/2000/svg">
<g clip-path="url(#clip0_2696_21857)">
<path d="M14.2752 4.03773C13.7439 3.8846 13.1908 4.19398 13.0377 4.72523L9.03769 18.7252C8.88457 19.2565 9.19394 19.8096 9.72519 19.9627C10.2564 20.1159 10.8096 19.8065 10.9627 19.2752L14.9627 5.27523C15.1158 4.74398 14.8064 4.19085 14.2752 4.03773ZM16.7939 7.79085C16.4033 8.18148 16.4033 8.81585 16.7939 9.20648L19.5846 12.0002L16.7908 14.794C16.4002 15.1846 16.4002 15.819 16.7908 16.2096C17.1814 16.6002 17.8158 16.6002 18.2064 16.2096L21.7064 12.7096C22.0971 12.319 22.0971 11.6846 21.7064 11.294L18.2064 7.79398C17.8158 7.40335 17.1814 7.40335 16.7908 7.79398L16.7939 7.79085ZM7.20957 7.79085C6.81894 7.40023 6.18457 7.40023 5.79394 7.79085L2.29395 11.2909C1.90332 11.6815 1.90332 12.3159 2.29395 12.7065L5.79394 16.2065C6.18457 16.5971 6.81894 16.5971 7.20957 16.2065C7.60019 15.8159 7.60019 15.1815 7.20957 14.7909L4.41582 12.0002L7.20957 9.20648C7.60019 8.81585 7.60019 8.18148 7.20957 7.79085Z" fill="#8A9299"/>
</g>
<defs>
<clipPath id="clip0_2696_21857">
<rect width="20" height="16" fill="white" transform="translate(2 4)"/>
</clipPath>
</defs>
</svg>
