<svg width="16" height="16" viewBox="0 0 16 16" fill="none" xmlns="http://www.w3.org/2000/svg">
<g clip-path="url(#clip0_5340_2075)">
<path d="M11.3832 5.95609C12.1186 5.78317 12.6665 5.12275 12.6665 4.33317C12.6665 3.41234 11.9207 2.6665 10.9998 2.6665C10.0957 2.6665 9.36025 3.38525 9.33317 4.28109L5.504 5.81442C5.20192 5.5165 4.78942 5.33317 4.33317 5.33317C3.41234 5.33317 2.6665 6.079 2.6665 6.99984C2.6665 7.92067 3.41234 8.6665 4.33317 8.6665C4.58734 8.6665 4.829 8.61025 5.04359 8.50817L8.07692 11.1623C8.02692 11.3207 7.99984 11.4915 7.99984 11.6665C7.99984 12.5873 8.74567 13.3332 9.6665 13.3332C10.5873 13.3332 11.3332 12.5873 11.3332 11.6665C11.3332 11.0894 11.0415 10.5811 10.5957 10.2832L11.3832 5.95609ZM5.92275 7.504C5.96859 7.36025 5.99567 7.20817 5.99984 7.05192L9.829 5.52067C9.904 5.59359 9.98317 5.66025 10.0707 5.71859L9.28317 10.0436C9.16859 10.0707 9.05817 10.1082 8.954 10.1582L5.92275 7.504Z" fill="#8A9299"/>
</g>
<defs>
<clipPath id="clip0_5340_2075">
<rect width="10.6667" height="10.6667" fill="white" transform="translate(2.6665 2.6665)"/>
</clipPath>
</defs>
</svg>
