<svg width="11" height="12" viewBox="0 0 11 12" fill="none" xmlns="http://www.w3.org/2000/svg">
<path d="M9.38329 3.95627C10.1187 3.78335 10.6666 3.12294 10.6666 2.33335C10.6666 1.41252 9.92079 0.666687 8.99996 0.666687C8.09579 0.666687 7.36038 1.38544 7.33329 2.28127L3.50413 3.8146C3.20204 3.51669 2.78954 3.33335 2.33329 3.33335C1.41246 3.33335 0.666626 4.07919 0.666626 5.00002C0.666626 5.92085 1.41246 6.66669 2.33329 6.66669C2.58746 6.66669 2.82913 6.61044 3.04371 6.50835L6.07704 9.16252C6.02704 9.32085 5.99996 9.49169 5.99996 9.66669C5.99996 10.5875 6.74579 11.3334 7.66663 11.3334C8.58746 11.3334 9.33329 10.5875 9.33329 9.66669C9.33329 9.0896 9.04163 8.58127 8.59579 8.28335L9.38329 3.95627ZM3.92288 5.50419C3.96871 5.36044 3.99579 5.20835 3.99996 5.0521L7.82913 3.52085C7.90413 3.59377 7.98329 3.66044 8.07079 3.71877L7.28329 8.04377C7.16871 8.07085 7.05829 8.10835 6.95413 8.15835L3.92288 5.50419Z" fill="#8A9299"/>
</svg>
