<svg width="24" height="24" viewBox="0 0 24 24" fill="none" xmlns="http://www.w3.org/2000/svg">
<path d="M17.075 8.93437C18.1781 8.675 19 7.68438 19 6.5C19 5.11875 17.8813 4 16.5 4C15.1438 4 14.0406 5.07812 14 6.42188L8.25625 8.72188C7.80312 8.275 7.18438 8 6.5 8C5.11875 8 4 9.11875 4 10.5C4 11.8812 5.11875 13 6.5 13C6.88125 13 7.24375 12.9156 7.56562 12.7625L12.1156 16.7437C12.0406 16.9812 12 17.2375 12 17.5C12 18.8813 13.1187 20 14.5 20C15.8813 20 17 18.8813 17 17.5C17 16.6344 16.5625 15.8719 15.8938 15.425L17.075 8.93437ZM8.88438 11.2562C8.95312 11.0406 8.99375 10.8125 9 10.5781L14.7437 8.28125C14.8562 8.39062 14.975 8.49062 15.1062 8.57812L13.925 15.0656C13.7531 15.1062 13.5875 15.1625 13.4312 15.2375L8.88438 11.2562Z" fill="white"/>
</svg>
