<svg width="24" height="24" viewBox="0 0 24 24" fill="none" xmlns="http://www.w3.org/2000/svg">
<g clip-path="url(#clip0_2696_21849)">
<path d="M20 11.5C20 15.0906 16.4187 18 12 18C10.8406 18 9.74057 17.8 8.74682 17.4406C8.37495 17.7125 7.7687 18.0844 7.04995 18.3969C6.29995 18.7219 5.39683 19 4.49995 19C4.29683 19 4.11558 18.8781 4.03745 18.6906C3.95933 18.5031 4.00308 18.2906 4.1437 18.1469L4.15308 18.1375C4.16245 18.1281 4.17495 18.1156 4.1937 18.0938C4.22808 18.0562 4.2812 17.9969 4.34683 17.9156C4.47495 17.7594 4.64683 17.5281 4.82183 17.2406C5.13433 16.7219 5.4312 16.0406 5.49058 15.275C4.55308 14.2125 3.99995 12.9094 3.99995 11.5C3.99995 7.90937 7.5812 5 12 5C16.4187 5 20 7.90937 20 11.5Z" fill="#8A9299"/>
</g>
<defs>
<clipPath id="clip0_2696_21849">
<rect width="16" height="16" fill="white" transform="translate(4 4)"/>
</clipPath>
</defs>
</svg>
