<svg width="12" height="12" viewBox="0 0 12 12" fill="none" xmlns="http://www.w3.org/2000/svg">
<g clip-path="url(#clip0_6554_11572)">
<path d="M11.3337 9.33398C11.3337 10.0694 10.7357 10.6673 10.0003 10.6673H2.00033C1.26491 10.6673 0.666992 10.0694 0.666992 9.33398V2.66732C0.666992 1.9319 1.26491 1.33398 2.00033 1.33398H4.66699C5.08574 1.33398 5.48158 1.5319 5.73366 1.86732L6.13366 2.40065C6.25866 2.5694 6.45658 2.66732 6.66699 2.66732H10.0003C10.7357 2.66732 11.3337 3.26523 11.3337 4.00065V9.33398ZM5.50033 8.50065C5.50033 8.77773 5.72324 9.00065 6.00033 9.00065C6.27741 9.00065 6.50033 8.77773 6.50033 8.50065V7.16732H7.83366C8.11074 7.16732 8.33366 6.9444 8.33366 6.66732C8.33366 6.39023 8.11074 6.16732 7.83366 6.16732H6.50033V4.83398C6.50033 4.5569 6.27741 4.33398 6.00033 4.33398C5.72324 4.33398 5.50033 4.5569 5.50033 4.83398V6.16732H4.16699C3.88991 6.16732 3.66699 6.39023 3.66699 6.66732C3.66699 6.9444 3.88991 7.16732 4.16699 7.16732H5.50033V8.50065Z" fill="#8A9299"/>
</g>
<defs>
<clipPath id="clip0_6554_11572">
<rect width="10.6667" height="10.6667" fill="white" transform="translate(0.666992 0.666992)"/>
</clipPath>
</defs>
</svg>
