<svg width="12" height="16" viewBox="0 0 12 16" fill="none" xmlns="http://www.w3.org/2000/svg">
<path d="M10.7066 4.70615C11.0973 4.31553 11.0973 3.68115 10.7066 3.29053C10.316 2.8999 9.68164 2.8999 9.29102 3.29053L6.00039 6.58428L2.70664 3.29365C2.31602 2.90303 1.68164 2.90303 1.29102 3.29365C0.900391 3.68428 0.900391 4.31865 1.29102 4.70928L4.58477 7.9999L1.29414 11.2937C0.903516 11.6843 0.903516 12.3187 1.29414 12.7093C1.68477 13.0999 2.31914 13.0999 2.70977 12.7093L6.00039 9.41553L9.29414 12.7062C9.68477 13.0968 10.3191 13.0968 10.7098 12.7062C11.1004 12.3155 11.1004 11.6812 10.7098 11.2905L7.41602 7.9999L10.7066 4.70615Z" fill="#8A9299"/>
</svg>
