<svg width="12" height="11" viewBox="0 0 12 11" fill="#1e1e1e" xmlns="http://www.w3.org/2000/svg">
<path d="M1.52917 5.02878C1.26876 5.28919 1.26876 5.71211 1.52917 5.97253L4.86251 9.30586C5.12292 9.56628 5.54584 9.56628 5.80626 9.30586C6.06667 9.04544 6.06667 8.62253 5.80626 8.36211L2.94376 5.49961L5.80418 2.63711C6.06459 2.37669 6.06459 1.95378 5.80418 1.69336C5.54376 1.43294 5.12084 1.43294 4.86042 1.69336L1.52709 5.02669L1.52917 5.02878ZM8.86251 1.69544L5.52917 5.02878C5.26876 5.28919 5.26876 5.71211 5.52917 5.97253L8.86251 9.30586C9.12292 9.56628 9.54584 9.56628 9.80626 9.30586C10.0667 9.04544 10.0667 8.62253 9.80626 8.36211L6.94376 5.49961L9.80418 2.63711C10.0646 2.37669 10.0646 1.95378 9.80418 1.69336C9.54376 1.43294 9.12084 1.43294 8.86042 1.69336L8.86251 1.69544Z" fill="#8A9299"/>
</svg>
