<svg width="16" height="16" viewBox="0 0 16 16" fill="none" xmlns="http://www.w3.org/2000/svg">
<path d="M12.4714 8.47044C12.7318 8.21003 12.7318 7.78711 12.4714 7.52669L9.13809 4.19336C8.87767 3.93294 8.45475 3.93294 8.19434 4.19336C7.93392 4.45378 7.93392 4.87669 8.19434 5.13711L11.0568 7.99961L8.19642 10.8621C7.936 11.1225 7.936 11.5454 8.19642 11.8059C8.45684 12.0663 8.87975 12.0663 9.14017 11.8059L12.4735 8.47253L12.4714 8.47044ZM5.13809 11.8038L8.47142 8.47044C8.73184 8.21003 8.73184 7.78711 8.47142 7.52669L5.13809 4.19336C4.87767 3.93294 4.45475 3.93294 4.19434 4.19336C3.93392 4.45378 3.93392 4.87669 4.19434 5.13711L7.05684 7.99961L4.19642 10.8621C3.936 11.1225 3.936 11.5454 4.19642 11.8059C4.45684 12.0663 4.87975 12.0663 5.14017 11.8059L5.13809 11.8038Z" fill="#8A9299"/>
</svg>
