<svg width="16" height="16" viewBox="0 0 16 16" fill="none" xmlns="http://www.w3.org/2000/svg">
<g clip-path="url(#clip0_2141_34898)">
<path d="M5.49984 9.99967H6.49984C6.96025 9.99967 7.33317 10.3726 7.33317 10.833V11.833C7.33317 12.2934 6.96025 12.6663 6.49984 12.6663H5.49984C5.03942 12.6663 4.6665 12.2934 4.6665 11.833V10.833C4.6665 10.3726 5.03942 9.99967 5.49984 9.99967ZM9.49984 9.99967H10.4998C10.9603 9.99967 11.3332 10.3726 11.3332 10.833V11.833C11.3332 12.2934 10.9603 12.6663 10.4998 12.6663H9.49984C9.03942 12.6663 8.6665 12.2934 8.6665 11.833V10.833C8.6665 10.3726 9.03942 9.99967 9.49984 9.99967ZM5.49984 9.33301C5.03942 9.33301 4.6665 8.96009 4.6665 8.49967V7.49967C4.6665 7.03926 5.03942 6.66634 5.49984 6.66634H6.49984C6.96025 6.66634 7.33317 7.03926 7.33317 7.49967V8.49967C7.33317 8.96009 6.96025 9.33301 6.49984 9.33301H5.49984ZM9.49984 6.66634H10.4998C10.9603 6.66634 11.3332 7.03926 11.3332 7.49967V8.49967C11.3332 8.96009 10.9603 9.33301 10.4998 9.33301H9.49984C9.03942 9.33301 8.6665 8.96009 8.6665 8.49967V7.49967C8.6665 7.03926 9.03942 6.66634 9.49984 6.66634ZM5.49984 5.99967C5.03942 5.99967 4.6665 5.62676 4.6665 5.16634V4.16634C4.6665 3.70592 5.03942 3.33301 5.49984 3.33301H6.49984C6.96025 3.33301 7.33317 3.70592 7.33317 4.16634V5.16634C7.33317 5.62676 6.96025 5.99967 6.49984 5.99967H5.49984ZM9.49984 3.33301H10.4998C10.9603 3.33301 11.3332 3.70592 11.3332 4.16634V5.16634C11.3332 5.62676 10.9603 5.99967 10.4998 5.99967H9.49984C9.03942 5.99967 8.6665 5.62676 8.6665 5.16634V4.16634C8.6665 3.70592 9.03942 3.33301 9.49984 3.33301Z" fill="#8A9299"/>
</g>
<defs>
<clipPath id="clip0_2141_34898">
<rect width="6.66667" height="10.6667" fill="white" transform="translate(4.6665 2.6665)"/>
</clipPath>
</defs>
</svg>
