<svg width="24" height="24" viewBox="0 0 24 24" fill="none" xmlns="http://www.w3.org/2000/svg">
<g clip-path="url(#clip0_1823_8167)">
<path d="M8.89378 16.0283L7.92816 15.0627C7.66253 14.7971 7.56878 14.4127 7.68753 14.0565C7.78128 13.7783 7.90628 13.4158 8.05628 13.0002H4.75003C4.48128 13.0002 4.23128 12.8565 4.09691 12.6221C3.96253 12.3877 3.96566 12.1002 4.10316 11.869L5.74378 9.10334C6.15003 8.41896 6.88441 8.00021 7.67816 8.00021H10.25C10.325 7.87521 10.4 7.75959 10.475 7.64709C13.0344 3.87209 16.8469 3.74709 19.1219 4.16584C19.4844 4.23146 19.7657 4.51584 19.8344 4.87834C20.2532 7.15646 20.125 10.9658 16.3532 13.5252C16.2438 13.6002 16.125 13.6752 16 13.7502V16.3221C16 17.1158 15.5813 17.8533 14.8969 18.2565L12.1313 19.8971C11.9 20.0346 11.6125 20.0377 11.3782 19.9033C11.1438 19.769 11 19.5221 11 19.2502V15.9002C10.5594 16.0533 10.175 16.1783 9.88441 16.2721C9.53441 16.3846 9.15316 16.2877 8.89066 16.0283H8.89378ZM16 9.25021C16.3316 9.25021 16.6495 9.11852 16.8839 8.8841C17.1183 8.64968 17.25 8.33173 17.25 8.00021C17.25 7.66869 17.1183 7.35075 16.8839 7.11633C16.6495 6.88191 16.3316 6.75021 16 6.75021C15.6685 6.75021 15.3506 6.88191 15.1161 7.11633C14.8817 7.35075 14.75 7.66869 14.75 8.00021C14.75 8.33173 14.8817 8.64968 15.1161 8.8841C15.3506 9.11852 15.6685 9.25021 16 9.25021Z" fill="white"/>
</g>
<defs>
<clipPath id="clip0_1823_8167">
<rect width="16" height="16" fill="white" transform="translate(4 4)"/>
</clipPath>
</defs>
</svg>
