<svg width="24" height="24" viewBox="0 0 24 24" fill="none" xmlns="http://www.w3.org/2000/svg">
<rect x="5.15" y="5.15" width="14.7" height="14.7" rx="1.35" stroke="white" stroke-width="1.3"/>
<path d="M9.70273 9.5C9.75796 9.5 9.80273 9.54477 9.80273 9.6V9.93846C9.80273 9.99369 9.75796 10.0385 9.70273 10.0385H9.24097C9.18574 10.0385 9.14097 10.0832 9.14097 10.1385V15.8615C9.14097 15.9168 9.18574 15.9615 9.24097 15.9615H9.70273C9.75796 15.9615 9.80273 16.0063 9.80273 16.0615V16.4C9.80273 16.4552 9.75796 16.5 9.70273 16.5H8.6C8.54477 16.5 8.5 16.4552 8.5 16.4V9.6C8.5 9.54477 8.54477 9.5 8.6 9.5H9.70273Z" fill="white"/>
<path d="M15.2903 10.0385C15.2351 10.0385 15.1903 9.99369 15.1903 9.93846V9.6C15.1903 9.54477 15.2351 9.5 15.2903 9.5H16.4C16.4552 9.5 16.5 9.54477 16.5 9.6V16.4C16.5 16.4552 16.4552 16.5 16.4 16.5H15.2903C15.2351 16.5 15.1903 16.4552 15.1903 16.4V16.0615C15.1903 16.0063 15.2351 15.9615 15.2903 15.9615H15.7556C15.8108 15.9615 15.8556 15.9168 15.8556 15.8615V10.1385C15.8556 10.0832 15.8108 10.0385 15.7556 10.0385H15.2903Z" fill="white"/>
<path d="M9.70273 9.5C9.75796 9.5 9.80273 9.54477 9.80273 9.6V9.93846C9.80273 9.99369 9.75796 10.0385 9.70273 10.0385H9.24097C9.18574 10.0385 9.14097 10.0832 9.14097 10.1385V15.8615C9.14097 15.9168 9.18574 15.9615 9.24097 15.9615H9.70273C9.75796 15.9615 9.80273 16.0063 9.80273 16.0615V16.4C9.80273 16.4552 9.75796 16.5 9.70273 16.5H8.6C8.54477 16.5 8.5 16.4552 8.5 16.4V9.6C8.5 9.54477 8.54477 9.5 8.6 9.5H9.70273Z" stroke="white" stroke-width="0.6"/>
<path d="M15.2903 10.0385C15.2351 10.0385 15.1903 9.99369 15.1903 9.93846V9.6C15.1903 9.54477 15.2351 9.5 15.2903 9.5H16.4C16.4552 9.5 16.5 9.54477 16.5 9.6V16.4C16.5 16.4552 16.4552 16.5 16.4 16.5H15.2903C15.2351 16.5 15.1903 16.4552 15.1903 16.4V16.0615C15.1903 16.0063 15.2351 15.9615 15.2903 15.9615H15.7556C15.8108 15.9615 15.8556 15.9168 15.8556 15.8615V10.1385C15.8556 10.0832 15.8108 10.0385 15.7556 10.0385H15.2903Z" stroke="white" stroke-width="0.6"/>
<path d="M12 13.5V12.5H13V13.5H12Z" fill="white" stroke="white"/>
</svg>
