<svg width="18" height="18" viewBox="0 0 18 18" fill="none" xmlns="http://www.w3.org/2000/svg">
<path d="M2 18C1.45 18 0.979167 17.8042 0.5875 17.4125C0.195833 17.0208 0 16.55 0 16V2C0 1.45 0.195833 0.979167 0.5875 0.5875C0.979167 0.195833 1.45 0 2 0H8C8.28333 0 8.52083 0.0958333 8.7125 0.2875C8.90417 0.479167 9 0.716667 9 1C9 1.28333 8.90417 1.52083 8.7125 1.7125C8.52083 1.90417 8.28333 2 8 2H2V16H16V10C16 9.71667 16.0958 9.47917 16.2875 9.2875C16.4792 9.09583 16.7167 9 17 9C17.2833 9 17.5208 9.09583 17.7125 9.2875C17.9042 9.47917 18 9.71667 18 10V16C18 16.55 17.8042 17.0208 17.4125 17.4125C17.0208 17.8042 16.55 18 16 18H2ZM16 3.4L7.4 12C7.21667 12.1833 6.98333 12.275 6.7 12.275C6.41667 12.275 6.18333 12.1833 6 12C5.81667 11.8167 5.725 11.5833 5.725 11.3C5.725 11.0167 5.81667 10.7833 6 10.6L14.6 2H12C11.7167 2 11.4792 1.90417 11.2875 1.7125C11.0958 1.52083 11 1.28333 11 1C11 0.716667 11.0958 0.479167 11.2875 0.2875C11.4792 0.0958333 11.7167 0 12 0H18V6C18 6.28333 17.9042 6.52083 17.7125 6.7125C17.5208 6.90417 17.2833 7 17 7C16.7167 7 16.4792 6.90417 16.2875 6.7125C16.0958 6.52083 16 6.28333 16 6V3.4Z" fill="#85C2FF"/>
</svg>
