<svg width="16" height="16" viewBox="0 0 16 16" fill="none" xmlns="http://www.w3.org/2000/svg">
<g clip-path="url(#clip0_2098_21604)">
<path d="M4.33325 4.66634V11.333C4.33325 11.5163 4.48325 11.6663 4.66659 11.6663H11.3333C11.5166 11.6663 11.6666 11.5163 11.6666 11.333V6.21842C11.6666 6.13092 11.6312 6.04551 11.5687 5.98301L12.2749 5.27676C12.5249 5.52676 12.6645 5.86634 12.6645 6.22051V11.333C12.6645 12.0684 12.0666 12.6663 11.3312 12.6663H4.66659C3.93117 12.6663 3.33325 12.0684 3.33325 11.333V4.66634C3.33325 3.93092 3.93117 3.33301 4.66659 3.33301H9.78117C10.1353 3.33301 10.4749 3.47259 10.7249 3.72259L12.277 5.27467L11.5708 5.98092L10.0166 4.43092C10.0103 4.42467 10.0062 4.42051 9.99992 4.41426V6.49967C9.99992 6.77676 9.777 6.99967 9.49992 6.99967H5.49992C5.22284 6.99967 4.99992 6.77676 4.99992 6.49967V4.33301H4.66659C4.48325 4.33301 4.33325 4.48301 4.33325 4.66634ZM5.99992 4.33301V5.99967H8.99992V4.33301H5.99992ZM6.66659 9.33301C6.66659 8.97938 6.80706 8.64025 7.05711 8.3902C7.30716 8.14015 7.6463 7.99967 7.99992 7.99967C8.35354 7.99967 8.69268 8.14015 8.94273 8.3902C9.19278 8.64025 9.33325 8.97938 9.33325 9.33301C9.33325 9.68663 9.19278 10.0258 8.94273 10.2758C8.69268 10.5259 8.35354 10.6663 7.99992 10.6663C7.6463 10.6663 7.30716 10.5259 7.05711 10.2758C6.80706 10.0258 6.66659 9.68663 6.66659 9.33301Z" fill="white"/>
</g>
<defs>
<clipPath id="clip0_2098_21604">
<rect width="9.33333" height="10.6667" fill="white" transform="translate(3.33325 2.6665)"/>
</clipPath>
</defs>
</svg>
