<svg width="24" height="24" viewBox="0 0 24 24" fill="none" xmlns="http://www.w3.org/2000/svg">
<path d="M15 19H16.5C16.8562 19 17.1844 18.8125 17.3625 18.5031L20.8625 12.5031C21.0437 12.1938 21.0438 11.8125 20.8656 11.5C20.6875 11.1875 20.3594 11 20 11H7.5C7.14375 11 6.81562 11.1875 6.6375 11.4969L4.5 15.1594V7C4.5 6.725 4.725 6.5 5 6.5H8.67188C8.80312 6.5 8.93125 6.55312 9.025 6.64687L9.85313 7.475C10.5094 8.13125 11.4 8.5 12.3281 8.5H16C16.275 8.5 16.5 8.725 16.5 9V10H18V9C18 7.89687 17.1031 7 16 7H12.3281C11.7969 7 11.2875 6.79063 10.9125 6.41563L10.0844 5.58438C9.70937 5.20938 9.2 5 8.66875 5H5C3.89688 5 3 5.89688 3 7V17C3 18.1031 3.89688 19 5 19H5.74062H15Z" fill="#85C2FF"/>
</svg>
