<svg width="16" height="16" viewBox="0 0 16 16" fill="none" xmlns="http://www.w3.org/2000/svg">
<g clip-path="url(#clip0_4535_14176)">
<path d="M8 16.001C10.1217 16.001 12.1566 15.1581 13.6569 13.6578C15.1571 12.1575 16 10.1227 16 8.00098C16 5.87924 15.1571 3.84441 13.6569 2.34412C12.1566 0.843831 10.1217 0.000976563 8 0.000976562C5.87827 0.000976563 3.84344 0.843831 2.34315 2.34412C0.842855 3.84441 0 5.87924 0 8.00098C0 10.1227 0.842855 12.1575 2.34315 13.6578C3.84344 15.1581 5.87827 16.001 8 16.001ZM6.75 10.501H7.5V8.50098H6.75C6.33437 8.50098 6 8.1666 6 7.75098C6 7.33535 6.33437 7.00098 6.75 7.00098H8.25C8.66562 7.00098 9 7.33535 9 7.75098V10.501H9.25C9.66562 10.501 10 10.8354 10 11.251C10 11.6666 9.66562 12.001 9.25 12.001H6.75C6.33437 12.001 6 11.6666 6 11.251C6 10.8354 6.33437 10.501 6.75 10.501ZM8 4.00098C8.26522 4.00098 8.51957 4.10633 8.70711 4.29387C8.89464 4.48141 9 4.73576 9 5.00098C9 5.26619 8.89464 5.52055 8.70711 5.70808C8.51957 5.89562 8.26522 6.00098 8 6.00098C7.73478 6.00098 7.48043 5.89562 7.29289 5.70808C7.10536 5.52055 7 5.26619 7 5.00098C7 4.73576 7.10536 4.48141 7.29289 4.29387C7.48043 4.10633 7.73478 4.00098 8 4.00098Z" fill="#85C2FF"/>
</g>
<defs>
<clipPath id="clip0_4535_14176">
<rect width="16" height="16" fill="white" transform="translate(0 0.000976562)"/>
</clipPath>
</defs>
</svg>
