<svg width="16" height="16" viewBox="0 0 16 16" fill="none" xmlns="http://www.w3.org/2000/svg">
<g clip-path="url(#clip0_2377_23453)">
<path d="M9.99996 2.66699C9.73121 2.66699 9.48746 2.82949 9.38329 3.07949C9.27913 3.32949 9.33746 3.61491 9.52704 3.80658L10.3895 4.66699L6.86246 8.19616C6.60204 8.45657 6.60204 8.87949 6.86246 9.13991C7.12288 9.40033 7.54579 9.40033 7.80621 9.13991L11.3333 5.61074L12.1958 6.47324C12.3875 6.66491 12.6729 6.72116 12.9229 6.61699C13.1729 6.51283 13.3354 6.27116 13.3354 6.00033V3.33366C13.3354 2.96491 13.0375 2.66699 12.6687 2.66699H9.99996ZM4.33329 3.33366C3.41246 3.33366 2.66663 4.07949 2.66663 5.00033V11.667C2.66663 12.5878 3.41246 13.3337 4.33329 13.3337H11C11.9208 13.3337 12.6666 12.5878 12.6666 11.667V9.33366C12.6666 8.96491 12.3687 8.66699 12 8.66699C11.6312 8.66699 11.3333 8.96491 11.3333 9.33366V11.667C11.3333 11.8503 11.1833 12.0003 11 12.0003H4.33329C4.14996 12.0003 3.99996 11.8503 3.99996 11.667V5.00033C3.99996 4.81699 4.14996 4.66699 4.33329 4.66699H6.66663C7.03538 4.66699 7.33329 4.36908 7.33329 4.00033C7.33329 3.63158 7.03538 3.33366 6.66663 3.33366H4.33329Z" fill="#1193F0"/>
</g>
<defs>
<clipPath id="clip0_2377_23453">
<rect width="10.6667" height="10.6667" fill="white" transform="translate(2.66663 2.66699)"/>
</clipPath>
</defs>
</svg>
