<svg width="45" height="45" viewBox="0 0 45 45" fill="none" xmlns="http://www.w3.org/2000/svg">
<path d="M32.1276 20.3716C32.1808 20.3343 32.2409 20.3123 32.3053 20.3054L33.6836 20.1589C33.7224 20.1548 33.7415 20.205 33.7105 20.2288C31.1714 22.1696 29.2488 23.6071 26.4686 25.8817C25.6658 26.5385 23.6538 26.7035 23.8776 26.5416C25.7671 24.8482 31.3927 20.8875 32.1276 20.3716Z" fill="#1193F0"/>
<path d="M31.2833 14.5272C32.1317 14.3735 34.3931 15.2077 35.2405 15.4498C35.434 15.5051 35.6674 16.2448 35.6377 16.4913C35.635 16.5138 35.6263 16.5346 35.6163 16.5549L34.2201 19.3905C34.2101 19.4108 34.2023 19.4322 34.1941 19.4533C34.1409 19.5904 34.0144 19.6865 33.8667 19.6987L33.0066 19.7697C32.9508 19.7743 32.1011 19.8152 32.1011 19.8152C32.1011 19.8152 24.3232 25.5072 23.277 26.3291C23.1667 26.4157 21.7833 26.5853 21.6543 26.5308L17.4968 24.6244C17.1756 24.4889 17.7381 24.2863 18.0638 24.162L28.8053 20.065C29.0251 19.9811 29.1198 19.7196 29 19.5159C28.3822 18.4652 27.8046 17.7474 27.4579 17.3565C27.2931 17.1706 27.3192 16.8725 27.5262 16.7358C28.378 16.1732 30.4507 14.678 31.2833 14.5272Z" fill="#1193F0"/>
<path d="M9.26107 9.58492L8.6388 8.83997C8.38308 8.53385 8.69877 8.08546 9.07026 8.22714L21.6613 13.0293C21.6854 13.0384 21.7085 13.05 21.7302 13.0639C24.8211 15.0359 27.2863 18.1411 28.1062 19.2423C28.2572 19.445 28.1692 19.7319 27.9334 19.8202L19.4665 22.9912C19.3071 23.0509 19.1277 22.9983 19.025 22.8618L12.8468 14.65L9.26107 9.58492Z" fill="#1193F0"/>
<path d="M35.1882 19.489C34.9459 19.4812 34.7788 19.2223 34.8825 19.0018L35.7983 17.054C35.8059 17.0379 35.8118 17.021 35.818 17.0042C35.8985 16.7858 36.1792 16.723 36.3439 16.8874C36.3553 16.8988 36.3648 16.912 36.3734 16.9256L37.8968 19.3251C38.0045 19.4947 37.8884 19.6948 37.6893 19.6768C37.0724 19.621 35.9727 19.514 35.1882 19.489Z" fill="#1193F0"/>
<path d="M19.9524 27.0211C20.021 26.8338 20.1884 26.5473 20.01 26.4601L18.1677 25.5344C17.7437 25.3413 17.4168 25.1924 17.1649 25.0776C16.755 24.8908 16.1001 25.1246 15.8977 25.5292L11.1316 35.056C11.1158 35.0875 11.1069 35.1201 11.1007 35.1548C11.0133 35.6522 10.1548 38.6759 10.0826 38.9882C10.076 39.0167 10.094 38.9883 10.1126 38.9658L19.9524 27.0211Z" fill="#1193F0"/>
<path d="M22.7831 27.0685C22.8604 26.9825 22.7949 26.8453 22.6798 26.8526L20.6842 26.9782C20.6133 26.9826 20.5475 27.0164 20.5022 27.0715L14.8642 33.9351C14.8198 33.9891 14.8785 34.0631 14.9398 34.0298C15.7044 33.615 17.9131 32.3524 19.3736 30.8629L22.7831 27.0685Z" fill="#1193F0"/>
<path d="M8.19995 17.9917C8.19995 17.9917 11.2488 17.1676 14.3937 17.9867L16.3744 20.1442L18.693 23.2786L17.4246 23.3337C17.3685 23.3361 17.3131 23.32 17.267 23.2877L14.3252 21.2314L8.19995 17.9917Z" fill="#1193F0"/>
</svg>
