<svg width="73" height="28" viewBox="0 0 73 28" fill="none" xmlns="http://www.w3.org/2000/svg">
<path d="M5.472 18.752C4.224 18.752 3.174 18.476 2.322 17.924C1.47 17.36 0.87 16.598 0.522 15.638L2.646 14.396C3.138 15.68 4.104 16.322 5.544 16.322C6.24 16.322 6.75 16.196 7.074 15.944C7.398 15.692 7.56 15.374 7.56 14.99C7.56 14.546 7.362 14.204 6.966 13.964C6.57 13.712 5.862 13.442 4.842 13.154C4.278 12.986 3.798 12.818 3.402 12.65C3.018 12.482 2.628 12.26 2.232 11.984C1.848 11.696 1.554 11.336 1.35 10.904C1.146 10.472 1.044 9.968 1.044 9.392C1.044 8.252 1.446 7.346 2.25 6.674C3.066 5.99 4.044 5.648 5.184 5.648C6.204 5.648 7.098 5.9 7.866 6.404C8.646 6.896 9.252 7.586 9.684 8.474L7.596 9.68C7.092 8.6 6.288 8.06 5.184 8.06C4.668 8.06 4.26 8.18 3.96 8.42C3.672 8.648 3.528 8.948 3.528 9.32C3.528 9.716 3.69 10.04 4.014 10.292C4.35 10.532 4.986 10.796 5.922 11.084C6.306 11.204 6.594 11.3 6.786 11.372C6.99 11.432 7.26 11.534 7.596 11.678C7.944 11.81 8.208 11.936 8.388 12.056C8.58 12.176 8.796 12.338 9.036 12.542C9.276 12.746 9.456 12.956 9.576 13.172C9.708 13.388 9.816 13.652 9.9 13.964C9.996 14.264 10.044 14.594 10.044 14.954C10.044 16.118 9.618 17.042 8.766 17.726C7.926 18.41 6.828 18.752 5.472 18.752ZM17.2441 9.248C18.4561 9.248 19.4881 9.71 20.3401 10.634C21.2041 11.546 21.6361 12.668 21.6361 14C21.6361 15.332 21.2041 16.46 20.3401 17.384C19.4881 18.296 18.4561 18.752 17.2441 18.752C15.9841 18.752 15.0121 18.314 14.3281 17.438V22.1H12.0061V9.5H14.3281V10.562C15.0121 9.686 15.9841 9.248 17.2441 9.248ZM15.0301 15.836C15.4981 16.304 16.0921 16.538 16.8121 16.538C17.5321 16.538 18.1261 16.304 18.5941 15.836C19.0741 15.356 19.3141 14.744 19.3141 14C19.3141 13.256 19.0741 12.65 18.5941 12.182C18.1261 11.702 17.5321 11.462 16.8121 11.462C16.0921 11.462 15.4981 11.702 15.0301 12.182C14.5621 12.65 14.3281 13.256 14.3281 14C14.3281 14.744 14.5621 15.356 15.0301 15.836ZM30.5637 9.5H32.8857V18.5H30.5637V17.438C29.8677 18.314 28.8897 18.752 27.6297 18.752C26.4297 18.752 25.3977 18.296 24.5337 17.384C23.6817 16.46 23.2557 15.332 23.2557 14C23.2557 12.668 23.6817 11.546 24.5337 10.634C25.3977 9.71 26.4297 9.248 27.6297 9.248C28.8897 9.248 29.8677 9.686 30.5637 10.562V9.5ZM26.2797 15.836C26.7477 16.304 27.3417 16.538 28.0617 16.538C28.7817 16.538 29.3757 16.304 29.8437 15.836C30.3237 15.356 30.5637 14.744 30.5637 14C30.5637 13.256 30.3237 12.65 29.8437 12.182C29.3757 11.702 28.7817 11.462 28.0617 11.462C27.3417 11.462 26.7477 11.702 26.2797 12.182C25.8117 12.65 25.5777 13.256 25.5777 14C25.5777 14.744 25.8117 15.356 26.2797 15.836ZM37.7633 11.048C37.9793 10.472 38.3333 10.04 38.8253 9.752C39.3293 9.464 39.8873 9.32 40.4993 9.32V11.912C39.7913 11.828 39.1553 11.972 38.5913 12.344C38.0393 12.716 37.7633 13.334 37.7633 14.198V18.5H35.4413V9.5H37.7633V11.048ZM44.6293 11.048C44.8453 10.472 45.1993 10.04 45.6913 9.752C46.1953 9.464 46.7533 9.32 47.3653 9.32V11.912C46.6573 11.828 46.0213 11.972 45.4573 12.344C44.9053 12.716 44.6293 13.334 44.6293 14.198V18.5H42.3073V9.5H44.6293V11.048ZM56.5073 17.384C55.5833 18.296 54.4553 18.752 53.1233 18.752C51.7913 18.752 50.6633 18.296 49.7393 17.384C48.8273 16.46 48.3713 15.332 48.3713 14C48.3713 12.668 48.8273 11.546 49.7393 10.634C50.6633 9.71 51.7913 9.248 53.1233 9.248C54.4553 9.248 55.5833 9.71 56.5073 10.634C57.4313 11.546 57.8933 12.668 57.8933 14C57.8933 15.332 57.4313 16.46 56.5073 17.384ZM51.3773 15.782C51.8453 16.25 52.4273 16.484 53.1233 16.484C53.8193 16.484 54.4013 16.25 54.8693 15.782C55.3373 15.314 55.5713 14.72 55.5713 14C55.5713 13.28 55.3373 12.686 54.8693 12.218C54.4013 11.75 53.8193 11.516 53.1233 11.516C52.4273 11.516 51.8453 11.75 51.3773 12.218C50.9213 12.686 50.6933 13.28 50.6933 14C50.6933 14.72 50.9213 15.314 51.3773 15.782ZM69.7593 9.5H72.2253L69.3633 18.5H67.1493L65.4933 13.046L63.8373 18.5H61.6233L58.7613 9.5H61.2273L62.7573 15.026L64.3953 9.5H66.5913L68.2293 15.044L69.7593 9.5Z" fill="url(#paint0_linear_3996_40146)"/>
<defs>
<linearGradient id="paint0_linear_3996_40146" x1="74.2586" y1="14" x2="-2.66237e-07" y2="14" gradientUnits="userSpaceOnUse">
<stop stop-color="#6147FF"/>
<stop offset="1" stop-color="#1193F0"/>
</linearGradient>
</defs>
</svg>
