<svg xmlns="http://www.w3.org/2000/svg" width="14" height="13" viewBox="0 0 14 13" fill="none">
  <path d="M0.299988 1.56667V4.76667C0.299988 5.36667 0.633321 5.83333 1.09999 5.83333H12.9C13.3 5.83333 13.7 5.36667 13.7 4.76667V1.56667C13.6333 0.966667 13.3 0.5 12.8333 0.5H1.09999C0.633321 0.5 0.299988 0.966667 0.299988 1.56667ZM5.63332 3.83333V2.5H4.96665V3.83333H5.63332ZM2.29999 3.83333H3.63332V2.5H2.29999V3.83333ZM12.3 4.5H1.63332V1.83333H12.3V4.5ZM0.299988 8.23333V11.4333C0.299988 12.0333 0.633321 12.5 1.09999 12.5H12.9C13.3 12.5 13.7 12.0333 13.7 11.4333V8.23333C13.7 7.63333 13.3667 7.16667 12.9 7.16667H1.09999C0.633321 7.16667 0.299988 7.63333 0.299988 8.23333ZM5.63332 10.5V9.16667H4.96665V10.5H5.63332ZM2.29999 10.5H3.63332V9.16667H2.29999V10.5ZM12.3 11.1667H1.63332V8.5H12.3V11.1667Z" fill="#8A9299"/>
</svg>