<svg width="24" height="24" viewBox="0 0 24 24" fill="none" xmlns="http://www.w3.org/2000/svg">
<path d="M6 5C4.89688 5 4 5.89688 4 7V9C4 10.1031 4.89688 11 6 11H18C19.1031 11 20 10.1031 20 9V7C20 5.89688 19.1031 5 18 5H6ZM14.75 7.25C14.9489 7.25 15.1397 7.32902 15.2803 7.46967C15.421 7.61032 15.5 7.80109 15.5 8C15.5 8.19891 15.421 8.38968 15.2803 8.53033C15.1397 8.67098 14.9489 8.75 14.75 8.75C14.5511 8.75 14.3603 8.67098 14.2197 8.53033C14.079 8.38968 14 8.19891 14 8C14 7.80109 14.079 7.61032 14.2197 7.46967C14.3603 7.32902 14.5511 7.25 14.75 7.25ZM16.25 8C16.25 7.80109 16.329 7.61032 16.4697 7.46967C16.6103 7.32902 16.8011 7.25 17 7.25C17.1989 7.25 17.3897 7.32902 17.5303 7.46967C17.671 7.61032 17.75 7.80109 17.75 8C17.75 8.19891 17.671 8.38968 17.5303 8.53033C17.3897 8.67098 17.1989 8.75 17 8.75C16.8011 8.75 16.6103 8.67098 16.4697 8.53033C16.329 8.38968 16.25 8.19891 16.25 8ZM6 13C4.89688 13 4 13.8969 4 15V17C4 18.1031 4.89688 19 6 19H18C19.1031 19 20 18.1031 20 17V15C20 13.8969 19.1031 13 18 13H6ZM14.75 15.25C14.9489 15.25 15.1397 15.329 15.2803 15.4697C15.421 15.6103 15.5 15.8011 15.5 16C15.5 16.1989 15.421 16.3897 15.2803 16.5303C15.1397 16.671 14.9489 16.75 14.75 16.75C14.5511 16.75 14.3603 16.671 14.2197 16.5303C14.079 16.3897 14 16.1989 14 16C14 15.8011 14.079 15.6103 14.2197 15.4697C14.3603 15.329 14.5511 15.25 14.75 15.25ZM16.5 16C16.5 15.8011 16.579 15.6103 16.7197 15.4697C16.8603 15.329 17.0511 15.25 17.25 15.25C17.4489 15.25 17.6397 15.329 17.7803 15.4697C17.921 15.6103 18 15.8011 18 16C18 16.1989 17.921 16.3897 17.7803 16.5303C17.6397 16.671 17.4489 16.75 17.25 16.75C17.0511 16.75 16.8603 16.671 16.7197 16.5303C16.579 16.3897 16.5 16.1989 16.5 16Z" fill="white"/>
</svg>
