<svg width="24" height="25" viewBox="0 0 24 25" fill="none" xmlns="http://www.w3.org/2000/svg">
<path d="M5.29999 7.56667V10.7667C5.29999 11.3667 5.63332 11.8333 6.09999 11.8333H17.9C18.3 11.8333 18.7 11.3667 18.7 10.7667V7.56667C18.6333 6.96667 18.3 6.5 17.8333 6.5H6.09999C5.63332 6.5 5.29999 6.96667 5.29999 7.56667ZM10.6333 9.83333V8.5H9.96665V9.83333H10.6333ZM7.29999 9.83333H8.63332V8.5H7.29999V9.83333ZM17.3 10.5H6.63332V7.83333H17.3V10.5ZM5.29999 14.2333V17.4333C5.29999 18.0333 5.63332 18.5 6.09999 18.5H17.9C18.3 18.5 18.7 18.0333 18.7 17.4333V14.2333C18.7 13.6333 18.3667 13.1667 17.9 13.1667H6.09999C5.63332 13.1667 5.29999 13.6333 5.29999 14.2333ZM10.6333 16.5V15.1667H9.96665V16.5H10.6333ZM7.29999 16.5H8.63332V15.1667H7.29999V16.5ZM17.3 17.1667H6.63332V14.5H17.3V17.1667Z" fill="#8A9299"/>
</svg>
