<svg width="18" height="16" viewBox="0 0 18 16" fill="none" xmlns="http://www.w3.org/2000/svg">
<path d="M12 15H13.5C13.8562 15 14.1844 14.8125 14.3625 14.5031L17.8625 8.50313C18.0437 8.19375 18.0438 7.8125 17.8656 7.5C17.6875 7.1875 17.3594 7 17 7H4.5C4.14375 7 3.81562 7.1875 3.6375 7.49687L1.5 11.1594V3C1.5 2.725 1.725 2.5 2 2.5H5.67188C5.80312 2.5 5.93125 2.55312 6.025 2.64687L6.85313 3.475C7.50938 4.13125 8.4 4.5 9.32812 4.5H13C13.275 4.5 13.5 4.725 13.5 5V6H15V5C15 3.89687 14.1031 3 13 3H9.32812C8.79688 3 8.2875 2.79063 7.9125 2.41563L7.08437 1.58438C6.70937 1.20938 6.2 1 5.66875 1H2C0.896875 1 0 1.89688 0 3V13C0 14.1031 0.896875 15 2 15H2.74062H12Z" fill="#85C2FF"/>
</svg>
