<svg width="12" height="12" viewBox="0 0 12 12" fill="none" xmlns="http://www.w3.org/2000/svg">
<g clip-path="url(#clip0_5580_54554)">
<path d="M10.3327 5.99984C10.3327 4.85057 9.87614 3.74837 9.06348 2.93571C8.25082 2.12305 7.14862 1.6665 5.99935 1.6665C4.85008 1.6665 3.74788 2.12305 2.93522 2.93571C2.12256 3.74837 1.66602 4.85057 1.66602 5.99984C1.66602 7.14911 2.12256 8.25131 2.93522 9.06397C3.74788 9.87663 4.85008 10.3332 5.99935 10.3332C7.14862 10.3332 8.25082 9.87663 9.06348 9.06397C9.87614 8.25131 10.3327 7.14911 10.3327 5.99984ZM0.666016 5.99984C0.666016 4.58535 1.22792 3.2288 2.22811 2.2286C3.22831 1.22841 4.58486 0.666504 5.99935 0.666504C7.41384 0.666504 8.77039 1.22841 9.77059 2.2286C10.7708 3.2288 11.3327 4.58535 11.3327 5.99984C11.3327 7.41433 10.7708 8.77088 9.77059 9.77107C8.77039 10.7713 7.41384 11.3332 5.99935 11.3332C4.58486 11.3332 3.22831 10.7713 2.22811 9.77107C1.22792 8.77088 0.666016 7.41433 0.666016 5.99984ZM4.20352 4.11025C4.3681 3.64567 4.80977 3.33317 5.30352 3.33317H6.5181C7.24518 3.33317 7.83268 3.92275 7.83268 4.64775C7.83268 5.11859 7.5806 5.554 7.17227 5.78942L6.49935 6.17484C6.49518 6.44567 6.27227 6.6665 5.99935 6.6665C5.72227 6.6665 5.49935 6.44359 5.49935 6.1665V5.88525C5.49935 5.70609 5.59518 5.5415 5.75143 5.45192L6.67435 4.92275C6.77227 4.8665 6.83268 4.76234 6.83268 4.64984C6.83268 4.47484 6.69102 4.33525 6.5181 4.33525H5.30352C5.23268 4.33525 5.17018 4.379 5.14727 4.44567L5.13893 4.47067C5.04727 4.73109 4.75977 4.8665 4.50143 4.77484C4.2431 4.68317 4.1056 4.39567 4.19727 4.13734L4.2056 4.11234L4.20352 4.11025ZM5.33268 7.99984C5.33268 7.82303 5.40292 7.65346 5.52794 7.52843C5.65297 7.40341 5.82254 7.33317 5.99935 7.33317C6.17616 7.33317 6.34573 7.40341 6.47075 7.52843C6.59578 7.65346 6.66602 7.82303 6.66602 7.99984C6.66602 8.17665 6.59578 8.34622 6.47075 8.47124C6.34573 8.59627 6.17616 8.6665 5.99935 8.6665C5.82254 8.6665 5.65297 8.59627 5.52794 8.47124C5.40292 8.34622 5.33268 8.17665 5.33268 7.99984Z" fill="#8A9299"/>
</g>
<defs>
<clipPath id="clip0_5580_54554">
<rect width="10.6667" height="10.6667" fill="white" transform="translate(0.666016 0.666504)"/>
</clipPath>
</defs>
</svg>
