<svg width="12" height="11" viewBox="0 0 12 11" fill="none" xmlns="http://www.w3.org/2000/svg">
<g clip-path="url(#clip0_2594_11593)">
<path d="M10.998 3.63734C11.0646 3.81859 11.0084 4.02067 10.8646 4.14984L9.96254 4.97067C9.98545 5.14359 9.99795 5.32067 9.99795 5.49984C9.99795 5.679 9.98545 5.85609 9.96254 6.029L10.8646 6.84984C11.0084 6.979 11.0646 7.18109 10.998 7.36234C10.9063 7.61025 10.7959 7.84775 10.6688 8.07692L10.5709 8.24567C10.4334 8.47484 10.2792 8.6915 10.1105 8.89567C9.98754 9.04567 9.78337 9.09567 9.60004 9.03734L8.43962 8.66859C8.16045 8.88317 7.85212 9.06234 7.52295 9.19775L7.26254 10.3873C7.22087 10.5769 7.07504 10.7269 6.88337 10.7582C6.59587 10.8061 6.30004 10.8311 5.99795 10.8311C5.69587 10.8311 5.40004 10.8061 5.11254 10.7582C4.92087 10.7269 4.77504 10.5769 4.73337 10.3873L4.47295 9.19775C4.14379 9.06234 3.83545 8.88317 3.55629 8.66859L2.39795 9.03942C2.21462 9.09775 2.01045 9.04567 1.88754 8.89775C1.71879 8.69359 1.56462 8.47692 1.42712 8.24775L1.3292 8.079C1.20212 7.84984 1.0917 7.61234 1.00004 7.36442C0.933371 7.18317 0.989621 6.98109 1.13337 6.85192L2.03545 6.03109C2.01254 5.85609 2.00004 5.679 2.00004 5.49984C2.00004 5.32067 2.01254 5.14359 2.03545 4.97067L1.13337 4.14984C0.989621 4.02067 0.933371 3.81859 1.00004 3.63734C1.0917 3.38942 1.20212 3.15192 1.3292 2.92275L1.42712 2.754C1.56462 2.52484 1.71879 2.30817 1.88754 2.104C2.01045 1.954 2.21462 1.904 2.39795 1.96234L3.55837 2.33109C3.83754 2.1165 4.14587 1.93734 4.47504 1.80192L4.73545 0.612337C4.77712 0.422754 4.92295 0.272754 5.11462 0.241504C5.40212 0.191504 5.69795 0.166504 6.00004 0.166504C6.30212 0.166504 6.59795 0.191504 6.88545 0.239421C7.07712 0.270671 7.22295 0.420671 7.26462 0.610254L7.52504 1.79984C7.8542 1.93525 8.16254 2.11442 8.4417 2.329L9.60212 1.96025C9.78545 1.90192 9.98962 1.954 10.1125 2.10192C10.2813 2.30609 10.4355 2.52275 10.573 2.75192L10.6709 2.92067C10.798 3.14984 10.9084 3.38734 11 3.63525L10.998 3.63734ZM6.00004 7.1665C6.44206 7.1665 6.86599 6.99091 7.17855 6.67835C7.49111 6.36579 7.6667 5.94186 7.6667 5.49984C7.6667 5.05781 7.49111 4.63389 7.17855 4.32133C6.86599 4.00876 6.44206 3.83317 6.00004 3.83317C5.55801 3.83317 5.13409 4.00876 4.82153 4.32133C4.50897 4.63389 4.33337 5.05781 4.33337 5.49984C4.33337 5.94186 4.50897 6.36579 4.82153 6.67835C5.13409 6.99091 5.55801 7.1665 6.00004 7.1665Z" fill="white"/>
</g>
<defs>
<clipPath id="clip0_2594_11593">
<rect width="10.6667" height="10.6667" fill="white" transform="translate(0.666748 0.166504)"/>
</clipPath>
</defs>
</svg>
