<svg width="20" height="20" viewBox="0 0 20 20" fill="none" xmlns="http://www.w3.org/2000/svg">
<g clip-path="url(#clip0_6024_15877)">
<path d="M16.2471 7.67187C16.3304 7.89843 16.2601 8.15104 16.0804 8.31249L14.9528 9.33854C14.9815 9.55468 14.9971 9.77604 14.9971 9.99999C14.9971 10.224 14.9815 10.4453 14.9528 10.6615L16.0804 11.6875C16.2601 11.849 16.3304 12.1016 16.2471 12.3281C16.1325 12.638 15.9945 12.9349 15.8356 13.2213L15.7132 13.4323C15.5413 13.7187 15.3486 13.9896 15.1377 14.2448C14.9841 14.4323 14.7288 14.4948 14.4997 14.4219L13.0492 13.9609C12.7002 14.2292 12.3148 14.4531 11.9033 14.6224L11.5778 16.1094C11.5257 16.3463 11.3434 16.5338 11.1038 16.5729C10.7445 16.6328 10.3747 16.6641 9.99708 16.6641C9.61947 16.6641 9.24968 16.6328 8.89031 16.5729C8.65072 16.5338 8.46843 16.3463 8.41635 16.1094L8.09083 14.6224C7.67937 14.4531 7.29395 14.2292 6.94499 13.9609L5.49708 14.4245C5.26791 14.4974 5.0127 14.4323 4.85906 14.2474C4.64812 13.9922 4.45541 13.7213 4.28354 13.4349L4.16114 13.224C4.00229 12.9375 3.86426 12.6406 3.74968 12.3307C3.66635 12.1042 3.73666 11.8516 3.91635 11.6901L5.04395 10.6641C5.01531 10.4453 4.99968 10.224 4.99968 9.99999C4.99968 9.77604 5.01531 9.55468 5.04395 9.33854L3.91635 8.31249C3.73666 8.15104 3.66635 7.89843 3.74968 7.67187C3.86426 7.36197 4.00229 7.0651 4.16114 6.77864L4.28354 6.5677C4.45541 6.28124 4.64812 6.01041 4.85906 5.7552C5.0127 5.5677 5.26791 5.5052 5.49708 5.57812L6.9476 6.03906C7.29656 5.77083 7.68197 5.54687 8.09343 5.3776L8.41895 3.89062C8.47104 3.65364 8.65333 3.46614 8.89291 3.42708C9.25229 3.36458 9.62208 3.33333 9.99968 3.33333C10.3773 3.33333 10.7471 3.36458 11.1065 3.42447C11.346 3.46354 11.5283 3.65104 11.5804 3.88802L11.9059 5.37499C12.3174 5.54427 12.7028 5.76822 13.0518 6.03645L14.5023 5.57552C14.7315 5.5026 14.9867 5.5677 15.1403 5.7526C15.3512 6.00781 15.544 6.27864 15.7158 6.5651L15.8382 6.77604C15.9971 7.06249 16.1351 7.35937 16.2497 7.66927L16.2471 7.67187ZM9.99968 12.0833C10.5522 12.0833 11.0821 11.8638 11.4728 11.4731C11.8635 11.0824 12.083 10.5525 12.083 9.99999C12.083 9.44746 11.8635 8.91756 11.4728 8.52686C11.0821 8.13615 10.5522 7.91666 9.99968 7.91666C9.44715 7.91666 8.91724 8.13615 8.52654 8.52686C8.13584 8.91756 7.91635 9.44746 7.91635 9.99999C7.91635 10.5525 8.13584 11.0824 8.52654 11.4731C8.91724 11.8638 9.44715 12.0833 9.99968 12.0833Z" fill="#F5F5F5"/>
</g>
<defs>
<clipPath id="clip0_6024_15877">
<rect width="13.3333" height="13.3333" fill="white" transform="translate(3.33301 3.33333)"/>
</clipPath>
</defs>
</svg>
