<svg width="111" height="36" viewBox="0 0 111 36" fill="none" xmlns="http://www.w3.org/2000/svg">
<path d="M23.9702 16.7906C24.0005 16.7694 24.0346 16.7569 24.0712 16.753L24.8543 16.6697C24.8764 16.6674 24.8873 16.6959 24.8696 16.7094C23.427 17.8122 22.3346 18.6289 20.7549 19.9213C20.2988 20.2945 19.1556 20.3883 19.2828 20.2963C20.3563 19.3341 23.5527 17.0837 23.9702 16.7906Z" fill="#1193F0"/>
<path d="M23.4906 13.4699C23.9726 13.3826 25.2575 13.8566 25.7389 13.9941C25.8489 14.0255 25.9815 14.4458 25.9646 14.5859C25.9631 14.5987 25.9581 14.6104 25.9524 14.622L25.1592 16.2331C25.1535 16.2447 25.1491 16.2568 25.1444 16.2688C25.1142 16.3467 25.0423 16.4013 24.9584 16.4082L24.4697 16.4486C24.438 16.4512 23.9552 16.4744 23.9552 16.4744C23.9552 16.4744 19.5359 19.7085 18.9415 20.1755C18.8788 20.2247 18.0928 20.3211 18.0195 20.2901L15.6573 19.207C15.4748 19.1299 15.7944 19.0148 15.9795 18.9442L22.0826 16.6164C22.2075 16.5687 22.2613 16.4201 22.1932 16.3044C21.8422 15.7074 21.514 15.2995 21.317 15.0775C21.2234 14.9718 21.2382 14.8024 21.3558 14.7248C21.8398 14.4051 23.0175 13.5556 23.4906 13.4699Z" fill="#1193F0"/>
<path d="M10.9779 10.6618L10.6243 10.2385C10.4791 10.0646 10.6584 9.80981 10.8695 9.89031L18.0235 12.6188C18.0372 12.624 18.0503 12.6306 18.0626 12.6385C19.8188 13.7589 21.2195 15.5232 21.6854 16.1489C21.7712 16.2641 21.7211 16.4271 21.5872 16.4773L16.7765 18.279C16.6859 18.3129 16.5839 18.283 16.5256 18.2055L13.0152 13.5397L10.9779 10.6618Z" fill="#1193F0"/>
<path d="M25.7092 16.2891C25.5716 16.2847 25.4766 16.1376 25.5356 16.0123L26.0559 14.9056C26.0602 14.8964 26.0636 14.8868 26.0671 14.8773C26.1128 14.7532 26.2723 14.7175 26.3659 14.8109C26.3724 14.8174 26.3777 14.8249 26.3826 14.8326L27.2482 16.1959C27.3094 16.2923 27.2435 16.406 27.1303 16.3958C26.7798 16.3641 26.155 16.3033 25.7092 16.2891Z" fill="#1193F0"/>
<path d="M17.0525 20.5687C17.0915 20.4623 17.1866 20.2995 17.0853 20.25L16.0385 19.724C15.7976 19.6142 15.6119 19.5296 15.4687 19.4644C15.2358 19.3583 14.8637 19.4912 14.7487 19.721L12.0407 25.134C12.0318 25.1519 12.0266 25.1704 12.0232 25.1901C11.9735 25.4727 11.4857 27.1907 11.4447 27.3682C11.4409 27.3844 11.4511 27.3683 11.4617 27.3554L17.0525 20.5687Z" fill="#1193F0"/>
<path d="M18.6609 20.5956C18.7048 20.5467 18.6676 20.4688 18.6022 20.4729L17.4683 20.5443C17.4281 20.5468 17.3906 20.566 17.3649 20.5973L14.1615 24.4971C14.1363 24.5278 14.1696 24.5698 14.2044 24.5509C14.6389 24.3152 15.8938 23.5978 16.7236 22.7515L18.6609 20.5956Z" fill="#1193F0"/>
<path d="M10.375 15.4384C10.375 15.4384 12.1073 14.9701 13.8942 15.4355L15.0196 16.6614L16.337 18.4423L15.6163 18.4736C15.5844 18.475 15.5529 18.4658 15.5267 18.4475L13.8553 17.2791L10.375 15.4384Z" fill="#1193F0"/>
<path d="M37.472 22.752C36.224 22.752 35.174 22.476 34.322 21.924C33.47 21.36 32.87 20.598 32.522 19.638L34.646 18.396C35.138 19.68 36.104 20.322 37.544 20.322C38.24 20.322 38.75 20.196 39.074 19.944C39.398 19.692 39.56 19.374 39.56 18.99C39.56 18.546 39.362 18.204 38.966 17.964C38.57 17.712 37.862 17.442 36.842 17.154C36.278 16.986 35.798 16.818 35.402 16.65C35.018 16.482 34.628 16.26 34.232 15.984C33.848 15.696 33.554 15.336 33.35 14.904C33.146 14.472 33.044 13.968 33.044 13.392C33.044 12.252 33.446 11.346 34.25 10.674C35.066 9.99 36.044 9.648 37.184 9.648C38.204 9.648 39.098 9.9 39.866 10.404C40.646 10.896 41.252 11.586 41.684 12.474L39.596 13.68C39.092 12.6 38.288 12.06 37.184 12.06C36.668 12.06 36.26 12.18 35.96 12.42C35.672 12.648 35.528 12.948 35.528 13.32C35.528 13.716 35.69 14.04 36.014 14.292C36.35 14.532 36.986 14.796 37.922 15.084C38.306 15.204 38.594 15.3 38.786 15.372C38.99 15.432 39.26 15.534 39.596 15.678C39.944 15.81 40.208 15.936 40.388 16.056C40.58 16.176 40.796 16.338 41.036 16.542C41.276 16.746 41.456 16.956 41.576 17.172C41.708 17.388 41.816 17.652 41.9 17.964C41.996 18.264 42.044 18.594 42.044 18.954C42.044 20.118 41.618 21.042 40.766 21.726C39.926 22.41 38.828 22.752 37.472 22.752ZM49.2441 13.248C50.4561 13.248 51.4881 13.71 52.3401 14.634C53.2041 15.546 53.6361 16.668 53.6361 18C53.6361 19.332 53.2041 20.46 52.3401 21.384C51.4881 22.296 50.4561 22.752 49.2441 22.752C47.9841 22.752 47.0121 22.314 46.3281 21.438V26.1H44.0061V13.5H46.3281V14.562C47.0121 13.686 47.9841 13.248 49.2441 13.248ZM47.0301 19.836C47.4981 20.304 48.0921 20.538 48.8121 20.538C49.5321 20.538 50.1261 20.304 50.5941 19.836C51.0741 19.356 51.3141 18.744 51.3141 18C51.3141 17.256 51.0741 16.65 50.5941 16.182C50.1261 15.702 49.5321 15.462 48.8121 15.462C48.0921 15.462 47.4981 15.702 47.0301 16.182C46.5621 16.65 46.3281 17.256 46.3281 18C46.3281 18.744 46.5621 19.356 47.0301 19.836ZM62.5637 13.5H64.8857V22.5H62.5637V21.438C61.8677 22.314 60.8897 22.752 59.6297 22.752C58.4297 22.752 57.3977 22.296 56.5337 21.384C55.6817 20.46 55.2557 19.332 55.2557 18C55.2557 16.668 55.6817 15.546 56.5337 14.634C57.3977 13.71 58.4297 13.248 59.6297 13.248C60.8897 13.248 61.8677 13.686 62.5637 14.562V13.5ZM58.2797 19.836C58.7477 20.304 59.3417 20.538 60.0617 20.538C60.7817 20.538 61.3757 20.304 61.8437 19.836C62.3237 19.356 62.5637 18.744 62.5637 18C62.5637 17.256 62.3237 16.65 61.8437 16.182C61.3757 15.702 60.7817 15.462 60.0617 15.462C59.3417 15.462 58.7477 15.702 58.2797 16.182C57.8117 16.65 57.5777 17.256 57.5777 18C57.5777 18.744 57.8117 19.356 58.2797 19.836ZM69.7633 15.048C69.9793 14.472 70.3333 14.04 70.8253 13.752C71.3293 13.464 71.8873 13.32 72.4993 13.32V15.912C71.7913 15.828 71.1553 15.972 70.5913 16.344C70.0393 16.716 69.7633 17.334 69.7633 18.198V22.5H67.4413V13.5H69.7633V15.048ZM76.6293 15.048C76.8453 14.472 77.1993 14.04 77.6913 13.752C78.1953 13.464 78.7533 13.32 79.3653 13.32V15.912C78.6573 15.828 78.0213 15.972 77.4573 16.344C76.9053 16.716 76.6293 17.334 76.6293 18.198V22.5H74.3073V13.5H76.6293V15.048ZM88.5073 21.384C87.5833 22.296 86.4553 22.752 85.1233 22.752C83.7913 22.752 82.6633 22.296 81.7393 21.384C80.8273 20.46 80.3713 19.332 80.3713 18C80.3713 16.668 80.8273 15.546 81.7393 14.634C82.6633 13.71 83.7913 13.248 85.1233 13.248C86.4553 13.248 87.5833 13.71 88.5073 14.634C89.4313 15.546 89.8933 16.668 89.8933 18C89.8933 19.332 89.4313 20.46 88.5073 21.384ZM83.3773 19.782C83.8453 20.25 84.4273 20.484 85.1233 20.484C85.8193 20.484 86.4013 20.25 86.8693 19.782C87.3373 19.314 87.5713 18.72 87.5713 18C87.5713 17.28 87.3373 16.686 86.8693 16.218C86.4013 15.75 85.8193 15.516 85.1233 15.516C84.4273 15.516 83.8453 15.75 83.3773 16.218C82.9213 16.686 82.6933 17.28 82.6933 18C82.6933 18.72 82.9213 19.314 83.3773 19.782ZM101.759 13.5H104.225L101.363 22.5H99.1493L97.4933 17.046L95.8373 22.5H93.6233L90.7613 13.5H93.2273L94.7573 19.026L96.3953 13.5H98.5913L100.229 19.044L101.759 13.5Z" fill="url(#paint0_linear_4304_3972)"/>
<defs>
<linearGradient id="paint0_linear_4304_3972" x1="106.259" y1="18" x2="32" y2="18" gradientUnits="userSpaceOnUse">
<stop stop-color="#6147FF"/>
<stop offset="1" stop-color="#1193F0"/>
</linearGradient>
</defs>
</svg>
