<svg xmlns="http://www.w3.org/2000/svg" width="18" height="12" viewBox="0 0 18 12" fill="none">
  <path d="M8.36808 0.799809C7.4042 1.05178 6.6483 1.81568 6.40033 2.78356C6.18436 3.63145 6.44833 4.58733 7.07625 5.23924L7.34021 5.51121L7.04425 5.61519L6.74429 5.71518L6.51232 5.49521C6.36834 5.36323 6.14037 5.21125 5.92439 5.10726L5.57244 4.93528L5.72442 4.7593C6.43233 3.93941 6.40433 2.77956 5.66443 1.97966C5.16049 1.43573 4.34459 1.19176 3.64468 1.37973C2.92478 1.56771 2.28486 2.21963 2.12488 2.91954C2.07289 3.15151 2.07289 3.64745 2.12488 3.87942C2.18487 4.14738 2.38085 4.51933 2.58082 4.7473L2.7568 4.94728L2.52883 5.03927C1.79692 5.33923 1.22099 6.01914 1.06101 6.78704C0.989024 7.119 0.977025 8.40284 1.04502 8.52682C1.165 8.75079 2.7768 9.31872 3.29673 9.31872C3.47271 9.31872 3.60069 9.17874 3.60069 8.99076C3.60069 8.79079 3.5127 8.7308 3.07676 8.64281C2.60482 8.54282 2.21687 8.42284 1.88491 8.27485L1.63294 8.15887L1.64894 7.53095C1.66494 6.99902 1.68094 6.86303 1.75693 6.67106C1.9529 6.17112 2.35285 5.77917 2.86078 5.5912C3.07676 5.51121 3.19674 5.50321 3.99264 5.48721C4.56457 5.47921 4.98051 5.48721 5.15249 5.51921C5.45645 5.5712 5.8364 5.74718 6.03238 5.92315L6.16436 6.04314L5.8684 6.3351C5.32047 6.87903 5.00051 7.53495 4.92052 8.30285C4.89652 8.51882 4.88053 9.02676 4.88853 9.42671C4.90452 10.2866 4.86453 10.2146 5.46045 10.4866C7.73616 11.5344 10.2638 11.5384 12.5196 10.4986C13.1395 10.2106 13.0955 10.2866 13.1115 9.42671C13.1195 9.02676 13.1035 8.51882 13.0795 8.30285C12.9995 7.53495 12.6795 6.87903 12.1276 6.3311L11.8276 6.03514L11.9636 5.91916C12.1716 5.73918 12.5515 5.5712 12.8475 5.51921C13.0195 5.48721 13.4354 5.47921 14.0074 5.48721C14.8033 5.50321 14.9232 5.51121 15.1392 5.5912C15.6472 5.77917 16.0471 6.17112 16.2431 6.67106C16.3191 6.86303 16.3351 6.99902 16.3511 7.52695L16.3671 8.15487L16.2151 8.23086C15.9431 8.37084 15.3912 8.54682 14.9632 8.63481C14.4873 8.7308 14.3993 8.78679 14.3993 8.99876C14.3993 9.18674 14.5313 9.31872 14.7233 9.31872C14.9112 9.31472 15.4792 9.18674 15.8631 9.05875C16.3191 8.90677 16.903 8.61881 16.955 8.52682C17.023 8.40284 17.011 7.119 16.939 6.78304C16.779 6.02714 16.1991 5.33523 15.4712 5.03927L15.2432 4.94728L15.4192 4.7473C15.7471 4.37135 15.9191 3.91141 15.9191 3.39948C15.9151 2.79955 15.7391 2.37561 15.3032 1.94366C14.8673 1.50772 14.4233 1.31974 13.8194 1.31974C12.7075 1.32374 11.7596 2.27962 11.7596 3.39948C11.7596 3.88342 11.9476 4.37935 12.2756 4.7593L12.4276 4.93528L12.0756 5.10726C11.8596 5.21125 11.6317 5.36323 11.4877 5.49521L11.2557 5.71518L10.9478 5.61119L10.6398 5.50321L10.7798 5.39122C11.1357 5.09526 11.5117 4.44734 11.6197 3.93941C11.8676 2.76756 11.2637 1.54371 10.1679 0.999784C9.61192 0.723819 8.94401 0.651828 8.36808 0.799809ZM9.40795 1.40373C10.1639 1.55971 10.8398 2.23563 10.9957 2.99153C11.1357 3.66744 10.9358 4.31136 10.4238 4.8233C9.59592 5.65119 8.40408 5.65119 7.57618 4.8233C6.74829 3.9954 6.74829 2.79955 7.57618 1.97566C8.09212 1.46372 8.73203 1.26375 9.40795 1.40373ZM4.73255 2.07165C4.99251 2.18763 5.33647 2.52359 5.46845 2.79555C5.56844 2.99153 5.58044 3.06752 5.58044 3.39948C5.58044 3.73943 5.56844 3.80343 5.46445 4.0114C5.32447 4.28336 4.99251 4.61132 4.73255 4.73131C4.57657 4.8033 4.46858 4.8193 4.16062 4.8193C3.82466 4.8193 3.75267 4.8073 3.5527 4.70731C2.7088 4.29536 2.45684 3.2475 3.02076 2.50759C3.16475 2.31962 3.44471 2.11964 3.70468 2.01965C3.93265 1.93166 4.48458 1.95966 4.73255 2.07165ZM14.4473 2.09164C14.7513 2.23962 15.0192 2.50759 15.1512 2.79155C15.2432 2.98753 15.2592 3.07152 15.2592 3.39948C15.2592 3.73543 15.2472 3.80743 15.1472 4.0074C15.0032 4.30336 14.7433 4.56333 14.4473 4.70731C14.2473 4.8073 14.1753 4.8193 13.8394 4.8193C13.5314 4.8193 13.4234 4.8033 13.2675 4.73131C13.0035 4.60732 12.6595 4.27137 12.5315 4.0034C12.4316 3.80743 12.4196 3.73543 12.4196 3.39948C12.4236 2.94353 12.4996 2.74356 12.7835 2.4396C13.1275 2.07165 13.4034 1.95566 13.8994 1.97166C14.1553 1.97966 14.2633 1.99966 14.4473 2.09164ZM10.4598 6.13913C11.3717 6.3311 12.1516 7.07501 12.3796 7.97889C12.4676 8.33085 12.5116 9.76266 12.4356 9.82266C12.3196 9.91464 11.5597 10.2106 11.1197 10.3386C10.3678 10.5546 9.88789 10.6186 9 10.6186C8.11211 10.6186 7.63217 10.5546 6.88027 10.3386C6.44033 10.2106 5.68042 9.91464 5.56444 9.82266C5.48845 9.76266 5.53244 8.33085 5.62043 7.97889C5.8484 7.08701 6.6243 6.3351 7.52019 6.14313C7.90014 6.05914 10.0719 6.05914 10.4598 6.13913Z" fill="#8A9299" stroke="#8A9299" stroke-width="0.4"/>
</svg>