<svg width="24" height="24" viewBox="0 0 24 24" fill="none" xmlns="http://www.w3.org/2000/svg">
<g clip-path="url(#clip0_1823_9161)">
<path d="M6.5 4C7.16304 4 7.79893 4.26339 8.26777 4.73223C8.73661 5.20107 9 5.83696 9 6.5C9 7.16304 8.73661 7.79893 8.26777 8.26777C7.79893 8.73661 7.16304 9 6.5 9C5.83696 9 5.20107 8.73661 4.73223 8.26777C4.26339 7.79893 4 7.16304 4 6.5C4 5.83696 4.26339 5.20107 4.73223 4.73223C5.20107 4.26339 5.83696 4 6.5 4ZM18 4C18.663 4 19.2989 4.26339 19.7678 4.73223C20.2366 5.20107 20.5 5.83696 20.5 6.5C20.5 7.16304 20.2366 7.79893 19.7678 8.26777C19.2989 8.73661 18.663 9 18 9C17.337 9 16.7011 8.73661 16.2322 8.26777C15.7634 7.79893 15.5 7.16304 15.5 6.5C15.5 5.83696 15.7634 5.20107 16.2322 4.73223C16.7011 4.26339 17.337 4 18 4ZM2 13.3344C2 11.4938 3.49375 10 5.33437 10H6.66875C7.16562 10 7.6375 10.1094 8.0625 10.3031C8.02187 10.5281 8.00313 10.7625 8.00313 11C8.00313 12.1938 8.52812 13.2656 9.35625 14C9.35 14 9.34375 14 9.33437 14H2.66562C2.3 14 2 13.7 2 13.3344ZM14.6656 14C14.6594 14 14.6531 14 14.6438 14C15.475 13.2656 15.9969 12.1938 15.9969 11C15.9969 10.7625 15.975 10.5312 15.9375 10.3031C16.3625 10.1062 16.8344 10 17.3313 10H18.6656C20.5063 10 22 11.4938 22 13.3344C22 13.7031 21.7 14 21.3344 14H14.6656ZM9 11C9 10.2044 9.31607 9.44129 9.87868 8.87868C10.4413 8.31607 11.2044 8 12 8C12.7956 8 13.5587 8.31607 14.1213 8.87868C14.6839 9.44129 15 10.2044 15 11C15 11.7956 14.6839 12.5587 14.1213 13.1213C13.5587 13.6839 12.7956 14 12 14C11.2044 14 10.4413 13.6839 9.87868 13.1213C9.31607 12.5587 9 11.7956 9 11ZM6 19.1656C6 16.8656 7.86562 15 10.1656 15H13.8344C16.1344 15 18 16.8656 18 19.1656C18 19.625 17.6281 20 17.1656 20H6.83437C6.375 20 6 19.6281 6 19.1656Z" fill="white"/>
</g>
<defs>
<clipPath id="clip0_1823_9161">
<rect width="20" height="16" fill="white" transform="translate(2 4)"/>
</clipPath>
</defs>
</svg>
