<svg width="16" height="16" viewBox="0 0 16 16" fill="none" xmlns="http://www.w3.org/2000/svg">
<g clip-path="url(#clip0_2248_11329)">
<path d="M6.88533 3.7415L6.4895 4.33317H9.51033L9.1145 3.7415C9.08325 3.69567 9.03117 3.6665 8.97492 3.6665H7.02284C6.96659 3.6665 6.9145 3.69359 6.88325 3.7415H6.88533ZM9.94783 3.18734L10.7124 4.33317H10.9999H11.9999H12.1666C12.4437 4.33317 12.6666 4.55609 12.6666 4.83317C12.6666 5.11025 12.4437 5.33317 12.1666 5.33317H11.9999V11.6665C11.9999 12.5873 11.2541 13.3332 10.3333 13.3332H5.66659C4.74575 13.3332 3.99992 12.5873 3.99992 11.6665V5.33317H3.83325C3.55617 5.33317 3.33325 5.11025 3.33325 4.83317C3.33325 4.55609 3.55617 4.33317 3.83325 4.33317H3.99992H4.99992H5.28742L6.052 3.18525C6.26867 2.86234 6.63325 2.6665 7.02284 2.6665H8.97492C9.3645 2.6665 9.72908 2.86234 9.94575 3.18525L9.94783 3.18734ZM4.99992 5.33317V11.6665C4.99992 12.0353 5.29784 12.3332 5.66659 12.3332H10.3333C10.702 12.3332 10.9999 12.0353 10.9999 11.6665V5.33317H4.99992ZM6.66658 6.6665V10.9998C6.66658 11.1832 6.51659 11.3332 6.33325 11.3332C6.14992 11.3332 5.99992 11.1832 5.99992 10.9998V6.6665C5.99992 6.48317 6.14992 6.33317 6.33325 6.33317C6.51659 6.33317 6.66658 6.48317 6.66658 6.6665ZM8.33325 6.6665V10.9998C8.33325 11.1832 8.18325 11.3332 7.99992 11.3332C7.81659 11.3332 7.66658 11.1832 7.66658 10.9998V6.6665C7.66658 6.48317 7.81659 6.33317 7.99992 6.33317C8.18325 6.33317 8.33325 6.48317 8.33325 6.6665ZM9.99992 6.6665V10.9998C9.99992 11.1832 9.84992 11.3332 9.66658 11.3332C9.48325 11.3332 9.33325 11.1832 9.33325 10.9998V6.6665C9.33325 6.48317 9.48325 6.33317 9.66658 6.33317C9.84992 6.33317 9.99992 6.48317 9.99992 6.6665Z" fill="#8A9299"/>
</g>
<defs>
<clipPath id="clip0_2248_11329">
<rect width="9.33333" height="10.6667" fill="white" transform="translate(3.33325 2.6665)"/>
</clipPath>
</defs>
</svg>
