<svg width="24" height="24" viewBox="0 0 24 24" fill="none" xmlns="http://www.w3.org/2000/svg">
<g clip-path="url(#clip0_1823_8189)">
<path d="M11.3281 4.17773C11.7625 4.02148 12.2375 4.02148 12.675 4.17773L18.675 6.32148C19.4688 6.60586 20 7.35898 20 8.20586V15.7934C20 16.6371 19.4688 17.3934 18.6719 17.6777L12.6719 19.8215C12.2375 19.9777 11.7625 19.9777 11.325 19.8215L5.325 17.6777C4.53125 17.3934 4 16.6402 4 15.7934V8.20586C4 7.36211 4.53125 6.60586 5.32812 6.32148L11.3281 4.17773ZM12 6.06211L6.57188 7.99961L12 9.93711L17.4281 7.99961L12 6.06211ZM13 17.5809L18 15.7965V9.92148L13 11.7059V17.5809Z" fill="white"/>
</g>
<defs>
<clipPath id="clip0_1823_8189">
<rect width="16" height="16" fill="white" transform="translate(4 4)"/>
</clipPath>
</defs>
</svg>
