<svg width="24" height="24" viewBox="0 0 24 24" fill="none" xmlns="http://www.w3.org/2000/svg">
<g clip-path="url(#clip0_4440_2169)">
<path d="M3.21255 4.15931C2.88755 3.90306 2.41568 3.96243 2.15943 4.28743C1.90318 4.61243 1.96255 5.08431 2.28755 5.34056L20.7876 19.8406C21.1126 20.0968 21.5844 20.0374 21.8407 19.7124C22.0969 19.3874 22.0376 18.9156 21.7126 18.6593L18.4251 16.0843C19.6626 14.8156 20.5001 13.3937 20.9219 12.3843C21.0251 12.1374 21.0251 11.8624 20.9219 11.6156C20.4563 10.4999 19.4782 8.87493 18.0157 7.51868C16.5469 6.14993 14.5251 4.99993 12.0001 4.99993C9.8688 4.99993 8.0938 5.82181 6.70943 6.89993L3.21255 4.15931ZM8.97193 8.67181C9.7688 7.94368 10.8344 7.49993 12.0001 7.49993C14.4844 7.49993 16.5001 9.51556 16.5001 11.9999C16.5001 12.7781 16.3032 13.5093 15.9563 14.1468L14.7501 13.2031C15.0126 12.5999 15.0813 11.9093 14.9001 11.2249C14.5532 9.92806 13.4063 9.05618 12.1313 9.00306C11.9501 8.99681 11.8438 9.19368 11.9001 9.36868C11.9657 9.56868 12.0032 9.78118 12.0032 10.0031C12.0032 10.3218 11.9282 10.6218 11.7969 10.8874L8.97505 8.67493L8.97193 8.67181ZM13.6563 16.1843C13.1438 16.3874 12.5844 16.4999 12.0001 16.4999C9.51568 16.4999 7.50005 14.4843 7.50005 11.9999C7.50005 11.7843 7.51568 11.5749 7.5438 11.3687L4.59693 9.04681C3.88443 9.97493 3.37505 10.8999 3.07818 11.6156C2.97505 11.8624 2.97505 12.1374 3.07818 12.3843C3.5438 13.4999 4.52193 15.1249 5.98443 16.4812C7.45318 17.8499 9.47505 18.9999 12.0001 18.9999C13.4938 18.9999 14.8094 18.5968 15.9438 17.9843L13.6563 16.1843Z" fill="#8A9299"/>
</g>
<defs>
<clipPath id="clip0_4440_2169">
<rect width="20" height="16" fill="white" transform="translate(2 4)"/>
</clipPath>
</defs>
</svg>
