<svg width="24" height="24" viewBox="0 0 24 24" fill="none" xmlns="http://www.w3.org/2000/svg">
<g clip-path="url(#clip0_6079_1289)">
<path d="M17.3333 15.333C17.3333 16.0684 16.7354 16.6663 16 16.6663H7.99996C7.26454 16.6663 6.66663 16.0684 6.66663 15.333V8.66634C6.66663 7.93092 7.26454 7.33301 7.99996 7.33301H10.6666C11.0854 7.33301 11.4812 7.53092 11.7333 7.86634L12.1333 8.39967C12.2583 8.56842 12.4562 8.66634 12.6666 8.66634H16C16.7354 8.66634 17.3333 9.26426 17.3333 9.99967V15.333ZM11.5 14.4997C11.5 14.7768 11.7229 14.9997 12 14.9997C12.277 14.9997 12.5 14.7768 12.5 14.4997V13.1663H13.8333C14.1104 13.1663 14.3333 12.9434 14.3333 12.6663C14.3333 12.3893 14.1104 12.1663 13.8333 12.1663H12.5V10.833C12.5 10.5559 12.277 10.333 12 10.333C11.7229 10.333 11.5 10.5559 11.5 10.833V12.1663H10.1666C9.88954 12.1663 9.66663 12.3893 9.66663 12.6663C9.66663 12.9434 9.88954 13.1663 10.1666 13.1663H11.5V14.4997Z" fill="#8A9299"/>
</g>
<defs>
<clipPath id="clip0_6079_1289">
<rect width="10.6667" height="10.6667" fill="white" transform="translate(6.66663 6.6665)"/>
</clipPath>
</defs>
</svg>
