<svg width="24" height="24" viewBox="0 0 24 24" fill="none" xmlns="http://www.w3.org/2000/svg">
<g clip-path="url(#clip0_4440_306)">
<path d="M12 5C9.47495 5 7.45308 6.15 5.9812 7.51875C4.5187 8.875 3.54058 10.5 3.07808 11.6156C2.97495 11.8625 2.97495 12.1375 3.07808 12.3844C3.54058 13.5 4.5187 15.125 5.9812 16.4812C7.45308 17.85 9.47495 19 12 19C14.525 19 16.5468 17.85 18.0187 16.4812C19.4812 15.1219 20.4593 13.5 20.9249 12.3844C21.0281 12.1375 21.0281 11.8625 20.9249 11.6156C20.4593 10.5 19.4812 8.875 18.0187 7.51875C16.5468 6.15 14.525 5 12 5ZM7.49995 12C7.49995 10.8065 7.97406 9.66193 8.81797 8.81802C9.66188 7.97411 10.8065 7.5 12 7.5C13.1934 7.5 14.338 7.97411 15.1819 8.81802C16.0258 9.66193 16.5 10.8065 16.5 12C16.5 13.1935 16.0258 14.3381 15.1819 15.182C14.338 16.0259 13.1934 16.5 12 16.5C10.8065 16.5 9.66188 16.0259 8.81797 15.182C7.97406 14.3381 7.49995 13.1935 7.49995 12ZM12 10C12 11.1031 11.1031 12 9.99995 12C9.77808 12 9.56558 11.9625 9.36558 11.8969C9.1937 11.8406 8.9937 11.9469 8.99995 12.1281C9.00933 12.3438 9.04058 12.5594 9.09995 12.775C9.52808 14.375 11.175 15.325 12.775 14.8969C14.375 14.4688 15.325 12.8219 14.8968 11.2219C14.55 9.925 13.4031 9.05312 12.1281 9C11.9468 8.99375 11.8406 9.19062 11.8968 9.36562C11.9625 9.56562 12 9.77812 12 10Z" fill="#8A9299"/>
</g>
<defs>
<clipPath id="clip0_4440_306">
<rect width="18" height="16" fill="white" transform="translate(3 4)"/>
</clipPath>
</defs>
</svg>
