<svg width="44" height="44" viewBox="0 0 44 44" fill="none" xmlns="http://www.w3.org/2000/svg">
<path d="M31.6278 19.8716C31.681 19.8343 31.7411 19.8123 31.8056 19.8054L33.1838 19.6589C33.2226 19.6548 33.2418 19.705 33.2107 19.7288C30.6716 21.6696 28.749 23.1071 25.9689 25.3817C25.1661 26.0385 23.154 26.2035 23.3779 26.0416C25.2673 24.3482 30.8929 20.3875 31.6278 19.8716Z" fill="white"/>
<path d="M30.7836 14.0272C31.6319 13.8735 33.8934 14.7077 34.7407 14.9498C34.9343 15.0051 35.1676 15.7448 35.138 15.9913C35.1353 16.0138 35.1265 16.0346 35.1165 16.0549L33.7203 18.8905C33.7103 18.9108 33.7026 18.9322 33.6944 18.9533C33.6412 19.0904 33.5146 19.1865 33.367 19.1987L32.5068 19.2697C32.451 19.2743 31.6013 19.3152 31.6013 19.3152C31.6013 19.3152 23.8234 25.0072 22.7772 25.8291C22.6669 25.9157 21.2836 26.0853 21.1545 26.0308L16.9971 24.1244C16.6759 23.9889 17.2384 23.7863 17.564 23.662L28.3055 19.565C28.5254 19.4811 28.6201 19.2196 28.5003 19.0159C27.8825 17.9652 27.3048 17.2474 26.9582 16.8565C26.7933 16.6706 26.8195 16.3725 27.0264 16.2358C27.8783 15.6732 29.9509 14.178 30.7836 14.0272Z" fill="white"/>
<path d="M8.76131 9.08492L8.13904 8.33997C7.88333 8.03385 8.19902 7.58546 8.57051 7.72714L21.1615 12.5293C21.1856 12.5384 21.2087 12.55 21.2304 12.5639C24.3213 14.5359 26.7865 17.6411 27.6065 18.7423C27.7574 18.945 27.6694 19.2319 27.4336 19.3202L18.9668 22.4912C18.8073 22.5509 18.6279 22.4983 18.5252 22.3618L12.347 14.15L8.76131 9.08492Z" fill="white"/>
<path d="M34.6884 18.989C34.4462 18.9812 34.2791 18.7223 34.3828 18.5018L35.2985 16.554C35.3061 16.5379 35.3121 16.521 35.3182 16.5042C35.3988 16.2858 35.6794 16.223 35.8441 16.3874C35.8555 16.3988 35.865 16.412 35.8737 16.4256L37.397 18.8251C37.5047 18.9947 37.3887 19.1948 37.1896 19.1768C36.5726 19.121 35.473 19.014 34.6884 18.989Z" fill="white"/>
<path d="M19.4526 26.5211C19.5212 26.3338 19.6886 26.0473 19.5103 25.9601L17.6679 25.0344C17.2439 24.8413 16.9171 24.6924 16.6651 24.5776C16.2553 24.3908 15.6003 24.6246 15.3979 25.0292L10.6318 34.556C10.6161 34.5875 10.6071 34.6201 10.601 34.6548C10.5136 35.1522 9.65508 38.1759 9.58287 38.4882C9.57627 38.5167 9.5942 38.4883 9.6128 38.4658L19.4526 26.5211Z" fill="white"/>
<path d="M22.2834 26.5685C22.3607 26.4825 22.2951 26.3453 22.1801 26.3526L20.1844 26.4782C20.1136 26.4826 20.0477 26.5164 20.0025 26.5715L14.3645 33.4351C14.3201 33.4891 14.3787 33.5631 14.44 33.5298C15.2046 33.115 17.4134 31.8524 18.8738 30.3629L22.2834 26.5685Z" fill="white"/>
<path d="M7.7002 17.4917C7.7002 17.4917 10.7491 16.6676 13.894 17.4867L15.8746 19.6442L18.1933 22.7786L16.9248 22.8337C16.8687 22.8361 16.8133 22.82 16.7672 22.7877L13.8255 20.7314L7.7002 17.4917Z" fill="white"/>
</svg>
