<svg width="180" height="168" viewBox="0 0 180 168" fill="none" xmlns="http://www.w3.org/2000/svg">
<g filter="url(#filter0_d_1669_29154)">
<rect x="60" y="38" width="60" height="60" rx="6" fill="#3670F7" shape-rendering="crispEdges"/>
<path d="M99.6278 65.8716C99.681 65.8343 99.7411 65.8123 99.8056 65.8054L101.184 65.6589C101.223 65.6548 101.242 65.705 101.211 65.7288C98.6716 67.6696 96.749 69.1071 93.9689 71.3817C93.1661 72.0385 91.154 72.2035 91.3779 72.0416C93.2673 70.3482 98.8929 66.3875 99.6278 65.8716Z" fill="white"/>
<path d="M98.7836 60.0272C99.6319 59.8735 101.893 60.7077 102.741 60.9498C102.934 61.0051 103.168 61.7448 103.138 61.9913C103.135 62.0138 103.127 62.0346 103.117 62.0549L101.72 64.8905C101.71 64.9108 101.703 64.9322 101.694 64.9533C101.641 65.0904 101.515 65.1865 101.367 65.1987L100.507 65.2697C100.451 65.2743 99.6013 65.3152 99.6013 65.3152C99.6013 65.3152 91.8234 71.0072 90.7772 71.8291C90.6669 71.9157 89.2836 72.0853 89.1545 72.0308L84.9971 70.1244C84.6759 69.9889 85.2384 69.7863 85.564 69.662L96.3055 65.565C96.5254 65.4811 96.6201 65.2196 96.5003 65.0159C95.8825 63.9652 95.3048 63.2474 94.9582 62.8565C94.7933 62.6706 94.8195 62.3725 95.0264 62.2358C95.8783 61.6732 97.9509 60.178 98.7836 60.0272Z" fill="white"/>
<path d="M76.7613 55.0849L76.139 54.34C75.8833 54.0338 76.199 53.5855 76.5705 53.7271L89.1615 58.5293C89.1856 58.5384 89.2087 58.55 89.2304 58.5639C92.3213 60.5359 94.7865 63.6411 95.6065 64.7423C95.7574 64.945 95.6694 65.2319 95.4336 65.3202L86.9668 68.4912C86.8073 68.5509 86.6279 68.4983 86.5252 68.3618L80.347 60.15L76.7613 55.0849Z" fill="white"/>
<path d="M102.688 64.989C102.446 64.9812 102.279 64.7223 102.383 64.5018L103.299 62.554C103.306 62.5379 103.312 62.521 103.318 62.5042C103.399 62.2858 103.679 62.223 103.844 62.3874C103.856 62.3988 103.865 62.412 103.874 62.4256L105.397 64.8251C105.505 64.9947 105.389 65.1948 105.19 65.1768C104.573 65.121 103.473 65.014 102.688 64.989Z" fill="white"/>
<path d="M87.4526 72.5211C87.5212 72.3338 87.6886 72.0473 87.5103 71.9601L85.6679 71.0344C85.2439 70.8413 84.9171 70.6924 84.6651 70.5776C84.2553 70.3908 83.6003 70.6246 83.3979 71.0292L78.6318 80.556C78.6161 80.5875 78.6071 80.6201 78.601 80.6548C78.5136 81.1522 77.6551 84.1759 77.5829 84.4882C77.5763 84.5167 77.5942 84.4883 77.6128 84.4658L87.4526 72.5211Z" fill="white"/>
<path d="M90.2834 72.5685C90.3607 72.4825 90.2951 72.3453 90.1801 72.3526L88.1844 72.4782C88.1136 72.4826 88.0477 72.5164 88.0025 72.5715L82.3645 79.4351C82.3201 79.4891 82.3787 79.5631 82.44 79.5298C83.2046 79.115 85.4134 77.8524 86.8738 76.3629L90.2834 72.5685Z" fill="white"/>
<path d="M75.7002 63.4917C75.7002 63.4917 78.7491 62.6676 81.894 63.4867L83.8746 65.6442L86.1933 68.7786L84.9248 68.8337C84.8687 68.8361 84.8133 68.82 84.7672 68.7877L81.8255 66.7314L75.7002 63.4917Z" fill="white"/>
</g>
<defs>
<filter id="filter0_d_1669_29154" x="0" y="-12" width="180" height="180" filterUnits="userSpaceOnUse" color-interpolation-filters="sRGB">
<feFlood flood-opacity="0" result="BackgroundImageFix"/>
<feColorMatrix in="SourceAlpha" type="matrix" values="0 0 0 0 0 0 0 0 0 0 0 0 0 0 0 0 0 0 127 0" result="hardAlpha"/>
<feOffset dy="10"/>
<feGaussianBlur stdDeviation="30"/>
<feComposite in2="hardAlpha" operator="out"/>
<feColorMatrix type="matrix" values="0 0 0 0 0.0331478 0 0 0 0 0.0882685 0 0 0 0 0.128184 0 0 0 0.25 0"/>
<feBlend mode="normal" in2="BackgroundImageFix" result="effect1_dropShadow_1669_29154"/>
<feBlend mode="normal" in="SourceGraphic" in2="effect1_dropShadow_1669_29154" result="shape"/>
</filter>
</defs>
</svg>
