  <svg width="12" height="12" viewBox="0 0 12 12" fill="none" xmlns="http://www.w3.org/2000/svg">
<g clip-path="url(#clip0_12135_1174)">
<path d="M6.00008 1.66669C7.14935 1.66669 8.25155 2.12323 9.06421 2.93589C9.87687 3.74855 10.3334 4.85075 10.3334 6.00002C10.3334 7.14929 9.87687 8.25149 9.06421 9.06415C8.25155 9.87681 7.14935 10.3334 6.00008 10.3334C4.85081 10.3334 3.74861 9.87681 2.93595 9.06415C2.12329 8.25149 1.66675 7.14929 1.66675 6.00002C1.66675 4.85075 2.12329 3.74855 2.93595 2.93589C3.74861 2.12323 4.85081 1.66669 6.00008 1.66669ZM6.00008 11.3334C7.41457 11.3334 8.77112 10.7715 9.77132 9.77126C10.7715 8.77106 11.3334 7.41451 11.3334 6.00002C11.3334 4.58553 10.7715 3.22898 9.77132 2.22878C8.77112 1.22859 7.41457 0.666687 6.00008 0.666687C4.58559 0.666687 3.22904 1.22859 2.22885 2.22878C1.22865 3.22898 0.666748 4.58553 0.666748 6.00002C0.666748 7.41451 1.22865 8.77106 2.22885 9.77126C3.22904 10.7715 4.58559 11.3334 6.00008 11.3334ZM8.35425 5.02085C8.55008 4.82502 8.55008 4.50835 8.35425 4.3146C8.15841 4.12085 7.84175 4.11877 7.648 4.3146L5.3355 6.6271L4.35633 5.64794C4.1605 5.4521 3.84383 5.4521 3.65008 5.64794C3.45633 5.84377 3.45425 6.16044 3.65008 6.35419L4.98341 7.68752C5.17925 7.88335 5.49591 7.88335 5.68966 7.68752L8.35425 5.02085Z" fill="#8A9299"/>
</g>
<defs>
<clipPath id="clip0_12135_1174">
<rect width="10.6667" height="10.6667" fill="white" transform="translate(0.666748 0.666687)"/>
</clipPath>
</defs>
</svg>
